<svg version="1.1" xmlns="http://www.w3.org/2000/svg" xmlns:xlink="http://www.w3.org/1999/xlink" viewBox="0 0 172 172"><g transform="translate(0.516,0.516) scale(0.994,0.994)"><g fill="none" fill-rule="nonzero" stroke="none" stroke-width="1" stroke-linecap="butt" stroke-linejoin="none" stroke-miterlimit="10" stroke-dasharray="" stroke-dashoffset="0" font-family="none" font-weight="none" font-size="none" text-anchor="none" style="mix-blend-mode: normal"><g stroke="#cccccc" stroke-linejoin="round"><path d="M86,50.16667c0,-21.14167 10.75,-32.25 10.75,-32.25" fill="#ffffff"></path><path d="M89.58333,50.16667h-7.16667c0,-22.575 11.46667,-34.4 11.825,-34.75833l5.01667,5.01667c0,0 -9.675,10.39167 -9.675,29.74167z" fill="#795548"></path><path d="M35.83333,21.5c45.50833,-16.125 50.16667,28.66667 50.16667,28.66667c0,0 -45.15,17.91667 -50.16667,-28.66667z" fill="#4caf50"></path><path d="M22.575,92.80833c-6.80833,-35.83333 20.06667,-72.025 63.425,-42.64167c43.35833,-29.38333 70.23333,6.45 63.425,42.64167c-6.45,36.19167 -43.35833,70.23333 -63.425,45.86667c-20.06667,24.36667 -56.975,-9.675 -63.425,-45.86667z" fill="#d32f2f"></path><path d="M134.73333,55.54167c7.16667,8.6 10.03333,22.575 7.525,36.19167c-4.65833,26.51667 -25.8,48.01667 -40.13333,48.01667c-4.3,0 -7.525,-1.79167 -10.75,-5.375l-5.375,-6.45v-68.8l3.94167,-2.86667c9.675,-6.45 18.275,-9.675 26.15833,-9.675c7.525,0 13.975,3.225 18.63333,8.95833z" fill="#fff3e0"></path><path d="M112.875,93.88333c0,3.94167 -3.225,7.16667 -7.16667,7.16667c-3.94167,0 -7.16667,-3.225 -7.16667,-7.16667c0,-3.94167 7.16667,-12.18333 7.16667,-12.18333c0,0 7.16667,8.24167 7.16667,12.18333z" fill="#5d4037"></path><path d="M86,138.675c-20.06667,24.36667 -56.975,-9.675 -63.425,-45.86667c-6.80833,-35.83333 20.06667,-72.025 63.425,-42.64167z" fill="#f44336"></path></g><path d="M0,172v-172h172v172z" fill="none" stroke="none" stroke-linejoin="miter"></path><g stroke="none" stroke-linejoin="miter"><path d="M96.75,17.91667c0,0 -10.75,11.10833 -10.75,32.25" fill="#ffffff"></path><path d="M89.58333,50.16667h-7.16667c0,-22.575 11.46667,-34.4 11.825,-34.75833l5.01667,5.01667l-2.50833,-2.50833l2.50833,2.50833c0,0 -9.675,10.39167 -9.675,29.74167z" fill="#795548"></path><path d="M86,50.16667c0,0 -4.65833,-44.79167 -50.16667,-28.66667c5.01667,46.58333 50.16667,28.66667 50.16667,28.66667z" fill="#4caf50"></path><path d="M22.575,92.80833c-6.80833,-35.83333 20.06667,-72.025 63.425,-42.64167c43.35833,-29.38333 70.23333,6.45 63.425,42.64167c-6.45,36.19167 -43.35833,70.23333 -63.425,45.86667c-20.06667,24.36667 -56.975,-9.675 -63.425,-45.86667z" fill="#d32f2f"></path><path d="M116.1,46.58333c-7.88333,0 -16.48333,3.225 -26.15833,9.675l-3.94167,2.86667v68.8l5.375,6.45c3.225,3.58333 6.45,5.375 10.75,5.375c14.33333,0 35.475,-21.5 40.13333,-48.01667c2.50833,-13.61667 -0.35833,-27.59167 -7.525,-36.19167c-4.65833,-5.73333 -11.10833,-8.95833 -18.63333,-8.95833z" fill="#fff3e0"></path><path d="M112.875,93.88333c0,3.94167 -3.225,7.16667 -7.16667,7.16667c-3.94167,0 -7.16667,-3.225 -7.16667,-7.16667c0,-3.94167 7.16667,-12.18333 7.16667,-12.18333c0,0 7.16667,8.24167 7.16667,12.18333z" fill="#5d4037"></path><path d="M86,50.16667c-43.35833,-29.38333 -70.23333,6.80833 -63.425,42.64167c6.45,36.19167 43.35833,70.23333 63.425,45.86667z" fill="#f44336"></path></g><path d="" fill="none" stroke="none" stroke-linejoin="miter"></path></g></g></svg>