<svg version="1.1" xmlns="http://www.w3.org/2000/svg" xmlns:xlink="http://www.w3.org/1999/xlink" viewBox="0 0 172 172"><defs><linearGradient x1="42.97492" y1="158.34033" x2="161.22492" y2="34.94825" gradientUnits="userSpaceOnUse" id="color-1"><stop offset="0.24" stop-color="#fed100"></stop><stop offset="0.906" stop-color="#fed100"></stop><stop offset="1" stop-color="#fed100"></stop></linearGradient><linearGradient x1="139.8145" y1="38.69283" x2="17.66583" y2="210.40258" gradientUnits="userSpaceOnUse" id="color-2"><stop offset="0.266" stop-color="#febf00"></stop><stop offset="0.976" stop-color="#fec200"></stop><stop offset="1" stop-color="#e39401"></stop></linearGradient><linearGradient x1="42.97492" y1="158.34033" x2="161.22492" y2="34.94825" gradientUnits="userSpaceOnUse" id="color-3"><stop offset="0.24" stop-color="#fed100"></stop><stop offset="0.906" stop-color="#fed100"></stop><stop offset="1" stop-color="#fed100"></stop></linearGradient><linearGradient x1="139.8145" y1="38.69283" x2="17.66583" y2="210.40258" gradientUnits="userSpaceOnUse" id="color-4"><stop offset="0.266" stop-color="#febf00"></stop><stop offset="0.976" stop-color="#fec200"></stop><stop offset="1" stop-color="#e39401"></stop></linearGradient></defs><g transform="translate(0.516,0.516) scale(0.994,0.994)"><g fill="none" fill-rule="nonzero" stroke="none" stroke-width="1" stroke-linecap="butt" stroke-linejoin="none" stroke-miterlimit="10" stroke-dasharray="" stroke-dashoffset="0" font-family="none" font-weight="none" font-size="none" text-anchor="none" style="mix-blend-mode: normal"><g stroke="#cccccc" stroke-linejoin="round"><path d="M150.5,64.5c0,32.25 -46.58333,93.16667 -111.08333,93.16667c-3.87,0 -9.7825,0 -14.44083,-2.22167c-2.795,-1.36167 -5.12417,-3.47583 -6.235,-6.88c-0.5375,-1.505 -0.82417,-3.225 -0.82417,-5.23167c0,-0.17917 0,-0.35833 0.03583,-0.5375c0.86,-8.67167 22.0375,-21.24917 50.13083,-35.29583c19.78,-9.89 43,-35.83333 43,-50.16667c0,-1.36167 0.1075,-2.61583 0.28667,-3.7625c1.72,-11.21583 11.14417,-14.15417 17.63,-14.15417c0.50167,0 1.075,0.03583 1.64833,0.07167c3.225,0.215 7.31,1.1825 10.965,3.79833c4.87333,3.44 8.88667,9.81833 8.88667,21.21333z" fill="url(#color-1)"></path><path d="M150.5,64.5c0,32.25 -46.58333,93.16667 -111.08333,93.16667c-3.87,0 -9.7825,0 -14.44083,-2.22167c-2.54417,-1.25417 -4.73,-3.1175 -5.9125,-6.05583l6.02,-2.4725c0,0 108.43167,-25.8 107.67917,-89.26083c-0.17917,-14.65583 3.42208,-20.85142 12.3625,-11.10833h0.03583c3.1175,3.79833 5.33917,9.49583 5.33917,17.9525z" fill="url(#color-2)"></path><path d="M144.76667,46.1175l-2.18583,0.60917c-1.6125,0.46583 -3.87,1.86333 -5.23167,5.805c-1.00333,2.93833 -3.7625,4.90917 -6.80833,4.90917c-1.79167,0 -3.47583,-0.68083 -4.80167,-1.86333c-1.25417,-1.14667 -2.6875,-1.68417 -4.4075,-1.68417c-2.29333,0 -5.01667,0.93167 -8.13417,2.75917l-2.15,1.25417c0.03583,-0.17917 0.03583,-0.39417 0.03583,-0.57333c0,-0.5375 0,-1.03917 0.07167,-1.54083c0.03583,-0.78833 0.1075,-1.54083 0.215,-2.22167c4.01333,-2.365 7.27417,-3.26083 9.96167,-3.26083c2.93833,0 5.16,1.11083 6.80833,2.61583c0.71667,0.60917 1.54083,0.93167 2.40083,0.93167c1.46917,0 2.86667,-0.93167 3.44,-2.50833c1.935,-5.62583 5.51833,-7.45333 7.6325,-8.0625c0.57333,0.43 1.14667,0.86 1.72,1.36167c0.50167,0.46583 0.9675,0.93167 1.43333,1.46917zM114.77417,45.61583c-0.82417,1.00333 -1.54083,2.15 -2.11417,3.47583c0.50167,-1.32583 1.21833,-2.4725 2.0425,-3.47583c0,0 0.03583,0 0.07167,0z" fill="#000000" opacity="0.05"></path><path d="M143.33333,44.64833l-1.21833,0.35833c-2.0425,0.57333 -4.8375,2.2575 -6.45,6.95167c-0.78833,2.18583 -2.83083,3.69083 -5.12417,3.69083c-1.32583,0 -2.61583,-0.50167 -3.58333,-1.3975c-1.6125,-1.46917 -3.44,-2.15 -5.62583,-2.15c-2.61583,0 -5.66167,1.00333 -9.06583,3.01l-1.11083,0.68083c0.03583,-0.78833 0.1075,-1.54083 0.215,-2.22167c4.01333,-2.365 7.27417,-3.26083 9.96167,-3.26083c2.93833,0 5.16,1.11083 6.80833,2.61583c0.71667,0.60917 1.54083,0.93167 2.40083,0.93167c1.46917,0 2.86667,-0.93167 3.44,-2.50833c1.935,-5.62583 5.51833,-7.45333 7.6325,-8.0625c0.57333,0.43 1.14667,0.86 1.72,1.36167zM114.77417,45.61583c-0.82417,1.00333 -1.54083,2.15 -2.11417,3.47583c0.50167,-1.32583 1.21833,-2.4725 2.0425,-3.47583c0,0 0.03583,0 0.07167,0z" fill="#000000" opacity="0.07"></path><path d="M141.61333,43.28308c-2.107,0.602 -5.68675,2.43308 -7.64683,8.06967c-0.86,2.4725 -3.88075,3.31458 -5.81933,1.55517c-3.14975,-2.8595 -8.3635,-4.28925 -16.77717,0.65933c0.51958,-3.37908 1.78808,-5.93042 3.41492,-7.955c-0.03583,0.00358 -0.11825,0.01075 -0.11825,0.01075c3.01717,-6.03433 6.09167,-11.15133 -1.64475,-21.42475c-5.12775,-6.8155 0.65575,-14.84933 8.71108,-13.21533c0.08958,0.01792 0.17917,0.03942 0.27233,0.05733c2.03175,0.43717 3.41133,2.07117 3.41133,4.1495v6.31025c0,3.58333 1.86333,11.03667 16.19667,21.78308z" fill="#80c950"></path><path d="M24.97583,146.70167v8.74333c-4.01333,-1.935 -7.05917,-5.4825 -7.05917,-12.11167c0,-0.17917 0,-0.35833 0.03583,-0.5375c3.58333,2.75917 7.02333,3.90583 7.02333,3.90583z" fill="#e38101"></path></g><path d="M0,172v-172h172v172z" fill="none" stroke="none" stroke-linejoin="miter"></path><g stroke="none" stroke-linejoin="miter"><path d="M150.5,64.5c0,32.25 -46.58333,93.16667 -111.08333,93.16667c-3.87,0 -9.7825,0 -14.44083,-2.22167c-2.795,-1.36167 -5.12417,-3.47583 -6.235,-6.88c-0.5375,-1.505 -0.82417,-3.225 -0.82417,-5.23167c0,-0.17917 0,-0.35833 0.03583,-0.5375c0.86,-8.67167 22.0375,-21.24917 50.13083,-35.29583c19.78,-9.89 43,-35.83333 43,-50.16667c0,-1.36167 0.1075,-2.61583 0.28667,-3.7625c1.72,-11.21583 11.14417,-14.15417 17.63,-14.15417c0.50167,0 1.075,0.03583 1.64833,0.07167c3.225,0.215 7.31,1.1825 10.965,3.79833c4.87333,3.44 8.88667,9.81833 8.88667,21.21333z" fill="url(#color-3)"></path><path d="M150.5,64.5c0,32.25 -46.58333,93.16667 -111.08333,93.16667c-3.87,0 -9.7825,0 -14.44083,-2.22167c-2.54417,-1.25417 -4.73,-3.1175 -5.9125,-6.05583l6.02,-2.4725c0,0 108.43167,-25.8 107.67917,-89.26083c-0.17917,-14.65583 3.42208,-20.85142 12.3625,-11.10833h0.03583c3.1175,3.79833 5.33917,9.49583 5.33917,17.9525z" fill="url(#color-4)"></path><path d="M143.33333,44.64833c-0.57333,-0.50167 -1.14667,-0.93167 -1.72,-1.36167c-2.11417,0.60917 -5.6975,2.43667 -7.6325,8.0625c-0.57333,1.57667 -1.97083,2.50833 -3.44,2.50833c-0.86,0 -1.68417,-0.3225 -2.40083,-0.93167c-1.64833,-1.505 -3.87,-2.61583 -6.80833,-2.61583c-2.6875,0 -5.94833,0.89583 -9.96167,3.26083c-0.1075,0.68083 -0.17917,1.43333 -0.215,2.22167c-0.07167,0.50167 -0.07167,1.00333 -0.07167,1.54083c0,0.17917 0,0.39417 -0.03583,0.57333l2.15,-1.25417c3.1175,-1.8275 5.84083,-2.75917 8.13417,-2.75917c1.72,0 3.15333,0.5375 4.4075,1.68417c1.32583,1.1825 3.01,1.86333 4.80167,1.86333c3.04583,0 5.805,-1.97083 6.80833,-4.90917c1.36167,-3.94167 3.61917,-5.33917 5.23167,-5.805l2.18583,-0.60917c-0.46583,-0.5375 -0.93167,-1.00333 -1.43333,-1.46917zM114.7025,45.61583c-0.82417,1.00333 -1.54083,2.15 -2.0425,3.47583c0.57333,-1.32583 1.29,-2.4725 2.11417,-3.47583c-0.03583,0 -0.07167,0 -0.07167,0z" fill="#000000" opacity="0.05"></path><path d="M141.61333,43.28667c-2.11417,0.60917 -5.6975,2.43667 -7.6325,8.0625c-0.57333,1.57667 -1.97083,2.50833 -3.44,2.50833c-0.86,0 -1.68417,-0.3225 -2.40083,-0.93167c-1.64833,-1.505 -3.87,-2.61583 -6.80833,-2.61583c-2.6875,0 -5.94833,0.89583 -9.96167,3.26083c-0.1075,0.68083 -0.17917,1.43333 -0.215,2.22167l1.11083,-0.68083c3.40417,-2.00667 6.45,-3.01 9.06583,-3.01c2.18583,0 4.01333,0.68083 5.62583,2.15c0.9675,0.89583 2.2575,1.3975 3.58333,1.3975c2.29333,0 4.33583,-1.505 5.12417,-3.69083c1.6125,-4.69417 4.4075,-6.37833 6.45,-6.95167l1.21833,-0.35833c-0.57333,-0.50167 -1.14667,-0.93167 -1.72,-1.36167zM114.7025,45.61583c-0.82417,1.00333 -1.54083,2.15 -2.0425,3.47583c0.57333,-1.32583 1.29,-2.4725 2.11417,-3.47583c-0.03583,0 -0.07167,0 -0.07167,0z" fill="#000000" opacity="0.07"></path><path d="M125.41667,21.5v-6.31025c0,-2.07833 -1.37958,-3.71233 -3.41133,-4.1495c-0.09317,-0.01792 -0.18275,-0.03942 -0.27233,-0.05733c-8.05533,-1.634 -13.83883,6.39983 -8.71108,13.21533c7.73642,10.27342 4.66192,15.39042 1.64475,21.42475c0,0 0.08242,-0.00717 0.11825,-0.01075c-1.62683,2.02458 -2.89533,4.57592 -3.41492,7.955c8.41367,-4.94858 13.62742,-3.51883 16.77717,-0.65933c1.93858,1.75942 4.95933,0.91733 5.81933,-1.55517c1.96008,-5.63658 5.53983,-7.46767 7.64683,-8.06967c-14.33333,-10.74642 -16.19667,-18.19975 -16.19667,-21.78308z" fill="#80c950"></path><path d="M24.97583,146.70167v8.74333c-4.01333,-1.935 -7.05917,-5.4825 -7.05917,-12.11167c0,-0.17917 0,-0.35833 0.03583,-0.5375c3.58333,2.75917 7.02333,3.90583 7.02333,3.90583z" fill="#e38101"></path></g><path d="" fill="none" stroke="none" stroke-linejoin="miter"></path></g></g></svg>