<svg version="1.1" xmlns="http://www.w3.org/2000/svg" xmlns:xlink="http://www.w3.org/1999/xlink" viewBox="0 0 172 172"><g transform="translate(0.43,0.43) scale(0.995,0.995)"><g fill="none" fill-rule="nonzero" stroke="none" stroke-width="1" stroke-linecap="butt" stroke-linejoin="none" stroke-miterlimit="10" stroke-dasharray="" stroke-dashoffset="0" font-family="none" font-weight="none" font-size="none" text-anchor="none" style="mix-blend-mode: normal"><g stroke="#cccccc" stroke-linejoin="round"><path d="M25.08333,93.16667c-0.27592,-2.35425 0,-15.48717 0,-17.91667c0,-33.64392 27.27275,-60.91667 60.91667,-60.91667c33.64392,0 60.91667,27.27275 60.91667,60.91667c0,2.4295 0.27592,15.56242 0,17.91667h-10.75c0.33683,-2.34708 0,-15.47642 0,-17.91667c0,-27.66333 -22.50333,-50.16667 -50.16667,-50.16667c-27.66333,0 -50.16667,22.50333 -50.16667,50.16667c0,2.44025 -0.33683,15.56958 0,17.91667z" fill="#795548"></path><path d="M132.12825,38.57817c8.00517,-13.45542 19.55783,-20.08817 27.03625,-15.77025c7.47842,4.31792 7.68983,17.7375 -0.13975,31.29683c-5.3965,9.34533 -15.67708,13.36225 -23.15192,9.04433c-7.47842,-4.31075 -9.26292,-15.29725 -3.74458,-24.57092z" fill="#ffd54f"></path><path d="M132.12825,38.57817l26.8965,15.52658l-34.9375,60.51533l-26.8965,-15.52658z" fill="#ffd54f"></path><path d="M123.83642,60.70167c0,0 7.18817,-5.65808 15.42983,-7.48917c8.24167,-1.83108 14.44442,2.32558 14.44442,2.32558c0,0 -7.19533,5.38217 -15.437,7.20967c-8.24167,1.8275 -14.43725,-2.04608 -14.43725,-2.04608zM110.252,84.23342c0,0 7.18817,-5.65808 15.42983,-7.48917c8.24167,-1.8275 14.44442,2.32558 14.44442,2.32558c0,0 -7.19533,5.38217 -15.437,7.20967c-8.23808,1.8275 -14.43725,-2.04608 -14.43725,-2.04608z" fill="#ffb300"></path><path d="M99.4375,83.42h-5.375c0,-5.5255 0,-9.17333 6.16333,-15.33667l3.80192,3.79833c-4.59025,4.59025 -4.59025,6.3425 -4.59025,11.53833z" fill="#795548"></path><path d="M94.51758,70.99658c4.816,3.46867 5.58283,10.64608 5.58283,10.64608c0,0 -7.04483,1.548 -11.86442,-1.92067c-4.816,-3.46867 -5.58283,-10.64608 -5.58283,-10.64608c0,0 7.04842,-1.548 11.86442,1.92067z" fill="#4caf50"></path><path d="M118.25,94.17c0,10.75 -13.40883,24.16242 -21.47133,16.17875l-0.02867,-0.02508c-8.0625,8.03742 -21.5,-5.40008 -21.5,-16.15008c0,-13.4375 8.0625,-21.5 21.5,-13.4375c0.45508,-0.26875 0.91375,-0.5375 1.36883,-0.78117c3.225,-1.72 6.1275,-2.4725 8.65375,-2.44742c7.31358,0.13617 11.47742,7.04125 11.47742,16.6625z" fill="#f44336"></path><path d="M83.8232,95.47827c-1.76195,-0.72115 -2.21249,-3.69475 -1.00632,-6.6417c1.20617,-2.94696 3.61231,-4.75133 5.37426,-4.03017c1.76195,0.72115 2.21249,3.69475 1.00632,6.6417c-1.20617,2.94696 -3.61231,4.75133 -5.37426,4.03017z" fill="#ffccbc"></path><path d="M82.41667,95.38475l-2.63017,55.34458c0,1.45483 -1.17175,2.63375 -2.62658,2.63375h-28.90675c-1.44767,0 -2.62658,-1.17533 -2.62658,-2.63375l-2.62658,-55.34458c0,-5.91967 3.22142,-11.17283 7.90483,-14.54833l-0.0645,-0.02508c5.70467,-3.4185 5.29617,-7.52142 5.29617,-8.97625v-0.16483h13.14008c0,1.45483 -0.4515,5.72258 5.25675,9.14108l-0.06808,0.02508c4.70492,3.37908 7.95142,8.62867 7.95142,14.54833z" fill="#558b2f"></path><path d="M69.10458,53.4275v18.23917h-12.79608v-18.24275c-1.41183,0 -2.5585,-1.16817 -2.5585,-2.60508v-5.21375c0,-1.43692 1.14667,-2.60508 2.56208,-2.60508h12.79608c1.41542,0 2.5585,1.16817 2.5585,2.60867v5.21375c0,1.43692 -1.14308,2.60508 -2.5585,2.60508z" fill="#d32f2f"></path><path d="M56.14008,68.08333h13.14008v3.58333h-13.14008z" fill="#ffc107"></path><path d="M18.00625,107.5h136.07708c-0.559,17.79125 -9.80758,39.84308 -25.08333,50.16667h-86c-15.27575,-10.32358 -24.43475,-32.37542 -24.99375,-50.16667z" fill="#795548"></path><path d="M154.08333,107.5h-136.16667c-3.95958,0 -7.16667,-3.20708 -7.16667,-7.16667c0,-3.95958 3.20708,-7.16667 7.16667,-7.16667h136.16667c3.95958,0 7.16667,3.20708 7.16667,7.16667c0,3.95958 -3.20708,7.16667 -7.16667,7.16667z" fill="#5d4037"></path><path d="M75.25,136.16667v-7.16667h21.5v7.16667z" fill="#5d4037"></path><path d="M89.58333,150.5v-7.16667h21.5v7.16667z" fill="#5d4037"></path><path d="M60.91667,150.5v-7.16667h21.5v7.16667z" fill="#5d4037"></path><path d="M89.58333,121.83333v-7.16667h21.5v7.16667z" fill="#5d4037"></path><path d="M46.58333,136.16667v-7.16667h21.5v7.16667z" fill="#5d4037"></path><path d="M32.25,121.83333v-7.16667h21.5v7.16667z" fill="#5d4037"></path><path d="M60.91667,121.83333v-7.16667h21.5v7.16667z" fill="#5d4037"></path><path d="M149.72242,129c-0.88867,2.43308 -1.9135,4.83033 -3.06017,7.16667h-14.07892v-7.16667z" fill="#5d4037"></path><path d="M137.13417,150.5h-18.88417v-7.16667h24.34517c-1.66267,2.55133 -3.47583,4.9665 -5.461,7.16667z" fill="#5d4037"></path><path d="M153.41683,114.66667c-0.35475,2.365 -0.84567,4.76225 -1.462,7.16667h-5.03817v-7.16667z" fill="#5d4037"></path><path d="M53.75,150.5h-18.87342c-1.978,-2.20017 -3.78758,-4.61533 -5.44308,-7.16667h24.3165z" fill="#5d4037"></path><path d="M118.25,121.83333v-7.16667h21.5v7.16667z" fill="#5d4037"></path><path d="M103.91667,136.16667v-7.16667h21.5v7.16667z" fill="#5d4037"></path><path d="M25.08333,114.66667v7.16667h-4.96292c-0.61275,-2.40442 -1.10008,-4.80167 -1.45125,-7.16667z" fill="#5d4037"></path><path d="M39.41667,136.16667h-14.0395c-1.13592,-2.33633 -2.15717,-4.73358 -3.04225,-7.16667h17.08175z" fill="#5d4037"></path></g><path d="M0,172v-172h172v172z" fill="none" stroke="none" stroke-linejoin="miter"></path><g stroke="none" stroke-linejoin="miter"><path d="M35.83333,93.16667c-0.33683,-2.34708 0,-15.47642 0,-17.91667c0,-27.66333 22.50333,-50.16667 50.16667,-50.16667c27.66333,0 50.16667,22.50333 50.16667,50.16667c0,2.44025 0.33683,15.56958 0,17.91667h10.75c0.27592,-2.35425 0,-15.48717 0,-17.91667c0,-33.64392 -27.27275,-60.91667 -60.91667,-60.91667c-33.64392,0 -60.91667,27.27275 -60.91667,60.91667c0,2.4295 -0.27592,15.56242 0,17.91667z" fill="#795548"></path><path d="M132.12825,38.57817c8.00517,-13.45542 19.55783,-20.08817 27.03625,-15.77025c7.47842,4.31792 7.68983,17.7375 -0.13975,31.29683c-5.3965,9.34533 -15.67708,13.36225 -23.15192,9.04433c-7.47842,-4.31075 -9.26292,-15.29725 -3.74458,-24.57092z" fill="#ffd54f"></path><path d="M132.12825,38.57817l26.8965,15.52658l-34.9375,60.51533l-26.8965,-15.52658z" fill="#ffd54f"></path><path d="M123.83642,60.70167c0,0 7.18817,-5.65808 15.42983,-7.48917c8.24167,-1.83108 14.44442,2.32558 14.44442,2.32558c0,0 -7.19533,5.38217 -15.437,7.20967c-8.24167,1.8275 -14.43725,-2.04608 -14.43725,-2.04608zM110.252,84.23342c0,0 7.18817,-5.65808 15.42983,-7.48917c8.24167,-1.8275 14.44442,2.32558 14.44442,2.32558c0,0 -7.19533,5.38217 -15.437,7.20967c-8.23808,1.8275 -14.43725,-2.04608 -14.43725,-2.04608z" fill="#ffb300"></path><path d="M99.4375,83.42h-5.375c0,-5.5255 0,-9.17333 6.16333,-15.33667l3.80192,3.79833c-4.59025,4.59025 -4.59025,6.3425 -4.59025,11.53833z" fill="#795548"></path><path d="M94.51758,70.99658c4.816,3.46867 5.58283,10.64608 5.58283,10.64608c0,0 -7.04483,1.548 -11.86442,-1.92067c-4.816,-3.46867 -5.58283,-10.64608 -5.58283,-10.64608c0,0 7.04842,-1.548 11.86442,1.92067z" fill="#4caf50"></path><path d="M118.25,94.17c0,10.75 -13.40883,24.16242 -21.47133,16.17875l-0.02867,-0.02508c-8.0625,8.03742 -21.5,-5.40008 -21.5,-16.15008c0,-13.4375 8.0625,-21.5 21.5,-13.4375c0.45508,-0.26875 0.91375,-0.5375 1.36883,-0.78117c3.225,-1.72 6.1275,-2.4725 8.65375,-2.44742c7.31358,0.13617 11.47742,7.04125 11.47742,16.6625z" fill="#f44336"></path><ellipse cx="-14.18959" cy="31.74234" transform="rotate(-67.741) scale(3.58333,3.58333)" rx="1.609" ry="0.962" fill="#ffccbc"></ellipse><path d="M74.46525,80.83642l0.06808,-0.02508c-5.70825,-3.4185 -5.25675,-7.68625 -5.25675,-9.14108h-13.14008v0.16483c0,1.45483 0.4085,5.55775 -5.29617,8.97625l0.0645,0.02508c-4.68342,3.3755 -7.90483,8.62867 -7.90483,14.54833l2.62658,55.34458c0,1.45842 1.17892,2.63375 2.62658,2.63375h28.90675c1.45483,0 2.62658,-1.17892 2.62658,-2.63375l2.63017,-55.34458c0,-5.91967 -3.2465,-11.16925 -7.95142,-14.54833z" fill="#558b2f"></path><path d="M69.10817,53.4275c1.41542,0 2.5585,-1.16817 2.5585,-2.60508v-5.21375c0,-1.4405 -1.14308,-2.60867 -2.5585,-2.60867h-12.79608c-1.41542,0 -2.56208,1.16817 -2.56208,2.60508v5.21375c0,1.43692 1.14667,2.60508 2.5585,2.60508v18.24275h12.79608v-18.23917z" fill="#d32f2f"></path><path d="M56.14008,68.08333h13.14008v3.58333h-13.14008z" fill="#ffc107"></path><path d="M43,157.66667h86c15.27575,-10.32358 24.52433,-32.37542 25.08333,-50.16667h-136.07708c0.559,17.79125 9.718,39.84308 24.99375,50.16667z" fill="#795548"></path><path d="M154.08333,107.5h-136.16667c-3.95958,0 -7.16667,-3.20708 -7.16667,-7.16667v0c0,-3.95958 3.20708,-7.16667 7.16667,-7.16667h136.16667c3.95958,0 7.16667,3.20708 7.16667,7.16667v0c0,3.95958 -3.20708,7.16667 -7.16667,7.16667z" fill="#5d4037"></path><rect x="21" y="36" transform="scale(3.58333,3.58333)" width="6" height="2" fill="#5d4037"></rect><rect x="25" y="40" transform="scale(3.58333,3.58333)" width="6" height="2" fill="#5d4037"></rect><rect x="17" y="40" transform="scale(3.58333,3.58333)" width="6" height="2" fill="#5d4037"></rect><rect x="25" y="32" transform="scale(3.58333,3.58333)" width="6" height="2" fill="#5d4037"></rect><rect x="13" y="36" transform="scale(3.58333,3.58333)" width="6" height="2" fill="#5d4037"></rect><rect x="9" y="32" transform="scale(3.58333,3.58333)" width="6" height="2" fill="#5d4037"></rect><rect x="17" y="32" transform="scale(3.58333,3.58333)" width="6" height="2" fill="#5d4037"></rect><path d="M132.58333,129v7.16667h14.07892c1.14667,-2.33633 2.1715,-4.73358 3.06017,-7.16667z" fill="#5d4037"></path><path d="M142.59517,143.33333h-24.34517v7.16667h18.88417c1.98517,-2.20017 3.79833,-4.61533 5.461,-7.16667z" fill="#5d4037"></path><path d="M146.91667,114.66667v7.16667h5.03817c0.61633,-2.40442 1.10725,-4.80167 1.462,-7.16667z" fill="#5d4037"></path><path d="M53.75,143.33333h-24.3165c1.6555,2.55133 3.46508,4.9665 5.44308,7.16667h18.87342z" fill="#5d4037"></path><rect x="33" y="32" transform="scale(3.58333,3.58333)" width="6" height="2" fill="#5d4037"></rect><rect x="29" y="36" transform="scale(3.58333,3.58333)" width="6" height="2" fill="#5d4037"></rect><path d="M18.66917,114.66667c0.35117,2.365 0.8385,4.76225 1.45125,7.16667h4.96292v-7.16667z" fill="#5d4037"></path><path d="M39.41667,129h-17.08175c0.88508,2.43308 1.90633,4.83033 3.04225,7.16667h14.0395z" fill="#5d4037"></path></g><path d="" fill="none" stroke="none" stroke-linejoin="miter"></path></g></g></svg>