<svg version="1.1" xmlns="http://www.w3.org/2000/svg" xmlns:xlink="http://www.w3.org/1999/xlink" viewBox="0 0 172 172"><g transform="translate(0.516,0.516) scale(0.994,0.994)"><g fill="none" fill-rule="nonzero" stroke="none" stroke-width="1" stroke-linecap="butt" stroke-linejoin="none" stroke-miterlimit="10" stroke-dasharray="" stroke-dashoffset="0" font-family="none" font-weight="none" font-size="none" text-anchor="none" style="mix-blend-mode: normal"><g stroke="#cccccc" stroke-linejoin="round"><path d="M91.01667,30.1l-43,43c-1.43333,1.43333 -3.225,2.15 -5.01667,2.15c-1.79167,0 -3.58333,-0.71667 -5.01667,-2.15c-2.86667,-2.86667 -2.86667,-7.16667 0,-10.03333l43,-43c2.86667,-2.86667 7.16667,-2.86667 10.03333,0c2.86667,2.86667 2.86667,7.16667 0,10.03333z" fill="#607d8b"></path><path d="M134.01667,73.1c-1.43333,1.43333 -3.225,2.15 -5.01667,2.15c-1.79167,0 -3.58333,-0.71667 -5.01667,-2.15l-43,-43c-2.86667,-2.86667 -2.86667,-7.16667 0,-10.03333c2.86667,-2.86667 7.16667,-2.86667 10.03333,0l43,43c2.86667,2.86667 2.86667,7.16667 0,10.03333z" fill="#455a64"></path><path d="M134.01667,146.91667h-96.03333c-3.58333,0 -6.45,-2.50833 -7.16667,-5.73333l-12.9,-65.93333h136.16667l-13.25833,65.93333c-0.71667,3.225 -3.58333,5.73333 -6.80833,5.73333z" fill="#d32f2f"></path><path d="M154.08333,82.41667h-136.16667c-3.94167,0 -7.16667,-3.225 -7.16667,-7.16667v-7.16667c0,-3.94167 3.225,-7.16667 7.16667,-7.16667h136.16667c3.94167,0 7.16667,3.225 7.16667,7.16667v7.16667c0,3.94167 -3.225,7.16667 -7.16667,7.16667z" fill="#f44336"></path><path d="M89.58333,129c0,2.15 -1.43333,3.58333 -3.58333,3.58333c-2.15,0 -3.58333,-1.43333 -3.58333,-3.58333c0,-0.71667 0,-39.41667 0,-39.41667h7.16667c0,0 0,38.7 0,39.41667zM103.91667,129c0,2.15 -1.43333,3.58333 -3.58333,3.58333c-2.15,0 -3.58333,-1.43333 -3.58333,-3.58333c0,-0.71667 0,-39.41667 0,-39.41667h7.16667c0,0 0,38.7 0,39.41667zM118.25,129c0,2.15 -1.43333,3.58333 -3.58333,3.58333c-2.15,0 -3.58333,-1.43333 -3.58333,-3.58333c0,-0.71667 0,-39.41667 0,-39.41667h7.16667c0,0 0,38.7 0,39.41667zM60.91667,129c0,2.15 -1.43333,3.58333 -3.58333,3.58333c-2.15,0 -3.58333,-1.43333 -3.58333,-3.58333c0,-0.71667 0,-39.41667 0,-39.41667h7.16667c0,0 0,38.7 0,39.41667zM75.25,129c0,2.15 -1.43333,3.58333 -3.58333,3.58333c-2.15,0 -3.58333,-1.43333 -3.58333,-3.58333c0,-0.71667 0,-39.41667 0,-39.41667h7.16667c0,0 0,38.7 0,39.41667z" fill="#7d1313"></path></g><path d="M0,172v-172h172v172z" fill="none" stroke="none" stroke-linejoin="miter"></path><g stroke="none" stroke-linejoin="miter"><path d="M91.01667,20.06667c-2.86667,-2.86667 -7.16667,-2.86667 -10.03333,0l-43,43c-2.86667,2.86667 -2.86667,7.16667 0,10.03333c1.43333,1.43333 3.225,2.15 5.01667,2.15c1.79167,0 3.58333,-0.71667 5.01667,-2.15l43,-43c2.86667,-2.86667 2.86667,-7.16667 0,-10.03333z" fill="#607d8b"></path><path d="M134.01667,63.06667l-43,-43c-2.86667,-2.86667 -7.16667,-2.86667 -10.03333,0c-2.86667,2.86667 -2.86667,7.16667 0,10.03333l43,43c1.43333,1.43333 3.225,2.15 5.01667,2.15c1.79167,0 3.58333,-0.71667 5.01667,-2.15c2.86667,-2.86667 2.86667,-7.16667 0,-10.03333z" fill="#455a64"></path><path d="M134.01667,146.91667h-96.03333c-3.58333,0 -6.45,-2.50833 -7.16667,-5.73333l-12.9,-65.93333h136.16667l-13.25833,65.93333c-0.71667,3.225 -3.58333,5.73333 -6.80833,5.73333z" fill="#d32f2f"></path><path d="M154.08333,82.41667h-136.16667c-3.94167,0 -7.16667,-3.225 -7.16667,-7.16667v-7.16667c0,-3.94167 3.225,-7.16667 7.16667,-7.16667h136.16667c3.94167,0 7.16667,3.225 7.16667,7.16667v7.16667c0,3.94167 -3.225,7.16667 -7.16667,7.16667z" fill="#f44336"></path><path d="M89.58333,89.58333h-7.16667c0,0 0,38.7 0,39.41667c0,2.15 1.43333,3.58333 3.58333,3.58333c2.15,0 3.58333,-1.43333 3.58333,-3.58333c0,-0.71667 0,-39.41667 0,-39.41667zM103.91667,89.58333h-7.16667c0,0 0,38.7 0,39.41667c0,2.15 1.43333,3.58333 3.58333,3.58333c2.15,0 3.58333,-1.43333 3.58333,-3.58333c0,-0.71667 0,-39.41667 0,-39.41667zM118.25,89.58333h-7.16667c0,0 0,38.7 0,39.41667c0,2.15 1.43333,3.58333 3.58333,3.58333c2.15,0 3.58333,-1.43333 3.58333,-3.58333c0,-0.71667 0,-39.41667 0,-39.41667zM60.91667,89.58333h-7.16667c0,0 0,38.7 0,39.41667c0,2.15 1.43333,3.58333 3.58333,3.58333c2.15,0 3.58333,-1.43333 3.58333,-3.58333c0,-0.71667 0,-39.41667 0,-39.41667zM75.25,89.58333h-7.16667c0,0 0,38.7 0,39.41667c0,2.15 1.43333,3.58333 3.58333,3.58333c2.15,0 3.58333,-1.43333 3.58333,-3.58333c0,-0.71667 0,-39.41667 0,-39.41667z" fill="#7d1313"></path></g><path d="" fill="none" stroke="none" stroke-linejoin="miter"></path></g></g></svg>