<svg version="1.1" xmlns="http://www.w3.org/2000/svg" xmlns:xlink="http://www.w3.org/1999/xlink" viewBox="0 0 172 172"><g transform="translate(0.516,0.516) scale(0.994,0.994)"><g fill="none" fill-rule="nonzero" stroke="none" stroke-width="1" stroke-linecap="butt" stroke-linejoin="none" stroke-miterlimit="10" stroke-dasharray="" stroke-dashoffset="0" font-family="none" font-weight="none" font-size="none" text-anchor="none" style="mix-blend-mode: normal"><g stroke="#cccccc" stroke-linejoin="round"><path d="M86,71.66308c0,15.83216 -12.8345,28.66667 -28.66667,28.66667c-15.83216,0 -28.66667,-12.8345 -28.66667,-28.66667c0,-15.83216 12.8345,-28.66667 28.66667,-28.66667c15.83216,0 28.66667,12.8345 28.66667,28.66667z" fill="#ffb300"></path><path d="M89.58333,121.82975c0,15.83216 -12.8345,28.66667 -28.66667,28.66667c-15.83216,0 -28.66667,-12.8345 -28.66667,-28.66667c0,-15.83216 12.8345,-28.66667 28.66667,-28.66667c15.83216,0 28.66667,12.8345 28.66667,28.66667z" fill="#ffb300"></path><path d="M136.16667,145.4045c0,2.81292 -2.27542,5.0955 -5.074,5.0955h-50.76508c-2.80217,0 -5.07758,-2.28258 -5.07758,-5.0955v-52.6965c0,-22.09842 13.53783,-16.99575 13.53783,-64.58958c6.76533,0 33.84458,0 33.84458,0c0,47.59383 13.53425,42.49117 13.53425,64.58958z" fill="#90caf9"></path><path d="M125.41667,26.87858c0,2.967 -2.20733,5.37142 -4.92708,5.37142h-29.5625c-2.71975,0 -4.92708,-2.40442 -4.92708,-5.37142v-3.58333c0,-2.967 2.20733,-5.37858 4.92708,-5.37858h29.5625c2.71975,0 4.92708,2.41158 4.92708,5.37858z" fill="#9c27b0"></path><path d="M129.39775,138.60333c0,0.94242 -0.75608,1.70208 -1.69492,1.70208h-43.99258c-0.93525,0 -1.69492,-0.75967 -1.69492,-1.70208v-45.89533c0,-7.353 1.6555,-10.69267 4.16025,-15.75233c2.26108,-4.558 4.80525,-9.74667 6.68292,-18.24633h25.69967c1.87408,8.49967 4.42183,13.68475 6.68292,18.24633c2.50117,5.05608 4.15667,8.39933 4.15667,15.75233z" fill="#fafafa"></path><path d="M143.33333,93.17025l-7.16667,57.32975h-100.33333l-7.16667,-57.32975zM53.75,125.41667h-7.16667v14.33333h7.16667zM53.75,103.91667h-7.16667v14.33333h7.16667zM71.66667,125.41667h-7.16667v14.33333h7.16667zM71.66667,103.91667h-7.16667v14.33333h7.16667zM89.58333,125.41667h-7.16667v14.33333h7.16667zM89.58333,103.91667h-7.16667v14.33333h7.16667zM107.5,125.41667h-7.16667v14.33333h7.16667zM107.5,103.91667h-7.16667v14.33333h7.16667zM125.41667,125.41667h-7.16667v14.33333h7.16667zM125.41667,103.91667h-7.16667v14.33333h7.16667z" fill="#e91e63"></path><path d="M148.68683,93.17025c0,1.978 -1.60175,3.58333 -3.58333,3.58333h-118.207c-1.978,0 -3.58333,-1.60533 -3.58333,-3.58333v-7.17025c0,-1.978 1.60533,-3.58333 3.58333,-3.58333h118.207c1.98158,0 3.58333,1.60533 3.58333,3.58333z" fill="#ad1457"></path><path d="M25.08333,35.83692c28.66667,-3.58333 32.25,19.81225 32.25,19.81225c0,0 -25.08333,5.27108 -32.25,-19.81225z" fill="#4caf50"></path></g><path d="M0,172v-172h172v172z" fill="none" stroke="none" stroke-linejoin="miter"></path><g stroke="none" stroke-linejoin="miter"><path d="M57.33333,42.99642c-15.83216,0 -28.66667,12.8345 -28.66667,28.66667c0,15.83216 12.8345,28.66667 28.66667,28.66667c15.83216,0 28.66667,-12.8345 28.66667,-28.66667c0,-15.83216 -12.8345,-28.66667 -28.66667,-28.66667z" fill="#ffb300"></path><path d="M60.91667,93.16308c-15.83216,0 -28.66667,12.8345 -28.66667,28.66667c0,15.83216 12.8345,28.66667 28.66667,28.66667c15.83216,0 28.66667,-12.8345 28.66667,-28.66667c0,-15.83216 -12.8345,-28.66667 -28.66667,-28.66667z" fill="#ffb300"></path><path d="M136.16667,92.708c0,-22.09842 -13.53425,-16.99575 -13.53425,-64.58958c0,0 -27.07925,0 -33.84458,0c0,47.59383 -13.53783,42.49117 -13.53783,64.58958v52.6965c0,2.81292 2.27542,5.0955 5.07758,5.0955h50.76508c2.79858,0 5.074,-2.28258 5.074,-5.0955z" fill="#90caf9"></path><path d="M125.41667,26.87858c0,2.967 -2.20733,5.37142 -4.92708,5.37142h-29.5625c-2.71975,0 -4.92708,-2.40442 -4.92708,-5.37142v-3.58333c0,-2.967 2.20733,-5.37858 4.92708,-5.37858h29.5625c2.71975,0 4.92708,2.41158 4.92708,5.37858z" fill="#9c27b0"></path><path d="M129.39775,138.60333c0,0.94242 -0.75608,1.70208 -1.69492,1.70208h-43.99258c-0.93525,0 -1.69492,-0.75967 -1.69492,-1.70208v-45.89533c0,-7.353 1.6555,-10.69267 4.16025,-15.75233c2.26108,-4.558 4.80525,-9.74667 6.68292,-18.24633h25.69967c1.87408,8.49967 4.42183,13.68475 6.68292,18.24633c2.50117,5.05608 4.15667,8.39933 4.15667,15.75233z" fill="#fafafa"></path><path d="M28.66667,93.17025l7.16667,57.32975h100.33333l7.16667,-57.32975zM53.75,139.75h-7.16667v-14.33333h7.16667zM53.75,118.25h-7.16667v-14.33333h7.16667zM71.66667,139.75h-7.16667v-14.33333h7.16667zM71.66667,118.25h-7.16667v-14.33333h7.16667zM89.58333,139.75h-7.16667v-14.33333h7.16667zM89.58333,118.25h-7.16667v-14.33333h7.16667zM107.5,139.75h-7.16667v-14.33333h7.16667zM107.5,118.25h-7.16667v-14.33333h7.16667zM125.41667,139.75h-7.16667v-14.33333h7.16667zM125.41667,118.25h-7.16667v-14.33333h7.16667z" fill="#e91e63"></path><path d="M148.68683,86c0,-1.978 -1.60175,-3.58333 -3.58333,-3.58333h-118.207c-1.978,0 -3.58333,1.60533 -3.58333,3.58333v7.17025c0,1.978 1.60533,3.58333 3.58333,3.58333h118.207c1.98158,0 3.58333,-1.60533 3.58333,-3.58333z" fill="#ad1457"></path><path d="M57.33333,55.64917c0,0 -3.58333,-23.39558 -32.25,-19.81225c7.16667,25.08333 32.25,19.81225 32.25,19.81225z" fill="#4caf50"></path></g><path d="" fill="none" stroke="none" stroke-linejoin="miter"></path></g></g></svg>