<svg version="1.1" xmlns="http://www.w3.org/2000/svg" xmlns:xlink="http://www.w3.org/1999/xlink" viewBox="0 0 172 172"><g transform="translate(0.43,0.43) scale(0.995,0.995)"><g fill="none" fill-rule="nonzero" stroke="none" stroke-width="1" stroke-linecap="butt" stroke-linejoin="none" stroke-miterlimit="10" stroke-dasharray="" stroke-dashoffset="0" font-family="none" font-weight="none" font-size="none" text-anchor="none" style="mix-blend-mode: normal"><g stroke="#cccccc" stroke-linejoin="round"><path d="M78.83333,157.66667c-6.80833,0 -12.9,-3.58333 -16.125,-7.88333c-7.16667,1.075 -16.125,-0.71667 -20.06667,-6.45c-6.45,-8.6 -4.3,-17.91667 -2.86667,-21.85833c0,-0.35833 0.35833,-0.71667 0.35833,-0.71667l10.03333,-15.05c0.71667,-1.43333 2.50833,-1.79167 3.94167,-1.43333l44.075,17.2c1.79167,0.35833 2.50833,2.15 2.50833,3.94167l-4.3,23.29167c0,0.71667 -0.35833,1.075 -0.71667,1.43333c-0.35833,0.35833 -5.01667,6.45 -14.69167,7.16667c-0.71667,0.35833 -1.43333,0.35833 -2.15,0.35833z" fill="#558b2f"></path><path d="M93.88333,151.93333c-7.88333,0.71667 -15.40833,-5.375 -17.55833,-12.18333c0,-0.71667 0,-1.075 -0.35833,-1.79167c-5.375,-1.43333 -10.39167,-3.58333 -14.69167,-6.45c-1.79167,1.075 -3.58333,1.43333 -5.375,1.79167c-3.225,0.71667 -10.75,0.35833 -17.2,-7.525c2.86667,1.075 6.09167,1.43333 8.6,1.43333c2.86667,0 5.375,-0.35833 6.45,-0.71667c0.35833,0 0.71667,0 0.71667,0c2.50833,-0.35833 5.01667,-1.43333 7.16667,-2.86667c2.15,1.43333 4.3,2.86667 6.80833,3.94167c0.71667,0.35833 1.075,0.35833 1.79167,0.71667c0.71667,0.35833 1.43333,0.71667 2.15,1.075c0.71667,0.35833 1.075,0.35833 1.79167,0.71667c2.50833,1.075 5.01667,1.79167 7.525,2.15c0.71667,2.86667 1.075,4.65833 1.43333,5.375c0.35833,0.71667 0.35833,1.43333 0.71667,2.15c0.71667,2.50833 2.15,5.01667 3.94167,7.16667c1.79167,2.15 3.58333,3.94167 6.09167,5.01667z" fill="#33691e"></path><path d="M47.3,126.85c-5.73333,0 -13.975,-1.43333 -19.35,-8.95833c-3.58333,-5.375 -4.3,-15.05 -1.075,-21.5c-6.09167,-5.375 -11.825,-16.84167 -7.88333,-28.66667c3.58333,-11.10833 13.61667,-16.125 20.425,-17.91667c0,-5.375 1.43333,-11.825 6.80833,-17.2c9.31667,-9.675 21.5,-7.16667 22.21667,-7.16667c1.79167,0.35833 2.86667,2.15 2.50833,3.94167l1.43333,84.20833c-0.35833,1.43333 -9.31667,11.46667 -17.91667,12.9c0,-0.35833 -3.225,0.35833 -7.16667,0.35833z" fill="#7cb342"></path><path d="M154.08333,117.53333c-1.43333,5.375 -4.65833,9.675 -10.03333,12.54167c1.075,6.80833 -2.50833,15.76667 -8.6,19.35c-6.09167,3.58333 -14.69167,3.225 -19.70833,1.43333c-3.225,2.15 -7.88333,3.225 -11.825,3.225c-2.15,0 -4.3,-0.35833 -6.09167,-0.71667c-6.80833,-2.15 -12.18333,-8.24167 -14.33333,-16.125c0,-0.35833 -0.71667,-2.50833 -1.43333,-5.375c-7.525,-1.43333 -14.33333,-4.3 -20.06667,-8.6c-2.50833,1.43333 -4.65833,2.50833 -7.16667,2.86667c0,0 -0.35833,0 -0.71667,0c-11.10833,-9.675 -18.275,-24.00833 -18.275,-40.13333c0,-15.40833 6.45,-29.38333 16.84167,-38.7c-0.71667,-2.15 -1.075,-5.01667 -1.075,-8.6c1.075,-6.80833 8.6,-11.46667 12.54167,-13.25833c-0.71667,1.075 -1.43333,1.79167 -2.15,2.86667c0,0.35833 0,0.35833 0,0.35833c-0.71667,1.075 -1.075,1.79167 -1.43333,2.86667c-0.35833,0 -0.35833,0.35833 -0.35833,0.35833c-0.35833,0.71667 -0.35833,1.79167 -0.71667,2.86667v0.35833c-0.35833,1.075 -0.35833,2.15 -0.35833,3.225c0,0.35833 0,1.43333 0,1.79167c0.35833,2.50833 1.43333,6.09167 3.225,8.24167c7.525,-5.73333 16.84167,-8.95833 27.23333,-8.95833c25.8,0 46.58333,20.78333 46.58333,46.58333c0,6.80833 -1.43333,13.25833 -4.3,19.35c4.3,0.71667 11.825,0.35833 17.2,-5.01667c4.3,4.3 6.09167,11.46667 5.01667,17.2z" fill="#689f38"></path><path d="M146.91667,102.48333c0.71667,-0.71667 1.43333,-1.075 2.15,-1.79167c-1.79167,7.525 -8.24167,12.18333 -13.25833,12.54167c-9.31667,15.76667 -26.51667,26.51667 -46.225,26.51667c-2.15,0 -3.94167,0 -6.09167,-0.35833c-0.35833,-0.71667 -0.35833,-1.43333 -0.71667,-2.15c0,-0.35833 -0.71667,-2.50833 -1.43333,-5.375c0.71667,0 1.075,0 1.43333,0c0.71667,0 1.79167,0.35833 2.50833,0.35833c1.43333,0.35833 2.86667,0.35833 4.3,0.35833c1.79167,0 3.58333,0 5.73333,-0.35833h0.35833c1.79167,-0.35833 3.225,-0.71667 5.01667,-1.075h0.35833c13.61667,-3.58333 25.08333,-13.25833 30.81667,-25.8c3.94167,0.35833 10.03333,0.35833 15.05,-2.86667z" fill="#558b2f"></path><path d="M134.01667,99.25833c-5.73333,19.35 -23.29167,33.325 -44.43333,33.325c-22.93333,0 -41.925,-16.48333 -45.86667,-38.34167l24.36667,2.15c17.2,-4.3 21.14167,11.10833 22.575,15.76667c3.58333,-5.01667 12.54167,-8.24167 18.275,-3.225c3.94167,-8.24167 12.9,-10.03333 16.48333,-8.6z" fill="#9ccc65"></path><path d="M75.60833,96.03333c-0.71667,3.225 -1.79167,6.09167 -3.94167,7.88333c-3.58333,2.86667 -8.95833,3.94167 -10.03333,3.58333c-1.79167,2.15 -4.3,3.94167 -6.80833,4.65833c-1.075,0.35833 -2.15,0.35833 -3.58333,0.35833c-1.79167,-2.50833 -3.225,-5.01667 -4.3,-7.88333c1.43333,0.35833 2.86667,0.71667 4.3,0.71667c0.71667,0 1.075,0 1.43333,-0.35833c2.50833,-0.71667 4.65833,-3.58333 5.73333,-6.45c1.79167,1.075 3.94167,2.15 6.80833,2.15c1.43333,0 2.86667,-0.35833 4.65833,-1.075c1.43333,-0.71667 2.86667,-2.15 3.94167,-3.94167c0.35833,0.35833 1.075,0.35833 1.79167,0.35833zM131.86667,105.35c-1.075,2.15 -2.15,4.3 -3.58333,6.45c-4.3,-1.43333 -8.24167,-6.09167 -9.675,-11.10833c1.075,-0.35833 2.15,-0.71667 3.225,-0.71667c2.50833,2.86667 6.09167,4.65833 10.03333,5.375z" fill="#7cb342"></path><path d="M153.00833,80.98333c1.43333,5.73333 0.71667,13.61667 -2.15,17.55833c-5.375,7.525 -13.975,7.525 -18.99167,7.16667c2.86667,-5.73333 4.3,-12.54167 4.3,-19.35c0,-24.725 -18.99167,-44.79167 -43,-46.58333c0.71667,0.35833 1.43333,0.35833 2.15,0.35833l5.375,13.975l-7.16667,17.91667c5.73333,15.05 -10.03333,24.00833 -17.91667,17.91667c0.71667,3.225 -2.15,8.6 -5.375,10.03333c-5.01667,2.15 -8.95833,0.35833 -11.46667,-1.075c-1.075,2.86667 -3.225,5.73333 -5.73333,6.45c-1.79167,0.35833 -4.3,0 -6.09167,-0.71667c-2.50833,-5.73333 -3.94167,-11.825 -3.94167,-18.63333c0,-15.40833 7.525,-29.38333 18.99167,-37.625c-2.15,-2.50833 -3.225,-7.525 -3.225,-10.03333c-0.35833,-5.73333 2.15,-10.75 6.80833,-15.05c5.375,-4.65833 16.48333,-6.80833 23.29167,-2.86667c6.09167,-5.375 15.05,-6.80833 21.14167,-5.375c15.76667,4.3 21.14167,14.33333 20.78333,23.65c7.88333,-0.35833 15.05,2.86667 19.35,8.95833c5.375,7.16667 5.01667,18.275 0,26.875c1.43333,1.43333 2.15,3.58333 2.86667,6.45z" fill="#aed581"></path><path d="M143.33333,85.28333c0,6.80833 -1.43333,13.25833 -3.58333,19.35c-2.86667,0.71667 -5.73333,0.71667 -7.88333,0.35833c2.86667,-5.73333 4.3,-12.54167 4.3,-19.35c0,-25.8 -20.78333,-46.58333 -46.58333,-46.58333c-3.94167,0 -7.525,0.71667 -11.10833,1.43333h0.35833c-6.45,11.46667 1.79167,22.21667 12.54167,22.21667c0.35833,0 0.35833,0 0.71667,0c-2.15,5.01667 -2.15,11.10833 1.075,15.40833c0.35833,0.35833 1.075,1.075 1.43333,1.43333c0,1.43333 -0.71667,2.86667 -1.075,3.94167c-2.15,-0.71667 -3.94167,-1.79167 -5.73333,-3.225c-5.01667,-4.65833 -4.3,-10.03333 -4.3,-11.825c-4.65833,-1.79167 -8.6,-5.01667 -11.10833,-9.31667c-2.50833,-4.65833 -3.225,-10.03333 -2.15,-15.40833c-2.86667,1.43333 -5.375,2.86667 -7.88333,4.65833c-1.43333,-1.79167 -2.50833,-4.3 -2.86667,-6.80833c8.6,-5.73333 18.99167,-9.31667 30.1,-9.31667c29.38333,0 53.75,24.00833 53.75,53.03333z" fill="#8bc34a"></path><path d="M131.86667,105.70833c-5.73333,-1.075 -11.46667,-5.01667 -13.25833,-12.18333c-2.15,0.71667 -6.80833,0.71667 -8.95833,-1.075c-2.15,-1.79167 -2.50833,-6.80833 -1.79167,-9.675c-5.375,0.35833 -11.46667,0 -14.69167,-4.3c-3.225,-4.3 -3.225,-10.39167 -1.075,-15.40833c-11.10833,0.35833 -19.70833,-10.75 -13.25833,-22.21667c3.58333,-1.075 7.16667,-1.43333 10.75,-1.43333c25.8,0 46.58333,20.78333 46.58333,46.58333c0,6.80833 -1.79167,13.61667 -4.3,19.70833z" fill="#dcedc8"></path><path d="M122.90833,54.46667c0,0.71667 0,2.15 0,3.225c-0.35833,1.075 -0.35833,2.15 -0.71667,3.225c-0.35833,1.075 -0.71667,1.79167 -1.075,2.86667c-1.79167,3.58333 -4.65833,6.80833 -6.80833,8.6c-2.15,1.79167 -3.94167,2.86667 -3.94167,2.86667c0,0 1.43333,-1.43333 3.225,-3.58333c1.79167,-2.15 3.58333,-5.375 4.3,-8.95833c0.35833,-0.71667 0.35833,-1.79167 0.35833,-2.50833c0,-1.075 0,-1.79167 0,-2.50833c0,-0.71667 0,-1.43333 -0.35833,-2.15c-0.35833,-0.71667 -0.35833,-1.43333 -0.71667,-1.79167c-0.35833,-0.71667 -0.35833,-1.075 -0.71667,-1.43333c-0.35833,-0.71667 -0.35833,-1.075 -0.71667,-1.43333c-0.35833,-0.71667 -0.71667,-1.075 -0.71667,-1.075l-2.15,-2.86667l-1.79167,-2.15c4.65833,2.50833 8.6,5.73333 11.825,9.675z" fill="#aed581"></path></g><path d="M0,172v-172h172v172z" fill="none" stroke="none" stroke-linejoin="miter"></path><g stroke="none" stroke-linejoin="miter"><path d="M78.83333,157.66667c-6.80833,0 -12.9,-3.58333 -16.125,-7.88333c-7.16667,1.075 -16.125,-0.71667 -20.06667,-6.45c-6.45,-8.6 -4.3,-17.91667 -2.86667,-21.85833c0,-0.35833 0.35833,-0.71667 0.35833,-0.71667l10.03333,-15.05c0.71667,-1.43333 2.50833,-1.79167 3.94167,-1.43333l44.075,17.2c1.79167,0.35833 2.50833,2.15 2.50833,3.94167l-4.3,23.29167c0,0.71667 -0.35833,1.075 -0.71667,1.43333c-0.35833,0.35833 -5.01667,6.45 -14.69167,7.16667c-0.71667,0.35833 -1.43333,0.35833 -2.15,0.35833z" fill="#558b2f"></path><path d="M87.79167,146.91667v0c-1.79167,-2.15 -3.225,-4.65833 -3.94167,-7.16667v0v0c-0.35833,-0.71667 -0.35833,-1.43333 -0.71667,-2.15c-0.35833,-0.71667 -0.71667,-2.50833 -1.43333,-5.375c-2.50833,-0.35833 -5.01667,-1.075 -7.525,-2.15v0c-0.71667,-0.35833 -1.075,-0.35833 -1.79167,-0.71667c-0.71667,-0.35833 -1.43333,-0.71667 -2.15,-1.075c-0.71667,-0.35833 -1.075,-0.35833 -1.79167,-0.71667v0c-2.50833,-1.075 -4.65833,-2.50833 -6.80833,-3.94167v0v0v0v0v0c-2.15,1.43333 -4.65833,2.50833 -7.16667,2.86667c0,0 -0.35833,0 -0.71667,0v0v0v0v0c-1.075,0.35833 -3.58333,0.71667 -6.45,0.71667c-2.50833,0 -5.73333,-0.35833 -8.6,-1.43333c6.45,7.88333 13.975,8.24167 17.2,7.525c1.79167,-0.35833 3.58333,-0.71667 5.375,-1.79167c4.3,2.86667 9.31667,5.01667 14.69167,6.45c0.35833,0.71667 0.35833,1.075 0.35833,1.79167c2.15,6.80833 9.675,12.9 17.55833,12.18333c-2.50833,-1.075 -4.3,-2.86667 -6.09167,-5.01667z" fill="#33691e"></path><path d="M47.3,126.85c-5.73333,0 -13.975,-1.43333 -19.35,-8.95833c-3.58333,-5.375 -4.3,-15.05 -1.075,-21.5c-6.09167,-5.375 -11.825,-16.84167 -7.88333,-28.66667c3.58333,-11.10833 13.61667,-16.125 20.425,-17.91667c0,-5.375 1.43333,-11.825 6.80833,-17.2c9.31667,-9.675 21.5,-7.16667 22.21667,-7.16667c1.79167,0.35833 2.86667,2.15 2.50833,3.94167l1.43333,84.20833c-0.35833,1.43333 -9.31667,11.46667 -17.91667,12.9c0,-0.35833 -3.225,0.35833 -7.16667,0.35833z" fill="#7cb342"></path><path d="M149.06667,100.33333c-5.375,5.375 -12.9,5.73333 -17.2,5.01667v0c2.86667,-6.09167 4.3,-12.54167 4.3,-19.35c0,-25.8 -20.78333,-46.58333 -46.58333,-46.58333c-10.39167,0 -19.70833,3.225 -27.23333,8.95833v0c-1.79167,-2.15 -2.86667,-5.73333 -3.225,-8.24167v-0.35833c0,-0.35833 0,-1.075 0,-1.43333c0,-1.075 0,-2.15 0.35833,-3.225v-0.35833c0.35833,-1.075 0.35833,-2.15 0.71667,-2.86667c0,0 0,-0.35833 0.35833,-0.35833c0.35833,-1.075 0.71667,-1.79167 1.43333,-2.86667c0,0 0,0 0,-0.35833c0.71667,-1.075 1.43333,-1.79167 2.15,-2.86667v0c-3.94167,1.79167 -11.46667,6.45 -12.54167,13.25833c0,3.58333 0.35833,6.45 1.075,8.6c-10.39167,9.31667 -16.84167,23.29167 -16.84167,38.7c0,16.125 7.16667,30.45833 18.275,40.13333c0.35833,0 0.71667,0 0.71667,0c2.50833,-0.35833 4.65833,-1.43333 7.16667,-2.86667v0c5.73333,4.3 12.54167,7.16667 20.06667,8.6c0.71667,2.86667 1.43333,5.01667 1.43333,5.375c2.15,7.88333 7.525,13.975 14.33333,16.125c1.79167,0.35833 3.94167,0.71667 6.09167,0.71667c3.94167,0 8.6,-1.075 11.825,-3.225c5.01667,1.79167 13.61667,2.15 19.70833,-1.43333c6.09167,-3.58333 9.675,-12.54167 8.6,-19.35c5.375,-2.86667 8.6,-7.16667 10.03333,-12.54167c1.075,-5.73333 -0.71667,-12.9 -5.01667,-17.2z" fill="#689f38"></path><path d="M131.86667,105.35c-5.73333,12.54167 -17.2,22.21667 -30.81667,25.8h-0.35833c-1.79167,0.35833 -3.225,0.71667 -5.01667,1.075h-0.35833c-2.15,0.35833 -3.94167,0.35833 -5.73333,0.35833v0v0c-1.43333,0 -2.86667,0 -4.3,-0.35833c-0.71667,0 -1.79167,-0.35833 -2.50833,-0.35833c-0.35833,0 -0.71667,0 -1.43333,0c0.71667,2.86667 1.43333,5.01667 1.43333,5.375c0.35833,0.71667 0.35833,1.43333 0.71667,2.15c2.15,0.35833 3.94167,0.35833 6.09167,0.35833c19.70833,0 36.90833,-10.75 46.225,-26.51667c5.01667,-0.35833 11.46667,-5.01667 13.25833,-12.54167c-0.71667,0.71667 -1.43333,1.075 -2.15,1.79167c-5.01667,3.225 -11.10833,3.225 -15.05,2.86667z" fill="#558b2f"></path><path d="M125.41667,100.33333c-3.58333,-1.43333 -12.54167,0.35833 -16.48333,8.6c-5.73333,-5.01667 -14.69167,-1.79167 -18.275,3.225c-1.43333,-4.65833 -5.375,-20.06667 -22.575,-15.76667l-24.36667,-2.15c3.94167,21.85833 22.93333,38.34167 45.86667,38.34167c21.14167,0 38.7,-13.975 44.43333,-33.325z" fill="#9ccc65"></path><path d="M75.60833,96.03333c-0.71667,3.225 -1.79167,6.09167 -3.94167,7.88333c-3.58333,2.86667 -8.95833,3.94167 -10.03333,3.58333c-1.79167,2.15 -4.3,3.94167 -6.80833,4.65833c-1.075,0.35833 -2.15,0.35833 -3.58333,0.35833v0c-1.79167,-2.50833 -3.225,-5.01667 -4.3,-7.88333c1.43333,0.35833 2.86667,0.71667 4.3,0.71667c0.71667,0 1.075,0 1.43333,-0.35833c2.50833,-0.71667 4.65833,-3.58333 5.73333,-6.45c1.79167,1.075 3.94167,2.15 6.80833,2.15c1.43333,0 2.86667,-0.35833 4.65833,-1.075c1.43333,-0.71667 2.86667,-2.15 3.94167,-3.94167c0.35833,0.35833 1.075,0.35833 1.79167,0.35833zM121.83333,99.975c-1.075,0 -2.15,0.35833 -3.225,0.71667c1.43333,5.01667 5.375,9.675 9.675,11.10833c1.43333,-2.15 2.50833,-4.3 3.58333,-6.45c-3.94167,-0.71667 -7.525,-2.50833 -10.03333,-5.375z" fill="#7cb342"></path><path d="M150.14167,74.53333c5.01667,-8.6 5.375,-19.70833 0,-26.875c-4.3,-6.09167 -11.46667,-9.31667 -19.35,-8.95833c0.35833,-9.31667 -5.01667,-19.35 -20.78333,-23.65c-6.09167,-1.43333 -15.05,0 -21.14167,5.375c-6.80833,-3.94167 -17.91667,-1.79167 -23.29167,2.86667c-4.65833,4.3 -7.16667,9.31667 -6.80833,15.05c0,2.50833 1.075,7.525 3.225,10.03333c-11.46667,8.24167 -18.99167,22.21667 -18.99167,37.625c0,6.80833 1.43333,12.9 3.94167,18.63333c1.79167,0.71667 4.3,1.075 6.09167,0.71667c2.50833,-0.71667 4.65833,-3.58333 5.73333,-6.45c2.50833,1.43333 6.45,3.225 11.46667,1.075c3.225,-1.43333 6.09167,-6.80833 5.375,-10.03333c7.88333,6.09167 23.65,-2.86667 17.91667,-17.91667l7.16667,-17.91667l-5.375,-13.975c-0.71667,0 -1.43333,0 -2.15,-0.35833c24.00833,1.79167 43,21.85833 43,46.58333c0,6.80833 -1.43333,13.61667 -4.3,19.35c5.01667,0.35833 13.61667,0.35833 18.99167,-7.16667c2.86667,-3.94167 3.58333,-11.825 2.15,-17.55833c-0.71667,-2.86667 -1.43333,-5.01667 -2.86667,-6.45z" fill="#aed581"></path><path d="M89.58333,32.25c-11.10833,0 -21.5,3.58333 -30.1,9.31667c0.35833,2.50833 1.43333,5.01667 2.86667,6.80833c2.50833,-1.79167 5.01667,-3.225 7.88333,-4.65833c-1.075,5.375 -0.35833,10.75 2.15,15.40833c2.50833,4.3 6.45,7.525 11.10833,9.31667c0,1.79167 -0.71667,7.16667 4.3,11.825c1.79167,1.43333 3.58333,2.50833 5.73333,3.225c0.35833,-1.075 1.075,-2.50833 1.075,-3.94167c-0.35833,-0.35833 -1.075,-1.075 -1.43333,-1.43333c-3.225,-4.3 -3.225,-10.39167 -1.075,-15.40833c-0.35833,0 -0.35833,0 -0.71667,0c-10.75,0 -18.99167,-10.75 -12.54167,-22.21667h-0.35833c3.58333,-0.71667 7.16667,-1.43333 11.10833,-1.43333c25.8,0 46.58333,20.78333 46.58333,46.58333c0,6.80833 -1.43333,13.61667 -4.3,19.35v0c2.15,0.35833 5.01667,0.35833 7.88333,-0.35833c2.15,-6.09167 3.58333,-12.54167 3.58333,-19.35c0,-29.025 -24.36667,-53.03333 -53.75,-53.03333z" fill="#8bc34a"></path><path d="M136.16667,86c0,-25.8 -20.78333,-46.58333 -46.58333,-46.58333c-3.58333,0 -7.16667,0.35833 -10.75,1.43333c-6.45,11.46667 2.15,22.575 13.25833,22.21667c-2.15,5.01667 -2.15,11.10833 1.075,15.40833c3.225,4.3 9.31667,4.65833 14.69167,4.3c-0.71667,2.86667 -0.35833,7.88333 1.79167,9.675c2.15,1.79167 6.80833,1.79167 8.95833,1.075c1.79167,7.16667 7.525,11.10833 13.25833,12.18333c2.50833,-6.09167 4.3,-12.9 4.3,-19.70833z" fill="#dcedc8"></path><path d="M111.08333,44.79167l1.79167,2.15l2.15,2.86667c0,0 0.35833,0.35833 0.71667,1.075c0.35833,0.35833 0.35833,0.71667 0.71667,1.43333c0.35833,0.35833 0.35833,0.71667 0.71667,1.43333c0.35833,0.35833 0.35833,1.075 0.71667,1.79167c0.35833,0.71667 0.35833,1.43333 0.35833,2.15c0,0.71667 0,1.43333 0,2.50833c0,0.71667 0,1.79167 -0.35833,2.50833c-0.71667,3.58333 -2.50833,6.80833 -4.3,8.95833c-1.79167,2.15 -3.225,3.58333 -3.225,3.58333c0,0 1.79167,-1.075 3.94167,-2.86667c2.15,-1.79167 5.01667,-5.01667 6.80833,-8.6c0.35833,-1.075 0.71667,-1.79167 1.075,-2.86667c0.35833,-1.075 0.35833,-2.15 0.71667,-3.225c0,-1.075 0,-2.15 0,-2.86667v-0.35833v0c-3.225,-3.94167 -7.16667,-7.16667 -11.825,-9.675z" fill="#aed581"></path></g><path d="" fill="none" stroke="none" stroke-linejoin="miter"></path></g></g></svg>