<svg version="1.1" xmlns="http://www.w3.org/2000/svg" xmlns:xlink="http://www.w3.org/1999/xlink" viewBox="0 0 172 172"><defs><linearGradient x1="156.44117" y1="15.49792" x2="77.0775" y2="94.86158" gradientUnits="userSpaceOnUse" id="color-1"><stop offset="0" stop-color="#21ad64"></stop><stop offset="1" stop-color="#088242"></stop></linearGradient><linearGradient x1="12.5775" y1="48.934" x2="125.75708" y2="162.11" gradientUnits="userSpaceOnUse" id="color-2"><stop offset="0" stop-color="#f09701"></stop><stop offset="1" stop-color="#e36001"></stop></linearGradient><linearGradient x1="156.44117" y1="15.49792" x2="77.0775" y2="94.86158" gradientUnits="userSpaceOnUse" id="color-3"><stop offset="0" stop-color="#21ad64"></stop><stop offset="1" stop-color="#088242"></stop></linearGradient><linearGradient x1="12.5775" y1="48.934" x2="125.75708" y2="162.11" gradientUnits="userSpaceOnUse" id="color-4"><stop offset="0" stop-color="#f09701"></stop><stop offset="1" stop-color="#e36001"></stop></linearGradient></defs><g transform="translate(0.516,0.516) scale(0.994,0.994)"><g fill="none" fill-rule="nonzero" stroke="none" stroke-width="1" stroke-linecap="butt" stroke-linejoin="none" stroke-miterlimit="10" stroke-dasharray="" stroke-dashoffset="0" font-family="none" font-weight="none" font-size="none" text-anchor="none" style="mix-blend-mode: normal"><g stroke="#cccccc" stroke-linejoin="round"><path d="M124.81825,52.8255c-3.14975,3.14975 -8.256,3.14975 -11.40575,0c-3.14975,-3.14975 -3.14975,-8.256 0,-11.40575c0.18992,-0.1935 0.4085,-0.33325 0.61275,-0.50167c-1.55517,-0.78833 -2.76633,-1.65192 -3.46508,-2.35067c-1.57308,-1.57308 -1.57308,-4.128 0,-5.70108c0.258,-0.258 0.602,-0.48017 0.93525,-0.70233c-4.03125,-1.82392 -6.66858,-4.64758 -6.66858,-7.85108c0,-5.51117 7.66833,-9.97958 17.12475,-9.97958c9.45642,0 17.12117,4.46842 17.12117,9.98317c0,3.15692 -2.56925,5.94117 -6.50017,7.76867c2.68033,1.47992 3.61917,3.66575 0.79908,6.48583c-2.365,2.36142 -4.94142,3.60842 -7.49992,4.15667c2.03892,3.12825 1.69133,7.353 -1.0535,10.09783z" fill="#107c42"></path><path d="M129.27233,46.12825c0.54825,-2.5585 1.79525,-5.13492 4.15667,-7.49992c2.82008,-2.82008 5.00592,-1.88125 6.48583,0.79908c1.8275,-3.93092 4.61175,-6.50017 7.76867,-6.50017c5.51117,0 9.97958,7.66475 9.97958,17.12475c0,9.45642 -4.46842,17.12475 -9.97958,17.12475c-3.2035,0 -6.02717,-2.63733 -7.85108,-6.66858c-0.22217,0.33325 -0.44433,0.67725 -0.70233,0.93525c-1.57308,1.57308 -4.128,1.57308 -5.70108,0c-0.69875,-0.69875 -1.56233,-1.90992 -2.35067,-3.46508c-0.16842,0.20425 -0.30817,0.42283 -0.50167,0.61275c-3.14975,3.14975 -8.256,3.14975 -11.40575,0c-3.14975,-3.14975 -3.14975,-8.256 0,-11.40575c2.74842,-2.74483 6.97675,-3.096 10.10142,-1.05708z" fill="#107c42"></path><path d="M146.3505,38.227c0.36192,2.38292 -0.1075,4.56875 -1.58025,6.0415c-2.08908,2.08908 -5.60075,2.193 -9.10883,0.67367c-0.15408,1.83467 -0.89583,3.62992 -2.29692,5.031c-2.10342,2.107 -5.07758,2.76992 -7.7615,2.06042l-6.493,6.493l-5.70108,-5.70108l6.493,-6.493c-0.7095,-2.68392 -0.04658,-5.6545 2.06042,-7.7615c1.40467,-1.40108 3.19633,-2.14283 5.031,-2.29692c-1.51933,-3.50808 -1.41542,-7.01975 0.67367,-9.10883c1.47275,-1.47275 3.65858,-1.94217 6.0415,-1.58025c-2.03892,-4.085 -2.31483,-7.84392 -0.33683,-9.82192c3.14975,-3.14975 10.81092,-0.59842 17.10683,5.70108c6.29592,6.2995 8.85083,13.95708 5.70108,17.10683c-1.978,1.978 -5.7405,1.6985 -9.82908,-0.344z" fill="url(#color-1)"></path><path d="M121.31017,101.953c-1.6555,1.6555 -3.39342,3.27875 -5.246,4.84825c-1.93858,1.76658 -4.04917,3.47942 -6.21708,5.18867c-16.082,12.54525 -36.55358,23.49233 -53.9435,31.59067c-2.68033,1.25417 -5.30333,2.451 -7.84033,3.56542c-10.72133,4.79092 -19.5865,8.24167 -24.43475,10.06558c-2.39367,0.91375 -5.18867,0.22933 -7.15592,-1.73792c-1.96725,-1.96725 -2.65167,-4.76225 -1.73792,-7.15592c0.79908,-2.11058 1.88125,-4.95933 3.27875,-8.41008c0.97108,-2.451 2.08192,-5.16 3.33608,-8.06967c5.75842,-13.62742 14.3405,-32.18908 24.75008,-49.38192c1.42617,-2.39367 2.881,-4.70492 4.38958,-7.01258c6.01642,-9.2665 12.57392,-17.87725 19.50408,-24.80742c0.22933,-0.22933 0.42642,-0.42642 0.68442,-0.62708c1.96725,-1.85258 4.2785,-3.42208 6.78683,-4.61892c12.43058,-6.10242 30.08208,-4.13517 41.65625,7.44258c14.16492,14.16492 13.93558,37.37417 2.18942,49.12033z" fill="url(#color-2)"></path><path d="M116.06417,106.80125c-1.93858,1.76658 -4.04917,3.47942 -6.21708,5.18867l-16.39375,-16.39375c-1.5695,-1.5695 -1.5695,-4.13517 0,-5.70108c1.5695,-1.5695 4.13517,-1.5695 5.70108,0z" fill="#c2620e"></path><path d="M55.90358,143.58058c-2.68033,1.25417 -5.30333,2.451 -7.84033,3.56542l-8.78275,-8.78275c-1.5695,-1.5695 -1.5695,-4.13517 0,-5.70108c1.5695,-1.5695 4.13517,-1.5695 5.70108,0z" fill="#c2620e"></path><path d="M27.87475,144.06433c-1.5695,1.5695 -4.13517,1.5695 -5.70108,0l-4.16383,-4.16383c0.97108,-2.451 2.08192,-5.16 3.33608,-8.06967l6.52883,6.52883c1.5695,1.57308 1.5695,4.13875 0,5.70467z" fill="#c2620e"></path><path d="M90.60458,64.23125c-1.5695,1.5695 -4.13517,1.5695 -5.70108,0l-14.22583,-14.22583c1.96725,-1.85258 4.2785,-3.42208 6.78683,-4.61892l13.14367,13.14367c1.56233,1.56592 1.56233,4.13158 -0.00358,5.70108z" fill="#c2620e"></path><path d="M70.64542,101.29725c-1.5695,1.5695 -4.13517,1.5695 -5.70108,0l-18.84475,-18.84475c1.42617,-2.39367 2.881,-4.70492 4.38958,-7.01258l20.15983,20.15983c1.56233,1.56233 1.56233,4.128 -0.00358,5.6975z" fill="#c2620e"></path><path d="M59.23967,124.10517l-11.40575,-11.40575c-1.57308,-1.57308 -1.57308,-4.128 0,-5.70108c1.57308,-1.57308 4.128,-1.57308 5.70108,0l11.40575,11.40575c1.57308,1.57308 1.57308,4.128 0,5.70108c-1.57308,1.57667 -4.128,1.57667 -5.70108,0z" fill="#c2620e"></path></g><path d="M0,172v-172h172v172z" fill="none" stroke="none" stroke-linejoin="miter"></path><g stroke="none" stroke-linejoin="miter"><path d="M125.87175,42.72767c2.5585,-0.54825 5.13492,-1.79525 7.49992,-4.15667c2.82008,-2.82008 1.88125,-5.00592 -0.79908,-6.48583c3.93092,-1.8275 6.50017,-4.61175 6.50017,-7.76867c0,-5.51475 -7.66475,-9.98317 -17.12117,-9.98317c-9.45642,0 -17.12475,4.46842 -17.12475,9.97958c0,3.2035 2.63733,6.02717 6.66858,7.85108c-0.33325,0.22217 -0.67725,0.44433 -0.93525,0.70233c-1.57308,1.57308 -1.57308,4.128 0,5.70108c0.69875,0.69875 1.90992,1.56233 3.46508,2.35067c-0.20425,0.16842 -0.42283,0.30817 -0.61275,0.50167c-3.14975,3.14975 -3.14975,8.256 0,11.40575c3.14975,3.14975 8.256,3.14975 11.40575,0c2.74483,-2.74483 3.09242,-6.96958 1.0535,-10.09783z" fill="#107c42"></path><path d="M129.27233,46.12825c0.54825,-2.5585 1.79525,-5.13492 4.15667,-7.49992c2.82008,-2.82008 5.00592,-1.88125 6.48583,0.79908c1.8275,-3.93092 4.61175,-6.50017 7.76867,-6.50017c5.51117,0 9.97958,7.66475 9.97958,17.12475c0,9.45642 -4.46842,17.12475 -9.97958,17.12475c-3.2035,0 -6.02717,-2.63733 -7.85108,-6.66858c-0.22217,0.33325 -0.44433,0.67725 -0.70233,0.93525c-1.57308,1.57308 -4.128,1.57308 -5.70108,0c-0.69875,-0.69875 -1.56233,-1.90992 -2.35067,-3.46508c-0.16842,0.20425 -0.30817,0.42283 -0.50167,0.61275c-3.14975,3.14975 -8.256,3.14975 -11.40575,0c-3.14975,-3.14975 -3.14975,-8.256 0,-11.40575c2.74842,-2.74483 6.97675,-3.096 10.10142,-1.05708z" fill="#107c42"></path><path d="M156.17958,38.571c3.14975,-3.14975 0.59483,-10.80733 -5.70108,-17.10683c-6.29592,-6.2995 -13.95708,-8.85083 -17.10683,-5.70108c-1.978,1.978 -1.70208,5.73692 0.33683,9.82192c-2.38292,-0.36192 -4.56875,0.1075 -6.0415,1.58025c-2.08908,2.08908 -2.193,5.60075 -0.67367,9.10883c-1.83467,0.15408 -3.62633,0.89583 -5.031,2.29692c-2.107,2.107 -2.76992,5.07758 -2.06042,7.7615l-6.493,6.493l5.70108,5.70108l6.493,-6.493c2.68392,0.7095 5.65808,0.04658 7.7615,-2.06042c1.40108,-1.40108 2.14283,-3.19633 2.29692,-5.031c3.50808,1.51933 7.01975,1.41542 9.10883,-0.67367c1.47275,-1.47275 1.94217,-3.65858 1.58025,-6.0415c4.08858,2.0425 7.85108,2.322 9.82908,0.344z" fill="url(#color-3)"></path><path d="M121.31017,101.953c-1.6555,1.6555 -3.39342,3.27875 -5.246,4.84825c-1.93858,1.76658 -4.04917,3.47942 -6.21708,5.18867c-16.082,12.54525 -36.55358,23.49233 -53.9435,31.59067c-2.68033,1.25417 -5.30333,2.451 -7.84033,3.56542c-10.72133,4.79092 -19.5865,8.24167 -24.43475,10.06558c-2.39367,0.91375 -5.18867,0.22933 -7.15592,-1.73792c-1.96725,-1.96725 -2.65167,-4.76225 -1.73792,-7.15592c0.79908,-2.11058 1.88125,-4.95933 3.27875,-8.41008c0.97108,-2.451 2.08192,-5.16 3.33608,-8.06967c5.75842,-13.62742 14.3405,-32.18908 24.75008,-49.38192c1.42617,-2.39367 2.881,-4.70492 4.38958,-7.01258c6.01642,-9.2665 12.57392,-17.87725 19.50408,-24.80742c0.22933,-0.22933 0.42642,-0.42642 0.68442,-0.62708c1.96725,-1.85258 4.2785,-3.42208 6.78683,-4.61892c12.43058,-6.10242 30.08208,-4.13517 41.65625,7.44258c14.16492,14.16492 13.93558,37.37417 2.18942,49.12033z" fill="url(#color-4)"></path><path d="M116.06417,106.80125c-1.93858,1.76658 -4.04917,3.47942 -6.21708,5.18867l-16.39375,-16.39375c-1.5695,-1.5695 -1.5695,-4.13517 0,-5.70108c1.5695,-1.5695 4.13517,-1.5695 5.70108,0z" fill="#c2620e"></path><path d="M55.90358,143.58058c-2.68033,1.25417 -5.30333,2.451 -7.84033,3.56542l-8.78275,-8.78275c-1.5695,-1.5695 -1.5695,-4.13517 0,-5.70108c1.5695,-1.5695 4.13517,-1.5695 5.70108,0z" fill="#c2620e"></path><path d="M27.87475,144.06433c-1.5695,1.5695 -4.13517,1.5695 -5.70108,0l-4.16383,-4.16383c0.97108,-2.451 2.08192,-5.16 3.33608,-8.06967l6.52883,6.52883c1.5695,1.57308 1.5695,4.13875 0,5.70467z" fill="#c2620e"></path><path d="M90.60458,64.23125c-1.5695,1.5695 -4.13517,1.5695 -5.70108,0l-14.22583,-14.22583c1.96725,-1.85258 4.2785,-3.42208 6.78683,-4.61892l13.14367,13.14367c1.56233,1.56592 1.56233,4.13158 -0.00358,5.70108z" fill="#c2620e"></path><path d="M70.64542,101.29725c-1.5695,1.5695 -4.13517,1.5695 -5.70108,0l-18.84475,-18.84475c1.42617,-2.39367 2.881,-4.70492 4.38958,-7.01258l20.15983,20.15983c1.56233,1.56233 1.56233,4.128 -0.00358,5.6975z" fill="#c2620e"></path><path d="M59.23967,124.10517l-11.40575,-11.40575c-1.57308,-1.57308 -1.57308,-4.128 0,-5.70108c1.57308,-1.57308 4.128,-1.57308 5.70108,0l11.40575,11.40575c1.57308,1.57308 1.57308,4.128 0,5.70108c-1.57308,1.57667 -4.128,1.57667 -5.70108,0z" fill="#c2620e"></path></g><path d="" fill="none" stroke="none" stroke-linejoin="miter"></path></g></g></svg>