<svg version="1.1" xmlns="http://www.w3.org/2000/svg" xmlns:xlink="http://www.w3.org/1999/xlink" viewBox="0 0 172 172"><g transform="translate(0.516,0.516) scale(0.994,0.994)"><g fill="none" fill-rule="nonzero" stroke="none" stroke-width="1" stroke-linecap="butt" stroke-linejoin="none" stroke-miterlimit="10" stroke-dasharray="" stroke-dashoffset="0" font-family="none" font-weight="none" font-size="none" text-anchor="none" style="mix-blend-mode: normal"><g stroke="#cccccc" stroke-linejoin="round"><path d="M150.47133,89.57975c-0.215,20.54325 -1.51217,45.08908 -1.51217,45.08908c-32.84842,4.18175 -95.6105,-1.72717 -95.6105,-1.72717c-7.66475,0 -24.67125,-10.67475 -29.29733,-36.593c-4.62608,-25.91825 -1.54083,-38.11233 -1.54083,-38.11233c1.54083,-6.09525 3.08525,-7.62175 10.793,-9.14825c0,0 58.05,-11.77483 115.65567,-16.52275c0,0 0.67367,13.25117 1.12875,28.39433c-7.72208,0.22217 -13.92125,6.5145 -13.92125,14.29033c0,7.90483 6.39983,14.31183 14.30467,14.32975z" fill="#ffe57f"></path><path d="M118.74808,129.16125c7.61817,0 21.96583,-0.72025 30.56583,-1.8275c-0.20783,4.51858 -0.35475,7.33508 -0.35475,7.33508c-8.58208,1.09292 -19.20667,1.49783 -30.21467,1.49783c-31.13917,0 -65.39583,-3.225 -65.39583,-3.225c-7.66475,0 -24.67483,-10.67475 -29.30092,-36.593c-4.62608,-25.91825 -1.54083,-38.11233 -1.54083,-38.11233c1.54083,-6.09525 3.08525,-7.62175 10.793,-9.14825c0,0 58.05,-11.77483 115.65567,-16.52275c0,0 0.13975,2.72333 0.33325,7.05558l-7.06992,0.56617c-54.08683,4.99875 -106.94817,15.652 -107.49642,15.76308c-3.50092,0.688 -4.31792,1.15383 -4.48275,1.27567c-0.01075,0.03583 -0.3225,0.56975 -0.86,2.70183c-0.01433,0.05733 -2.58717,11.5025 1.64117,35.19908c4.12442,23.10892 18.76233,30.80592 22.32417,30.80592h0.33683l0.33683,0.03225c0.34042,0.03225 34.29608,3.19633 64.72933,3.19633z" fill="#ffb300"></path><path d="M21.96583,61.61542c-0.00358,0 -1.62325,-13.3945 21.50717,-22.32775c0,0 16.83092,-7.00542 21.9945,-8.60717c5.16,-1.60533 14.31542,-2.63017 24.79308,-1.60533c10.47767,1.02483 58.695,3.49017 58.695,3.49017c-57.60567,4.74792 -115.65567,16.52275 -115.65567,16.52275c-7.71133,1.5265 -9.25217,3.053 -10.793,9.14825c0,0 -0.2795,1.12517 -0.54108,3.37908z" fill="#ffa000"></path><path d="M93.16667,78.83333c0,7.91608 -6.41725,14.33333 -14.33333,14.33333c-7.91608,0 -14.33333,-6.41725 -14.33333,-14.33333c0,-7.91608 6.41725,-14.33333 14.33333,-14.33333c7.91608,0 14.33333,6.41725 14.33333,14.33333zM125.41667,57.33333c0,3.95804 -3.20863,7.16667 -7.16667,7.16667c-3.95804,0 -7.16667,-3.20863 -7.16667,-7.16667c0,-3.95804 3.20863,-7.16667 7.16667,-7.16667c3.95804,0 7.16667,3.20863 7.16667,7.16667zM68.08333,105.70833c0,4.94755 -4.01078,8.95833 -8.95833,8.95833c-4.94755,0 -8.95833,-4.01078 -8.95833,-8.95833c0,-4.94755 4.01078,-8.95833 8.95833,-8.95833c4.94755,0 8.95833,4.01078 8.95833,8.95833zM50.16667,77.04167c0,2.96853 -2.40647,5.375 -5.375,5.375c-2.96853,0 -5.375,-2.40647 -5.375,-5.375c0,-2.96853 2.40647,-5.375 5.375,-5.375c2.96853,0 5.375,2.40647 5.375,5.375zM129,100.33333c0,5.93706 -4.81294,10.75 -10.75,10.75c-5.93706,0 -10.75,-4.81294 -10.75,-10.75c0,-5.93706 4.81294,-10.75 10.75,-10.75c5.93706,0 10.75,4.81294 10.75,10.75z" fill="#ffc400"></path></g><path d="M0,172v-172h172v172z" fill="none" stroke="none" stroke-linejoin="miter"></path><g stroke="none" stroke-linejoin="miter"><path d="M136.16667,75.25c0,-7.77583 6.19917,-14.06817 13.92125,-14.29033c-0.45508,-15.14317 -1.12875,-28.39433 -1.12875,-28.39433c-57.60567,4.74792 -115.65567,16.52275 -115.65567,16.52275c-7.70775,1.5265 -9.25217,3.053 -10.793,9.14825c0,0 -3.08525,12.19408 1.54083,38.11233c4.62608,25.91825 21.63258,36.593 29.29733,36.593c0,0 62.76208,5.90892 95.6105,1.72717c0,0 1.29717,-24.54583 1.51217,-45.08908c-7.90483,-0.01792 -14.30467,-6.42492 -14.30467,-14.32975z" fill="#ffe57f"></path><path d="M54.01875,125.96492l-0.33683,-0.03225h-0.33683c-3.56183,0 -18.19975,-7.697 -22.32417,-30.80592c-4.22833,-23.69658 -1.6555,-35.14175 -1.64117,-35.19908c0.5375,-2.13208 0.84925,-2.666 0.86,-2.70183c0.16483,-0.12183 0.98183,-0.58767 4.48275,-1.27567c0.54825,-0.11108 53.40958,-10.76433 107.49642,-15.76308l7.06992,-0.56617c-0.1935,-4.33225 -0.33325,-7.05558 -0.33325,-7.05558c-57.60567,4.74792 -115.65567,16.52275 -115.65567,16.52275c-7.70775,1.5265 -9.25217,3.053 -10.793,9.14825c0,0 -3.08525,12.19408 1.54083,38.11233c4.62608,25.91825 21.63617,36.593 29.30092,36.593c0,0 34.25667,3.225 65.39583,3.225c11.008,0 21.63258,-0.40492 30.21467,-1.49783c0,0 0.14692,-2.8165 0.35475,-7.33508c-8.6,1.10725 -22.94767,1.8275 -30.56583,1.8275c-30.43325,0 -64.38892,-3.16408 -64.72933,-3.19633z" fill="#ffb300"></path><path d="M21.96583,61.61542c0.26158,-2.25392 0.54108,-3.37908 0.54108,-3.37908c1.54083,-6.09525 3.08167,-7.62175 10.793,-9.14825c0,0 58.05,-11.77483 115.65567,-16.52275c0,0 -48.21733,-2.46533 -58.695,-3.49017c-10.47767,-1.02483 -19.63308,0 -24.79308,1.60533c-5.16358,1.60175 -21.9945,8.60717 -21.9945,8.60717c-23.13042,8.93325 -21.51075,22.32775 -21.50717,22.32775z" fill="#ffa000"></path><path d="M78.83333,64.5c-7.91608,0 -14.33333,6.41725 -14.33333,14.33333c0,7.91608 6.41725,14.33333 14.33333,14.33333c7.91608,0 14.33333,-6.41725 14.33333,-14.33333c0,-7.91608 -6.41725,-14.33333 -14.33333,-14.33333zM118.25,50.16667c-3.95804,0 -7.16667,3.20863 -7.16667,7.16667c0,3.95804 3.20863,7.16667 7.16667,7.16667c3.95804,0 7.16667,-3.20863 7.16667,-7.16667c0,-3.95804 -3.20863,-7.16667 -7.16667,-7.16667zM59.125,96.75c-4.94755,0 -8.95833,4.01078 -8.95833,8.95833c0,4.94755 4.01078,8.95833 8.95833,8.95833c4.94755,0 8.95833,-4.01078 8.95833,-8.95833c0,-4.94755 -4.01078,-8.95833 -8.95833,-8.95833zM44.79167,71.66667c-2.96853,0 -5.375,2.40647 -5.375,5.375c0,2.96853 2.40647,5.375 5.375,5.375c2.96853,0 5.375,-2.40647 5.375,-5.375c0,-2.96853 -2.40647,-5.375 -5.375,-5.375zM118.25,89.58333c-5.93706,0 -10.75,4.81294 -10.75,10.75c0,5.93706 4.81294,10.75 10.75,10.75c5.93706,0 10.75,-4.81294 10.75,-10.75c0,-5.93706 -4.81294,-10.75 -10.75,-10.75z" fill="#ffc400"></path></g><path d="" fill="none" stroke="none" stroke-linejoin="miter"></path></g></g></svg>