<svg version="1.1" xmlns="http://www.w3.org/2000/svg" xmlns:xlink="http://www.w3.org/1999/xlink" viewBox="0 0 172 172"><g transform="translate(0.516,0.516) scale(0.994,0.994)"><g fill="none" fill-rule="nonzero" stroke="none" stroke-width="1" stroke-linecap="butt" stroke-linejoin="none" stroke-miterlimit="10" stroke-dasharray="" stroke-dashoffset="0" font-family="none" font-weight="none" font-size="none" text-anchor="none" style="mix-blend-mode: normal"><g stroke="#cccccc" stroke-linejoin="round"><path d="M156.95,63.06667c0.71667,0.71667 1.075,1.79167 1.075,2.86667c0,1.79167 -1.075,3.225 -2.50833,3.94167c-1.43333,5.01667 -2.86667,10.03333 -5.01667,14.69167c0.71667,0.71667 1.075,1.79167 1.075,2.86667c0,2.50833 -2.15,4.65833 -4.65833,4.65833c-2.50833,4.3 -5.375,8.6 -8.24167,12.9c0,0.35833 0,0.71667 0,1.075c0,2.50833 -2.15,4.65833 -4.65833,4.65833c-2.86667,3.225 -5.73333,6.45 -8.6,9.31667c0.35833,0.71667 0.35833,1.075 0.35833,1.79167c0,2.50833 -2.15,4.65833 -4.65833,4.65833c-0.71667,0 -1.43333,0 -2.15,-0.35833c-3.225,2.50833 -6.09167,5.01667 -9.31667,7.16667c0,0.35833 0,0.71667 0,1.075c0,2.50833 -2.15,4.65833 -4.65833,4.65833c-1.075,0 -2.15,0 -2.86667,-0.71667c-3.58333,2.15 -7.525,4.65833 -11.46667,6.45c-0.35833,2.15 -2.50833,3.58333 -4.65833,3.58333c-0.71667,0 -1.43333,0 -2.15,-0.35833c-6.09167,2.50833 -12.54167,4.65833 -18.63333,6.45c-0.71667,1.79167 -2.50833,3.225 -4.65833,3.225c-1.43333,0 -2.86667,-0.35833 -3.58333,-1.43333c-5.375,0.71667 -11.10833,1.43333 -16.125,1.43333c-3.58333,0 -6.80833,-0.35833 -9.675,-0.71667c-0.71667,0.35833 -1.43333,0.71667 -2.50833,0.71667c-1.79167,0 -3.225,-1.075 -4.3,-2.50833c-6.80833,-2.50833 -10.03333,-6.80833 -10.03333,-11.46667c0,-6.45 6.09167,-10.39167 16.48333,-15.76667c0,-2.50833 2.15,-4.65833 4.65833,-4.65833c0.71667,0 1.79167,0.35833 2.50833,0.71667c3.58333,-1.79167 7.525,-3.94167 11.825,-6.45c0.35833,-2.15 2.50833,-3.58333 4.65833,-3.58333c0.35833,0 0.71667,0.35833 1.075,0.35833c4.3,-2.50833 8.6,-5.73333 13.25833,-8.95833c0.35833,-2.15 2.50833,-3.58333 4.65833,-3.58333c4.65833,-3.58333 9.31667,-7.88333 14.33333,-12.9c0,-0.35833 0,-0.71667 0,-1.075c0,-2.50833 2.15,-4.65833 4.65833,-4.65833c0.35833,0 0.35833,0 0.71667,0c4.65833,-5.375 9.675,-11.46667 14.33333,-17.91667c-0.35833,-0.71667 -0.71667,-1.43333 -0.71667,-2.50833c0,-2.50833 2.15,-4.65833 4.65833,-4.65833c0,0 0.35833,0 0.71667,0c2.50833,-3.94167 5.01667,-7.88333 7.525,-12.18333c-0.35833,-0.35833 -0.35833,-1.075 -0.35833,-1.79167c0,-2.50833 1.79167,-4.3 3.94167,-4.65833c7.16667,-13.61667 8.6,-25.08333 18.99167,-25.08333c10.75,0 15.40833,12.18333 15.40833,34.4c0,5.01667 -0.35833,9.675 -0.71667,14.33333z" fill="#4caf50"></path><path d="M156.95,63.06667c0.71667,0.71667 1.075,1.79167 1.075,2.86667c0,1.79167 -1.075,3.225 -2.50833,3.94167c-1.43333,5.01667 -2.86667,10.03333 -5.01667,14.69167c0.71667,0.71667 1.075,1.79167 1.075,2.86667c0,2.50833 -2.15,4.65833 -4.65833,4.65833c-2.50833,4.3 -5.375,8.6 -8.24167,12.9c0,0.35833 0,0.71667 0,1.075c0,2.50833 -2.15,4.65833 -4.65833,4.65833c-2.86667,3.225 -5.73333,6.45 -8.6,9.31667c0.35833,0.71667 0.35833,1.075 0.35833,1.79167c0,2.50833 -2.15,4.65833 -4.65833,4.65833c-0.71667,0 -1.43333,0 -2.15,-0.35833c-3.225,2.50833 -6.09167,5.01667 -9.31667,7.16667c0,0.35833 0,0.71667 0,1.075c0,2.50833 -2.15,4.65833 -4.65833,4.65833c-1.075,0 -2.15,0 -2.86667,-0.71667c-3.58333,2.15 -7.525,4.65833 -11.46667,6.45c-0.35833,2.15 -2.50833,3.58333 -4.65833,3.58333c-0.71667,0 -1.43333,0 -2.15,-0.35833c-6.09167,2.50833 -12.54167,4.65833 -18.63333,6.45c-0.71667,1.79167 -2.50833,3.225 -4.65833,3.225c-1.43333,0 -2.86667,-0.35833 -3.58333,-1.43333c-5.375,0.71667 -11.10833,1.43333 -16.125,1.43333c-3.58333,0 -6.80833,-0.35833 -9.675,-0.71667c-0.71667,0.35833 -1.43333,0.71667 -2.50833,0.71667c-1.79167,0 -3.225,-1.075 -4.3,-2.50833c-6.80833,-2.50833 -10.03333,-6.80833 -10.03333,-11.46667c21.14167,5.73333 104.99167,4.3 143.33333,-94.95833c0,5.01667 -0.35833,9.675 -0.71667,14.33333z" fill="#388e3c"></path><path d="M136.16667,43c2.15,0 3.58333,1.43333 3.58333,3.58333c0,2.15 -1.79167,3.58333 -3.58333,3.58333c-2.15,0 -3.58333,-1.43333 -3.58333,-3.58333c0,-2.15 1.43333,-3.58333 3.58333,-3.58333zM129,82.41667c2.15,0 3.58333,1.43333 3.58333,3.58333c0,2.15 -1.43333,3.58333 -3.58333,3.58333c-2.15,0 -3.58333,-1.43333 -3.58333,-3.58333c0,-2.15 1.43333,-3.58333 3.58333,-3.58333zM118.25,71.66667c2.15,0 3.58333,1.43333 3.58333,3.58333c0,2.15 -1.79167,3.58333 -3.58333,3.58333c-2.15,0 -3.58333,-1.43333 -3.58333,-3.58333c0,-2.15 1.43333,-3.58333 3.58333,-3.58333zM103.91667,107.5c2.15,0 3.58333,1.43333 3.58333,3.58333c0,2.15 -1.43333,3.58333 -3.58333,3.58333c-2.15,0 -3.58333,-1.43333 -3.58333,-3.58333c0,-2.15 1.43333,-3.58333 3.58333,-3.58333zM89.58333,111.08333c2.15,0 3.58333,1.43333 3.58333,3.58333c0,2.15 -1.43333,3.58333 -3.58333,3.58333c-2.15,0 -3.58333,-1.43333 -3.58333,-3.58333c0,-2.15 1.43333,-3.58333 3.58333,-3.58333zM68.08333,129c2.15,0 3.58333,1.43333 3.58333,3.58333c0,2.15 -1.43333,3.58333 -3.58333,3.58333c-2.15,0 -3.58333,-1.43333 -3.58333,-3.58333c0,-2.15 1.43333,-3.58333 3.58333,-3.58333zM43,132.58333c2.15,0 3.58333,1.43333 3.58333,3.58333c0,2.15 -1.43333,3.58333 -3.58333,3.58333c-2.15,0 -3.58333,-1.43333 -3.58333,-3.58333c0,-2.15 1.43333,-3.58333 3.58333,-3.58333z" fill="#aed581"></path></g><path d="M0,172v-172h172v172z" fill="none" stroke="none" stroke-linejoin="miter"></path><g stroke="none" stroke-linejoin="miter"><path d="M157.66667,48.73333c0,-22.21667 -4.65833,-34.4 -15.40833,-34.4c-10.39167,0 -11.825,11.46667 -18.99167,25.08333c-2.15,0.35833 -3.94167,2.15 -3.94167,4.65833c0,0.71667 0,1.43333 0.35833,1.79167c-2.50833,4.3 -5.01667,8.24167 -7.525,12.18333c-0.35833,0 -0.71667,0 -0.71667,0c-2.50833,0 -4.65833,2.15 -4.65833,4.65833c0,1.075 0.35833,1.79167 0.71667,2.50833c-4.65833,6.45 -9.675,12.54167 -14.33333,17.91667c-0.35833,0 -0.35833,0 -0.71667,0c-2.50833,0 -4.65833,2.15 -4.65833,4.65833c0,0.35833 0,0.71667 0,1.075c-5.01667,5.01667 -9.675,9.31667 -14.33333,12.9v0c-2.15,0 -4.3,1.43333 -4.65833,3.58333c-4.65833,3.225 -8.95833,6.45 -13.25833,8.95833c-0.35833,0 -0.71667,-0.35833 -1.075,-0.35833c-2.15,0 -4.3,1.43333 -4.65833,3.58333c-4.3,2.50833 -8.24167,4.65833 -11.825,6.45c-0.71667,-0.35833 -1.79167,-0.71667 -2.50833,-0.71667c-2.50833,0 -4.65833,2.15 -4.65833,4.65833v0c-10.39167,5.375 -16.48333,9.31667 -16.48333,15.76667c0,4.65833 3.225,8.95833 10.03333,11.46667c1.075,1.43333 2.50833,2.50833 4.3,2.50833c1.075,0 1.79167,-0.35833 2.50833,-0.71667c2.86667,0.35833 6.09167,0.71667 9.675,0.71667c5.01667,0 10.75,-0.71667 16.125,-1.43333c0.71667,1.075 2.15,1.43333 3.58333,1.43333c2.15,0 3.94167,-1.43333 4.65833,-3.225c6.09167,-1.79167 12.54167,-3.94167 18.63333,-6.45c0.71667,0.35833 1.43333,0.35833 2.15,0.35833c2.15,0 4.3,-1.43333 4.65833,-3.58333c3.94167,-1.79167 7.88333,-4.3 11.46667,-6.45c0.71667,0.71667 1.79167,0.71667 2.86667,0.71667c2.50833,0 4.65833,-2.15 4.65833,-4.65833c0,-0.35833 0,-0.71667 0,-1.075c3.225,-2.15 6.09167,-4.65833 9.31667,-7.16667c0.71667,0.35833 1.43333,0.35833 2.15,0.35833c2.50833,0 4.65833,-2.15 4.65833,-4.65833c0,-0.71667 0,-1.075 -0.35833,-1.79167c2.86667,-2.86667 5.73333,-6.09167 8.6,-9.31667c2.50833,0 4.65833,-2.15 4.65833,-4.65833c0,-0.35833 0,-0.71667 0,-1.075c2.86667,-4.3 5.73333,-8.6 8.24167,-12.9c2.50833,0 4.65833,-2.15 4.65833,-4.65833c0,-1.075 -0.35833,-2.15 -1.075,-2.86667c2.15,-4.65833 3.58333,-9.675 5.01667,-14.69167c1.43333,-0.71667 2.50833,-2.15 2.50833,-3.94167c0,-1.075 -0.35833,-2.15 -1.075,-2.86667c0.35833,-4.65833 0.71667,-9.31667 0.71667,-14.33333z" fill="#4caf50"></path><path d="M157.66667,48.73333c-38.34167,99.25833 -122.19167,100.69167 -143.33333,94.95833c0,4.65833 3.225,8.95833 10.03333,11.46667c1.075,1.43333 2.50833,2.50833 4.3,2.50833c1.075,0 1.79167,-0.35833 2.50833,-0.71667c2.86667,0.35833 6.09167,0.71667 9.675,0.71667c5.01667,0 10.75,-0.71667 16.125,-1.43333c0.71667,1.075 2.15,1.43333 3.58333,1.43333c2.15,0 3.94167,-1.43333 4.65833,-3.225c6.09167,-1.79167 12.54167,-3.94167 18.63333,-6.45c0.71667,0.35833 1.43333,0.35833 2.15,0.35833c2.15,0 4.3,-1.43333 4.65833,-3.58333c3.94167,-1.79167 7.88333,-4.3 11.46667,-6.45c0.71667,0.71667 1.79167,0.71667 2.86667,0.71667c2.50833,0 4.65833,-2.15 4.65833,-4.65833c0,-0.35833 0,-0.71667 0,-1.075c3.225,-2.15 6.09167,-4.65833 9.31667,-7.16667c0.71667,0.35833 1.43333,0.35833 2.15,0.35833c2.50833,0 4.65833,-2.15 4.65833,-4.65833c0,-0.71667 0,-1.075 -0.35833,-1.79167c2.86667,-2.86667 5.73333,-6.09167 8.6,-9.31667c2.50833,0 4.65833,-2.15 4.65833,-4.65833c0,-0.35833 0,-0.71667 0,-1.075c2.86667,-4.3 5.73333,-8.6 8.24167,-12.9c2.50833,0 4.65833,-2.15 4.65833,-4.65833c0,-1.075 -0.35833,-2.15 -1.075,-2.86667c2.15,-4.65833 3.58333,-9.675 5.01667,-14.69167c1.43333,-0.71667 2.50833,-2.15 2.50833,-3.94167c0,-1.075 -0.35833,-2.15 -1.075,-2.86667c0.35833,-4.65833 0.71667,-9.31667 0.71667,-14.33333z" fill="#388e3c"></path><path d="M136.16667,43c2.15,0 3.58333,1.43333 3.58333,3.58333c0,2.15 -1.79167,3.58333 -3.58333,3.58333c-2.15,0 -3.58333,-1.43333 -3.58333,-3.58333c0,-2.15 1.43333,-3.58333 3.58333,-3.58333zM129,82.41667c2.15,0 3.58333,1.43333 3.58333,3.58333c0,2.15 -1.43333,3.58333 -3.58333,3.58333c-2.15,0 -3.58333,-1.43333 -3.58333,-3.58333c0,-2.15 1.43333,-3.58333 3.58333,-3.58333zM118.25,71.66667c2.15,0 3.58333,1.43333 3.58333,3.58333c0,2.15 -1.79167,3.58333 -3.58333,3.58333c-2.15,0 -3.58333,-1.43333 -3.58333,-3.58333c0,-2.15 1.43333,-3.58333 3.58333,-3.58333zM103.91667,107.5c2.15,0 3.58333,1.43333 3.58333,3.58333c0,2.15 -1.43333,3.58333 -3.58333,3.58333c-2.15,0 -3.58333,-1.43333 -3.58333,-3.58333c0,-2.15 1.43333,-3.58333 3.58333,-3.58333zM89.58333,111.08333c2.15,0 3.58333,1.43333 3.58333,3.58333c0,2.15 -1.43333,3.58333 -3.58333,3.58333c-2.15,0 -3.58333,-1.43333 -3.58333,-3.58333c0,-2.15 1.43333,-3.58333 3.58333,-3.58333zM68.08333,129c2.15,0 3.58333,1.43333 3.58333,3.58333c0,2.15 -1.43333,3.58333 -3.58333,3.58333c-2.15,0 -3.58333,-1.43333 -3.58333,-3.58333c0,-2.15 1.43333,-3.58333 3.58333,-3.58333zM43,132.58333c2.15,0 3.58333,1.43333 3.58333,3.58333c0,2.15 -1.43333,3.58333 -3.58333,3.58333c-2.15,0 -3.58333,-1.43333 -3.58333,-3.58333c0,-2.15 1.43333,-3.58333 3.58333,-3.58333z" fill="#aed581"></path></g><path d="" fill="none" stroke="none" stroke-linejoin="miter"></path></g></g></svg>