<svg version="1.1" xmlns="http://www.w3.org/2000/svg" xmlns:xlink="http://www.w3.org/1999/xlink" viewBox="0 0 172 172"><g transform="translate(0.516,0.516) scale(0.994,0.994)"><g fill="none" fill-rule="nonzero" stroke="none" stroke-width="1" stroke-linecap="butt" stroke-linejoin="none" stroke-miterlimit="10" stroke-dasharray="" stroke-dashoffset="0" font-family="none" font-weight="none" font-size="none" text-anchor="none" style="mix-blend-mode: normal"><g stroke="#cccccc" stroke-linejoin="round"><path d="M45.50833,161.25c-19.35,0 -34.75833,-15.76667 -34.75833,-34.75833c0,-27.23333 16.48333,-33.325 33.68333,-39.41667c8.95833,-3.225 18.63333,-6.45 27.23333,-13.25833c6.45,-4.65833 12.18333,-10.39167 17.91667,-16.48333c7.525,-8.24167 13.25833,-12.9 14.33333,-14.33333c0.71667,-1.075 10.03333,-5.375 10.75,-4.65833c0,0 15.05,-5.01667 25.08333,4.65833c10.03333,9.675 7.16667,27.59167 7.16667,28.66667c-3.58333,37.26667 -50.16667,89.58333 -101.40833,89.58333z" fill="#4a148c"></path><path d="M154.08333,10.75l7.16667,7.16667c0,0 -7.88333,13.61667 -14.33333,21.5c5.01667,6.45 11.10833,17.2 3.58333,35.83333c-7.525,-2.15 -14.33333,-17.91667 -14.33333,-17.91667c0,0 -4.3,5.375 -17.91667,7.16667c-1.075,-13.25833 3.58333,-17.91667 3.58333,-17.91667c0,0 -16.48333,1.43333 -21.5,-3.58333c0,0 10.03333,-18.99167 35.83333,-10.75c10.03333,-7.16667 17.91667,-21.5 17.91667,-21.5z" fill="#4caf50"></path><path d="M25.08333,129c-1.79167,0 -3.225,-1.075 -3.58333,-2.86667c0,-0.71667 -2.50833,-15.40833 20.06667,-25.44167c2.50833,-1.075 5.01667,-2.15 7.525,-3.225c18.275,-7.88333 36.90833,-16.125 52.31667,-35.11667c1.075,-1.43333 3.58333,-1.79167 5.01667,-0.71667c1.43333,1.075 1.79167,3.58333 0.71667,5.01667c-16.48333,20.425 -36.90833,29.38333 -54.825,37.26667c-2.50833,1.075 -5.01667,2.15 -7.16667,3.225c-17.55833,7.525 -16.48333,17.2 -16.48333,17.55833c0.35833,1.79167 -1.075,3.58333 -2.86667,3.94167c-0.35833,0.35833 -0.71667,0.35833 -0.71667,0.35833z" fill="#9575cd"></path></g><path d="M0,172v-172h172v172z" fill="none" stroke="none" stroke-linejoin="miter"></path><g stroke="none" stroke-linejoin="miter"><path d="M45.50833,161.25c-19.35,0 -34.75833,-15.76667 -34.75833,-34.75833c0,-27.23333 16.48333,-33.325 33.68333,-39.41667c8.95833,-3.225 18.63333,-6.45 27.23333,-13.25833c6.45,-4.65833 12.18333,-10.39167 17.91667,-16.48333c7.525,-8.24167 13.25833,-12.9 14.33333,-14.33333c0.71667,-1.075 10.03333,-5.375 10.75,-4.65833c0,0 15.05,-5.01667 25.08333,4.65833c10.03333,9.675 7.16667,27.59167 7.16667,28.66667c-3.58333,37.26667 -50.16667,89.58333 -101.40833,89.58333z" fill="#4a148c"></path><path d="M154.08333,10.75l7.16667,7.16667c0,0 -7.88333,13.61667 -14.33333,21.5c5.01667,6.45 11.10833,17.2 3.58333,35.83333c-7.525,-2.15 -14.33333,-17.91667 -14.33333,-17.91667c0,0 -4.3,5.375 -17.91667,7.16667c-1.075,-13.25833 3.58333,-17.91667 3.58333,-17.91667c0,0 -16.48333,1.43333 -21.5,-3.58333c0,0 10.03333,-18.99167 35.83333,-10.75c10.03333,-7.16667 17.91667,-21.5 17.91667,-21.5z" fill="#4caf50"></path><path d="M25.08333,129c-1.79167,0 -3.225,-1.075 -3.58333,-2.86667c0,-0.71667 -2.50833,-15.40833 20.06667,-25.44167c2.50833,-1.075 5.01667,-2.15 7.525,-3.225c18.275,-7.88333 36.90833,-16.125 52.31667,-35.11667c1.075,-1.43333 3.58333,-1.79167 5.01667,-0.71667c1.43333,1.075 1.79167,3.58333 0.71667,5.01667c-16.48333,20.425 -36.90833,29.38333 -54.825,37.26667c-2.50833,1.075 -5.01667,2.15 -7.16667,3.225c-17.55833,7.525 -16.48333,17.2 -16.48333,17.55833c0.35833,1.79167 -1.075,3.58333 -2.86667,3.94167c-0.35833,0.35833 -0.71667,0.35833 -0.71667,0.35833z" fill="#9575cd"></path></g><path d="" fill="none" stroke="none" stroke-linejoin="miter"></path></g></g></svg>