<svg version="1.1" xmlns="http://www.w3.org/2000/svg" xmlns:xlink="http://www.w3.org/1999/xlink" viewBox="0 0 172 172"><defs><radialGradient cx="33.798" cy="96.84675" r="20.65792" gradientUnits="userSpaceOnUse" id="color-1"><stop offset="0" stop-color="#133152"></stop><stop offset="0.208" stop-color="#15375d"></stop><stop offset="0.57" stop-color="#1c4979"></stop><stop offset="1" stop-color="#2562a3"></stop></radialGradient><radialGradient cx="128.98925" cy="86.48017" r="54.868" gradientUnits="userSpaceOnUse" id="color-2"><stop offset="0" stop-color="#0b4787"></stop><stop offset="0.186" stop-color="#0e4d8e"></stop><stop offset="0.453" stop-color="#165ea1"></stop><stop offset="0.766" stop-color="#2379bf"></stop><stop offset="1" stop-color="#2f91db"></stop></radialGradient><radialGradient cx="71.40867" cy="71.60933" r="72.67" gradientUnits="userSpaceOnUse" id="color-3"><stop offset="0" stop-color="#0b4787"></stop><stop offset="0.186" stop-color="#0e4d8e"></stop><stop offset="0.453" stop-color="#165ea1"></stop><stop offset="0.766" stop-color="#2379bf"></stop><stop offset="1" stop-color="#2f91db"></stop></radialGradient><radialGradient cx="71.48184" cy="10.31855" r="168.48848" gradientUnits="userSpaceOnUse" id="color-4"><stop offset="0.554" stop-color="#137ef0"></stop><stop offset="0.63" stop-color="#1e88f3"></stop><stop offset="0.76" stop-color="#3aa1fa"></stop><stop offset="0.835" stop-color="#4db2ff"></stop><stop offset="0.845" stop-color="#80c8ff"></stop><stop offset="1" stop-color="#7abef2"></stop></radialGradient><radialGradient cx="35.10233" cy="85.55567" r="45.59792" gradientUnits="userSpaceOnUse" id="color-5"><stop offset="0.847" stop-color="#002954"></stop><stop offset="0.872" stop-color="#003263" stop-opacity="0.837"></stop><stop offset="0.92" stop-color="#004b89" stop-opacity="0.524"></stop><stop offset="0.985" stop-color="#0073c7" stop-opacity="0.098"></stop><stop offset="1" stop-color="#007dd6" stop-opacity="0"></stop></radialGradient><radialGradient cx="86.79198" cy="85.42667" r="41.968" gradientUnits="userSpaceOnUse" id="color-6"><stop offset="0.095" stop-color="#dbedff"></stop><stop offset="1" stop-color="#dbedff" stop-opacity="0"></stop></radialGradient><radialGradient cx="118.62625" cy="89.68787" r="65.3815" gradientUnits="userSpaceOnUse" id="color-7"><stop offset="0.54" stop-color="#64affa"></stop><stop offset="1" stop-color="#64affa" stop-opacity="0"></stop></radialGradient><radialGradient cx="156.35517" cy="91.8265" r="85.03967" gradientUnits="userSpaceOnUse" id="color-8"><stop offset="0.345" stop-color="#0b4787"></stop><stop offset="0.467" stop-color="#0e4d8e"></stop><stop offset="0.642" stop-color="#165ea1"></stop><stop offset="0.847" stop-color="#2379bf"></stop><stop offset="1" stop-color="#2f91db"></stop></radialGradient><radialGradient cx="160.37567" cy="86.98721" r="60.501" gradientUnits="userSpaceOnUse" id="color-9"><stop offset="0.345" stop-color="#0b4787"></stop><stop offset="0.467" stop-color="#0e4d8e"></stop><stop offset="0.642" stop-color="#165ea1"></stop><stop offset="0.847" stop-color="#2379bf"></stop><stop offset="1" stop-color="#2f91db"></stop></radialGradient><radialGradient cx="33.798" cy="96.84675" r="20.65792" gradientUnits="userSpaceOnUse" id="color-10"><stop offset="0" stop-color="#133152"></stop><stop offset="0.208" stop-color="#15375d"></stop><stop offset="0.57" stop-color="#1c4979"></stop><stop offset="1" stop-color="#2562a3"></stop></radialGradient><radialGradient cx="128.98925" cy="86.48017" r="54.868" gradientUnits="userSpaceOnUse" id="color-11"><stop offset="0" stop-color="#0b4787"></stop><stop offset="0.186" stop-color="#0e4d8e"></stop><stop offset="0.453" stop-color="#165ea1"></stop><stop offset="0.766" stop-color="#2379bf"></stop><stop offset="1" stop-color="#2f91db"></stop></radialGradient><radialGradient cx="71.40867" cy="71.60933" r="72.67" gradientUnits="userSpaceOnUse" id="color-12"><stop offset="0" stop-color="#0b4787"></stop><stop offset="0.186" stop-color="#0e4d8e"></stop><stop offset="0.453" stop-color="#165ea1"></stop><stop offset="0.766" stop-color="#2379bf"></stop><stop offset="1" stop-color="#2f91db"></stop></radialGradient><radialGradient cx="71.48184" cy="10.31855" r="168.48848" gradientUnits="userSpaceOnUse" id="color-13"><stop offset="0.554" stop-color="#137ef0"></stop><stop offset="0.63" stop-color="#1e88f3"></stop><stop offset="0.76" stop-color="#3aa1fa"></stop><stop offset="0.835" stop-color="#4db2ff"></stop><stop offset="0.845" stop-color="#80c8ff"></stop><stop offset="1" stop-color="#7abef2"></stop></radialGradient><radialGradient cx="35.10233" cy="85.55567" r="45.59792" gradientUnits="userSpaceOnUse" id="color-14"><stop offset="0.847" stop-color="#002954"></stop><stop offset="0.872" stop-color="#003263" stop-opacity="0.837"></stop><stop offset="0.92" stop-color="#004b89" stop-opacity="0.524"></stop><stop offset="0.985" stop-color="#0073c7" stop-opacity="0.098"></stop><stop offset="1" stop-color="#007dd6" stop-opacity="0"></stop></radialGradient><radialGradient cx="86.79198" cy="85.42667" r="41.968" gradientUnits="userSpaceOnUse" id="color-15"><stop offset="0.095" stop-color="#dbedff"></stop><stop offset="1" stop-color="#dbedff" stop-opacity="0"></stop></radialGradient><radialGradient cx="118.62625" cy="89.68787" r="65.3815" gradientUnits="userSpaceOnUse" id="color-16"><stop offset="0.54" stop-color="#64affa"></stop><stop offset="1" stop-color="#64affa" stop-opacity="0"></stop></radialGradient><radialGradient cx="156.35517" cy="91.8265" r="85.03967" gradientUnits="userSpaceOnUse" id="color-17"><stop offset="0.345" stop-color="#0b4787"></stop><stop offset="0.467" stop-color="#0e4d8e"></stop><stop offset="0.642" stop-color="#165ea1"></stop><stop offset="0.847" stop-color="#2379bf"></stop><stop offset="1" stop-color="#2f91db"></stop></radialGradient><radialGradient cx="160.37567" cy="86.98721" r="60.501" gradientUnits="userSpaceOnUse" id="color-18"><stop offset="0.345" stop-color="#0b4787"></stop><stop offset="0.467" stop-color="#0e4d8e"></stop><stop offset="0.642" stop-color="#165ea1"></stop><stop offset="0.847" stop-color="#2379bf"></stop><stop offset="1" stop-color="#2f91db"></stop></radialGradient></defs><g transform="translate(0.516,0.516) scale(0.994,0.994)"><g fill="none" fill-rule="nonzero" stroke="none" stroke-width="1" stroke-linecap="butt" stroke-linejoin="none" stroke-miterlimit="10" stroke-dasharray="" stroke-dashoffset="0" font-family="none" font-weight="none" font-size="none" text-anchor="none" style="mix-blend-mode: normal"><g stroke="#cccccc" stroke-linejoin="round"><path d="M14.33333,86c14.33333,0 19.13858,9.95092 19.13858,10.75c0,0.79908 -4.80525,3.58333 -17.34692,3.58333c0,0 6.59692,-4.03842 6.59692,-5.375c0,-1.33658 -8.38858,-8.95833 -8.38858,-8.95833z" fill="url(#color-1)"></path><path d="M157.66667,86c0,14.33333 9.87567,35.83333 6.29233,35.83333c-10.75,0 -27.79233,-28.66667 -34.959,-28.66667v-14.33333c7.16667,0 24.209,-28.66667 34.959,-28.66667c3.58333,0 -6.29233,21.5 -6.29233,35.83333z" fill="url(#color-2)"></path><path d="M128.95342,68.91108c2.70542,10.40242 -89.58333,-11.62433 -89.58333,-11.62433c0,-23.01217 21.54658,-35.78675 21.54658,-35.78675c12.42342,0 58.54808,10.92917 68.03675,47.41108z" fill="url(#color-3)"></path><path d="M143.33333,86c0,14.16133 -34.82283,46.58333 -70.44475,46.58333c-28.62008,0 -50.14875,-14.11833 -56.76358,-32.25c0,0 12.54167,0 16.125,-3.58333c-3.58333,-7.16667 -17.91667,-10.75 -17.91667,-10.75c0,-25.03317 22.93333,-46.58333 58.55525,-46.58333c35.62192,0 70.44475,32.422 70.44475,46.58333z" fill="url(#color-4)"></path><path d="M57.78125,46.58333c14.57342,7.14517 24.63542,22.08767 24.63542,39.41667c0,17.329 -10.062,32.2715 -24.639,39.41667c9.80042,-10.25192 15.85267,-24.11583 15.85267,-39.41667c0,-15.30083 -6.05225,-29.16475 -15.84908,-39.41667z" fill="url(#color-5)"></path><path d="M72.00708,99.54142c-2.41875,9.88283 -7.4175,18.75158 -14.22942,25.87525c-8.09475,-8.09475 -15.85983,-16.88108 -18.963,-28.46242c7.783,0.95675 21.91925,1.935 33.19242,2.58717z" fill="url(#color-6)"></path><path d="M38.83975,96.95783c-0.91375,-3.40058 -1.44408,-7.02333 -1.44408,-10.95783c0,-17.329 7.32792,-26.36258 20.382,-39.41667c9.80042,10.25192 15.85267,24.11583 15.85267,39.41667c0,4.67625 -0.62708,9.19483 -1.69133,13.53783c-11.24808,-0.65217 -25.32342,-1.62683 -33.09925,-2.58z" fill="url(#color-7)"></path><path d="M32.25,75.25c0,-3.95804 3.20863,-7.16667 7.16667,-7.16667c3.95804,0 7.16667,3.20863 7.16667,7.16667c0,3.95804 -3.20863,7.16667 -7.16667,7.16667c-3.95804,0 -7.16667,-3.20863 -7.16667,-7.16667z" fill="#ffffff"></path><path d="M35.83333,75.25c0,-1.97902 1.60431,-3.58333 3.58333,-3.58333c1.97902,0 3.58333,1.60431 3.58333,3.58333c0,1.97902 -1.60431,3.58333 -3.58333,3.58333c-1.97902,0 -3.58333,-1.60431 -3.58333,-3.58333z" fill="#212121"></path><path d="M71.66667,129c12.50942,-2.06042 25.08333,-7.16667 25.08333,-7.16667c3.58333,10.75 14.93533,24.64617 8.84725,25.04033c-15.98167,1.03558 -31.3685,-12.57033 -33.93058,-17.87367z" fill="url(#color-8)"></path><path d="M106.14192,118.75525c7.30283,-3.14617 15.42267,-8.87592 15.42267,-8.87592c2.99925,9.81117 10.02975,18.87342 6.43925,19.10633c-9.42417,0.61275 -19.52917,-5.6975 -21.86192,-10.23042z" fill="url(#color-9)"></path></g><path d="M0,172v-172h172v172z" fill="none" stroke="none" stroke-linejoin="miter"></path><g stroke="none" stroke-linejoin="miter"><path d="M14.33333,86c14.33333,0 19.13858,9.95092 19.13858,10.75c0,0.79908 -4.80525,3.58333 -17.34692,3.58333c0,0 6.59692,-4.03842 6.59692,-5.375c0,-1.33658 -8.38858,-8.95833 -8.38858,-8.95833z" fill="url(#color-10)"></path><path d="M163.959,50.16667c-10.75,0 -27.79233,28.66667 -34.959,28.66667v14.33333c7.16667,0 24.209,28.66667 34.959,28.66667c3.58333,0 -6.29233,-21.5 -6.29233,-35.83333c0,-14.33333 9.87567,-35.83333 6.29233,-35.83333z" fill="url(#color-11)"></path><path d="M60.91667,21.5c0,0 -21.54658,12.77458 -21.54658,35.78675c0,0 92.28875,22.02675 89.58333,11.62433c-9.48867,-36.48192 -55.61333,-47.41108 -68.03675,-47.41108z" fill="url(#color-12)"></path><path d="M72.88858,39.41667c-35.62192,0 -58.55525,21.55017 -58.55525,46.58333c0,0 14.33333,3.58333 17.91667,10.75c-3.58333,3.58333 -16.125,3.58333 -16.125,3.58333c6.61483,18.13167 28.1435,32.25 56.76358,32.25c35.62192,0 70.44475,-32.422 70.44475,-46.58333c0,-14.16133 -34.82283,-46.58333 -70.44475,-46.58333z" fill="url(#color-13)"></path><path d="M73.63033,86c0,15.30083 -6.05225,29.16475 -15.85267,39.41667c14.577,-7.14517 24.639,-22.08767 24.639,-39.41667c0,-17.329 -10.062,-32.2715 -24.63542,-39.41667c9.79683,10.25192 15.84908,24.11583 15.84908,39.41667z" fill="url(#color-14)"></path><path d="M72.00708,99.54142c-2.41875,9.88283 -7.4175,18.75158 -14.22942,25.87525c-8.09475,-8.09475 -15.85983,-16.88108 -18.963,-28.46242c7.783,0.95675 21.91925,1.935 33.19242,2.58717z" fill="url(#color-15)"></path><path d="M71.939,99.53783c1.06425,-4.343 1.69133,-8.86158 1.69133,-13.53783c0,-15.30083 -6.05225,-29.16475 -15.85267,-39.41667c-13.05408,13.05408 -20.382,22.08767 -20.382,39.41667c0,3.9345 0.53033,7.55725 1.44408,10.95783c7.77583,0.95317 21.85117,1.92783 33.09925,2.58z" fill="url(#color-16)"></path><circle cx="11" cy="21" transform="scale(3.58333,3.58333)" r="2" fill="#ffffff"></circle><circle cx="11" cy="21" transform="scale(3.58333,3.58333)" r="1" fill="#212121"></circle><path d="M105.59725,146.87367c6.08808,-0.39417 -5.26392,-14.29033 -8.84725,-25.04033c0,0 -12.57392,5.10625 -25.08333,7.16667c2.56208,5.30333 17.94892,18.90925 33.93058,17.87367z" fill="url(#color-17)"></path><path d="M128.00383,128.98567c3.5905,-0.23292 -3.44,-9.29517 -6.43925,-19.10633c0,0 -8.11983,5.72975 -15.42267,8.87592c2.33275,4.53292 12.43775,10.84317 21.86192,10.23042z" fill="url(#color-18)"></path></g><path d="" fill="none" stroke="none" stroke-linejoin="miter"></path></g></g></svg>