<svg version="1.1" xmlns="http://www.w3.org/2000/svg" xmlns:xlink="http://www.w3.org/1999/xlink" viewBox="0 0 172 172"><defs><linearGradient x1="86" y1="38.57458" x2="86" y2="213.76375" gradientUnits="userSpaceOnUse" id="color-1"><stop offset="0" stop-color="#ffcf7b"></stop><stop offset="0.196" stop-color="#fecd76"></stop><stop offset="0.439" stop-color="#fac666"></stop><stop offset="0.709" stop-color="#f3bc4d"></stop><stop offset="0.995" stop-color="#eaad2a"></stop><stop offset="1" stop-color="#eaad29"></stop></linearGradient><linearGradient x1="86" y1="294.04475" x2="86" y2="72.68792" gradientUnits="userSpaceOnUse" id="color-2"><stop offset="0" stop-color="#ffda94"></stop><stop offset="1" stop-color="#fff0ce"></stop></linearGradient><linearGradient x1="86" y1="38.57458" x2="86" y2="213.76375" gradientUnits="userSpaceOnUse" id="color-3"><stop offset="0" stop-color="#ffcf7b"></stop><stop offset="0.196" stop-color="#fecd76"></stop><stop offset="0.439" stop-color="#fac666"></stop><stop offset="0.709" stop-color="#f3bc4d"></stop><stop offset="0.995" stop-color="#eaad2a"></stop><stop offset="1" stop-color="#eaad29"></stop></linearGradient><linearGradient x1="86" y1="294.04475" x2="86" y2="72.68792" gradientUnits="userSpaceOnUse" id="color-4"><stop offset="0" stop-color="#ffda94"></stop><stop offset="1" stop-color="#fff0ce"></stop></linearGradient></defs><g transform="translate(0.516,0.516) scale(0.994,0.994)"><g fill="none" fill-rule="nonzero" stroke="none" stroke-width="1" stroke-linecap="butt" stroke-linejoin="none" stroke-miterlimit="10" stroke-dasharray="" stroke-dashoffset="0" font-family="none" font-weight="none" font-size="none" text-anchor="none" style="mix-blend-mode: normal"><g stroke="#cccccc" stroke-linejoin="round"><path d="M146.91667,112.62058c0,28.66667 -16.37942,45.04608 -32.76242,45.04608c-10.58158,0 -20.52892,-3.60483 -28.15425,-10.86108c-7.62533,7.25625 -17.57267,10.86108 -28.15425,10.86108c-16.383,0 -32.76242,-16.37942 -32.76242,-45.04608c0,-33.2605 37.28817,-68.19083 60.06383,-69.55608c0.11467,-0.00717 0.22217,-0.0645 0.34042,-0.0645c0.16842,0 0.344,0.0215 0.51242,0.02508c0.16842,-0.00358 0.344,-0.02508 0.51242,-0.02508c0.11825,0 0.22575,0.05733 0.34042,0.0645c22.77567,1.36525 60.06383,36.29558 60.06383,69.55608z" fill="url(#color-1)"></path><path d="M99.07917,48.6975c13.31925,11.86442 22.75417,40.21575 22.75417,65.2525c0,32.65492 -16.04258,47.3 -35.83333,47.3c-19.79075,0 -35.83333,-14.64508 -35.83333,-47.3c0,-25.03675 9.43492,-53.38808 22.75417,-65.2525c1.50142,-1.33658 2.32917,-3.25367 2.32917,-5.26392v-21.93358c0,-1.978 1.60533,-3.58333 3.58333,-3.58333h14.33333c1.978,0 3.58333,1.60533 3.58333,3.58333v21.93358c0,2.01025 0.82775,3.92733 2.32917,5.26392z" fill="url(#color-2)"></path></g><path d="M0,172v-172h172v172z" fill="none" stroke="none" stroke-linejoin="miter"></path><g stroke="none" stroke-linejoin="miter"><path d="M86.85283,43.0645c-0.11467,-0.00717 -0.22217,-0.0645 -0.34042,-0.0645c-0.16842,0 -0.344,0.0215 -0.51242,0.02508c-0.16842,-0.00358 -0.344,-0.02508 -0.51242,-0.02508c-0.11825,0 -0.22575,0.05733 -0.34042,0.0645c-22.77567,1.36525 -60.06383,36.29558 -60.06383,69.55608c0,28.66667 16.37942,45.04608 32.76242,45.04608c10.58158,0 20.52892,-3.60483 28.15425,-10.86108c7.62533,7.25625 17.57267,10.86108 28.15425,10.86108c16.383,0 32.76242,-16.37942 32.76242,-45.04608c0,-33.2605 -37.28817,-68.19083 -60.06383,-69.55608z" fill="url(#color-3)"></path><path d="M96.75,43.43358v-21.93358c0,-1.978 -1.60533,-3.58333 -3.58333,-3.58333h-14.33333c-1.978,0 -3.58333,1.60533 -3.58333,3.58333v21.93358c0,2.01025 -0.82775,3.92733 -2.32917,5.26392c-13.31925,11.86442 -22.75417,40.21575 -22.75417,65.2525c0,32.65492 16.04258,47.3 35.83333,47.3c19.79075,0 35.83333,-14.64508 35.83333,-47.3c0,-25.03675 -9.43492,-53.38808 -22.75417,-65.2525c-1.50142,-1.33658 -2.32917,-3.25367 -2.32917,-5.26392z" fill="url(#color-4)"></path></g><path d="" fill="none" stroke="none" stroke-linejoin="miter"></path></g></g></svg>