<svg version="1.1" xmlns="http://www.w3.org/2000/svg" xmlns:xlink="http://www.w3.org/1999/xlink" viewBox="0 0 172 172"><defs><linearGradient x1="102.684" y1="70.434" x2="142.50917" y2="110.25917" gradientUnits="userSpaceOnUse" id="color-1"><stop offset="0" stop-color="#9631cc"></stop><stop offset="1" stop-color="#7717a2"></stop></linearGradient><linearGradient x1="127.54517" y1="30.90267" x2="106.94458" y2="54.49175" gradientUnits="userSpaceOnUse" id="color-2"><stop offset="0" stop-color="#d4943b"></stop><stop offset="1" stop-color="#c2620e"></stop><stop offset="1" stop-color="#c2620e"></stop></linearGradient><linearGradient x1="21.16317" y1="121.4965" x2="59.30417" y2="159.6375" gradientUnits="userSpaceOnUse" id="color-3"><stop offset="0" stop-color="#9631cc"></stop><stop offset="1" stop-color="#7717a2"></stop></linearGradient><linearGradient x1="44.45483" y1="112.53817" x2="85.73842" y2="153.82175" gradientUnits="userSpaceOnUse" id="color-4"><stop offset="0" stop-color="#9631cc"></stop><stop offset="1" stop-color="#7717a2"></stop></linearGradient><linearGradient x1="27.32292" y1="95.40625" x2="66.90083" y2="134.98417" gradientUnits="userSpaceOnUse" id="color-5"><stop offset="0" stop-color="#9631cc"></stop><stop offset="1" stop-color="#7717a2"></stop></linearGradient><linearGradient x1="34.15275" y1="69.98608" x2="73.2075" y2="109.04083" gradientUnits="userSpaceOnUse" id="color-6"><stop offset="0" stop-color="#9631cc"></stop><stop offset="1" stop-color="#7717a2"></stop></linearGradient><linearGradient x1="67.29858" y1="35.04858" x2="104.99167" y2="72.74167" gradientUnits="userSpaceOnUse" id="color-7"><stop offset="0" stop-color="#9631cc"></stop><stop offset="1" stop-color="#7717a2"></stop></linearGradient><linearGradient x1="85.10417" y1="52.85417" x2="124.45992" y2="92.20992" gradientUnits="userSpaceOnUse" id="color-8"><stop offset="0" stop-color="#9631cc"></stop><stop offset="1" stop-color="#7717a2"></stop></linearGradient><linearGradient x1="69.65283" y1="105.48617" x2="110.40967" y2="146.243" gradientUnits="userSpaceOnUse" id="color-9"><stop offset="0" stop-color="#9631cc"></stop><stop offset="1" stop-color="#7717a2"></stop></linearGradient><linearGradient x1="52.06942" y1="87.90275" x2="90.80883" y2="126.64217" gradientUnits="userSpaceOnUse" id="color-10"><stop offset="0" stop-color="#9631cc"></stop><stop offset="1" stop-color="#7717a2"></stop></linearGradient><linearGradient x1="42.77783" y1="46.36117" x2="81.06217" y2="84.6455" gradientUnits="userSpaceOnUse" id="color-11"><stop offset="0" stop-color="#9631cc"></stop><stop offset="1" stop-color="#7717a2"></stop></linearGradient><linearGradient x1="94.51042" y1="98.09375" x2="135.41058" y2="138.99392" gradientUnits="userSpaceOnUse" id="color-12"><stop offset="0" stop-color="#9631cc"></stop><stop offset="1" stop-color="#7717a2"></stop></linearGradient><linearGradient x1="58.90283" y1="62.48617" x2="99.029" y2="102.61233" gradientUnits="userSpaceOnUse" id="color-13"><stop offset="0" stop-color="#9631cc"></stop><stop offset="1" stop-color="#7717a2"></stop></linearGradient><linearGradient x1="76.8195" y1="80.40283" x2="119.12792" y2="122.71125" gradientUnits="userSpaceOnUse" id="color-14"><stop offset="0" stop-color="#9631cc"></stop><stop offset="1" stop-color="#7717a2"></stop></linearGradient><linearGradient x1="102.684" y1="70.434" x2="142.50917" y2="110.25917" gradientUnits="userSpaceOnUse" id="color-15"><stop offset="0" stop-color="#9631cc"></stop><stop offset="1" stop-color="#7717a2"></stop></linearGradient><linearGradient x1="127.54517" y1="30.90267" x2="106.94458" y2="54.49175" gradientUnits="userSpaceOnUse" id="color-16"><stop offset="0" stop-color="#d4943b"></stop><stop offset="1" stop-color="#c2620e"></stop><stop offset="1" stop-color="#c2620e"></stop></linearGradient><linearGradient x1="21.16317" y1="121.4965" x2="59.30417" y2="159.6375" gradientUnits="userSpaceOnUse" id="color-17"><stop offset="0" stop-color="#9631cc"></stop><stop offset="1" stop-color="#7717a2"></stop></linearGradient><linearGradient x1="44.45483" y1="112.53817" x2="85.73842" y2="153.82175" gradientUnits="userSpaceOnUse" id="color-18"><stop offset="0" stop-color="#9631cc"></stop><stop offset="1" stop-color="#7717a2"></stop></linearGradient><linearGradient x1="27.32292" y1="95.40625" x2="66.90083" y2="134.98417" gradientUnits="userSpaceOnUse" id="color-19"><stop offset="0" stop-color="#9631cc"></stop><stop offset="1" stop-color="#7717a2"></stop></linearGradient><linearGradient x1="34.15275" y1="69.98608" x2="73.2075" y2="109.04083" gradientUnits="userSpaceOnUse" id="color-20"><stop offset="0" stop-color="#9631cc"></stop><stop offset="1" stop-color="#7717a2"></stop></linearGradient><linearGradient x1="67.29858" y1="35.04858" x2="104.99167" y2="72.74167" gradientUnits="userSpaceOnUse" id="color-21"><stop offset="0" stop-color="#9631cc"></stop><stop offset="1" stop-color="#7717a2"></stop></linearGradient><linearGradient x1="85.10417" y1="52.85417" x2="124.45992" y2="92.20992" gradientUnits="userSpaceOnUse" id="color-22"><stop offset="0" stop-color="#9631cc"></stop><stop offset="1" stop-color="#7717a2"></stop></linearGradient><linearGradient x1="69.65283" y1="105.48617" x2="110.40967" y2="146.243" gradientUnits="userSpaceOnUse" id="color-23"><stop offset="0" stop-color="#9631cc"></stop><stop offset="1" stop-color="#7717a2"></stop></linearGradient><linearGradient x1="52.06942" y1="87.90275" x2="90.80883" y2="126.64217" gradientUnits="userSpaceOnUse" id="color-24"><stop offset="0" stop-color="#9631cc"></stop><stop offset="1" stop-color="#7717a2"></stop></linearGradient><linearGradient x1="42.77783" y1="46.36117" x2="81.06217" y2="84.6455" gradientUnits="userSpaceOnUse" id="color-25"><stop offset="0" stop-color="#9631cc"></stop><stop offset="1" stop-color="#7717a2"></stop></linearGradient><linearGradient x1="94.51042" y1="98.09375" x2="135.41058" y2="138.99392" gradientUnits="userSpaceOnUse" id="color-26"><stop offset="0" stop-color="#9631cc"></stop><stop offset="1" stop-color="#7717a2"></stop></linearGradient><linearGradient x1="58.90283" y1="62.48617" x2="99.029" y2="102.61233" gradientUnits="userSpaceOnUse" id="color-27"><stop offset="0" stop-color="#9631cc"></stop><stop offset="1" stop-color="#7717a2"></stop></linearGradient><linearGradient x1="76.8195" y1="80.40283" x2="119.12792" y2="122.71125" gradientUnits="userSpaceOnUse" id="color-28"><stop offset="0" stop-color="#9631cc"></stop><stop offset="1" stop-color="#7717a2"></stop></linearGradient></defs><g transform="translate(0.43,0.43) scale(0.995,0.995)"><g fill="none" fill-rule="nonzero" stroke="none" stroke-width="1" stroke-linecap="butt" stroke-linejoin="none" stroke-miterlimit="10" stroke-dasharray="" stroke-dashoffset="0" font-family="none" font-weight="none" font-size="none" text-anchor="none" style="mix-blend-mode: normal"><g stroke="#cccccc" stroke-linejoin="round"><path d="M103.91667,89.58333c0,-9.8951 8.02156,-17.91667 17.91667,-17.91667c9.8951,0 17.91667,8.02156 17.91667,17.91667c0,9.8951 -8.02156,17.91667 -17.91667,17.91667c-9.8951,0 -17.91667,-8.02156 -17.91667,-17.91667z" fill="url(#color-1)"></path><path d="M161.25,25.08333c0,1.978 -1.60175,3.58333 -3.58333,3.58333c-6.149,0 -12.53092,3.26442 -18.96658,9.70008l-32.121,35.69717c-0.70592,0.78475 -1.68417,1.18608 -2.66242,1.18608c-0.85283,0 -1.71283,-0.301 -2.39725,-0.92092c-1.46917,-1.32225 -1.58742,-3.58692 -0.26517,-5.05967l23.80408,-26.44858c2.021,-2.05683 3.16767,-4.74433 3.21783,-7.5895c0.04658,-2.86308 -1.02125,-5.53983 -3.02075,-7.53933c-4.05992,-4.05992 -11.14058,-4.05992 -15.2005,0c-1.40108,1.40108 -3.66575,1.40108 -5.06683,0c-1.40108,-1.3975 -1.40108,-3.66575 0,-5.06683c3.38267,-3.38267 7.87975,-5.246 12.66708,-5.246c4.78733,0 9.28442,1.86333 12.66708,5.246c2.5585,2.5585 4.214,5.76558 4.8375,9.25933c7.42108,-6.89792 14.94967,-10.3845 22.50692,-10.3845c1.98158,0 3.58333,1.60533 3.58333,3.58333z" fill="url(#color-2)"></path><path d="M21.5,139.75c0,-9.8951 8.02156,-17.91667 17.91667,-17.91667c9.8951,0 17.91667,8.02156 17.91667,17.91667c0,9.8951 -8.02156,17.91667 -17.91667,17.91667c-9.8951,0 -17.91667,-8.02156 -17.91667,-17.91667z" fill="url(#color-3)"></path><path d="M46.58333,132.58333c0,-9.8951 8.02156,-17.91667 17.91667,-17.91667c9.8951,0 17.91667,8.02156 17.91667,17.91667c0,9.8951 -8.02156,17.91667 -17.91667,17.91667c-9.8951,0 -17.91667,-8.02156 -17.91667,-17.91667z" fill="url(#color-4)"></path><path d="M28.66667,114.66667c0,-9.8951 8.02156,-17.91667 17.91667,-17.91667c9.8951,0 17.91667,8.02156 17.91667,17.91667c0,9.8951 -8.02156,17.91667 -17.91667,17.91667c-9.8951,0 -17.91667,-8.02156 -17.91667,-17.91667z" fill="url(#color-5)"></path><path d="M35.83333,89.58333c0,-9.8951 8.02156,-17.91667 17.91667,-17.91667c9.8951,0 17.91667,8.02156 17.91667,17.91667c0,9.8951 -8.02156,17.91667 -17.91667,17.91667c-9.8951,0 -17.91667,-8.02156 -17.91667,-17.91667z" fill="url(#color-6)"></path><path d="M68.08333,53.75c0,-9.8951 8.02156,-17.91667 17.91667,-17.91667c9.8951,0 17.91667,8.02156 17.91667,17.91667c0,9.8951 -8.02156,17.91667 -17.91667,17.91667c-9.8951,0 -17.91667,-8.02156 -17.91667,-17.91667z" fill="url(#color-7)"></path><path d="M86,71.66667c0,-9.8951 8.02156,-17.91667 17.91667,-17.91667c9.8951,0 17.91667,8.02156 17.91667,17.91667c0,9.8951 -8.02156,17.91667 -17.91667,17.91667c-9.8951,0 -17.91667,-8.02156 -17.91667,-17.91667z" fill="url(#color-8)"></path><path d="M71.66667,125.41667c0,-9.8951 8.02156,-17.91667 17.91667,-17.91667c9.8951,0 17.91667,8.02156 17.91667,17.91667c0,9.8951 -8.02156,17.91667 -17.91667,17.91667c-9.8951,0 -17.91667,-8.02156 -17.91667,-17.91667z" fill="url(#color-9)"></path><path d="M53.75,107.5c0,-9.8951 8.02156,-17.91667 17.91667,-17.91667c9.8951,0 17.91667,8.02156 17.91667,17.91667c0,9.8951 -8.02156,17.91667 -17.91667,17.91667c-9.8951,0 -17.91667,-8.02156 -17.91667,-17.91667z" fill="url(#color-10)"></path><path d="M43,64.5c0,-9.8951 8.02156,-17.91667 17.91667,-17.91667c9.8951,0 17.91667,8.02156 17.91667,17.91667c0,9.8951 -8.02156,17.91667 -17.91667,17.91667c-9.8951,0 -17.91667,-8.02156 -17.91667,-17.91667z" fill="url(#color-11)"></path><path d="M96.75,118.25c0,-9.8951 8.02156,-17.91667 17.91667,-17.91667c9.8951,0 17.91667,8.02156 17.91667,17.91667c0,9.8951 -8.02156,17.91667 -17.91667,17.91667c-9.8951,0 -17.91667,-8.02156 -17.91667,-17.91667z" fill="url(#color-12)"></path><path d="M60.91667,82.41667c0,-9.8951 8.02156,-17.91667 17.91667,-17.91667c9.8951,0 17.91667,8.02156 17.91667,17.91667c0,9.8951 -8.02156,17.91667 -17.91667,17.91667c-9.8951,0 -17.91667,-8.02156 -17.91667,-17.91667z" fill="url(#color-13)"></path><path d="M78.83333,100.33333c0,-9.8951 8.02156,-17.91667 17.91667,-17.91667c9.8951,0 17.91667,8.02156 17.91667,17.91667c0,9.8951 -8.02156,17.91667 -17.91667,17.91667c-9.8951,0 -17.91667,-8.02156 -17.91667,-17.91667z" fill="url(#color-14)"></path></g><path d="M0,172v-172h172v172z" fill="none" stroke="none" stroke-linejoin="miter"></path><g stroke="none" stroke-linejoin="miter"><circle cx="34" cy="25" transform="scale(3.58333,3.58333)" r="5" fill="url(#color-15)"></circle><path d="M157.66667,21.5c-7.55725,0 -15.08583,3.48658 -22.50692,10.3845c-0.6235,-3.49375 -2.279,-6.70083 -4.8375,-9.25933c-3.38267,-3.38267 -7.87975,-5.246 -12.66708,-5.246c-4.78733,0 -9.28442,1.86333 -12.66708,5.246c-1.40108,1.40108 -1.40108,3.66933 0,5.06683c1.40108,1.40108 3.66575,1.40108 5.06683,0c4.05992,-4.05992 11.14058,-4.05992 15.2005,0c1.9995,1.9995 3.06733,4.67625 3.02075,7.53933c-0.05017,2.84517 -1.19683,5.53267 -3.21783,7.5895l-23.80408,26.44858c-1.32225,1.47275 -1.204,3.73742 0.26517,5.05967c0.68442,0.61992 1.54442,0.92092 2.39725,0.92092c0.97825,0 1.9565,-0.40133 2.66242,-1.18608l32.121,-35.69717c6.43567,-6.43567 12.81758,-9.70008 18.96658,-9.70008c1.98158,0 3.58333,-1.60533 3.58333,-3.58333c0,-1.978 -1.60175,-3.58333 -3.58333,-3.58333z" fill="url(#color-16)"></path><circle cx="11" cy="39" transform="scale(3.58333,3.58333)" r="5" fill="url(#color-17)"></circle><circle cx="18" cy="37" transform="scale(3.58333,3.58333)" r="5" fill="url(#color-18)"></circle><circle cx="13" cy="32" transform="scale(3.58333,3.58333)" r="5" fill="url(#color-19)"></circle><circle cx="15" cy="25" transform="scale(3.58333,3.58333)" r="5" fill="url(#color-20)"></circle><circle cx="24" cy="15" transform="scale(3.58333,3.58333)" r="5" fill="url(#color-21)"></circle><circle cx="29" cy="20" transform="scale(3.58333,3.58333)" r="5" fill="url(#color-22)"></circle><circle cx="25" cy="35" transform="scale(3.58333,3.58333)" r="5" fill="url(#color-23)"></circle><circle cx="20" cy="30" transform="scale(3.58333,3.58333)" r="5" fill="url(#color-24)"></circle><circle cx="17" cy="18" transform="scale(3.58333,3.58333)" r="5" fill="url(#color-25)"></circle><circle cx="32" cy="33" transform="scale(3.58333,3.58333)" r="5" fill="url(#color-26)"></circle><circle cx="22" cy="23" transform="scale(3.58333,3.58333)" r="5" fill="url(#color-27)"></circle><circle cx="27" cy="28" transform="scale(3.58333,3.58333)" r="5" fill="url(#color-28)"></circle></g><path d="" fill="none" stroke="none" stroke-linejoin="miter"></path></g></g></svg>