<svg version="1.1" xmlns="http://www.w3.org/2000/svg" xmlns:xlink="http://www.w3.org/1999/xlink" viewBox="0 0 172 172"><g transform="translate(0.516,0.516) scale(0.994,0.994)"><g fill="none" fill-rule="nonzero" stroke="none" stroke-width="1" stroke-linecap="butt" stroke-linejoin="none" stroke-miterlimit="10" stroke-dasharray="" stroke-dashoffset="0" font-family="none" font-weight="none" font-size="none" text-anchor="none" style="mix-blend-mode: normal"><g stroke="#cccccc" stroke-linejoin="round"><path d="M129.07637,129.07639c-29.38747,29.38644 -72.49553,33.92337 -96.28455,10.13352c-23.78902,-23.78985 -19.25059,-66.89776 10.13688,-96.2842c29.38747,-29.38644 72.49553,-33.92337 96.28455,-10.13352c23.78902,23.78985 19.25059,66.89776 -10.13688,96.2842z" fill="#795548"></path><path d="M100.30108,24.70708c13.53425,0 25.23742,4.54725 33.841,13.15083c20.95892,20.95892 16.40808,59.60517 -10.13725,86.15408c-14.79917,14.79917 -33.8625,23.2845 -52.30233,23.2845c-13.53783,0 -25.241,-4.54725 -33.84817,-13.15083c-9.94375,-9.94733 -14.49458,-24.23408 -12.81042,-40.2265c1.74508,-16.56217 9.89358,-32.86992 22.95125,-45.924c14.79558,-14.79917 33.8625,-23.28808 52.30592,-23.28808" fill="#8bc34a"></path><path d="M42.44458,114.45167c-1.82392,-3.54392 -0.45508,-7.85108 3.06375,-9.64992c3.5475,-1.8275 20.07742,-4.56875 20.07742,-4.56875c0,0 -9.99033,15.51583 -13.51275,17.31467c-2.838,1.46558 -6.20633,0.83133 -8.33483,-1.29358c-0.53392,-0.53392 -0.96033,-1.118 -1.29358,-1.80242zM55.14033,120.61142c1.77017,-3.5475 16.3615,-14.35842 16.3615,-14.35842c0,0 -1.79525,17.32183 -3.59408,20.84067c-1.79883,3.52242 -6.106,4.94142 -9.6535,3.12108c0,0 0,0 0.02508,0.0215c-0.70592,-0.35475 -1.31508,-0.81342 -1.82392,-1.31508c-2.15358,-2.15358 -2.76275,-5.50042 -1.31508,-8.30975zM38.13742,93.06992c0.22933,-3.9775 3.62633,-6.966 7.57517,-6.76892c3.956,0.20425 17.501,5.4825 17.501,5.4825c0,0 -14.35842,9.06225 -18.33592,8.8365c-1.82392,-0.10033 -3.4185,-0.88867 -4.63683,-2.10342c-1.39392,-1.39392 -2.20733,-3.32175 -2.10342,-5.44667zM72.0895,127.7315c-0.25442,-3.956 9.32025,-18.91642 9.32025,-18.91642c0,0 4.74075,14.12192 4.97367,18.05283c0.22575,3.9775 -2.78425,7.34942 -6.74025,7.60025c-2.1285,0.10033 -4.1065,-0.7095 -5.49683,-2.10342c-1.19683,-1.18967 -1.9565,-2.81292 -2.05683,-4.63325zM43.559,72.79542c1.72,-3.54392 6.00567,-5.04175 9.57825,-3.29308c3.57258,1.6985 11.72108,12.50583 11.72108,12.50583c0,0 -14.40858,2.0855 -17.98117,0.387c-0.73458,-0.37625 -1.39392,-0.83133 -1.94933,-1.39033c-2.10342,-2.09625 -2.73767,-5.37142 -1.36883,-8.20942zM90.30717,125.72842c-1.74867,-3.57258 0.37983,-18.86267 0.37983,-18.86267c0,0 10.793,9.0085 12.513,12.556c1.70208,3.569 0.25442,7.85108 -3.31817,9.59975c-2.81292,1.34375 -6.106,0.73458 -8.20942,-1.36525c-0.55183,-0.559 -1.0105,-1.21833 -1.36525,-1.92783zM55.52017,56.072c2.78425,-2.78425 7.32075,-2.81292 10.13367,0c2.78425,2.78425 5.70825,15.8455 5.70825,15.8455c0,0 -13.03258,-2.89892 -15.84192,-5.70825c-2.78783,-2.78783 -2.81292,-7.32075 0,-10.13725zM100.35842,100.362c0,0 13.53783,3.60483 16.35075,6.41775c2.78425,2.78425 2.81292,7.32075 0,10.13367c-0.02508,0.02508 -0.05017,0.05017 -0.07525,0.07525c0,0 -0.02867,0.02867 -0.05375,0.05375c-2.78425,2.78425 -7.32433,2.80933 -10.13367,0c-2.78425,-2.79142 -6.08808,-16.68042 -6.08808,-16.68042zM68.89675,53.69267c-1.74508,-3.57258 -0.25083,-7.85467 3.32175,-9.60333c3.51883,-1.74867 7.83317,-0.2795 9.57825,3.29308c1.72358,3.54392 -0.61992,17.80558 -0.61992,17.80558c0,0 -11.01517,-8.32767 -12.28008,-11.49533zM125.32708,90.61175c3.54392,1.72 5.06683,5.977 3.31817,9.55317c-1.72358,3.54392 -6.00567,5.03817 -9.57825,3.34325c-3.76967,-1.83108 -12.1045,-13.0505 -12.1045,-13.0505c0,0 14.792,-1.59458 18.36458,0.15408zM85.7205,46.19633c-0.25083,-3.956 2.73767,-7.34942 6.69008,-7.60025c0,0 0,0 0.02508,0.02508c3.95242,-0.25442 7.34942,2.73767 7.57517,6.71517c0.22575,3.92375 -8.31692,17.87008 -8.31692,17.87008c0,0 -5.87308,-15.18975 -5.97342,-17.01008zM108.79,80.43867c0,0 14.534,-8.299 18.48283,-8.09475c3.92733,0.22575 6.966,3.62275 6.74025,7.54292c-0.20425,3.956 -3.77325,6.47867 -7.525,6.76892c-3.74817,0.29742 -17.69808,-6.21708 -17.69808,-6.21708zM104.19258,45.91325c1.79883,-3.51883 6.106,-4.94142 9.632,-3.14258c3.51883,1.79883 4.93783,6.106 3.139,9.62842c-1.77017,3.5475 -16.54783,12.54167 -16.54783,12.54167c0,0 2.33275,-16.16442 3.77683,-19.0275zM120.05242,55.44133c3.49733,-1.82392 7.82958,-0.43 9.6535,3.06733c1.79883,3.51883 0.45508,7.85108 -3.08883,9.67858c-2.838,1.46558 -20.75108,2.72333 -20.75108,2.72333c0,0 10.6425,-13.64892 14.18642,-15.46925z" fill="#689f38"></path><path d="M103.501,108.69683c-0.78475,-0.84208 -2.18583,-4.47917 -3.50808,-8.88667c4.32508,1.419 7.87617,2.89533 8.69317,3.68725c1.40108,1.3975 1.40108,3.66933 -0.12542,5.19225c-1.3975,1.40108 -3.66933,1.40108 -5.05967,0.00717zM76.45758,118.40767c0.07883,-1.39392 2.1285,-5.59 4.71925,-10.14442c1.25775,4.17817 2.32558,8.17 2.41517,9.62842c0.11108,2.01025 -1.376,3.69083 -3.34325,3.81267c-1.04633,0.05733 -2.064,-0.33325 -2.78783,-1.05708c-0.60917,-0.60917 -0.95317,-1.40467 -1.00333,-2.23958zM91.57567,117.7555c-0.26517,-0.26517 -0.50167,-0.60917 -0.67008,-0.946c-0.4515,-1.10725 -0.43358,-5.21733 -0.043,-10.07275c1.02842,0.94242 2.09625,1.95292 3.07808,2.93475c2.74842,2.752 3.31458,3.76967 3.38983,3.92375c0.85642,1.79883 0.11467,3.97392 -1.62683,4.82317c-1.40467,0.67008 -3.06017,0.40133 -4.128,-0.66292zM117.98483,91.41083c1.06783,1.075 1.34375,2.70542 0.67725,4.07067c-0.86,1.77017 -3.02433,2.52267 -4.78733,1.68417c-0.129,-0.06092 -0.84925,-0.4515 -2.54417,-2.14642c-1.36167,-1.36167 -2.83442,-3.04942 -4.15667,-4.63683c4.74792,-0.2365 8.7505,-0.13258 9.8255,0.33325c0.36908,0.18275 0.70233,0.41567 0.98542,0.69517zM69.99325,116.58375c-0.43717,0.85283 -1.17892,1.49067 -2.09267,1.7845c-0.91017,0.29383 -1.88125,0.21142 -2.73767,-0.22575l-0.00358,0.01075c-0.33325,-0.16842 -0.63425,-0.39058 -0.89583,-0.65217c-1.10367,-1.0965 -1.36883,-2.76275 -0.65217,-4.15667c0.65933,-1.18608 4.28208,-4.41825 8.57133,-7.88692c-0.74175,5.30692 -1.58742,9.93658 -2.18942,11.12625zM104.85908,71.39075c3.41133,-4.00975 6.57183,-7.37808 7.72925,-8.00158c1.35808,-0.70592 3.07092,-0.43358 4.17458,0.67008c0.26158,0.25442 0.47658,0.55183 0.63425,0.85283c0.90658,1.77733 0.21858,3.95958 -1.49067,4.8375c-1.15025,0.48733 -5.75483,1.11442 -11.04742,1.64117zM108.17008,80.46375c4.558,-2.31842 8.75767,-4.14233 10.0835,-4.18533c0.87075,0.05375 1.69492,0.42642 2.322,1.04992c0.72383,0.72742 1.10725,1.71642 1.04633,2.74125c-0.10392,2.00667 -2.20017,3.22142 -4.20325,3.3755c-1.23267,0.02867 -5.04175,-1.27208 -9.24858,-2.98133zM54.14058,107.39608c-0.44792,-0.87075 -0.53033,-1.85258 -0.24008,-2.76992c0.29025,-0.89583 0.91375,-1.62325 1.75583,-2.05325c1.24342,-0.64142 5.61867,-1.68775 10.69267,-2.69825c-3.20708,4.51858 -6.23858,8.35992 -7.41033,9.06942c-1.36525,0.70592 -3.07092,0.44075 -4.15667,-0.645c-0.26517,-0.26875 -0.45867,-0.53392 -0.64142,-0.903zM63.62567,64.0485c1.3975,-1.3975 3.66933,-1.40108 5.06683,-0.00358c0.76683,0.80983 2.06758,4.21758 3.26442,8.33842c-4.11725,-1.19683 -7.51783,-2.494 -8.33125,-3.268c-1.3975,-1.40108 -1.3975,-3.66933 0,-5.06683zM54.93967,81.79675c-1.06783,-1.075 -1.34375,-2.7305 -0.67725,-4.11008c0.41567,-0.85642 1.14308,-1.50142 2.04608,-1.81675c0.903,-0.30817 1.87408,-0.25083 2.76992,0.18992c0.07167,0.03583 0.76683,0.39417 2.50117,2.1285c1.28283,1.27925 2.66242,2.84158 3.90583,4.3215c-4.60458,0.39775 -8.4925,0.42642 -9.48867,0.02867c-0.43358,-0.22575 -0.78833,-0.473 -1.05708,-0.74175zM102.555,54.74975c0.903,-1.763 3.06017,-2.47608 4.80883,-1.58025c0.34042,0.17558 0.65217,0.39775 0.91733,0.66292c1.10367,1.10008 1.36883,2.76633 0.67008,4.13158c-0.70233,1.161 -4.31433,3.93808 -8.57133,6.82983c0.83492,-4.84467 1.69492,-9.02642 2.17508,-10.04408zM76.51133,54.352c1.35092,-0.67725 2.9885,-0.40133 4.07425,0.68442c0.2795,0.28308 0.50883,0.60558 0.67367,0.93883c0.43358,1.075 0.35833,4.95217 -0.10392,9.49942c-1.51575,-1.2685 -3.12467,-2.68033 -4.40392,-3.95958c-1.49067,-1.48708 -1.82392,-2.09625 -1.83108,-2.10342l-0.05017,-0.12183l-0.06092,-0.11825c-0.86717,-1.77733 -0.11467,-3.9345 1.70208,-4.81958zM88.41158,54.36992c-0.03225,-0.92092 0.2795,-1.80242 0.88867,-2.49042c0.53033,-0.60558 1.23625,-1.00333 2.021,-1.15025l0.46583,-0.02867c1.02483,-0.06808 2.02458,0.30817 2.74125,1.02483c0.43358,0.43717 0.96392,1.19325 1.02842,2.26467c-0.05375,1.3115 -1.81675,5.15642 -4.07425,9.35608c-1.56592,-4.26417 -2.8595,-7.955 -3.07092,-8.97625zM64.01625,91.70825c-4.41825,2.46892 -8.49608,4.42542 -9.83267,4.48992c-0.87433,-0.04658 -1.64833,-0.40492 -2.3005,-1.05708c-0.731,-0.731 -1.10725,-1.70925 -1.05708,-2.71258c0.11108,-1.97083 1.82033,-3.48658 3.80908,-3.38983c1.44408,0.07167 5.33917,1.2685 9.38117,2.66958z" fill="#5d4037"></path><g fill="#e6ee9c"><path d="M100.36744,100.35991c-9.79582,9.79548 -24.16555,11.30741 -32.09569,3.37699c-7.93014,-7.93042 -6.41771,-22.3001 3.37811,-32.09558c9.79582,-9.79548 24.16555,-11.30741 32.09569,-3.37699c7.93014,7.93042 6.41771,22.3001 -3.37811,32.09558z"></path></g></g><path d="M0,172v-172h172v172z" fill="none" stroke="none" stroke-linejoin="miter"></path><g stroke="none" stroke-linejoin="miter"><path d="M139.21325,32.79219c-23.78902,-23.78985 -66.89708,-19.25292 -96.28455,10.13352c-29.38747,29.38644 -33.9259,72.49434 -10.13688,96.2842c23.78902,23.78985 66.89708,19.25292 96.28455,-10.13352c29.38747,-29.38644 33.9259,-72.49434 10.13688,-96.2842z" fill="#795548"></path><path d="M100.30108,24.70708v0c13.53425,0 25.23742,4.54725 33.841,13.15083c20.95892,20.95892 16.40808,59.60517 -10.13725,86.15408c-14.79917,14.79917 -33.8625,23.2845 -52.30233,23.2845c-13.53783,0 -25.241,-4.54725 -33.84817,-13.15083c-9.94375,-9.94733 -14.49458,-24.23408 -12.81042,-40.2265c1.74508,-16.56217 9.89358,-32.86992 22.95125,-45.924c14.79558,-14.79917 33.8625,-23.28808 52.30592,-23.28808" fill="#8bc34a"></path><path d="M42.44458,114.45167c-1.82392,-3.54392 -0.45508,-7.85108 3.06375,-9.64992v0c3.5475,-1.8275 20.07742,-4.56875 20.07742,-4.56875c0,0 -9.99033,15.51583 -13.51275,17.31467v0c-2.838,1.46558 -6.20633,0.83133 -8.33483,-1.29358v0c-0.53392,-0.53392 -0.96033,-1.118 -1.29358,-1.80242zM55.14033,120.61142c1.77017,-3.5475 16.3615,-14.35842 16.3615,-14.35842c0,0 -1.79525,17.32183 -3.59408,20.84067v0c-1.79883,3.52242 -6.106,4.94142 -9.6535,3.12108v0c0,0 0,0 0.02508,0.0215v0c-0.70592,-0.35475 -1.31508,-0.81342 -1.82392,-1.31508v0c-2.15358,-2.15358 -2.76275,-5.50042 -1.31508,-8.30975zM38.13742,93.06992c0.22933,-3.9775 3.62633,-6.966 7.57517,-6.76892v0c3.956,0.20425 17.501,5.4825 17.501,5.4825c0,0 -14.35842,9.06225 -18.33592,8.8365v0c-1.82392,-0.10033 -3.4185,-0.88867 -4.63683,-2.10342v0c-1.39392,-1.39392 -2.20733,-3.32175 -2.10342,-5.44667zM72.0895,127.7315c-0.25442,-3.956 9.32025,-18.91642 9.32025,-18.91642c0,0 4.74075,14.12192 4.97367,18.05283v0c0.22575,3.9775 -2.78425,7.34942 -6.74025,7.60025v0c-2.1285,0.10033 -4.1065,-0.7095 -5.49683,-2.10342v0c-1.19683,-1.18967 -1.9565,-2.81292 -2.05683,-4.63325zM43.559,72.79542c1.72,-3.54392 6.00567,-5.04175 9.57825,-3.29308v0c3.57258,1.6985 11.72108,12.50583 11.72108,12.50583c0,0 -14.40858,2.0855 -17.98117,0.387v0c-0.73458,-0.37625 -1.39392,-0.83133 -1.94933,-1.39033v0c-2.10342,-2.09625 -2.73767,-5.37142 -1.36883,-8.20942zM90.30717,125.72842c-1.74867,-3.57258 0.37983,-18.86267 0.37983,-18.86267c0,0 10.793,9.0085 12.513,12.556v0c1.70208,3.569 0.25442,7.85108 -3.31817,9.59975v0c-2.81292,1.34375 -6.106,0.73458 -8.20942,-1.36525v0c-0.55183,-0.559 -1.0105,-1.21833 -1.36525,-1.92783zM55.52017,56.072c2.78425,-2.78425 7.32075,-2.81292 10.13367,0v0c2.78425,2.78425 5.70825,15.8455 5.70825,15.8455c0,0 -13.03258,-2.89892 -15.84192,-5.70825v0c-2.78783,-2.78783 -2.81292,-7.32075 0,-10.13725zM100.35842,100.362c0,0 13.53783,3.60483 16.35075,6.41775v0c2.78425,2.78425 2.81292,7.32075 0,10.13367v0c-0.02508,0.02508 -0.05017,0.05017 -0.07525,0.07525v0c0,0 -0.02867,0.02867 -0.05375,0.05375v0c-2.78425,2.78425 -7.32433,2.80933 -10.13367,0v0c-2.78425,-2.79142 -6.08808,-16.68042 -6.08808,-16.68042zM68.89675,53.69267c-1.74508,-3.57258 -0.25083,-7.85467 3.32175,-9.60333v0v0v0c3.51883,-1.74867 7.83317,-0.2795 9.57825,3.29308v0c1.72358,3.54392 -0.61992,17.80558 -0.61992,17.80558c0,0 -11.01517,-8.32767 -12.28008,-11.49533zM125.32708,90.61175v0c3.54392,1.72 5.06683,5.977 3.31817,9.55317v0c-1.72358,3.54392 -6.00567,5.03817 -9.57825,3.34325v0c-3.76967,-1.83108 -12.1045,-13.0505 -12.1045,-13.0505c0,0 14.792,-1.59458 18.36458,0.15408zM85.7205,46.19633c-0.25083,-3.956 2.73767,-7.34942 6.69008,-7.60025v0c0,0 0,0 0.02508,0.02508v0c3.95242,-0.25442 7.34942,2.73767 7.57517,6.71517v0c0.22575,3.92375 -8.31692,17.87008 -8.31692,17.87008c0,0 -5.87308,-15.18975 -5.97342,-17.01008zM108.79,80.43867c0,0 14.534,-8.299 18.48283,-8.09475v0c3.92733,0.22575 6.966,3.62275 6.74025,7.54292v0c-0.20425,3.956 -3.77325,6.47867 -7.525,6.76892c-3.74817,0.29742 -17.69808,-6.21708 -17.69808,-6.21708zM104.19258,45.91325c1.79883,-3.51883 6.106,-4.94142 9.632,-3.14258v0c3.51883,1.79883 4.93783,6.106 3.139,9.62842v0c-1.77017,3.5475 -16.54783,12.54167 -16.54783,12.54167c0,0 2.33275,-16.16442 3.77683,-19.0275zM120.05242,55.44133v0c3.49733,-1.82392 7.82958,-0.43 9.6535,3.06733v0v0v0c1.79883,3.51883 0.45508,7.85108 -3.08883,9.67858v0c-2.838,1.46558 -20.75108,2.72333 -20.75108,2.72333c0,0 10.6425,-13.64892 14.18642,-15.46925z" fill="#689f38"></path><path d="M108.56067,108.68967c1.5265,-1.52292 1.5265,-3.79475 0.12542,-5.19225c-0.817,-0.79192 -4.36808,-2.26825 -8.69317,-3.68725c1.32225,4.4075 2.72333,8.04458 3.50808,8.88667c1.39033,1.39392 3.66217,1.39392 5.05967,-0.00717zM77.46092,120.64725c0.72383,0.72383 1.7415,1.11442 2.78783,1.05708c1.96725,-0.12183 3.45433,-1.80242 3.34325,-3.81267c-0.08958,-1.45842 -1.15742,-5.45025 -2.41517,-9.62842c-2.59075,4.55442 -4.64042,8.7505 -4.71925,10.14442c0.05017,0.83492 0.39417,1.63042 1.00333,2.23958zM95.70367,118.41842c1.7415,-0.84925 2.48325,-3.02433 1.62683,-4.82317c-0.07525,-0.15408 -0.64142,-1.17175 -3.38983,-3.92375c-0.98183,-0.98183 -2.04967,-1.99233 -3.07808,-2.93475c-0.39058,4.85542 -0.4085,8.9655 0.043,10.07275c0.16842,0.33683 0.40492,0.68083 0.67008,0.946c1.06783,1.06425 2.72333,1.333 4.128,0.66292zM116.99942,90.71567c-1.075,-0.46583 -5.07758,-0.56975 -9.8255,-0.33325c1.32225,1.58742 2.795,3.27517 4.15667,4.63683c1.69492,1.69492 2.41517,2.0855 2.54417,2.14642c1.763,0.8385 3.92733,0.086 4.78733,-1.68417c0.6665,-1.36525 0.39058,-2.99567 -0.67725,-4.07067c-0.28308,-0.2795 -0.61633,-0.51242 -0.98542,-0.69517zM72.18267,105.4575c-4.28925,3.46867 -7.912,6.70083 -8.57133,7.88692c-0.71667,1.39392 -0.4515,3.06017 0.65217,4.15667c0.26158,0.26158 0.56258,0.48375 0.89583,0.65217l0.00358,-0.01075c0.85642,0.43717 1.8275,0.51958 2.73767,0.22575c0.91375,-0.29383 1.6555,-0.93167 2.09267,-1.7845c0.602,-1.18967 1.44767,-5.81933 2.18942,-11.12625zM115.9065,69.74958c1.70925,-0.87792 2.39725,-3.06017 1.49067,-4.8375c-0.15767,-0.301 -0.37267,-0.59842 -0.63425,-0.85283c-1.10367,-1.10367 -2.8165,-1.376 -4.17458,-0.67008c-1.15742,0.6235 -4.31792,3.99183 -7.72925,8.00158c5.29258,-0.52675 9.89717,-1.15383 11.04742,-1.64117zM117.41867,83.44508c2.00308,-0.15408 4.09933,-1.36883 4.20325,-3.3755c0.06092,-1.02483 -0.3225,-2.01383 -1.04633,-2.74125c-0.62708,-0.6235 -1.45125,-0.99617 -2.322,-1.04992c-1.32583,0.043 -5.5255,1.86692 -10.0835,4.18533c4.20683,1.70925 8.01592,3.01 9.24858,2.98133zM54.782,108.29908c1.08575,1.08575 2.79142,1.35092 4.15667,0.645c1.17175,-0.7095 4.20325,-4.55083 7.41033,-9.06942c-5.074,1.0105 -9.44925,2.05683 -10.69267,2.69825c-0.84208,0.43 -1.46558,1.15742 -1.75583,2.05325c-0.29025,0.91733 -0.20783,1.89917 0.24008,2.76992c0.18275,0.36908 0.37625,0.63425 0.64142,0.903zM63.62567,69.11533c0.81342,0.774 4.214,2.07117 8.33125,3.268c-1.19683,-4.12083 -2.49758,-7.52858 -3.26442,-8.33842c-1.3975,-1.3975 -3.66933,-1.39392 -5.06683,0.00358c-1.3975,1.3975 -1.3975,3.66575 0,5.06683zM55.99675,82.5385c0.99617,0.39775 4.88408,0.36908 9.48867,-0.02867c-1.24342,-1.47992 -2.623,-3.04225 -3.90583,-4.3215c-1.73433,-1.73433 -2.4295,-2.09267 -2.50117,-2.1285c-0.89583,-0.44075 -1.86692,-0.49808 -2.76992,-0.18992c-0.903,0.31533 -1.63042,0.96033 -2.04608,1.81675c-0.6665,1.37958 -0.39058,3.03508 0.67725,4.11008c0.26875,0.26875 0.6235,0.516 1.05708,0.74175zM100.37992,64.79383c4.257,-2.89175 7.869,-5.66883 8.57133,-6.82983c0.69875,-1.36525 0.43358,-3.0315 -0.67008,-4.13158c-0.26517,-0.26517 -0.57692,-0.48733 -0.91733,-0.66292c-1.74867,-0.89583 -3.90583,-0.18275 -4.80883,1.58025c-0.48017,1.01767 -1.34017,5.19942 -2.17508,10.04408zM74.80925,59.17158l0.06092,0.11825l0.05017,0.12183c0.00717,0.00717 0.34042,0.61633 1.83108,2.10342c1.27925,1.27925 2.88817,2.69108 4.40392,3.95958c0.46225,-4.54725 0.5375,-8.42442 0.10392,-9.49942c-0.16483,-0.33325 -0.39417,-0.65575 -0.67367,-0.93883c-1.08575,-1.08575 -2.72333,-1.36167 -4.07425,-0.68442c-1.81675,0.88508 -2.56925,3.04225 -1.70208,4.81958zM91.4825,63.34617c2.2575,-4.19967 4.0205,-8.04458 4.07425,-9.35608c-0.0645,-1.07142 -0.59483,-1.8275 -1.02842,-2.26467c-0.71667,-0.71667 -1.71642,-1.09292 -2.74125,-1.02483l-0.46583,0.02867c-0.78475,0.14692 -1.49067,0.54467 -2.021,1.15025c-0.60917,0.688 -0.92092,1.5695 -0.88867,2.49042c0.21142,1.02125 1.505,4.71208 3.07092,8.97625zM54.63508,89.03867c-1.98875,-0.09675 -3.698,1.419 -3.80908,3.38983c-0.05017,1.00333 0.32608,1.98158 1.05708,2.71258c0.65217,0.65217 1.42617,1.0105 2.3005,1.05708c1.33658,-0.0645 5.41442,-2.021 9.83267,-4.48992c-4.042,-1.40108 -7.93708,-2.59792 -9.38117,-2.66958z" fill="#5d4037"></path><g fill="#e6ee9c"><path d="M103.74556,68.26433c-7.93014,-7.93042 -22.29987,-6.41849 -32.09569,3.37699c-9.79582,9.79548 -11.30826,24.16516 -3.37811,32.09558c7.93014,7.93042 22.29987,6.41849 32.09569,-3.37699c9.79582,-9.79548 11.30826,-24.16516 3.37811,-32.09558z"></path></g></g><path d="" fill="none" stroke="none" stroke-linejoin="miter"></path><path d="" fill="none" stroke="none" stroke-linejoin="miter"></path></g></g></svg>