<svg version="1.1" xmlns="http://www.w3.org/2000/svg" xmlns:xlink="http://www.w3.org/1999/xlink" viewBox="0 0 172 172"><g transform="translate(0.516,0.516) scale(0.994,0.994)"><g fill="none" fill-rule="nonzero" stroke="none" stroke-width="1" stroke-linecap="butt" stroke-linejoin="none" stroke-miterlimit="10" stroke-dasharray="" stroke-dashoffset="0" font-family="none" font-weight="none" font-size="none" text-anchor="none" style="mix-blend-mode: normal"><g stroke="#cccccc" stroke-linejoin="round"><path d="M100.70958,101.523c-24.854,24.80383 -42.13283,36.08775 -50.62892,34.314c-4.48275,-4.472 6.9445,-29.87067 31.80208,-54.67092c24.854,-24.80025 48.72617,-34.64725 53.21608,-30.16808c1.93858,7.09142 -9.53167,25.714 -34.38925,50.525z" fill="#a1887f"></path><path d="M143.92458,100.81708c13.21533,13.18667 13.02183,30.1645 2.41158,40.74967c-10.60308,10.58517 -30.01042,13.16875 -43.22575,-0.01792c-13.21175,-13.18308 -25.67817,-40.00433 -25.67817,-40.00433c-7.36017,-11.08683 -0.60558,-13.7815 4.1925,-18.56883c4.80525,-4.7945 4.00258,-3.99542 4.00258,-3.99542c4.80167,-5.18867 7.32792,-10.16233 18.21408,-3.79117c0,0 26.875,12.44492 40.08317,25.628z" fill="#ffd54f"></path><path d="M50.18458,135.94092c-0.23292,-0.23292 -0.39417,-0.54825 -0.5375,-0.89225c-0.06808,-0.14692 -0.12542,-0.29742 -0.172,-0.473c-0.03942,-0.15408 -0.0645,-0.32967 -0.09317,-0.50883c-0.07883,-0.51958 -0.12183,-1.08933 -0.09675,-1.74508c-0.00358,-0.00717 -0.00358,-0.01433 0.00358,-0.01433c1.96008,-11.16567 13.60233,-27.30858 35.40333,-49.05942c18.52225,-18.47925 32.9595,-29.31525 43.75608,-32.80183c2.39008,-0.50167 4.26775,-0.50883 5.55417,-0.04658c0.03583,0.00717 0.09317,0.01433 0.129,0.02867c0.42642,0.16483 0.78475,0.39417 1.06425,0.67008c0.26158,0.92092 0.27592,2.0425 0.07167,3.3325c-5.8695,2.10342 -20.23867,13.23683 -43.21858,36.16658c-26.0795,26.02933 -36.54283,40.3125 -37.85792,45.31483c-1.49067,0.24725 -2.838,0.27233 -4.00617,0.02867z" fill="#bcaaa4"></path><path d="M132.30742,43.5375c3.04942,4.7515 2.795,7.4605 2.795,7.4605c-4.48992,-4.47917 -25.23742,7.13083 -50.09142,31.93467c-24.854,24.811 -39.4095,48.43233 -34.92675,52.90433c0,0 -2.70183,-0.82058 -7.23833,-3.48658c-29.35825,-19.93767 -18.24633,-62.53992 3.92733,-84.66342l2.49758,-2.494c22.17008,-22.11992 60.5655,-30.47625 83.03658,-1.6555z" fill="#5d4037"></path><path d="M146.33258,141.56317c-8.02308,8.01233 -21.09867,11.42725 -32.70508,6.89433c0.01075,-0.01433 0.01075,-0.03583 0.02867,-0.05375c0.89942,-1.27208 3.23933,-1.26492 4.60458,-1.44767c1.90275,-0.25083 6.86567,0.16125 6.61842,-3.00283c-0.16483,-2.09983 -2.38292,-4.33225 -3.784,-5.719c-2.2575,-2.24675 -4.62608,-4.7515 -5.81217,-7.75433c-0.602,-1.51217 -0.68442,-3.741 0.6235,-5.00233c1.075,-1.04633 3.19992,-0.7955 4.48633,-0.33325c2.31842,0.8385 4.214,2.52267 6.50733,3.46508c2.04608,0.83492 4.21042,2.06758 6.4715,1.65192c3.61558,-0.6665 3.569,-6.58617 2.68033,-9.30233c-0.61275,-1.88125 -1.419,-7.72567 1.419,-8.42442c1.58742,-0.39417 3.66217,1.96725 4.601,2.90608c0.8815,0.8815 1.6985,1.75942 2.71975,2.45458c0.65575,0.44433 2.20733,1.70567 3.09958,1.56592c0.88867,-0.13975 1.12517,-1.36525 1.1395,-2.05683c0.043,-1.2685 0.14333,-2.20375 0.50525,-3.46508c0.27592,-0.95317 0.50883,-2.3435 1.26492,-3.08167c0.08958,-0.09317 0.18633,-0.09317 0.27233,-0.1505c5.36067,10.99008 3.35758,22.77925 -4.74075,30.85608z" fill="#ffb300"></path></g><path d="M0,172v-172h172v172z" fill="none" stroke="none" stroke-linejoin="miter"></path><g stroke="none" stroke-linejoin="miter"><path d="M135.09883,50.998c-4.48992,-4.47917 -28.36208,5.36783 -53.21608,30.16808c-24.85758,24.80025 -36.28483,50.19892 -31.80208,54.67092c8.49608,1.77375 25.77492,-9.51017 50.62892,-34.314c24.85758,-24.811 36.32783,-43.43358 34.38925,-50.525z" fill="#a1887f"></path><path d="M143.92458,100.81708c13.21533,13.18667 13.02183,30.1645 2.41158,40.74967v0c-10.60308,10.58517 -30.01042,13.16875 -43.22575,-0.01792c-13.21175,-13.18308 -25.67817,-40.00433 -25.67817,-40.00433c-7.36017,-11.08683 -0.60558,-13.7815 4.1925,-18.56883c4.80525,-4.7945 4.00258,-3.99542 4.00258,-3.99542c4.80167,-5.18867 7.32792,-10.16233 18.21408,-3.79117c0,0 26.875,12.44492 40.08317,25.628z" fill="#ffd54f"></path><path d="M54.19075,135.91225c1.31508,-5.00233 11.77842,-19.2855 37.85792,-45.31483c22.97992,-22.92975 37.34908,-34.06317 43.21858,-36.16658c0.20425,-1.29 0.18992,-2.41158 -0.07167,-3.3325c-0.2795,-0.27592 -0.63783,-0.50525 -1.06425,-0.67008c-0.03583,-0.01433 -0.09317,-0.0215 -0.129,-0.02867c-1.28642,-0.46225 -3.16408,-0.45508 -5.55417,0.04658c-10.79658,3.48658 -25.23383,14.32258 -43.75608,32.80183c-21.801,21.75083 -33.44325,37.89375 -35.40333,49.05942c-0.00717,0 -0.00717,0.00717 -0.00358,0.01433c-0.02508,0.65575 0.01792,1.2255 0.09675,1.74508c0.02867,0.17917 0.05375,0.35475 0.09317,0.50883c0.04658,0.17558 0.10392,0.32608 0.172,0.473c0.14333,0.344 0.30458,0.65933 0.5375,0.89225c1.16817,0.24367 2.5155,0.21858 4.00617,-0.02867z" fill="#bcaaa4"></path><path d="M49.27083,45.193l-2.49758,2.494c-22.17367,22.1235 -33.28558,64.72575 -3.92733,84.66342c4.5365,2.666 7.23833,3.48658 7.23833,3.48658c-4.48275,-4.472 10.07275,-28.09333 34.92675,-52.90433c24.854,-24.80383 45.6015,-36.41383 50.09142,-31.93467c0,0 0.25442,-2.709 -2.795,-7.4605c-22.47108,-28.82075 -60.8665,-20.46442 -83.03658,1.6555z" fill="#5d4037"></path><path d="M151.07333,110.70708c-0.086,0.05733 -0.18275,0.05733 -0.27233,0.1505c-0.75608,0.73817 -0.989,2.1285 -1.26492,3.08167c-0.36192,1.26133 -0.46225,2.19658 -0.50525,3.46508c-0.01433,0.69158 -0.25083,1.91708 -1.1395,2.05683c-0.89225,0.13975 -2.44383,-1.12158 -3.09958,-1.56592c-1.02125,-0.69517 -1.83825,-1.57308 -2.71975,-2.45458c-0.93883,-0.93883 -3.01358,-3.30025 -4.601,-2.90608c-2.838,0.69875 -2.03175,6.54317 -1.419,8.42442c0.88867,2.71617 0.93525,8.63583 -2.68033,9.30233c-2.26108,0.41567 -4.42542,-0.817 -6.4715,-1.65192c-2.29333,-0.94242 -4.18892,-2.62658 -6.50733,-3.46508c-1.28642,-0.46225 -3.41133,-0.71308 -4.48633,0.33325c-1.30792,1.26133 -1.2255,3.49017 -0.6235,5.00233c1.18608,3.00283 3.55467,5.50758 5.81217,7.75433c1.40108,1.38675 3.61917,3.61917 3.784,5.719c0.24725,3.16408 -4.71567,2.752 -6.61842,3.00283c-1.36525,0.18275 -3.70517,0.17558 -4.60458,1.44767c-0.01792,0.01792 -0.01792,0.03942 -0.02867,0.05375c11.60642,4.53292 24.682,1.118 32.70508,-6.89433c8.09833,-8.07683 10.10142,-19.866 4.74075,-30.85608z" fill="#ffb300"></path></g><path d="" fill="none" stroke="none" stroke-linejoin="miter"></path></g></g></svg>