<svg version="1.1" xmlns="http://www.w3.org/2000/svg" xmlns:xlink="http://www.w3.org/1999/xlink" viewBox="0 0 172 172"><g transform="translate(0.516,0.516) scale(0.994,0.994)"><g fill="none" fill-rule="nonzero" stroke="none" stroke-width="1" stroke-linecap="butt" stroke-linejoin="none" stroke-miterlimit="10" stroke-dasharray="" stroke-dashoffset="0" font-family="none" font-weight="none" font-size="none" text-anchor="none" style="mix-blend-mode: normal"><g stroke="#cccccc" stroke-linejoin="round"><path d="M39.05833,146.91667c0,0.35833 -0.35833,0.71667 -0.35833,1.075c0,0 -0.35833,0.35833 -0.71667,1.075c-0.35833,0.71667 -1.075,1.43333 -1.79167,2.50833c-1.43333,2.15 -3.94167,4.65833 -6.45,6.80833c-2.50833,2.50833 -5.375,3.94167 -7.88333,5.01667c-1.075,0.71667 -2.15,1.075 -2.86667,1.075c-0.71667,0.35833 -1.075,0.35833 -1.075,0.35833c0,0 0.35833,-0.35833 1.075,-0.71667c0.71667,0 1.43333,-0.71667 2.50833,-1.43333c1.79167,-1.43333 3.94167,-3.58333 5.73333,-6.80833c1.79167,-2.50833 2.86667,-5.375 3.94167,-7.525c0.35833,-0.35833 0.71667,-1.075 0.71667,-1.43333c-0.35833,0.35833 -0.71667,0.71667 -1.43333,1.43333c-1.79167,2.15 -4.3,4.3 -7.16667,6.45c-2.86667,2.15 -5.73333,3.94167 -8.24167,5.01667c-0.71667,0.35833 -1.43333,0.71667 -1.79167,0.71667c-0.71667,0.35833 -1.075,0.35833 -1.43333,0.35833c-0.71667,0.35833 -1.075,0.35833 -1.075,0.35833c0,0 0.35833,-0.35833 1.075,-0.35833c0.35833,-0.35833 0.71667,-0.35833 1.075,-0.71667c0.35833,-0.35833 1.075,-0.71667 1.43333,-1.075c2.15,-1.43333 4.3,-3.94167 6.09167,-6.80833c2.15,-2.50833 3.94167,-5.375 5.01667,-7.525c0.35833,-0.71667 0.71667,-1.43333 1.075,-1.79167c-0.71667,0.35833 -1.075,0.35833 -1.79167,0.71667c-1.79167,1.075 -4.65833,2.50833 -6.80833,4.3c-2.15,1.79167 -4.3,4.3 -5.375,6.09167c-0.71667,1.075 -1.075,1.79167 -1.43333,2.50833c-0.35833,0.71667 -0.35833,1.075 -0.35833,1.075c0,0 0,-0.35833 0,-1.43333c0,-0.71667 0.35833,-1.79167 0.71667,-2.86667c0.71667,-2.15 2.15,-5.375 3.94167,-7.88333c1.79167,-2.86667 4.3,-5.01667 6.09167,-6.80833c1.075,-0.71667 1.79167,-1.43333 2.50833,-1.79167c0.71667,-0.35833 1.075,-0.71667 1.075,-0.71667c1.79167,-0.71667 3.94167,0 4.65833,1.79167c0.35833,0.71667 0.35833,1.075 0.35833,1.79167c0.71667,0 1.43333,0 2.15,0.35833c1.43333,0.71667 2.15,1.79167 2.15,3.225c0.71667,-0.71667 1.79167,-0.71667 2.86667,-0.35833c1.79167,0.71667 2.86667,2.86667 1.79167,3.94167z" fill="#a1887f"></path><path d="M39.41667,146.91667c-3.58333,0 -7.16667,-1.43333 -10.03333,-4.3c-5.73333,-5.73333 -5.73333,-14.69167 0,-20.425l38.7,-32.60833c5.73333,-5.73333 22.575,-19.35 27.95,-13.61667c5.73333,5.73333 -4.65833,18.99167 -10.03333,24.36667l-36.55,42.28333c-2.86667,2.86667 -6.45,4.3 -10.03333,4.3z" fill="#dcedc8"></path><path d="M164.83333,7.16667l-75.25,82.41667l-17.91667,-7.16667l68.08333,-75.25z" fill="#33691e"></path><path d="M157.66667,14.33333v21.5l-64.5,53.75l-21.5,-7.16667z" fill="#558b2f"></path><path d="M114.66667,25.08333h21.5l-35.83333,53.75h-21.5z" fill="#689f38"></path><path d="M143.33333,57.33333l-50.16667,35.83333l-14.33333,-10.75l64.5,-50.16667z" fill="#7cb342"></path><path d="M89.58333,46.58333h21.5l-21.5,35.83333l-21.5,7.16667z" fill="#9ccc65"></path><path d="M86,100.33333c0,0 0.35833,-10.75 -17.91667,-10.75l57.33333,-35.83333v25.08333z" fill="#aed581"></path></g><path d="M0,172v-172h172v172z" fill="none" stroke="none" stroke-linejoin="miter"></path><g stroke="none" stroke-linejoin="miter"><path d="M37.26667,142.975c-1.075,-0.35833 -2.15,-0.35833 -2.86667,0.35833c0,-1.43333 -0.71667,-2.50833 -2.15,-3.225c-0.71667,-0.35833 -1.43333,-0.35833 -2.15,-0.35833c0,-0.71667 0,-1.075 -0.35833,-1.79167c-0.71667,-1.79167 -2.86667,-2.50833 -4.65833,-1.79167c0,0 -0.35833,0.35833 -1.075,0.71667c-0.71667,0.35833 -1.43333,1.075 -2.50833,1.79167c-1.79167,1.79167 -4.3,3.94167 -6.09167,6.80833c-1.79167,2.50833 -3.225,5.73333 -3.94167,7.88333c-0.35833,1.075 -0.71667,2.15 -0.71667,2.86667c0,1.075 0,1.43333 0,1.43333c0,0 0,-0.35833 0.35833,-1.075c0.35833,-0.71667 0.71667,-1.43333 1.43333,-2.50833c1.075,-1.79167 3.225,-4.3 5.375,-6.09167c2.15,-1.79167 5.01667,-3.225 6.80833,-4.3c0.71667,-0.35833 1.075,-0.35833 1.79167,-0.71667c-0.35833,0.35833 -0.71667,1.075 -1.075,1.79167c-1.075,2.15 -2.86667,5.01667 -5.01667,7.525c-1.79167,2.86667 -3.94167,5.375 -6.09167,6.80833c-0.35833,0.35833 -1.075,0.71667 -1.43333,1.075c-0.35833,0.35833 -0.71667,0.35833 -1.075,0.71667c-0.71667,0 -1.075,0.35833 -1.075,0.35833c0,0 0.35833,0 1.075,-0.35833c0.35833,0 0.71667,0 1.43333,-0.35833c0.35833,0 1.075,-0.35833 1.79167,-0.71667c2.50833,-1.075 5.375,-2.86667 8.24167,-5.01667c2.86667,-2.15 5.375,-4.3 7.16667,-6.45c0.71667,-0.71667 1.075,-1.075 1.43333,-1.43333c0,0.35833 -0.35833,1.075 -0.71667,1.43333c-1.075,2.15 -2.15,5.01667 -3.94167,7.525c-1.79167,3.225 -3.94167,5.375 -5.73333,6.80833c-1.075,0.71667 -1.79167,1.43333 -2.50833,1.43333c-0.71667,0.35833 -1.075,0.71667 -1.075,0.71667c0,0 0.35833,0 1.075,-0.35833c0.71667,0 1.79167,-0.35833 2.86667,-1.075c2.50833,-1.075 5.375,-2.50833 7.88333,-5.01667c2.50833,-2.15 5.01667,-4.65833 6.45,-6.80833c0.71667,-1.075 1.43333,-1.79167 1.79167,-2.50833c0.35833,-0.71667 0.71667,-1.075 0.71667,-1.075c0,-0.35833 0.35833,-0.71667 0.35833,-1.075c1.075,-1.075 0,-3.225 -1.79167,-3.94167z" fill="#a1887f"></path><path d="M39.41667,146.91667c-3.58333,0 -7.16667,-1.43333 -10.03333,-4.3c-5.73333,-5.73333 -5.73333,-14.69167 0,-20.425l38.7,-32.60833c5.73333,-5.73333 22.575,-19.35 27.95,-13.61667c5.73333,5.73333 -4.65833,18.99167 -10.03333,24.36667l-36.55,42.28333c-2.86667,2.86667 -6.45,4.3 -10.03333,4.3z" fill="#dcedc8"></path><path d="M164.83333,7.16667l-75.25,82.41667l-17.91667,-7.16667l68.08333,-75.25z" fill="#33691e"></path><path d="M157.66667,14.33333v21.5l-64.5,53.75l-21.5,-7.16667z" fill="#558b2f"></path><path d="M114.66667,25.08333h21.5l-35.83333,53.75h-21.5z" fill="#689f38"></path><path d="M143.33333,57.33333l-50.16667,35.83333l-14.33333,-10.75l64.5,-50.16667z" fill="#7cb342"></path><path d="M89.58333,46.58333h21.5l-21.5,35.83333l-21.5,7.16667z" fill="#9ccc65"></path><path d="M125.41667,78.83333v-25.08333l-57.33333,35.83333c18.275,0 17.91667,10.75 17.91667,10.75z" fill="#aed581"></path></g><path d="" fill="none" stroke="none" stroke-linejoin="miter"></path></g></g></svg>