<svg version="1.1" xmlns="http://www.w3.org/2000/svg" xmlns:xlink="http://www.w3.org/1999/xlink" viewBox="0 0 172 172"><g transform="translate(0.516,0.516) scale(0.994,0.994)"><g fill="none" fill-rule="nonzero" stroke="none" stroke-width="1" stroke-linecap="butt" stroke-linejoin="none" stroke-miterlimit="10" stroke-dasharray="" stroke-dashoffset="0" font-family="none" font-weight="none" font-size="none" text-anchor="none" style="mix-blend-mode: normal"><g stroke="#cccccc" stroke-linejoin="round"><path d="M150.5,86c0,37.59992 -33.6905,68.08333 -75.25,68.08333h-10.75v-136.16667h10.75c41.5595,0 75.25,30.48342 75.25,68.08333z" fill="#fb8c00"></path><path d="M21.5,86c0,-31.66433 18.4496,-57.33333 41.20833,-57.33333c22.75873,0 41.20833,25.66901 41.20833,57.33333c0,31.66433 -18.4496,57.33333 -41.20833,57.33333c-22.75873,0 -41.20833,-25.66901 -41.20833,-57.33333z" fill="#ffab00"></path><path d="M64.5,28.66667c-20.64,0 -38.22342,26.37333 -38.22342,57.33333c0,30.96 17.58342,57.33333 38.22342,57.33333c20.64,0 38.22342,-26.37333 38.22342,-57.33333c0,-30.96 -17.58342,-57.33333 -38.22342,-57.33333M114.66667,86c0,37.625 -22.575,68.08333 -50.16667,68.08333c-27.59167,0 -50.16667,-30.45833 -50.16667,-68.08333c0,-37.625 22.575,-68.08333 50.16667,-68.08333c27.59167,0 50.16667,30.45833 50.16667,68.08333z" fill="#fff59d"></path><path d="M60.91667,21.5h7.16667v121.83333h-7.16667z" fill="#fff59d"></path><path d="M21.5,82.41667h86v7.16667h-86z" fill="#fff59d"></path><path d="M64.5,91.73333l-31.53333,-43l5.73333,-4.3l25.8,35.83333l29.38333,-35.83333l5.73333,4.3z" fill="#fff59d"></path><path d="M90.3,127.56667l-25.8,-35.475l-25.8,35.475l-5.73333,-4.3l31.53333,-43.35833l31.53333,43.35833z" fill="#fff59d"></path><path d="M125.41667,103.91667c0,2.15 -1.43333,3.58333 -3.58333,3.58333c-2.15,0 -3.58333,-1.43333 -3.58333,-3.58333c0,-2.15 1.43333,-3.58333 3.58333,-3.58333c2.15,0 3.58333,1.43333 3.58333,3.58333zM129,118.25c0,2.15 -1.43333,3.58333 -3.58333,3.58333c-2.15,0 -3.58333,-1.43333 -3.58333,-3.58333c0,-2.15 1.43333,-3.58333 3.58333,-3.58333c2.15,0 3.58333,1.43333 3.58333,3.58333zM139.75,107.5c0,2.15 -1.43333,3.58333 -3.58333,3.58333c-2.15,0 -3.58333,-1.43333 -3.58333,-3.58333c0,-2.15 1.43333,-3.58333 3.58333,-3.58333c2.15,0 3.58333,1.43333 3.58333,3.58333z" fill="#ef6c00"></path></g><path d="M0,172v-172h172v172z" fill="none" stroke="none" stroke-linejoin="miter"></path><g stroke="none" stroke-linejoin="miter"><path d="M75.25,17.91667h-10.75v136.16667h10.75c41.5595,0 75.25,-30.48342 75.25,-68.08333c0,-37.59992 -33.6905,-68.08333 -75.25,-68.08333z" fill="#fb8c00"></path><ellipse cx="17.5" cy="24" transform="scale(3.58333,3.58333)" rx="11.5" ry="16" fill="#ffab00"></ellipse><path d="M64.5,28.66667c20.64,0 38.22342,26.37333 38.22342,57.33333c0,30.96 -17.58342,57.33333 -38.22342,57.33333c-20.64,0 -38.22342,-26.37333 -38.22342,-57.33333c0,-30.96 17.58342,-57.33333 38.22342,-57.33333M64.5,17.91667c-27.59167,0 -50.16667,30.45833 -50.16667,68.08333c0,37.625 22.575,68.08333 50.16667,68.08333c27.59167,0 50.16667,-30.45833 50.16667,-68.08333c0,-37.625 -22.575,-68.08333 -50.16667,-68.08333z" fill="#fff59d"></path><path d="M60.91667,21.5h7.16667v121.83333h-7.16667z" fill="#fff59d"></path><path d="M21.5,82.41667h86v7.16667h-86z" fill="#fff59d"></path><path d="M64.5,91.73333l-31.53333,-43l5.73333,-4.3l25.8,35.83333l29.38333,-35.83333l5.73333,4.3z" fill="#fff59d"></path><path d="M90.3,127.56667l-25.8,-35.475l-25.8,35.475l-5.73333,-4.3l31.53333,-43.35833l31.53333,43.35833z" fill="#fff59d"></path><path d="M125.41667,103.91667c0,2.15 -1.43333,3.58333 -3.58333,3.58333c-2.15,0 -3.58333,-1.43333 -3.58333,-3.58333c0,-2.15 1.43333,-3.58333 3.58333,-3.58333c2.15,0 3.58333,1.43333 3.58333,3.58333zM129,118.25c0,2.15 -1.43333,3.58333 -3.58333,3.58333c-2.15,0 -3.58333,-1.43333 -3.58333,-3.58333c0,-2.15 1.43333,-3.58333 3.58333,-3.58333c2.15,0 3.58333,1.43333 3.58333,3.58333zM139.75,107.5c0,2.15 -1.43333,3.58333 -3.58333,3.58333c-2.15,0 -3.58333,-1.43333 -3.58333,-3.58333c0,-2.15 1.43333,-3.58333 3.58333,-3.58333c2.15,0 3.58333,1.43333 3.58333,3.58333z" fill="#ef6c00"></path></g><path d="" fill="none" stroke="none" stroke-linejoin="miter"></path></g></g></svg>