<svg version="1.1" xmlns="http://www.w3.org/2000/svg" xmlns:xlink="http://www.w3.org/1999/xlink" viewBox="0 0 172 172"><g transform="translate(0.516,0.516) scale(0.994,0.994)"><g fill="none" fill-rule="nonzero" stroke="none" stroke-width="1" stroke-linecap="butt" stroke-linejoin="none" stroke-miterlimit="10" stroke-dasharray="" stroke-dashoffset="0" font-family="none" font-weight="none" font-size="none" text-anchor="none" style="mix-blend-mode: normal"><g stroke="#cccccc" stroke-linejoin="round"><path d="M107.5,21.5c0,3.94167 -3.225,7.16667 -7.16667,7.16667c-3.94167,0 -7.16667,-3.225 -7.16667,-7.16667c0,-3.94167 3.225,-7.16667 7.16667,-7.16667c3.94167,0 7.16667,3.225 7.16667,7.16667z" fill="#8bc34a"></path><path d="M89.58333,46.58333h-7.16667c0,-28.66667 15.76667,-31.53333 16.48333,-31.89167l1.43333,13.975c-0.71667,0.35833 -10.75,-1.075 -10.75,17.91667z" fill="#8bc34a"></path><path d="M68.08333,157.66667c-5.01667,0 -10.03333,-2.15 -13.61667,-6.09167c-25.08333,-29.38333 -25.8,-78.11667 -25.8,-83.49167c0,-10.03333 7.88333,-17.91667 17.91667,-17.91667c10.03333,0 17.91667,7.88333 17.91667,17.91667c0,11.10833 3.225,43.71667 17.2,60.2c6.45,7.525 5.73333,18.99167 -1.79167,25.44167c-3.58333,2.50833 -7.525,3.94167 -11.825,3.94167z" fill="#ff3d00"></path><path d="M103.91667,157.66667c-3.58333,0 -6.80833,-1.075 -10.03333,-2.86667c-8.24167,-5.375 -10.39167,-16.48333 -5.01667,-24.725c17.91667,-27.23333 18.63333,-61.63333 18.63333,-61.99167c0,-10.03333 8.24167,-17.91667 17.91667,-17.91667c10.03333,0 17.91667,7.88333 17.91667,17.91667c0,1.79167 -0.35833,45.15 -24.36667,81.7c-3.58333,5.01667 -9.31667,7.88333 -15.05,7.88333z" fill="#ff3d00"></path><path d="M108.93333,135.45c-1.43333,3.58333 -4.3,8.95833 -7.525,12.9c-2.86667,5.375 -8.6,9.31667 -15.40833,9.31667c-6.45,0 -12.18333,-3.58333 -15.40833,-8.95833c-3.58333,-3.94167 -6.80833,-9.675 -8.24167,-13.61667c-16.125,-43 -12.18333,-78.475 -12.18333,-79.90833c1.075,-8.95833 9.31667,-15.76667 18.63333,-15.76667c0.71667,0 1.075,0 1.79167,0c0.35833,0 0.35833,0 0.35833,0c6.45,0.71667 11.825,3.58333 14.69167,3.58333c2.15,0 6.45,-1.79167 11.10833,-2.86667c0.35833,0 0.35833,0 0.35833,0c1.075,-0.35833 2.15,-0.71667 3.225,-0.71667c0.35833,0 0.71667,0 1.075,0c0.35833,0 1.075,0 1.43333,0c9.31667,0.35833 17.55833,6.80833 18.63333,16.125c0,1.43333 3.58333,36.90833 -12.54167,79.90833z" fill="#ff3d00"></path><path d="M98.54167,151.93333c1.43333,-1.075 2.50833,-2.50833 3.225,-4.3c3.225,-3.94167 6.09167,-8.95833 7.525,-12.9c16.125,-42.64167 12.54167,-78.11667 12.54167,-79.55c-0.35833,-1.79167 -0.71667,-3.225 -1.43333,-4.65833c1.43333,-0.35833 2.86667,-0.71667 4.65833,-0.71667c0.71667,0 1.79167,0.35833 2.50833,0.35833c4.3,17.2 1.075,90.65833 -29.025,101.76667zM74.53333,153.00833c-31.53333,-10.03333 -35.11667,-85.28333 -30.45833,-102.48333c0.71667,-0.35833 1.79167,-0.35833 2.50833,-0.35833c1.43333,0 3.58333,0.35833 5.375,0.71667c-0.35833,1.43333 -0.71667,2.86667 -1.075,4.3c-0.35833,1.79167 -3.94167,36.90833 12.18333,79.90833c1.43333,3.94167 4.65833,9.675 8.24167,13.61667c0.71667,1.79167 1.79167,3.225 3.225,4.3z" fill="#dd2c00"></path><path d="M60.91667,64.5c-2.15,0 -3.58333,-1.43333 -3.58333,-3.58333c0,-5.01667 4.65833,-14.33333 10.75,-14.33333c2.15,0 3.58333,1.43333 3.58333,3.58333c0,1.79167 -1.43333,3.58333 -3.58333,3.58333c-1.43333,0.71667 -3.58333,5.01667 -3.58333,7.16667c0,1.79167 -1.43333,3.58333 -3.58333,3.58333zM68.08333,121.83333c-1.43333,0 -2.50833,-0.71667 -3.225,-2.15c-7.525,-14.69167 -7.525,-39.775 -7.525,-40.85c0,-2.15 1.43333,-3.58333 3.58333,-3.58333c2.15,0 3.58333,1.43333 3.58333,3.58333c0,0.35833 0,24.36667 6.80833,37.98333c0.71667,1.79167 0,3.94167 -1.43333,4.65833c-0.71667,0.35833 -1.075,0.35833 -1.79167,0.35833z" fill="#ff9e80"></path></g><path d="M0,172v-172h172v172z" fill="none" stroke="none" stroke-linejoin="miter"></path><g stroke="none" stroke-linejoin="miter"><path d="M107.5,21.5c0,3.94167 -3.225,7.16667 -7.16667,7.16667c-3.94167,0 -7.16667,-3.225 -7.16667,-7.16667c0,-3.94167 3.225,-7.16667 7.16667,-7.16667c3.94167,0 7.16667,3.225 7.16667,7.16667z" fill="#8bc34a"></path><path d="M89.58333,46.58333h-7.16667c0,-28.66667 15.76667,-31.53333 16.48333,-31.89167l1.43333,13.975c-0.71667,0.35833 -10.75,-1.075 -10.75,17.91667z" fill="#8bc34a"></path><path d="M68.08333,157.66667c-5.01667,0 -10.03333,-2.15 -13.61667,-6.09167c-25.08333,-29.38333 -25.8,-78.11667 -25.8,-83.49167c0,-10.03333 7.88333,-17.91667 17.91667,-17.91667c10.03333,0 17.91667,7.88333 17.91667,17.91667c0,11.10833 3.225,43.71667 17.2,60.2c6.45,7.525 5.73333,18.99167 -1.79167,25.44167c-3.58333,2.50833 -7.525,3.94167 -11.825,3.94167z" fill="#ff3d00"></path><path d="M103.91667,157.66667c-3.58333,0 -6.80833,-1.075 -10.03333,-2.86667c-8.24167,-5.375 -10.39167,-16.48333 -5.01667,-24.725c17.91667,-27.23333 18.63333,-61.63333 18.63333,-61.99167c0,-10.03333 8.24167,-17.91667 17.91667,-17.91667v0c10.03333,0 17.91667,7.88333 17.91667,17.91667c0,1.79167 -0.35833,45.15 -24.36667,81.7c-3.58333,5.01667 -9.31667,7.88333 -15.05,7.88333z" fill="#ff3d00"></path><path d="M121.475,55.54167c-1.075,-9.31667 -9.31667,-15.76667 -18.63333,-16.125v0c-0.35833,0 -1.075,0 -1.43333,0c-0.35833,0 -0.35833,0 -0.71667,0h-0.35833c-1.075,0 -2.15,0.35833 -3.225,0.71667c0,0 0,0 -0.35833,0c-4.65833,1.075 -8.95833,2.86667 -11.10833,2.86667c-2.86667,0 -8.24167,-2.86667 -14.69167,-3.58333v0c0,0 0,0 -0.35833,0c-0.71667,0 -1.075,0 -1.79167,0v0c-9.31667,0 -17.55833,6.80833 -18.63333,15.76667c0,1.43333 -3.94167,36.90833 12.18333,79.90833c1.43333,3.94167 4.65833,9.675 8.24167,13.61667c3.225,5.375 8.95833,8.95833 15.40833,8.95833c6.80833,0 12.54167,-3.94167 15.40833,-9.31667c3.225,-3.94167 6.09167,-9.31667 7.525,-12.9c16.125,-43 12.54167,-78.475 12.54167,-79.90833z" fill="#ff3d00"></path><path d="M127.56667,50.16667c-0.71667,0 -1.79167,-0.35833 -2.50833,-0.35833c-1.79167,0 -3.225,0.35833 -4.65833,0.71667c0.71667,1.43333 1.075,2.86667 1.43333,4.65833c0,1.43333 3.58333,36.90833 -12.54167,79.55c-1.43333,3.94167 -4.3,8.95833 -7.525,12.9c-0.71667,1.79167 -1.79167,3.225 -3.225,4.3c30.1,-11.10833 33.325,-84.56667 29.025,-101.76667zM71.30833,148.70833c-3.58333,-3.94167 -6.80833,-9.675 -8.24167,-13.61667c-16.125,-43 -12.54167,-78.11667 -12.18333,-79.90833c0.35833,-1.43333 0.71667,-2.86667 1.075,-4.3c-1.79167,-0.35833 -3.94167,-0.71667 -5.375,-0.71667c-0.71667,0 -1.79167,0 -2.50833,0.35833c-4.65833,17.2 -1.075,92.45 30.45833,102.48333c-1.43333,-1.075 -2.50833,-2.50833 -3.225,-4.3z" fill="#dd2c00"></path><path d="M60.91667,64.5c-2.15,0 -3.58333,-1.43333 -3.58333,-3.58333c0,-5.01667 4.65833,-14.33333 10.75,-14.33333c2.15,0 3.58333,1.43333 3.58333,3.58333c0,1.79167 -1.43333,3.58333 -3.58333,3.58333c-1.43333,0.71667 -3.58333,5.01667 -3.58333,7.16667c0,1.79167 -1.43333,3.58333 -3.58333,3.58333zM68.44167,53.75v0zM68.08333,121.83333c-1.43333,0 -2.50833,-0.71667 -3.225,-2.15c-7.525,-14.69167 -7.525,-39.775 -7.525,-40.85c0,-2.15 1.43333,-3.58333 3.58333,-3.58333c2.15,0 3.58333,1.43333 3.58333,3.58333c0,0.35833 0,24.36667 6.80833,37.98333c0.71667,1.79167 0,3.94167 -1.43333,4.65833c-0.71667,0.35833 -1.075,0.35833 -1.79167,0.35833z" fill="#ff9e80"></path></g><path d="" fill="none" stroke="none" stroke-linejoin="miter"></path></g></g></svg>