<svg version="1.1" xmlns="http://www.w3.org/2000/svg" xmlns:xlink="http://www.w3.org/1999/xlink" viewBox="0 0 172 172"><g transform="translate(0.516,0.516) scale(0.994,0.994)"><g fill="none" fill-rule="nonzero" stroke="none" stroke-width="1" stroke-linecap="butt" stroke-linejoin="none" stroke-miterlimit="10" stroke-dasharray="" stroke-dashoffset="0" font-family="none" font-weight="none" font-size="none" text-anchor="none" style="mix-blend-mode: normal"><g stroke="#cccccc" stroke-linejoin="round"><path d="M104.63692,64.64692c0.87075,-6.19558 3.02433,-11.13342 5.55775,-15.69858c2.58358,-4.51858 5.66883,-8.53908 9.18408,-12.14392c3.51167,-3.60483 7.47483,-6.7725 11.93608,-9.44925c4.50783,-2.63017 9.40983,-4.87333 15.60183,-5.85517c-0.85642,6.20633 -3.00283,11.15492 -5.53983,15.7165c-2.58717,4.515 -5.66883,8.54267 -9.202,12.126c-3.52958,3.5905 -7.49275,6.75817 -11.954,9.43492c-4.51142,2.623 -9.40983,4.87333 -15.58392,5.8695z" fill="#8bc34a"></path><path d="M154.08333,46.58333c-3.83417,4.97008 -8.16642,8.22375 -12.64558,10.96142c-4.50067,2.666 -9.19483,4.66192 -14.061,6.07733c-4.859,1.419 -9.89717,2.236 -15.12525,2.37933c-5.24958,0.07883 -10.65325,-0.37267 -16.55142,-2.55133c3.827,-4.99517 8.15567,-8.25242 12.63842,-10.98292c4.50425,-2.666 9.19483,-4.66192 14.06817,-6.05225c4.86617,-1.3975 9.90433,-2.21092 15.13242,-2.35425c5.24958,-0.08242 10.64608,0.36192 16.54425,2.52267z" fill="#7cb342"></path><path d="M105.83733,73.58375c-2.25033,-5.90533 -2.7735,-11.34483 -2.77708,-16.64458c0.0645,-5.28183 0.80983,-10.37733 2.13208,-15.31517c1.31867,-4.94142 3.24292,-9.718 5.84442,-14.31542c2.65883,-4.57592 5.85875,-9.01208 10.79658,-12.97525c2.27183,5.90892 2.80217,11.352 2.80217,16.64817c-0.06808,5.27825 -0.80983,10.37733 -2.15717,15.308c-1.34017,4.93425 -3.26442,9.71442 -5.8695,14.30825c-2.666,4.5795 -5.85517,9.01925 -10.7715,12.986z" fill="#7cb342"></path><path d="M154.08333,68.08333c-5.29617,3.40775 -10.48483,5.02742 -15.64125,6.11317c-5.15283,1.01408 -10.26267,1.32583 -15.34025,1.03917c-5.07758,-0.28667 -10.11575,-1.19325 -15.11808,-2.80575c-4.99875,-1.67342 -9.95808,-3.89867 -14.81708,-7.92633c5.29617,-3.42925 10.48483,-5.05967 15.64125,-6.13467c5.15283,-1.01408 10.26625,-1.32583 15.34025,-1.01408c5.07758,0.30817 10.11575,1.21833 15.11808,2.82725c4.99517,1.68058 9.96167,3.89867 14.81708,7.90125z" fill="#558b2f"></path><path d="M103.91667,14.33692c3.40417,5.0095 5.02383,9.90792 6.10958,14.7705c1.01408,4.859 1.32583,9.675 1.03558,14.45517c-0.28308,4.77658 -1.19325,9.51733 -2.80217,14.21508c-1.677,4.69417 -3.90225,9.34892 -7.92633,13.89258c-3.42925,-5.0095 -5.05608,-9.90792 -6.13467,-14.77408c-1.0105,-4.859 -1.32583,-9.675 -1.0105,-14.45158c0.30817,-4.77658 1.21833,-9.51733 2.82725,-14.2115c1.68058,-4.69417 3.89867,-9.34892 7.90125,-13.89617z" fill="#558b2f"></path><path d="M92.05942,137.38142c-17.2,17.2 -44.75942,17.53325 -61.5545,0.74175c-16.7915,-16.79508 -16.45825,-44.3545 0.74175,-61.5545c0.58767,-0.58767 12.39833,-12.39475 12.97883,-12.97525c8.69317,-8.70033 21.371,-13.33 34.15992,-13.33c15.52658,0 24.19108,9.38475 24.19108,9.38475c0,0 3.311,3.311 5.74767,5.74767c5.47533,5.70108 10.21967,19.13858 10.15158,25.63517c-0.129,12.51658 -4.89483,24.82892 -13.4375,33.37158c-0.3655,0.3655 -12.60975,12.60617 -12.97883,12.97883z" fill="#f9a825"></path><path d="M79.10208,146.36483c-2.26108,1.04633 -4.58667,1.892 -6.95167,2.537c-0.23292,-0.37983 -0.473,-0.75967 -0.73817,-1.02483c-2.3865,-2.3865 -9.6965,-3.569 -15.36175,-3.8055c0.92808,1.90992 1.591,4.10292 2.0855,6.31025c-2.64808,-0.1505 -5.27467,-0.54467 -7.85467,-1.1825c-0.53033,-1.55517 -1.15742,-2.84517 -1.92067,-3.60842c-2.12492,-2.12133 -8.13775,-3.2895 -13.4375,-3.68725c-1.5265,-1.16458 -3.02433,-2.39725 -4.42183,-3.79117c-1.39392,-1.39392 -2.63017,-2.89175 -3.79117,-4.42183c-0.39775,-5.29975 -1.56233,-11.31258 -3.68725,-13.4375c-0.76325,-0.75967 -2.05325,-1.39033 -3.60842,-1.91708c-0.63783,-2.58 -1.032,-5.21017 -1.1825,-7.85825c2.20733,0.4945 4.40033,1.15742 6.31025,2.0855c-0.24008,-5.66525 -1.419,-12.97525 -3.8055,-15.36175c-0.26517,-0.26517 -0.645,-0.50525 -1.02483,-0.73817c0.645,-2.365 1.49067,-4.687 2.54058,-6.94808c0,-0.00358 0,-0.00717 0,-0.01075c1.59458,-3.45075 3.61917,-6.751 6.14542,-9.79683c0.66292,3.21783 0.96033,6.41417 1.075,8.76125c4.13875,0.20783 10.91842,0.93525 15.83475,3.33608c-0.24008,-5.66525 -1.42258,-12.97525 -3.8055,-15.36175c-1.30433,-1.30433 -4.09217,-2.23958 -7.27058,-2.86667c1.77375,-1.77375 4.03483,-4.03483 5.96625,-5.96625c0.98542,0.32608 1.935,0.7095 2.82008,1.14308c-0.05017,-1.17533 -0.14692,-2.42233 -0.28308,-3.68008c0.81342,-0.80983 1.37242,-1.37242 1.48708,-1.4835c1.548,-1.55158 3.23217,-2.97058 5.01667,-4.26058c0.60558,3.08883 0.88508,6.12392 0.99975,8.37783c4.13517,0.20783 10.91842,0.93883 15.83117,3.33608c-0.24008,-5.66525 -1.42258,-12.97883 -3.80908,-15.36533c-0.69158,-0.68442 -1.81675,-1.26492 -3.16767,-1.75942c9.23067,-3.7195 19.78358,-4.65833 29.76675,-2.451c9.976,2.20733 16.91333,11.38425 16.91333,11.38425c-1.87767,-1.87767 -6.81192,-2.99567 -11.59208,-3.51167c1.47992,4.44333 1.99592,9.57108 2.16075,12.943c3.37192,0.16483 8.49608,0.68442 12.943,2.16075c-0.51242,-4.78017 -1.634,-9.71442 -3.50808,-11.5885c0,0 8.89025,8.14492 11.55983,17.19283c2.15,9.92583 1.14308,20.39992 -2.60867,29.55892c-0.49808,-1.38317 -1.08217,-2.54058 -1.7845,-3.2465c-2.3865,-2.3865 -9.69292,-3.56542 -15.36175,-3.8055c2.40083,4.91633 3.12825,11.696 3.33967,15.83475c2.25033,0.11108 5.29258,0.39058 8.385,0.99617c-1.29717,1.7845 -2.71617,3.4615 -4.26775,5.01667c-0.07167,0.07167 -0.64142,0.64142 -1.48708,1.48708c-1.25417,-0.13617 -2.50475,-0.23292 -3.68008,-0.28667c0.43358,0.89225 0.81342,1.83825 1.14308,2.82367c-1.92783,1.92783 -4.1925,4.1925 -5.96625,5.96625c-0.62708,-3.17483 -1.56233,-5.96625 -2.86667,-7.267c-2.38292,-2.39008 -9.6965,-3.57258 -15.36175,-3.80908c2.40083,4.91633 3.12825,11.696 3.33608,15.83475c2.34708,0.11467 5.54342,0.41208 8.76125,1.07142c-3.03867,2.53342 -6.34967,4.55083 -9.79683,6.149c-0.00358,0 -0.00717,0 -0.01433,0c0.00358,0 0.00358,0 -0.00358,-0.00717zM89.89508,104.07075c-2.3865,-2.39008 -9.71083,-3.57258 -15.38325,-3.8055c2.40442,4.91275 3.14617,11.69242 3.35758,15.83117c4.13875,0.21142 10.91842,0.95317 15.83117,3.354c-0.23292,-5.67242 -1.41542,-12.99317 -3.8055,-15.37967zM66.8435,101.78458c-2.3865,-2.39008 -9.71083,-3.57258 -15.37967,-3.80908c2.40442,4.91633 3.14617,11.69242 3.354,15.83475c4.14233,0.20783 10.91842,0.94958 15.83475,3.354c-0.24008,-5.67242 -1.419,-12.99317 -3.80908,-15.37967zM95.30233,79.49983c2.39725,4.91633 3.12825,11.696 3.33608,15.83117c4.13517,0.21142 10.91483,0.93525 15.83117,3.33608c-0.24008,-5.66525 -1.42258,-12.97525 -3.8055,-15.36175c-2.3865,-2.3865 -9.6965,-3.56542 -15.36175,-3.8055zM87.60892,81.01917c-2.3865,-2.3865 -9.70725,-3.57258 -15.37967,-3.8055c2.40083,4.91633 3.14617,11.68883 3.35758,15.82758c4.13875,0.21142 10.91483,0.95317 15.82758,3.35758c-0.2365,-5.67242 -1.419,-12.99317 -3.8055,-15.37967zM73.30067,69.99325c4.14233,0.215 10.91842,0.95317 15.83117,3.35758c-0.2365,-5.66883 -1.419,-12.98958 -3.80192,-15.37967c-0.00358,-0.00358 -0.00358,-0.00358 -0.00717,-0.00717c-2.39008,-2.38292 -9.71083,-3.569 -15.37967,-3.80192c2.40083,4.91633 3.14617,11.69242 3.35758,15.83117zM52.53525,90.75867c4.13517,0.21142 10.91842,0.93525 15.83117,3.33608c-0.24008,-5.66525 -1.419,-12.97525 -3.8055,-15.36175c-2.38292,-2.3865 -9.6965,-3.569 -15.36533,-3.80192c2.40083,4.90917 3.12825,11.69242 3.33967,15.82758zM31.77342,111.52408c4.13158,0.20783 10.91483,0.93525 15.82758,3.33967c-0.2365,-5.67242 -1.419,-12.97883 -3.80192,-15.36533c-2.3865,-2.3865 -9.6965,-3.57258 -15.36533,-3.8055c2.39725,4.91275 3.12825,11.696 3.33967,15.83117zM49.88717,137.93683c-0.2365,-5.676 -1.419,-12.99675 -3.8055,-15.38683c-2.39008,-2.3865 -9.71083,-3.569 -15.38325,-3.8055c2.40442,4.91633 3.14617,11.68883 3.35758,15.83117c4.14233,0.20783 10.91483,0.94958 15.83117,3.36117zM72.93875,140.21942c-0.2365,-5.676 -1.41542,-12.99317 -3.8055,-15.38683c-2.3865,-2.3865 -9.71083,-3.569 -15.38325,-3.80192c2.408,4.91275 3.14617,11.68883 3.35758,15.82758c4.14233,0.215 10.91483,0.95317 15.83117,3.36117z" fill="#c68632"></path></g><path d="M0,172v-172h172v172z" fill="none" stroke="none" stroke-linejoin="miter"></path><g stroke="none" stroke-linejoin="miter"><path d="M104.63692,64.64692c0.87075,-6.19558 3.02433,-11.13342 5.55775,-15.69858c2.58358,-4.51858 5.66883,-8.53908 9.18408,-12.14392c3.51167,-3.60483 7.47483,-6.7725 11.93608,-9.44925c4.50783,-2.63017 9.40983,-4.87333 15.60183,-5.85517c-0.85642,6.20633 -3.00283,11.15492 -5.53983,15.7165c-2.58717,4.515 -5.66883,8.54267 -9.202,12.126c-3.52958,3.5905 -7.49275,6.75817 -11.954,9.43492c-4.51142,2.623 -9.40983,4.87333 -15.58392,5.8695z" fill="#8bc34a"></path><path d="M154.08333,46.58333c-3.83417,4.97008 -8.16642,8.22375 -12.64558,10.96142c-4.50067,2.666 -9.19483,4.66192 -14.061,6.07733c-4.859,1.419 -9.89717,2.236 -15.12525,2.37933c-5.24958,0.07883 -10.65325,-0.37267 -16.55142,-2.55133c3.827,-4.99517 8.15567,-8.25242 12.63842,-10.98292c4.50425,-2.666 9.19483,-4.66192 14.06817,-6.05225c4.86617,-1.3975 9.90433,-2.21092 15.13242,-2.35425c5.24958,-0.08242 10.64608,0.36192 16.54425,2.52267z" fill="#7cb342"></path><path d="M105.83733,73.58375c-2.25033,-5.90533 -2.7735,-11.34483 -2.77708,-16.64458c0.0645,-5.28183 0.80983,-10.37733 2.13208,-15.31517c1.31867,-4.94142 3.24292,-9.718 5.84442,-14.31542c2.65883,-4.57592 5.85875,-9.01208 10.79658,-12.97525c2.27183,5.90892 2.80217,11.352 2.80217,16.64817c-0.06808,5.27825 -0.80983,10.37733 -2.15717,15.308c-1.34017,4.93425 -3.26442,9.71442 -5.8695,14.30825c-2.666,4.5795 -5.85517,9.01925 -10.7715,12.986z" fill="#7cb342"></path><path d="M154.08333,68.08333c-5.29617,3.40775 -10.48483,5.02742 -15.64125,6.11317c-5.15283,1.01408 -10.26267,1.32583 -15.34025,1.03917c-5.07758,-0.28667 -10.11575,-1.19325 -15.11808,-2.80575c-4.99875,-1.67342 -9.95808,-3.89867 -14.81708,-7.92633c5.29617,-3.42925 10.48483,-5.05967 15.64125,-6.13467c5.15283,-1.01408 10.26625,-1.32583 15.34025,-1.01408c5.07758,0.30817 10.11575,1.21833 15.11808,2.82725c4.99517,1.68058 9.96167,3.89867 14.81708,7.90125z" fill="#558b2f"></path><path d="M103.91667,14.33692c3.40417,5.0095 5.02383,9.90792 6.10958,14.7705c1.01408,4.859 1.32583,9.675 1.03558,14.45517c-0.28308,4.77658 -1.19325,9.51733 -2.80217,14.21508c-1.677,4.69417 -3.90225,9.34892 -7.92633,13.89258c-3.42925,-5.0095 -5.05608,-9.90792 -6.13467,-14.77408c-1.0105,-4.859 -1.32583,-9.675 -1.0105,-14.45158c0.30817,-4.77658 1.21833,-9.51733 2.82725,-14.2115c1.68058,-4.69417 3.89867,-9.34892 7.90125,-13.89617z" fill="#558b2f"></path><path d="M105.03825,124.40258c8.54267,-8.54267 13.3085,-20.855 13.4375,-33.37158c0.06808,-6.49658 -4.67625,-19.93408 -10.15158,-25.63517c-2.43667,-2.43667 -2.54417,-2.54417 -2.54417,-2.54417l-3.2035,-3.2035c0,0 -8.6645,-9.38475 -24.19108,-9.38475c-12.78892,0 -25.46675,4.62967 -34.15992,13.33c-0.5805,0.5805 -12.39117,12.38758 -12.97883,12.97525c-17.2,17.2 -17.53325,44.75942 -0.74175,61.5545c16.79508,16.7915 44.3545,16.45825 61.5545,-0.74175c0.36908,-0.37267 12.61333,-12.61333 12.97883,-12.97883z" fill="#f9a825"></path><path d="M79.10567,146.372c0.00717,0 0.01075,0 0.01433,0c3.44717,-1.59817 6.75817,-3.61558 9.79683,-6.149c-3.21783,-0.65933 -6.41417,-0.95675 -8.76125,-1.07142c-0.20783,-4.13875 -0.93525,-10.91842 -3.33608,-15.83475c5.66525,0.2365 12.97883,1.419 15.36175,3.80908c1.30433,1.30075 2.23958,4.09217 2.86667,7.267c1.77375,-1.77375 4.03842,-4.03842 5.96625,-5.96625c-0.32967,-0.98542 -0.7095,-1.93142 -1.14308,-2.82367c1.17533,0.05375 2.42592,0.1505 3.68008,0.28667c0.84567,-0.84567 1.41542,-1.41542 1.48708,-1.48708c1.55158,-1.55517 2.97058,-3.23217 4.26775,-5.01667c-3.09242,-0.60558 -6.13467,-0.88508 -8.385,-0.99617c-0.21142,-4.13875 -0.93883,-10.91842 -3.33967,-15.83475c5.66883,0.24008 12.97525,1.419 15.36175,3.8055c0.70233,0.70592 1.28642,1.86333 1.7845,3.2465c3.75175,-9.159 4.75867,-19.63308 2.60867,-29.55892c-2.66958,-9.04792 -11.55983,-17.19283 -11.55983,-17.19283c1.87408,1.87408 2.99567,6.80833 3.50808,11.5885c-4.44692,-1.47633 -9.57108,-1.99592 -12.943,-2.16075c-0.16483,-3.37192 -0.68083,-8.49967 -2.16075,-12.943c4.78017,0.516 9.71442,1.634 11.59208,3.51167c0,0 -6.93733,-9.17692 -16.91333,-11.38425c-9.98317,-2.20733 -20.53608,-1.2685 -29.76675,2.451c1.35092,0.4945 2.47608,1.075 3.16767,1.75942c2.3865,2.3865 3.569,9.70008 3.80908,15.36533c-4.91275,-2.39725 -11.696,-3.12825 -15.83117,-3.33608c-0.11467,-2.25392 -0.39417,-5.289 -0.99975,-8.37783c-1.7845,1.29 -3.46867,2.709 -5.01667,4.26058c-0.11467,0.11108 -0.67367,0.67367 -1.48708,1.4835c0.13617,1.25775 0.23292,2.50475 0.28308,3.68008c-0.88508,-0.43358 -1.83467,-0.817 -2.82008,-1.14308c-1.93142,1.93142 -4.1925,4.1925 -5.96625,5.96625c3.17842,0.62708 5.96625,1.56233 7.27058,2.86667c2.38292,2.3865 3.56542,9.6965 3.8055,15.36175c-4.91633,-2.40083 -11.696,-3.12825 -15.83475,-3.33608c-0.11467,-2.34708 -0.41208,-5.54342 -1.075,-8.76125c-2.52625,3.04583 -4.55083,6.34608 -6.14542,9.79683c0,0.00358 0,0.00717 0,0.01075v0c-1.04992,2.26108 -1.89558,4.58308 -2.54058,6.94808c0.37983,0.23292 0.75967,0.473 1.02483,0.73817c2.3865,2.3865 3.56542,9.6965 3.8055,15.36175c-1.90992,-0.92808 -4.10292,-1.591 -6.31025,-2.0855c0.1505,2.64808 0.54467,5.27825 1.1825,7.85825c1.55517,0.52675 2.84517,1.15742 3.60842,1.91708c2.12492,2.12492 3.2895,8.13775 3.68725,13.4375c1.161,1.53008 2.39725,3.02792 3.79117,4.42183c1.3975,1.39392 2.89533,2.62658 4.42183,3.79117c5.29975,0.39775 11.31258,1.56592 13.4375,3.68725c0.76325,0.76325 1.39033,2.05325 1.92067,3.60842c2.58,0.63783 5.20658,1.032 7.85467,1.1825c-0.4945,-2.20733 -1.15742,-4.40033 -2.0855,-6.31025c5.66525,0.2365 12.97525,1.419 15.36175,3.8055c0.26517,0.26517 0.50525,0.645 0.73817,1.02483c2.365,-0.645 4.69058,-1.49067 6.95167,-2.537c0.00717,0.00717 0.00717,0.00717 0.00358,0.00717zM93.70058,119.45042c-4.91275,-2.40083 -11.69242,-3.14258 -15.83117,-3.354c-0.21142,-4.13875 -0.95317,-10.91842 -3.35758,-15.83117c5.67242,0.23292 12.99675,1.41542 15.38325,3.8055c2.39008,2.3865 3.57258,9.70725 3.8055,15.37967zM70.65258,117.16425c-4.91633,-2.40442 -11.69242,-3.14617 -15.83475,-3.354c-0.20783,-4.14233 -0.94958,-10.91842 -3.354,-15.83475c5.66883,0.2365 12.99317,1.419 15.37967,3.80908c2.39008,2.3865 3.569,9.70725 3.80908,15.37967zM110.66408,83.30533c2.38292,2.3865 3.56542,9.6965 3.8055,15.36175c-4.91633,-2.40083 -11.696,-3.12467 -15.83117,-3.33608c-0.20783,-4.13517 -0.93883,-10.91483 -3.33608,-15.83117c5.66525,0.24008 12.97525,1.419 15.36175,3.8055zM91.41442,96.39883c-4.91275,-2.40442 -11.68883,-3.14617 -15.82758,-3.35758c-0.21142,-4.13875 -0.95675,-10.91125 -3.35758,-15.82758c5.67242,0.23292 12.99317,1.419 15.37967,3.8055c2.3865,2.3865 3.569,9.70725 3.8055,15.37967zM69.94308,54.16208c5.66883,0.23292 12.98958,1.419 15.37967,3.80192c0.00358,0.00358 0.00358,0.00358 0.00717,0.00717c2.38292,2.39008 3.56542,9.71083 3.80192,15.37967c-4.91275,-2.40442 -11.68883,-3.14258 -15.83117,-3.35758c-0.21142,-4.13875 -0.95675,-10.91483 -3.35758,-15.83117zM49.19558,74.93108c5.66883,0.23292 12.98242,1.41542 15.36533,3.80192c2.3865,2.3865 3.56542,9.6965 3.8055,15.36175c-4.91275,-2.40083 -11.696,-3.12467 -15.83117,-3.33608c-0.21142,-4.13517 -0.93883,-10.91842 -3.33967,-15.82758zM28.43375,95.69292c5.66883,0.23292 12.97883,1.419 15.36533,3.8055c2.38292,2.3865 3.56542,9.69292 3.80192,15.36533c-4.91275,-2.40442 -11.696,-3.13183 -15.82758,-3.33967c-0.21142,-4.13517 -0.94242,-10.91842 -3.33967,-15.83117zM34.056,134.57567c-0.21142,-4.14233 -0.95317,-10.91483 -3.35758,-15.83117c5.67242,0.2365 12.99317,1.419 15.38325,3.8055c2.3865,2.39008 3.569,9.71083 3.8055,15.38683c-4.91633,-2.41158 -11.68883,-3.15333 -15.83117,-3.36117zM57.10758,136.85825c-0.21142,-4.13875 -0.94958,-10.91483 -3.35758,-15.82758c5.67242,0.23292 12.99675,1.41542 15.38325,3.80192c2.39008,2.39367 3.569,9.71083 3.8055,15.38683c-4.91633,-2.408 -11.68883,-3.14617 -15.83117,-3.36117z" fill="#c68632"></path></g><path d="" fill="none" stroke="none" stroke-linejoin="miter"></path></g></g></svg>