<svg version="1.1" xmlns="http://www.w3.org/2000/svg" xmlns:xlink="http://www.w3.org/1999/xlink" viewBox="0 0 172 172"><g transform="translate(0.516,0.516) scale(0.994,0.994)"><g fill="none" fill-rule="nonzero" stroke="none" stroke-width="1" stroke-linecap="butt" stroke-linejoin="none" stroke-miterlimit="10" stroke-dasharray="" stroke-dashoffset="0" font-family="none" font-weight="none" font-size="none" text-anchor="none" style="mix-blend-mode: normal"><g stroke="#cccccc" stroke-linejoin="round"><path d="M43,154.08333c-6.45,0 -12.9,-3.58333 -16.125,-10.03333c-0.35833,-1.075 -12.54167,-25.8 -12.54167,-58.05c0,-32.25 12.18333,-56.975 12.54167,-58.05c4.3,-8.95833 15.05,-12.54167 24.00833,-8.24167c8.95833,4.3 12.54167,15.05 8.24167,24.00833c0,0 -8.95833,18.63333 -8.95833,42.28333c0,23.65 8.95833,41.925 8.95833,42.28333c4.3,8.95833 0.71667,19.70833 -8.24167,24.00833c-2.50833,1.075 -5.375,1.79167 -7.88333,1.79167z" fill="#e64a19"></path><path d="M43,143.33333c-3.225,0 -6.09167,-1.79167 -7.88333,-4.65833c-0.35833,-0.71667 -11.825,-21.5 -11.825,-52.675c0,-31.53333 11.46667,-51.95833 11.825,-52.675c2.50833,-4.3 7.88333,-5.73333 12.18333,-3.225c4.3,2.50833 5.73333,7.88333 3.225,12.18333c0,0 -9.675,17.55833 -9.675,44.075c0,26.51667 9.675,43.71667 9.675,44.075c2.50833,4.3 0.71667,9.675 -3.58333,12.18333c-1.075,0.35833 -2.50833,0.71667 -3.94167,0.71667z" fill="#cc3b15"></path><path d="M23.65,96.75c-1.43333,0 -2.86667,-0.71667 -3.225,-2.15c-0.71667,-1.79167 0,-3.94167 2.15,-4.65833l17.55833,-7.16667c1.79167,-0.71667 3.94167,0 4.65833,2.15c0.71667,1.79167 0,3.94167 -2.15,4.65833l-17.55833,7.16667c-0.71667,0 -1.075,0 -1.43333,0zM26.51667,118.25c-1.43333,0 -2.86667,-0.71667 -3.225,-2.15c-0.71667,-1.79167 0,-3.94167 2.15,-4.65833l16.84167,-6.80833c1.79167,-0.71667 3.94167,0 4.65833,2.15c0.71667,1.79167 0,3.94167 -2.15,4.65833l-16.84167,6.80833c-0.35833,0 -1.075,0 -1.43333,0zM24.00833,74.89167c-1.43333,0 -2.86667,-0.71667 -3.225,-2.15c-0.71667,-1.79167 0,-3.94167 2.15,-4.65833l19.35,-7.88333c1.79167,-0.71667 3.94167,0 4.65833,2.15c0.71667,1.79167 0,3.94167 -2.15,4.65833l-19.35,7.88333c-0.35833,0 -0.71667,0 -1.43333,0zM32.60833,136.88333c-1.43333,0 -2.86667,-0.71667 -3.225,-2.15c-0.71667,-1.79167 0,-3.94167 2.15,-4.65833l16.48333,-6.80833c1.79167,-0.71667 3.94167,0 4.65833,2.15c0.71667,2.15 0,3.94167 -2.15,4.65833l-16.48333,6.80833c-0.71667,-0.35833 -1.075,0 -1.43333,0zM28.66667,53.39167c-1.43333,0 -2.86667,-1.075 -3.225,-2.50833c-0.71667,-1.79167 0.35833,-3.94167 2.15,-4.65833l22.21667,-8.24167c1.79167,-0.71667 3.94167,0.35833 4.65833,2.15c0.71667,1.79167 -0.35833,3.94167 -2.15,4.65833l-22.21667,8.24167c-0.71667,0.35833 -1.075,0.35833 -1.43333,0.35833z" fill="#9e1818"></path><path d="M93.16667,154.08333c-6.45,0 -12.9,-3.58333 -16.125,-10.03333c-0.35833,-1.075 -12.54167,-25.8 -12.54167,-58.05c0,-32.25 12.18333,-56.975 12.54167,-58.05c4.3,-8.95833 15.05,-12.54167 24.00833,-8.24167c8.95833,4.3 12.54167,15.05 8.24167,24.00833c0,0 -8.95833,18.63333 -8.95833,42.28333c0,23.65 8.95833,41.925 8.95833,42.28333c4.3,8.95833 0.71667,19.70833 -8.24167,24.00833c-2.50833,1.075 -5.375,1.79167 -7.88333,1.79167z" fill="#e64a19"></path><path d="M93.16667,143.33333c-3.225,0 -6.09167,-1.79167 -7.88333,-4.65833c-0.35833,-0.71667 -11.825,-21.5 -11.825,-52.675c0,-31.53333 11.46667,-51.95833 11.825,-52.675c2.50833,-4.3 7.88333,-5.73333 12.18333,-3.225c4.3,2.50833 5.73333,7.88333 3.225,12.18333c0,0 -9.675,17.55833 -9.675,44.075c0,26.51667 9.675,43.71667 9.675,44.075c2.50833,4.3 0.71667,9.675 -3.58333,12.18333c-1.075,0.35833 -2.50833,0.71667 -3.94167,0.71667z" fill="#cc3b15"></path><path d="M73.81667,96.75c-1.43333,0 -2.86667,-0.71667 -3.225,-2.15c-0.71667,-1.79167 0,-3.94167 2.15,-4.65833l17.55833,-7.16667c1.79167,-0.71667 3.94167,0 4.65833,2.15c0.71667,2.15 0,3.94167 -2.15,4.65833l-17.55833,7.16667c-0.71667,0 -1.075,0 -1.43333,0zM76.68333,118.25c-1.43333,0 -2.86667,-0.71667 -3.225,-2.15c-0.71667,-1.79167 0,-3.94167 2.15,-4.65833l16.84167,-6.80833c1.79167,-0.71667 3.94167,0 4.65833,2.15c0.71667,1.79167 0,3.94167 -2.15,4.65833l-16.84167,6.80833c-0.35833,0 -1.075,0 -1.43333,0zM74.175,74.89167c-1.43333,0 -2.86667,-0.71667 -3.225,-2.15c-0.71667,-1.79167 0,-3.94167 2.15,-4.65833l19.35,-7.88333c1.79167,-0.71667 3.94167,0 4.65833,2.15c0.71667,1.79167 0,3.94167 -2.15,4.65833l-19.35,7.88333c-0.35833,0 -0.71667,0 -1.43333,0zM82.775,136.88333c-1.43333,0 -2.86667,-0.71667 -3.225,-2.15c-0.71667,-1.79167 0,-3.94167 2.15,-4.65833l16.48333,-6.80833c1.79167,-0.71667 3.94167,0 4.65833,2.15c0.71667,1.79167 0,3.94167 -2.15,4.65833l-16.48333,6.80833c-0.71667,-0.35833 -1.075,0 -1.43333,0zM78.83333,53.39167c-1.43333,0 -2.86667,-1.075 -3.225,-2.50833c-0.71667,-1.79167 0.35833,-3.94167 2.15,-4.65833l22.21667,-8.24167c1.79167,-0.71667 3.94167,0.35833 4.65833,2.15c0.71667,1.79167 -0.35833,3.94167 -2.15,4.65833l-22.21667,8.24167c-0.71667,0.35833 -1.075,0.35833 -1.43333,0.35833z" fill="#9e1818"></path><path d="M143.33333,154.08333c-6.45,0 -12.9,-3.58333 -16.125,-10.03333c-0.35833,-1.075 -12.54167,-25.8 -12.54167,-58.05c0,-32.25 12.18333,-56.975 12.54167,-58.05c4.3,-8.95833 15.05,-12.54167 24.00833,-8.24167c8.95833,4.3 12.54167,15.05 8.24167,24.00833c0,0 -8.95833,18.63333 -8.95833,42.28333c0,23.65 8.95833,41.925 8.95833,42.28333c4.3,8.95833 0.71667,19.70833 -8.24167,24.00833c-2.50833,1.075 -5.375,1.79167 -7.88333,1.79167z" fill="#e64a19"></path><path d="M143.33333,143.33333c-3.225,0 -6.09167,-1.79167 -7.88333,-4.65833c-0.35833,-0.71667 -11.825,-21.5 -11.825,-52.675c0,-31.53333 11.46667,-51.95833 11.825,-52.675c2.50833,-4.3 7.88333,-5.73333 12.18333,-3.225c4.3,2.50833 5.73333,7.88333 3.225,12.18333c0,0 -9.675,17.55833 -9.675,44.075c0,26.51667 9.675,43.71667 9.675,44.075c2.50833,4.3 0.71667,9.675 -3.58333,12.18333c-1.075,0.35833 -2.50833,0.71667 -3.94167,0.71667z" fill="#cc3b15"></path><path d="M123.98333,96.75c-1.43333,0 -2.86667,-0.71667 -3.225,-2.15c-0.71667,-1.79167 0,-3.94167 2.15,-4.65833l17.55833,-7.16667c1.79167,-0.71667 3.94167,0 4.65833,2.15c0.71667,2.15 0,3.94167 -2.15,4.65833l-17.55833,7.16667c-0.71667,0 -1.075,0 -1.43333,0zM126.85,118.25c-1.43333,0 -2.86667,-0.71667 -3.225,-2.15c-0.71667,-1.79167 0,-3.94167 2.15,-4.65833l16.84167,-6.80833c1.79167,-0.71667 3.94167,0 4.65833,2.15c0.71667,1.79167 0,3.94167 -2.15,4.65833l-16.84167,6.80833c-0.35833,0 -1.075,0 -1.43333,0zM124.34167,74.89167c-1.43333,0 -2.86667,-0.71667 -3.225,-2.15c-0.71667,-1.79167 0,-3.94167 2.15,-4.65833l19.35,-7.88333c1.79167,-0.71667 3.94167,0 4.65833,2.15c0.71667,1.79167 0,3.94167 -2.15,4.65833l-19.35,7.88333c-0.35833,0 -0.71667,0 -1.43333,0zM132.94167,136.88333c-1.43333,0 -2.86667,-0.71667 -3.225,-2.15c-0.71667,-1.79167 0,-3.94167 2.15,-4.65833l16.48333,-6.80833c1.79167,-0.71667 3.94167,0 4.65833,2.15c0.71667,1.79167 0,3.94167 -2.15,4.65833l-16.48333,6.80833c-0.71667,-0.35833 -1.075,0 -1.43333,0zM129,53.39167c-1.43333,0 -2.86667,-1.075 -3.225,-2.50833c-0.71667,-1.79167 0.35833,-3.94167 2.15,-4.65833l22.21667,-8.24167c1.79167,-0.71667 3.94167,0.35833 4.65833,2.15c0.71667,1.79167 -0.35833,3.94167 -2.15,4.65833l-22.21667,8.24167c-0.71667,0.35833 -1.075,0.35833 -1.43333,0.35833z" fill="#9e1818"></path></g><path d="M0,172v-172h172v172z" fill="none" stroke="none" stroke-linejoin="miter"></path><g fill="#e64a19" stroke="none" stroke-linejoin="miter"><path d="M43,154.08333c-6.45,0 -12.9,-3.58333 -16.125,-10.03333c-0.35833,-1.075 -12.54167,-25.8 -12.54167,-58.05c0,-32.25 12.18333,-56.975 12.54167,-58.05c4.3,-8.95833 15.05,-12.54167 24.00833,-8.24167c8.95833,4.3 12.54167,15.05 8.24167,24.00833c0,0 -8.95833,18.63333 -8.95833,42.28333c0,23.65 8.95833,41.925 8.95833,42.28333c4.3,8.95833 0.71667,19.70833 -8.24167,24.00833c-2.50833,1.075 -5.375,1.79167 -7.88333,1.79167z"></path><path d="M43,143.33333c-3.225,0 -6.09167,-1.79167 -7.88333,-4.65833c-0.35833,-0.71667 -11.825,-21.5 -11.825,-52.675c0,-31.53333 11.46667,-51.95833 11.825,-52.675c2.50833,-4.3 7.88333,-5.73333 12.18333,-3.225c4.3,2.50833 5.73333,7.88333 3.225,12.18333c0,0 -9.675,17.55833 -9.675,44.075c0,26.51667 9.675,43.71667 9.675,44.075c2.50833,4.3 0.71667,9.675 -3.58333,12.18333c-1.075,0.35833 -2.50833,0.71667 -3.94167,0.71667z"></path><path d="M23.65,96.75c-1.43333,0 -2.86667,-0.71667 -3.225,-2.15c-0.71667,-1.79167 0,-3.94167 2.15,-4.65833l17.55833,-7.16667c1.79167,-0.71667 3.94167,0 4.65833,2.15c0.71667,1.79167 0,3.94167 -2.15,4.65833l-17.55833,7.16667c-0.71667,0 -1.075,0 -1.43333,0zM26.51667,118.25c-1.43333,0 -2.86667,-0.71667 -3.225,-2.15c-0.71667,-1.79167 0,-3.94167 2.15,-4.65833l16.84167,-6.80833c1.79167,-0.71667 3.94167,0 4.65833,2.15c0.71667,1.79167 0,3.94167 -2.15,4.65833l-16.84167,6.80833c-0.35833,0 -1.075,0 -1.43333,0zM24.00833,74.89167c-1.43333,0 -2.86667,-0.71667 -3.225,-2.15c-0.71667,-1.79167 0,-3.94167 2.15,-4.65833l19.35,-7.88333c1.79167,-0.71667 3.94167,0 4.65833,2.15c0.71667,1.79167 0,3.94167 -2.15,4.65833l-19.35,7.88333c-0.35833,0 -0.71667,0 -1.43333,0zM32.60833,136.88333c-1.43333,0 -2.86667,-0.71667 -3.225,-2.15c-0.71667,-1.79167 0,-3.94167 2.15,-4.65833l16.48333,-6.80833c1.79167,-0.71667 3.94167,0 4.65833,2.15c0.71667,2.15 0,3.94167 -2.15,4.65833l-16.48333,6.80833c-0.71667,-0.35833 -1.075,0 -1.43333,0zM28.66667,53.39167c-1.43333,0 -2.86667,-1.075 -3.225,-2.50833c-0.71667,-1.79167 0.35833,-3.94167 2.15,-4.65833l22.21667,-8.24167c1.79167,-0.71667 3.94167,0.35833 4.65833,2.15c0.71667,1.79167 -0.35833,3.94167 -2.15,4.65833l-22.21667,8.24167c-0.71667,0.35833 -1.075,0.35833 -1.43333,0.35833z"></path><path d="M93.16667,154.08333c-6.45,0 -12.9,-3.58333 -16.125,-10.03333c-0.35833,-1.075 -12.54167,-25.8 -12.54167,-58.05c0,-32.25 12.18333,-56.975 12.54167,-58.05c4.3,-8.95833 15.05,-12.54167 24.00833,-8.24167c8.95833,4.3 12.54167,15.05 8.24167,24.00833c0,0 -8.95833,18.63333 -8.95833,42.28333c0,23.65 8.95833,41.925 8.95833,42.28333c4.3,8.95833 0.71667,19.70833 -8.24167,24.00833c-2.50833,1.075 -5.375,1.79167 -7.88333,1.79167z"></path><path d="M93.16667,143.33333c-3.225,0 -6.09167,-1.79167 -7.88333,-4.65833c-0.35833,-0.71667 -11.825,-21.5 -11.825,-52.675c0,-31.53333 11.46667,-51.95833 11.825,-52.675c2.50833,-4.3 7.88333,-5.73333 12.18333,-3.225c4.3,2.50833 5.73333,7.88333 3.225,12.18333c0,0 -9.675,17.55833 -9.675,44.075c0,26.51667 9.675,43.71667 9.675,44.075c2.50833,4.3 0.71667,9.675 -3.58333,12.18333c-1.075,0.35833 -2.50833,0.71667 -3.94167,0.71667z"></path><path d="M73.81667,96.75c-1.43333,0 -2.86667,-0.71667 -3.225,-2.15c-0.71667,-1.79167 0,-3.94167 2.15,-4.65833l17.55833,-7.16667c1.79167,-0.71667 3.94167,0 4.65833,2.15c0.71667,2.15 0,3.94167 -2.15,4.65833l-17.55833,7.16667c-0.71667,0 -1.075,0 -1.43333,0zM76.68333,118.25c-1.43333,0 -2.86667,-0.71667 -3.225,-2.15c-0.71667,-1.79167 0,-3.94167 2.15,-4.65833l16.84167,-6.80833c1.79167,-0.71667 3.94167,0 4.65833,2.15c0.71667,1.79167 0,3.94167 -2.15,4.65833l-16.84167,6.80833c-0.35833,0 -1.075,0 -1.43333,0zM74.175,74.89167c-1.43333,0 -2.86667,-0.71667 -3.225,-2.15c-0.71667,-1.79167 0,-3.94167 2.15,-4.65833l19.35,-7.88333c1.79167,-0.71667 3.94167,0 4.65833,2.15c0.71667,1.79167 0,3.94167 -2.15,4.65833l-19.35,7.88333c-0.35833,0 -0.71667,0 -1.43333,0zM82.775,136.88333c-1.43333,0 -2.86667,-0.71667 -3.225,-2.15c-0.71667,-1.79167 0,-3.94167 2.15,-4.65833l16.48333,-6.80833c1.79167,-0.71667 3.94167,0 4.65833,2.15c0.71667,1.79167 0,3.94167 -2.15,4.65833l-16.48333,6.80833c-0.71667,-0.35833 -1.075,0 -1.43333,0zM78.83333,53.39167c-1.43333,0 -2.86667,-1.075 -3.225,-2.50833c-0.71667,-1.79167 0.35833,-3.94167 2.15,-4.65833l22.21667,-8.24167c1.79167,-0.71667 3.94167,0.35833 4.65833,2.15c0.71667,1.79167 -0.35833,3.94167 -2.15,4.65833l-22.21667,8.24167c-0.71667,0.35833 -1.075,0.35833 -1.43333,0.35833z"></path><path d="M143.33333,154.08333c-6.45,0 -12.9,-3.58333 -16.125,-10.03333c-0.35833,-1.075 -12.54167,-25.8 -12.54167,-58.05c0,-32.25 12.18333,-56.975 12.54167,-58.05c4.3,-8.95833 15.05,-12.54167 24.00833,-8.24167c8.95833,4.3 12.54167,15.05 8.24167,24.00833c0,0 -8.95833,18.63333 -8.95833,42.28333c0,23.65 8.95833,41.925 8.95833,42.28333c4.3,8.95833 0.71667,19.70833 -8.24167,24.00833c-2.50833,1.075 -5.375,1.79167 -7.88333,1.79167z"></path><path d="M143.33333,143.33333c-3.225,0 -6.09167,-1.79167 -7.88333,-4.65833c-0.35833,-0.71667 -11.825,-21.5 -11.825,-52.675c0,-31.53333 11.46667,-51.95833 11.825,-52.675c2.50833,-4.3 7.88333,-5.73333 12.18333,-3.225c4.3,2.50833 5.73333,7.88333 3.225,12.18333c0,0 -9.675,17.55833 -9.675,44.075c0,26.51667 9.675,43.71667 9.675,44.075c2.50833,4.3 0.71667,9.675 -3.58333,12.18333c-1.075,0.35833 -2.50833,0.71667 -3.94167,0.71667z"></path><path d="M123.98333,96.75c-1.43333,0 -2.86667,-0.71667 -3.225,-2.15c-0.71667,-1.79167 0,-3.94167 2.15,-4.65833l17.55833,-7.16667c1.79167,-0.71667 3.94167,0 4.65833,2.15c0.71667,2.15 0,3.94167 -2.15,4.65833l-17.55833,7.16667c-0.71667,0 -1.075,0 -1.43333,0zM126.85,118.25c-1.43333,0 -2.86667,-0.71667 -3.225,-2.15c-0.71667,-1.79167 0,-3.94167 2.15,-4.65833l16.84167,-6.80833c1.79167,-0.71667 3.94167,0 4.65833,2.15c0.71667,1.79167 0,3.94167 -2.15,4.65833l-16.84167,6.80833c-0.35833,0 -1.075,0 -1.43333,0zM124.34167,74.89167c-1.43333,0 -2.86667,-0.71667 -3.225,-2.15c-0.71667,-1.79167 0,-3.94167 2.15,-4.65833l19.35,-7.88333c1.79167,-0.71667 3.94167,0 4.65833,2.15c0.71667,1.79167 0,3.94167 -2.15,4.65833l-19.35,7.88333c-0.35833,0 -0.71667,0 -1.43333,0zM132.94167,136.88333c-1.43333,0 -2.86667,-0.71667 -3.225,-2.15c-0.71667,-1.79167 0,-3.94167 2.15,-4.65833l16.48333,-6.80833c1.79167,-0.71667 3.94167,0 4.65833,2.15c0.71667,1.79167 0,3.94167 -2.15,4.65833l-16.48333,6.80833c-0.71667,-0.35833 -1.075,0 -1.43333,0zM129,53.39167c-1.43333,0 -2.86667,-1.075 -3.225,-2.50833c-0.71667,-1.79167 0.35833,-3.94167 2.15,-4.65833l22.21667,-8.24167c1.79167,-0.71667 3.94167,0.35833 4.65833,2.15c0.71667,1.79167 -0.35833,3.94167 -2.15,4.65833l-22.21667,8.24167c-0.71667,0.35833 -1.075,0.35833 -1.43333,0.35833z"></path></g><path d="" fill="none" stroke="none" stroke-linejoin="miter"></path></g></g></svg>