<svg version="1.1" xmlns="http://www.w3.org/2000/svg" xmlns:xlink="http://www.w3.org/1999/xlink" viewBox="0 0 172 172"><g transform="translate(0.516,0.516) scale(0.994,0.994)"><g fill="none" fill-rule="nonzero" stroke="none" stroke-width="1" stroke-linecap="butt" stroke-linejoin="none" stroke-miterlimit="10" stroke-dasharray="" stroke-dashoffset="0" font-family="none" font-weight="none" font-size="none" text-anchor="none" style="mix-blend-mode: normal"><g stroke="#cccccc" stroke-linejoin="round"><path d="M86.4515,41.69208c33.4755,-9.288 72.54458,17.14625 62.41808,61.02058c-12.21558,52.94733 -70.44475,44.89917 -83.40208,41.97517c-12.9645,-2.92758 -57.83858,-18.22125 -50.28492,-67.08717c7.568,-48.85875 66.94383,-36.89042 66.94383,-36.89042z" fill="#ff3d00"></path><path d="M140.79633,59.47258c-4.52217,3.44358 -11.57775,7.51783 -11.57775,7.51783c-5.375,3.36117 -10.84317,5.07042 -16.25042,5.07042c-4.50783,0 -8.63583,-1.19325 -12.34458,-3.06017c-0.33683,4.73 -1.71283,9.98675 -4.47558,16.29342l-3.29667,7.52142l-7.00542,-4.2785c-9.64275,-5.891 -13.78508,-13.51633 -15.2865,-20.76542c-4.558,2.57642 -9.79683,3.9345 -15.51583,3.9345c-5.79067,0 -12.00417,-1.419 -18.4685,-4.20683c0,0 -9.37758,-4.09575 -15.09658,-7.58592c17.3505,-27.89983 60.64792,-19.1995 60.64792,-19.1995l4.32508,0.97825c20.03083,-5.55775 42.05042,1.68058 54.34483,17.7805z" fill="#dd2c00"></path><path d="M79.09133,46.26083c-5.45025,14.88517 -18.92,23.61775 -39.67467,14.65942c15.77742,-3.21067 14.104,-19.74775 35.83333,-17.91667c-5.58283,-3.99183 -28.66667,2.55133 -28.66667,-21.5c5.96267,15.64125 20.56833,-2.61583 32.85917,17.81275c2.30408,-2.45458 5.32125,2.07475 8.19508,0.29025c17.02442,-15.566 24.67842,-0.45867 37.77908,-7.353c-8.3205,16.61592 -14.75617,12.81042 -26.92517,12.30158c16.22533,2.84875 13.86033,12.89283 26.92517,16.36508c-17.17133,10.75 -29.39408,-2.40442 -38.55308,-14.33692c6.69367,13.04333 9.589,20.15983 2.71975,35.83692c-18.6835,-11.41292 -11.34483,-30.34367 -10.492,-36.15942z" fill="#4caf50"></path><path d="M93.98725,14.70242c0,0 3.25367,-1.37242 6.34608,1.18967c-12.17975,11.05817 -11.64583,27.79233 -11.64583,27.79233c0,0 2.22883,2.89892 -3.58692,2.89892c-4.859,0 -6.35683,-2.66242 -6.26367,-3.36833c2.14642,-15.08583 15.15033,-28.51258 15.15033,-28.51258z" fill="#4caf50"></path></g><path d="M0,172v-172h172v172z" fill="none" stroke="none" stroke-linejoin="miter"></path><g stroke="none" stroke-linejoin="miter"><path d="M82.12642,40.71025c0,0 -59.37583,-11.96833 -66.94383,36.89042c-7.55367,48.86592 37.32042,64.15958 50.28492,67.08717c12.95733,2.924 71.1865,10.97217 83.40208,-41.97517c10.1265,-43.87433 -28.94258,-70.30858 -62.41808,-61.02058z" fill="#ff3d00"></path><path d="M86.4515,41.69208l-4.32508,-0.97825c0,0 -43.29742,-8.70033 -60.64792,19.1995c5.719,3.49017 15.09658,7.58592 15.09658,7.58592c6.46433,2.78783 12.67783,4.20683 18.4685,4.20683c5.719,0 10.95783,-1.35808 15.51583,-3.9345c1.50142,7.24908 5.64375,14.87442 15.2865,20.76542l7.00542,4.2785l3.29667,-7.52142c2.76275,-6.30667 4.13875,-11.56342 4.47558,-16.29342c3.70875,1.86692 7.83675,3.06017 12.34458,3.06017c5.40725,0 10.87542,-1.70925 16.25042,-5.07042c0,0 7.05558,-4.07425 11.57775,-7.51783c-12.29442,-16.09992 -34.314,-23.33825 -54.34483,-17.7805z" fill="#dd2c00"></path><path d="M89.58333,82.42025c6.86925,-15.67708 3.97392,-22.79358 -2.71975,-35.83692c9.159,11.9325 21.38175,25.08692 38.55308,14.33692c-13.06483,-3.47225 -10.69983,-13.51633 -26.92517,-16.36508c12.169,0.50883 18.60467,4.31433 26.92517,-12.30158c-13.10067,6.89433 -20.75467,-8.213 -37.77908,7.353c-2.87383,1.7845 -5.891,-2.74483 -8.19508,-0.29025c-12.29083,-20.42858 -26.8965,-2.1715 -32.85917,-17.81275c0,24.05133 23.08383,17.50817 28.66667,21.5c-21.72933,-1.83108 -20.05592,14.706 -35.83333,17.91667c20.75467,8.95833 34.22442,0.22575 39.67467,-14.65942c-0.85283,5.81575 -8.1915,24.7465 10.492,36.15942z" fill="#4caf50"></path><path d="M78.83692,43.215c-0.09317,0.70592 1.40467,3.36833 6.26367,3.36833c5.81575,0 3.58692,-2.89892 3.58692,-2.89892c0,0 -0.53392,-16.73417 11.64583,-27.79233c-3.09242,-2.56208 -6.34608,-1.18967 -6.34608,-1.18967c0,0 -13.00392,13.42675 -15.15033,28.51258z" fill="#4caf50"></path></g><path d="" fill="none" stroke="none" stroke-linejoin="miter"></path></g></g></svg>