<svg version="1.1" xmlns="http://www.w3.org/2000/svg" xmlns:xlink="http://www.w3.org/1999/xlink" viewBox="0 0 172 172"><g transform="translate(0.516,0.516) scale(0.994,0.994)"><g fill="none" fill-rule="nonzero" stroke="none" stroke-width="1" stroke-linecap="butt" stroke-linejoin="none" stroke-miterlimit="10" stroke-dasharray="" stroke-dashoffset="0" font-family="none" font-weight="none" font-size="none" text-anchor="none" style="mix-blend-mode: normal"><g stroke="#cccccc" stroke-linejoin="round"><path d="M128.14358,20.47517h0.00358c29.73092,29.74525 29.73092,77.96617 0,107.71142c-29.72733,29.73808 -77.93392,29.73808 -107.66483,-0.00358z" fill="#e6ee9c"></path><path d="M30.73425,117.9275l87.15383,-87.18967c24.06925,24.07642 24.06925,63.10967 0,87.18967c-24.06208,24.08 -63.08458,24.08 -87.15383,0z" fill="#ff1744"></path><path d="M106.35692,98.384c2.12133,2.12492 2.12133,5.5685 0,7.68983c-2.12492,2.12492 -5.5685,2.12492 -7.68983,0c-2.12492,-2.12492 -3.8485,-11.54192 -3.8485,-11.54192c0,0 9.41342,1.72358 11.53833,3.85208zM113.42683,79.01967c2.95625,0.52317 4.93425,3.35042 4.4075,6.30308c-0.52317,2.95625 -3.34683,4.93067 -6.30308,4.40392c-2.95625,-0.51958 -11.10117,-7.482 -11.10117,-7.482c0,0 10.04408,-3.75175 12.99675,-3.225zM111.93617,58.609c2.95625,-0.48375 5.75125,1.53725 6.22783,4.50425c0.48375,2.967 -1.53725,5.75842 -4.50425,6.23142c-2.96342,0.47658 -12.72083,-3.45792 -12.72083,-3.45792c0,0 8.03383,-6.80475 10.99725,-7.27775zM82.59583,100.08967c0,0 6.95883,8.14492 7.482,11.10117c0.52675,2.95983 -1.44767,5.78708 -4.40392,6.31025c-2.95625,0.52317 -5.77633,-1.45842 -6.2995,-4.41467c-0.52317,-2.95625 3.22142,-12.99675 3.22142,-12.99675zM65.93692,100.59492c0,0 3.9345,9.76817 3.45792,12.728c-0.473,2.967 -3.268,4.988 -6.23142,4.50425c-2.96342,-0.47658 -4.98442,-3.27517 -4.50425,-6.23142c0.47658,-2.967 7.27775,-11.00083 7.27775,-11.00083z" fill="#5d4037"></path><path d="M74.31475,154.08333c-20.425,0 -40.84642,-7.77942 -56.39808,-23.33825l5.12775,-5.12417c28.2725,28.27608 74.26458,28.27967 102.54067,0.00358c13.70267,-13.71342 21.25633,-31.93108 21.25275,-51.28825c0,-19.36792 -7.5465,-37.582 -21.25633,-51.29183l5.12417,-5.12775c15.07867,15.07867 23.37767,35.11308 23.37767,56.41958c0.00717,21.29575 -8.299,41.33733 -23.37408,56.416c-15.5445,15.55167 -35.97308,23.33108 -56.3945,23.33108z" fill="#558b2f"></path></g><path d="M0,172v-172h172v172z" fill="none" stroke="none" stroke-linejoin="miter"></path><g stroke="none" stroke-linejoin="miter"><path d="M20.48233,128.183v0c29.73092,29.74167 77.9375,29.74167 107.66483,0.00358c29.73092,-29.74525 29.73092,-77.96617 0,-107.71142h-0.00358z" fill="#e6ee9c"></path><path d="M117.88808,117.9275c24.06925,-24.08 24.06925,-63.11325 0,-87.18967l-87.15383,87.18967c24.06925,24.08 63.09175,24.08 87.15383,0z" fill="#ff1744"></path><path d="M106.35692,98.384c2.12133,2.12492 2.12133,5.5685 0,7.68983c-2.12492,2.12492 -5.5685,2.12492 -7.68983,0c-2.12492,-2.12492 -3.8485,-11.54192 -3.8485,-11.54192c0,0 9.41342,1.72358 11.53833,3.85208zM113.42683,79.01967c2.95625,0.52317 4.93425,3.35042 4.4075,6.30308c-0.52317,2.95625 -3.34683,4.93067 -6.30308,4.40392c-2.95625,-0.51958 -11.10117,-7.482 -11.10117,-7.482c0,0 10.04408,-3.75175 12.99675,-3.225zM111.93617,58.609c2.95625,-0.48375 5.75125,1.53725 6.22783,4.50425c0.48375,2.967 -1.53725,5.75842 -4.50425,6.23142c-2.96342,0.47658 -12.72083,-3.45792 -12.72083,-3.45792c0,0 8.03383,-6.80475 10.99725,-7.27775zM79.37442,113.08642c0.52317,2.95625 3.34325,4.93783 6.2995,4.41467c2.95625,-0.52317 4.93067,-3.35042 4.40392,-6.31025c-0.52317,-2.95625 -7.482,-11.10117 -7.482,-11.10117c0,0 -3.74458,10.0405 -3.22142,12.99675zM58.65917,111.59575c-0.48017,2.95625 1.54083,5.75483 4.50425,6.23142c2.96342,0.48375 5.75842,-1.53725 6.23142,-4.50425c0.47658,-2.95983 -3.45792,-12.728 -3.45792,-12.728c0,0 -6.80117,8.03383 -7.27775,11.00083z" fill="#5d4037"></path><path d="M74.31475,154.08333c-20.425,0 -40.84642,-7.77942 -56.39808,-23.33825l5.12775,-5.12417c28.2725,28.27608 74.26458,28.27967 102.54067,0.00358c13.70267,-13.71342 21.25633,-31.93108 21.25275,-51.28825c0,-19.36792 -7.5465,-37.582 -21.25633,-51.29183l5.12417,-5.12775c15.07867,15.07867 23.37767,35.11308 23.37767,56.41958c0.00717,21.29575 -8.299,41.33733 -23.37408,56.416c-15.5445,15.55167 -35.97308,23.33108 -56.3945,23.33108z" fill="#558b2f"></path></g><path d="" fill="none" stroke="none" stroke-linejoin="miter"></path></g></g></svg>