<svg xmlns="http://www.w3.org/2000/svg" xmlns:xlink="http://www.w3.org/1999/xlink" id="ui-icons-sprite">
  <symbol id="arrowLongLeft" viewBox="0 0 16 14">
    <g transform="translate(0, -1)">
      <path d="M5.529125,6.37737233 L8.112125,3.91237233 C8.543125,3.50137233 8.587125,2.85237233 8.218125,2.39037233 C8.132125,2.28137233 8.029125,2.17237233 7.905125,2.06537233 C7.714125,1.89837233 7.538125,1.77537233 7.382125,1.68837233 C6.987125,1.46137233 6.498125,1.49237233 6.113125,1.73237233 C5.631125,2.03637233 3.812125,3.63337233 2.501125,4.86837233 C1.572125,5.74237233 0.941125,6.46937233 0.528125,7.00137233 C0.069125,7.59337233 0.069125,8.39337233 0.528125,8.98437233 C0.941125,9.51637233 1.572125,10.2433723 2.501125,11.1183723 C3.812125,12.3533723 5.646125,13.9633723 6.128125,14.2673723 C6.512125,14.5083723 7.002125,14.5373723 7.397125,14.3133723 C7.553125,14.2243723 7.729125,14.1033723 7.920125,13.9353723 C8.044125,13.8283723 8.146125,13.7183723 8.233125,13.6103723 C8.602125,13.1483723 8.558125,12.4993723 8.127125,12.0873723 L5.636125,9.71037233 L14.882125,9.71037233 C15.398125,9.71037233 15.816125,9.29337233 15.816125,8.77737233 L15.816125,7.31037233 C15.816125,6.79537233 15.398125,6.37737233 14.882125,6.37737233 L5.529125,6.37737233 Z" ></path>
    </g>
  </symbol>

  <symbol id="arrowLongRight" viewBox="0 0 16 14">
    <g transform="translate(0, -1)">
      <path d="M1.117875,6.37737233 L10.470875,6.37737233 L7.887875,3.91237233 C7.456875,3.50137233 7.412875,2.85237233 7.781875,2.39037233 C7.867875,2.28137233 7.970875,2.17237233 8.094875,2.06537233 C8.285875,1.89837233 8.461875,1.77537233 8.617875,1.68837233 C9.012875,1.46137233 9.501875,1.49237233 9.886875,1.73237233 C10.368875,2.03637233 12.187875,3.63337233 13.498875,4.86837233 C14.427875,5.74237233 15.058875,6.46937233 15.471875,7.00137233 C15.930875,7.59337233 15.930875,8.39337233 15.471875,8.98437233 C15.058875,9.51637233 14.427875,10.2433723 13.498875,11.1183723 C12.187875,12.3533723 10.353875,13.9633723 9.871875,14.2673723 C9.487875,14.5083723 8.997875,14.5373723 8.602875,14.3133723 C8.446875,14.2243723 8.270875,14.1033723 8.079875,13.9353723 C7.955875,13.8283723 7.853875,13.7183723 7.766875,13.6103723 C7.397875,13.1483723 7.441875,12.4993723 7.872875,12.0873723 L10.363875,9.71037233 L1.117875,9.71037233 C0.601875,9.71037233 0.183875,9.29337233 0.183875,8.77737233 L0.183875,7.31037233 C0.183875,6.79537233 0.601875,6.37737233 1.117875,6.37737233 Z" ></path>
    </g>
  </symbol>

  <symbol id="arrowShortLeft" viewBox="0 0 16 16">
    <g transform="translate(0, 0)">
      <path d="M11.4649676,3.47264532 C12.1135333,2.87229027 12.1798311,1.92450136 11.6235058,1.24960112 C11.4937927,1.09119258 11.3395782,0.931452874 11.153656,0.775706663 C10.8654046,0.530772451 10.6002133,0.352396449 10.3652884,0.224604686 C9.77149052,-0.105524034 9.0335669,-0.0615956157 8.45562281,0.289831732 C7.72922925,0.733109409 6.46380554,1.63430757 4.49072462,3.43803505 C3.09270526,4.71462152 2.14003434,5.77555938 1.51885254,6.55162811 C0.827049152,7.41688483 0.827049152,8.58431583 1.51885254,9.4482414 C2.14003434,10.2243101 3.09270526,11.2865791 4.49072462,12.5631656 C6.46380554,14.3668931 7.72922925,15.2667601 8.45562281,15.7100378 C9.0335669,16.0627963 9.77149052,16.1040624 10.3652884,15.776596 C10.6002133,15.6474731 10.8654046,15.4704282 11.153656,15.225494 C11.3395782,15.0697478 11.4937927,14.9086769 11.6235058,14.7515995 C12.1798311,14.0766993 12.1135333,13.1289104 11.4649676,12.5272242 L6.49983697,7.99993475 L11.4649676,3.47264532 Z" ></path>
    </g>
  </symbol>

  <symbol id="arrowShortBottom" viewBox="0 0 16 11">
    <g transform="translate(0, -3)">
      <path d="M12.5273547,3.53503243 C13.1277097,2.88646675 14.0754986,2.82016892 14.7503989,3.37649415 C14.9088074,3.50620729 15.0685471,3.66042179 15.2242933,3.84634396 C15.4692275,4.13459537 15.6476036,4.39978667 15.7753953,4.63471157 C16.105524,5.22850948 16.0615956,5.9664331 15.7101683,6.54437719 C15.2668906,7.27077075 14.3656924,8.53619446 12.5619649,10.5092754 C11.2853785,11.9072947 10.2244406,12.8599657 9.44837189,13.4811475 C8.58311517,14.1729508 7.41568417,14.1729508 6.5517586,13.4811475 C5.77568988,12.8599657 4.71342085,11.9072947 3.43683439,10.5092754 C1.6331069,8.53619446 0.733239907,7.27077075 0.28996223,6.54437719 C-0.0627962821,5.9664331 -0.104062372,5.22850948 0.22340402,4.63471157 C0.352526947,4.39978667 0.529571785,4.13459537 0.774505997,3.84634396 C0.930252208,3.66042179 1.09132308,3.50620729 1.24840045,3.37649415 C1.9233007,2.82016892 2.8710896,2.88646675 3.47277582,3.53503243 L8.00006525,8.50016303 L12.5273547,3.53503243 Z" ></path>
    </g>
  </symbol>

  <symbol id="arrowShortRight" viewBox="0 0 16 16">
    <g transform="translate(0, 0)">
      <path d="M4.53503243,3.47264532 C3.88646675,2.87229027 3.82016892,1.92450136 4.37649415,1.24960112 C4.50620729,1.09119258 4.66042179,0.931452874 4.84634396,0.775706663 C5.13459537,0.530772451 5.39978667,0.352396449 5.63471157,0.224604686 C6.22850948,-0.105524034 6.9664331,-0.0615956157 7.54437719,0.289831732 C8.27077075,0.733109409 9.53619446,1.63430757 11.5092754,3.43803505 C12.9072947,4.71462152 13.8599657,5.77555938 14.4811475,6.55162811 C15.1729508,7.41688483 15.1729508,8.58431583 14.4811475,9.4482414 C13.8599657,10.2243101 12.9072947,11.2865791 11.5092754,12.5631656 C9.53619446,14.3668931 8.27077075,15.2667601 7.54437719,15.7100378 C6.9664331,16.0627963 6.22850948,16.1040624 5.63471157,15.776596 C5.39978667,15.6474731 5.13459537,15.4704282 4.84634396,15.225494 C4.66042179,15.0697478 4.50620729,14.9086769 4.37649415,14.7515995 C3.82016892,14.0766993 3.88646675,13.1289104 4.53503243,12.5272242 L9.50016303,7.99993475 L4.53503243,3.47264532 Z" ></path>
    </g>
  </symbol>

  <symbol id="arrowShortTop" viewBox="0 0 16 11">
    <g transform="translate(0, -3)">
      <path d="M12.5273547,3.53503243 C13.1277097,2.88646675 14.0754986,2.82016892 14.7503989,3.37649415 C14.9088074,3.50620729 15.0685471,3.66042179 15.2242933,3.84634396 C15.4692275,4.13459537 15.6476036,4.39978667 15.7753953,4.63471157 C16.105524,5.22850948 16.0615956,5.9664331 15.7101683,6.54437719 C15.2668906,7.27077075 14.3656924,8.53619446 12.5619649,10.5092754 C11.2853785,11.9072947 10.2244406,12.8599657 9.44837189,13.4811475 C8.58311517,14.1729508 7.41568417,14.1729508 6.5517586,13.4811475 C5.77568988,12.8599657 4.71342085,11.9072947 3.43683439,10.5092754 C1.6331069,8.53619446 0.733239907,7.27077075 0.28996223,6.54437719 C-0.0627962821,5.9664331 -0.104062372,5.22850948 0.22340402,4.63471157 C0.352526947,4.39978667 0.529571785,4.13459537 0.774505997,3.84634396 C0.930252208,3.66042179 1.09132308,3.50620729 1.24840045,3.37649415 C1.9233007,2.82016892 2.8710896,2.88646675 3.47277582,3.53503243 L8.00006525,8.50016303 L12.5273547,3.53503243 Z"  transform="translate(8, 8.5) scale(1, -1) translate(-8, -8.5) "></path>
    </g>
  </symbol>

  <symbol id="bonus" viewBox="0 0 16 16">
    <path d="M4.999825,2.750175 C4.999825,4.131175 3.880825,5.250175 2.499825,5.250175 C1.118825,5.250175 -0.000175,4.131175 -0.000175,2.750175 C-0.000175,1.369175 1.118825,0.250175 2.499825,0.250175 C3.880825,0.250175 4.999825,1.369175 4.999825,2.750175 Z M15.267425,0.982575 C16.244425,1.958575 16.244425,3.541575 15.267425,4.517575 C14.291425,5.494575 12.708425,5.494575 11.732425,4.517575 C10.755425,3.541575 10.755425,1.958575 11.732425,0.982575 C12.708425,0.005575 14.291425,0.005575 15.267425,0.982575 Z M7.750325,15.750175 C3.167325,15.750175 0.696325,13.116175 0.593325,13.003175 C-0.046675,12.306175 -0.360675,11.593175 0.656325,10.542175 C1.672325,9.490175 2.329325,9.967175 3.025325,10.594175 C3.128325,10.688175 4.880325,12.268175 7.750325,12.268175 C10.620325,12.268175 13.027325,10.500175 13.048325,10.484175 C13.801325,9.910175 14.413325,9.626175 15.423325,10.672175 C16.434325,11.715175 15.948325,12.500175 15.242325,13.126175 C15.122325,13.233175 12.234325,15.750175 7.750325,15.750175 Z"></path>
  </symbol>

  <symbol id="bell" viewBox="0 0 14 16">
    <g transform="translate(-1.5, 0)">
      <path d="M13.616294,8.21210082 C12.8264608,10.9665767 14.674449,9.8134553 13.8222327,12.7854869 C13.4059049,14.2373944 9.79849065,13.8165354 7.29186632,13.0977724 C4.785242,12.3790094 1.5029599,10.8242798 1.91928767,9.37237232 C2.77150402,6.40034074 3.72762568,8.35752777 4.51745894,5.60305185 C5.66308724,1.60777118 7.31407178,0.796219329 8.89303387,1.24897942 C8.89303387,1.24897942 9.07873645,1.32218164 9.13292515,1.1332032 C9.27275841,0.645546657 9.98009223,-0.24005703 11.0300932,0.0610259091 C12.0800942,0.362108848 12.2106489,1.48797319 12.0708156,1.97562974 C12.0166269,2.16460817 12.2129029,2.20093655 12.2129029,2.20093655 C13.7909848,2.65344427 14.7619223,4.21682015 13.616294,8.21210082 Z M8.3625597,14.476357 C8.59315505,14.5424792 8.70450707,14.8218243 8.57927705,15.0393164 C8.15629458,15.7769987 7.2996476,16.1668577 6.47936183,15.9316445 C5.65907606,15.6964313 5.13919198,14.9118585 5.17051441,14.0618695 C5.18044675,13.8113162 5.42290897,13.6334257 5.65350433,13.6995479 L8.3625597,14.476357 Z"></path>
    </g>
  </symbol>

  <symbol id="attention" viewBox="0 0 4 16">
    <g transform="translate(-6, 0)">
      <path d="M8,12 C9.10447761,12 10,12.8948961 10,14.0004035 C10,15.1051039 9.10447761,16 8,16 C6.89552239,16 6,15.1051039 6,14.0004035 C6,12.8948961 6.89552239,12 8,12 Z M7.54013715,11 C6.88342073,11 6.32674466,10.5490166 6.25574829,9.94826021 C6.14118596,8.97639939 6,7.38298033 6,5.38850227 C6,3.45726172 6.13231142,1.97367625 6.24526019,1.0575643 C6.31948366,0.453479576 6.86970553,0 7.52964905,0 L8.48810004,0 C9.15530456,0 9.70956031,0.465960666 9.77571601,1.07753404 C9.87736991,2.0327534 10,3.5795764 10,5.53744327 C10,7.47783661 9.87979024,8.99054463 9.77732957,9.92662632 C9.71117386,10.5373676 9.15772489,11 8.49132715,11 L7.54013715,11 Z" ></path>
    </g>
  </symbol>

  <symbol id="calendar" viewBox="0 0 16 16">
    <g stroke="none" stroke-width="1" fill-rule="evenodd">
      <path d="M14,12.154 C14,13.215 13.905,13.392 13.836,13.521 C13.761,13.663 13.664,13.759 13.522,13.836 C13.393,13.905 13.215,14 12.154,14 L3.846,14 C2.785,14 2.608,13.905 2.479,13.836 C2.337,13.759 2.24,13.663 2.165,13.521 C2.096,13.392 2,13.215 2,12.154 L2,8.845 C2,7.785 2.096,7.607 2.165,7.477 C2.24,7.336 2.337,7.24 2.479,7.164 C2.608,7.094 2.785,7 3.846,7 L12.154,7 C13.215,7 13.393,7.094 13.522,7.164 C13.664,7.24 13.761,7.336 13.836,7.477 C13.905,7.607 14,7.785 14,8.845 L14,12.154 Z M15.6,3.535 C15.861,4.023 16,4.508 16,5.845 L16,12.154 C16,13.491 15.861,13.976 15.6,14.465 C15.338,14.954 14.955,15.338 14.466,15.599 C13.977,15.86 13.492,16 12.154,16 L3.846,16 C2.509,16 2.024,15.86 1.535,15.599 C1.046,15.338 0.662,14.954 0.401,14.465 C0.14,13.976 0,13.491 0,12.154 L0,5.845 C0,4.508 0.14,4.023 0.401,3.535 C0.662,3.046 1.046,2.662 1.535,2.4 C1.903,2.203 2.271,2.076 3,2.025 L3,1.255 C3,0.841 3.047,0.675 3.134,0.511 C3.221,0.348 3.349,0.22 3.512,0.133 C3.675,0.047 3.842,0 4.255,0 L4.746,0 C5.158,0 5.326,0.047 5.488,0.133 C5.652,0.22 5.779,0.348 5.867,0.511 C5.954,0.675 6,0.841 6,1.255 L6,2 L10,2 L10,1.255 C10,0.841 10.047,0.675 10.134,0.511 C10.221,0.348 10.349,0.22 10.512,0.133 C10.675,0.047 10.842,0 11.255,0 L11.746,0 C12.158,0 12.326,0.047 12.488,0.133 C12.652,0.22 12.779,0.348 12.867,0.511 C12.954,0.675 13,0.841 13,1.255 L13,2.025 C13.73,2.076 14.098,2.203 14.466,2.4 C14.955,2.662 15.338,3.046 15.6,3.535 Z M8,8.49965 C6.8959724,8.49965 5.99995,9.3956724 5.99995,10.4997 C5.99995,11.6037276 6.8959724,12.49975 8,12.49975 C9.10536097,12.49975 10.00005,11.6037276 10.00005,10.4997 C10.00005,9.3956724 9.10536097,8.49965 8,8.49965 Z"></path>
    </g>
  </symbol>

  <symbol id="calendarFill" viewBox="0 0 16 16">
    <path d="M13,2 L14,2 C15.1045695,2 16,2.8954305 16,4 L16,14 C16,15.1045695 15.1045695,16 14,16 L2,16 C0.8954305,16 1.3527075e-16,15.1045695 0,14 L0,4 C-1.3527075e-16,2.8954305 0.8954305,2 2,2 L3,2 L3,1 C3,0.44771525 3.44771525,1.01453063e-16 4,0 L5,0 C5.55228475,-1.01453063e-16 6,0.44771525 6,1 L6,2 L10,2 L10,1 C10,0.44771525 10.4477153,1.01453063e-16 11,0 L12,0 C12.5522847,-1.01453063e-16 13,0.44771525 13,1 L13,2 Z M2,5 L2,14 L14,14 L14,5 L2,5 Z M4,7 L6,7 L6,9 L4,9 L4,7 Z M4,10 L6,10 L6,12 L4,12 L4,10 Z M7,7 L9,7 L9,9 L7,9 L7,7 Z M7,10 L9,10 L9,12 L7,12 L7,10 Z M10,7 L12,7 L12,9 L10,9 L10,7 Z M10,10 L12,10 L12,12 L10,12 L10,10 Z"></path>
  </symbol>

  <symbol id="cart" viewBox="0 0 16 16">
    <path d="M14.5752313,3.70336919 C15.2556725,3.70336919 15.8357206,4.2061074 15.9168462,4.88490577 C15.9634935,5.27264516 16,5.72449895 16,6.19060037 C16,6.66179024 15.9624794,7.11771478 15.9158322,7.50748955 C15.8235518,8.2687207 15.3611358,8.93021836 14.6766384,9.27012638 C13.9282545,9.64260045 12.7701863,10.1341441 11.1831664,10.5727679 C9.78577767,10.9584719 8.51616174,11.2332479 7.54772468,11.4174495 C6.47686652,11.6230227 5.43643047,10.9808611 5.1220687,9.93365942 L3.16491317,3.39093875 C3.04423881,2.98895172 2.67613132,2.71417577 2.25833439,2.71417577 L0.946127519,2.71417577 C0.423881354,2.71417577 -4.16333634e-17,2.28878189 -4.16333634e-17,1.76467221 L-4.16333634e-17,0.949503559 C-4.16333634e-17,0.425393877 0.423881354,-2.13135065e-13 0.946127519,-2.13135065e-13 L4.26822157,-2.13135065e-13 C4.68500444,-2.13135065e-13 5.05311193,0.274775949 5.17378628,0.675745298 L5.8816073,3.02762389 C6.00228166,3.42859324 6.36937508,3.70336919 6.78717201,3.70336919 L14.5752313,3.70336919 Z M4.47833692,14.3045306 C4.47833692,13.3672393 5.23584738,12.6080436 6.16879199,12.6080436 C7.1017366,12.6080436 7.85924705,13.3672393 7.85924705,14.3045306 C7.85924705,15.2408042 7.1017366,16 6.16879199,16 C5.23584738,16 4.47833692,15.2408042 4.47833692,14.3045306 Z M11.4079858,14.3045306 C11.4079858,13.3672393 12.1654963,12.6080436 13.0984409,12.6080436 C14.0313855,12.6080436 14.7888959,13.3672393 14.7888959,14.3045306 C14.7888959,15.2408042 14.0313855,16 13.0984409,16 C12.1654963,16 11.4079858,15.2408042 11.4079858,14.3045306 Z" ></path>
  </symbol>

  <symbol id="card" viewBox="0 0 16 14">
    <g transform="translate(0, -1)">
      <path d="M3.846,13 C2.785,13 2.608,12.905 2.478,12.835 C2.338,12.761 2.239,12.661 2.164,12.521 C2.095,12.393 2,12.215 2,11.154 L2,9.35 L14,9.35 L14,11.154 C14,12.215 13.906,12.393 13.836,12.521 C13.761,12.661 13.661,12.761 13.522,12.836 C13.393,12.905 13.215,13 12.155,13 L3.846,13 Z M2,5.35 L2,4.846 C2,3.785 2.095,3.607 2.164,3.478 C2.239,3.338 2.338,3.238 2.478,3.164 C2.608,3.095 2.785,3 3.846,3 L12.155,3 C13.215,3 13.393,3.095 13.523,3.164 C13.661,3.238 13.761,3.338 13.836,3.479 C13.906,3.607 14,3.785 14,4.846 L14,5.35 L2,5.35 Z M3.846,1 C2.508,1 2.024,1.139 1.535,1.4 C1.046,1.662 0.662,2.046 0.401,2.535 C0.139,3.023 0,3.509 0,4.846 L0,11.154 C0,12.491 0.139,12.977 0.401,13.465 C0.662,13.954 1.046,14.338 1.535,14.6 C2.024,14.86 2.508,15 3.846,15 L12.155,15 C13.492,15 13.977,14.86 14.465,14.6 C14.954,14.338 15.338,13.954 15.6,13.465 C15.861,12.977 16,12.491 16,11.154 L16,4.846 C16,3.509 15.861,3.023 15.6,2.535 C15.338,2.046 14.954,1.662 14.465,1.4 C13.977,1.139 13.492,1 12.155,1 L3.846,1 Z" ></path>
    </g>
  </symbol>

  <symbol id="check" viewBox="0 0 16 13">
    <g stroke="none" stroke-width="1" fill-rule="evenodd">
      <g transform="translate(0.000000, -1.000000)" >
        <path d="M3.4806,5.28 C2.8786,4.676 1.9286,4.613 1.2526,5.132 C1.0936,5.253 0.9336,5.397 0.7776,5.57 C0.5316,5.839 0.3536,6.086 0.2256,6.305 C-0.1054,6.858 -0.0614,7.546 0.2906,8.085 C0.7346,8.761 1.2266,9.411 2.2606,10.498 C3.5196,11.819 4.3426,12.584 5.1206,13.163 C5.9876,13.807 7.1576,13.807 8.0236,13.163 C8.8016,12.584 9.8656,11.696 11.1456,10.393 C12.9536,8.554 15.3096,5.98 15.7536,5.303 C16.1066,4.764 16.1486,4.077 15.8196,3.524 C15.6906,3.304 15.5136,3.057 15.2676,2.789 C15.1116,2.615 14.9506,2.472 14.7936,2.351 C14.1166,1.832 13.1666,1.894 12.5636,2.499 L6.5716,8.521 L3.4806,5.28 Z" id="Fill-1"></path>
      </g>
    </g>
  </symbol>

  <symbol id="close" viewBox="0 0 16 16">
    <g transform="translate(8.000000, 8.000000) rotate(-45.000000) translate(-8.000000, -8.000000) ">
      <path d="M10.001,5.999 L10.001,1.5 C10.001,0.671 9.33,0 8.501,0 L7.499,0 C6.67,0 5.999,0.671 5.999,1.5 L5.999,5.999 L1.5,5.999 C0.671,5.999 0,6.67 0,7.499 L0,8.501 C0,9.33 0.671,10.001 1.5,10.001 L5.999,10.001 L5.999,14.5 C5.999,15.329 6.67,16 7.499,16 L8.501,16 C9.33,16 10.001,15.329 10.001,14.5 L10.001,10.001 L14.5,10.001 C15.329,10.001 16,9.33 16,8.501 L16,7.499 C16,6.67 15.329,5.999 14.5,5.999 L10.001,5.999 Z" id="path-1"></path>
    </g>
  </symbol>

  <symbol id="comments" viewBox="0 0 15 15">
    <g transform="translate(-0.5, 0)">
      <path d="M1.013,2.83390737 C1.348,2.24990737 1.839,1.79090737 2.465,1.47890737 C3.091,1.16690737 3.711,0.999907375 5.423,0.999907375 L10.577,0.999907375 C12.289,0.999907375 12.91,1.16690737 13.536,1.47890737 C14.161,1.79090737 14.653,2.24990737 14.988,2.83390737 C15.323,3.41790737 15.5,3.99690737 15.5,5.59490737 L15.5,6.36090737 C15.5,7.95890737 15.323,8.53890737 14.988,9.12290737 C14.653,9.70690737 14.161,10.1649074 13.536,10.4779074 C12.91,10.7899074 12.289,10.9569074 10.577,10.9569074 L8.967,10.9569074 L5.394,14.7959074 C5,15.2189074 4.291,14.9409074 4.291,14.3629074 L4.291,10.9219074 L4.284,9.84490737 L3.134,10.7409074 C2.884,10.6699074 2.674,10.5819074 2.465,10.4779074 C1.839,10.1649074 1.348,9.70690737 1.013,9.12290737 C0.679,8.53890737 0.5,7.95890737 0.5,6.36090737 L0.5,5.59490737 C0.5,3.99690737 0.679,3.41790737 1.013,2.83390737"></path>
    </g>
  </symbol>

  <symbol id="dislike" viewBox="0 0 16 14">
    <g transform="translate(0, -2)">
      <path d="M14.9668,2.9088 C15.5378,2.9088 15.9998,3.3708 15.9998,3.9418 L15.9998,9.7138 C15.9998,10.2838 15.5378,10.7468 14.9668,10.7468 L14.0798,10.7468 C13.5088,10.7468 13.0468,10.2838 13.0468,9.7138 L13.0468,3.9418 C13.0468,3.3708 13.5088,2.9088 14.0798,2.9088 L14.9668,2.9088 Z M6.8613,15.8507 C5.7703,15.8557 4.9483,14.8587 5.1623,13.7887 L5.6243,11.4787 C5.6993,11.1007 5.4103,10.7467 5.0233,10.7467 L1.8423,10.7467 C0.6923,10.7467 -0.1767,9.7047 0.0303,8.5737 L0.9583,3.5057 C1.1183,2.6337 1.8783,1.9997 2.7643,1.9997 L7.9573,1.9997 C9.5163,1.9997 10.7813,3.2607 10.7873,4.8207 L10.8023,9.0737 C10.8043,9.7607 10.5793,10.4287 10.1623,10.9747 L8.0493,13.7357 L7.6143,15.2777 C7.5193,15.6157 7.2123,15.8497 6.8613,15.8507 Z"></path>
    </g>
  </symbol>

  <symbol id="expand" viewBox="0 0 16 16">
    <path d="M5.2017,9.1885 C5.4517,8.9375 5.8547,8.9375 6.1037,9.1885 L6.8127,9.9015 C7.0627,10.1525 7.0617,10.5585 6.8127,10.8095 L3.8637,13.7825 L6.2167,13.7275 C6.6237,13.7175 6.9597,14.0125 7.0047,14.4165 C7.0137,14.5115 7.0177,14.6145 7.0097,14.7265 C6.9987,14.9015 6.9727,15.0455 6.9397,15.1655 C6.8577,15.4665 6.6067,15.6905 6.3047,15.7595 C5.9247,15.8465 4.2597,15.9555 3.0287,15.9925 C2.1567,16.0185 1.5007,15.9725 1.0437,15.9145 C0.5357,15.8505 0.1497,15.4605 0.0847,14.9495 C0.0277,14.4895 -0.0193,13.8295 0.0077,12.9525 C0.0447,11.7135 0.1517,10.0525 0.2377,9.6695 C0.3077,9.3655 0.5297,9.1125 0.8297,9.0315 C0.9477,8.9975 1.0917,8.9715 1.2647,8.9595 C1.3767,8.9515 1.4787,8.9545 1.5737,8.9655 C1.9747,9.0115 2.2677,9.3485 2.2577,9.7575 L2.2007,12.2135 L5.2017,9.1885 Z M10.7983,6.8115 C10.5483,7.0625 10.1453,7.0625 9.8963,6.8115 L9.1873,6.0985 C8.9373,5.8475 8.9383,5.4415 9.1873,5.1905 L12.1363,2.2175 L9.7833,2.2725 C9.3763,2.2825 9.0403,1.9875 8.9953,1.5835 C8.9863,1.4885 8.9823,1.3855 8.9903,1.2735 C9.0013,1.0985 9.0273,0.9545 9.0603,0.8345 C9.1423,0.5335 9.3933,0.3095 9.6953,0.2405 C10.0753,0.1535 11.7403,0.0445 12.9713,0.0075 C13.8433,-0.0185 14.4993,0.0275 14.9563,0.0855 C15.4643,0.1495 15.8503,0.5395 15.9153,1.0505 C15.9723,1.5105 16.0193,2.1705 15.9923,3.0475 C15.9553,4.2865 15.8483,5.9475 15.7623,6.3305 C15.6923,6.6345 15.4703,6.8875 15.1703,6.9685 C15.0523,7.0025 14.9083,7.0285 14.7353,7.0405 C14.6233,7.0485 14.5213,7.0455 14.4263,7.0345 C14.0253,6.9885 13.7323,6.6515 13.7423,6.2425 L13.7993,3.7865 L10.7983,6.8115 Z"></path>
  </symbol>

  <symbol id="filter" viewBox="0 0 16 16">
    <path fill-rule="evenodd" clip-rule="evenodd" d="M4.4 3.5C4.4 2.89249 4.89249 2.4 5.5 2.4C6.10751 2.4 6.6 2.89249 6.6 3.5C6.6 4.10751 6.10751 4.6 5.5 4.6C4.89249 4.6 4.4 4.10751 4.4 3.5ZM2.33682 2C2.89855 0.817527 4.1038 0 5.5 0C6.8962 0 8.10145 0.817526 8.66318 2L14.5 2C15.3284 2 16 2.67157 16 3.5C16 4.32843 15.3284 5 14.5 5L8.66318 5C8.10145 6.18247 6.8962 7 5.5 7C4.1038 7 2.89855 6.18247 2.33682 5H1.5C0.671572 5 0 4.32843 0 3.5C0 2.67157 0.671573 2 1.5 2L2.33682 2ZM10.5 16C11.8962 16 13.1015 15.1825 13.6632 14H14.5C15.3284 14 16 13.3284 16 12.5C16 11.6716 15.3284 11 14.5 11H13.6632C13.1015 9.81753 11.8962 9 10.5 9C9.10381 9 7.89855 9.81752 7.33682 11L1.5 11C0.671573 11 0 11.6716 0 12.5C0 13.3284 0.671572 14 1.5 14L7.33681 14C7.89854 15.1825 9.1038 16 10.5 16ZM10.5 11.4C9.89249 11.4 9.4 11.8925 9.4 12.5C9.4 13.1075 9.89249 13.6 10.5 13.6C11.1075 13.6 11.6 13.1075 11.6 12.5C11.6 11.8925 11.1075 11.4 10.5 11.4Z"></path>
  </symbol>

  <symbol id="heartFill" viewBox="0 0 16 14">
    <g transform="translate(0, -1)">
      <path d="M7.387,14.8992 C3.315,13.5389091 0,9.49978182 0,5.8944 C0,2.92130909 1.768,1 4.504,1 C6.005,1 7.218,1.75549091 8,2.61585455 C8.78,1.75549091 9.993,1 11.496,1 C14.232,1 16,2.92130909 16,5.8944 C16,9.50283636 12.692,13.5429818 8.627,14.9002182 C8.427,14.9664 8.22,15 8.008,15 C7.795,15 7.587,14.9653818 7.387,14.8992 Z" ></path>
    </g>
  </symbol>

  <symbol id="heartHollow" viewBox="0 0 16 14">
    <g transform="translate(0, -1)">
      <path d="M11.496,1.125 C9.994,1.125 8.781,1.867 8,2.711 C7.218,1.866 6.006,1.125 4.505,1.125 C1.768,1.125 0,3.012 0,5.932 C0,9.472 3.316,13.44 7.388,14.775 C7.587,14.841 7.796,14.875 8.009,14.875 C8.221,14.875 8.428,14.841 8.627,14.776 C12.693,13.443 16,9.476 16,5.932 C16,3.012 14.232,1.125 11.496,1.125 M11.496,4.125 C11.984,4.125 13,4.65 13,5.932 C13,7.869 10.887,10.721 8.008,11.814 C5.121,10.72 3,7.867 3,5.932 C3,4.65 4.017,4.125 4.505,4.125 C5.852,4.125 6.766,4.845 7.324,5.516 C7.692,5.958 8.366,5.956 8.731,5.512 C9.283,4.842 10.182,4.125 11.496,4.125"></path>
    </g>
  </symbol>

  <symbol id="login" viewBox="0 0 16 16">
    <path d="M3.26817146,12.6817093 C2.93537071,12.3489085 2.54816985,11.696907 2.55136985,10.9529054 C2.55376986,10.3753041 2.80257042,9.85130291 3.31217156,9.35130179 C4.42097404,8.26009934 5.55217658,8.27449937 6.67297909,9.39530189 C7.42258077,10.1449036 8.02098211,11.3337062 6.61377896,12.7409094 C4.98897532,14.365713 3.2849715,12.6985093 3.26817146,12.6817093 M9.24418486,8.54809999 C9.3961852,8.51529991 9.54338553,8.45369978 9.66098579,8.33529951 L12.2497916,5.74809371 C12.5177922,5.48009311 12.9521932,5.48009311 13.2209938,5.74809371 L13.7185949,6.24489482 C14.1097958,6.6368957 14.7449972,6.6368957 15.1369981,6.24489482 L15.7065993,5.67529355 C16.0978002,5.28329267 16.0978002,4.64809124 15.7065993,4.25609037 L15.1577981,3.70808914 C14.9185976,3.4680886 14.9185976,3.07928773 15.1577981,2.83928719 L15.6977993,2.29928598 C16.0890002,1.9080851 16.0890002,1.27208368 15.6977993,0.8808828 L15.128198,0.311281523 C14.7369972,-0.0807193555 14.1009957,-0.0807193555 13.7097949,0.311281523 L7.67298133,6.34729505 C7.55298107,6.46729532 7.49138093,6.61689566 7.45858085,6.77209601 C5.76097705,5.68649357 3.54337208,5.54649326 1.52256755,7.53209771 C-0.931837954,9.94490312 -0.0182359061,13.00331 1.46336741,14.4857133 C2.94657074,15.9681166 6.0089776,16.9537188 8.417783,14.5449134 C10.4249875,12.5377089 10.3393873,10.2641038 9.24418486,8.54809999" ></path>
  </symbol>

  <symbol id="like" viewBox="0 0 16 14">
    <path d="M14.9668,0.9088 C15.5378,0.9088 15.9998,1.3708 15.9998,1.9418 L15.9998,7.7138 C15.9998,8.2838 15.5378,8.7468 14.9668,8.7468 L14.0798,8.7468 C13.5088,8.7468 13.0468,8.2838 13.0468,7.7138 L13.0468,1.9418 C13.0468,1.3708 13.5088,0.9088 14.0798,0.9088 L14.9668,0.9088 Z M6.8613,13.8507 C5.7703,13.8557 4.9483,12.8587 5.1623,11.7887 L5.6243,9.4787 C5.6993,9.1007 5.4103,8.7467 5.0233,8.7467 L1.8423,8.7467 C0.6923,8.7467 -0.1767,7.7047 0.0303,6.5737 L0.9583,1.5057 C1.1183,0.6337 1.8783,-0.0003 2.7643,-0.0003 L7.9573,-0.0003 C9.5163,-0.0003 10.7813,1.2607 10.7873,2.8207 L10.8023,7.0737 C10.8043,7.7607 10.5793,8.4287 10.1623,8.9747 L8.0493,11.7357 L7.6143,13.2777 C7.5193,13.6157 7.2123,13.8497 6.8613,13.8507 Z"  transform="translate(7.999742, 6.925209) scale(-1, -1) translate(-7.999742, -6.925209) "></path>
  </symbol>

  <symbol id="minimize" viewBox="0 0 16 16">
    <path d="M1.813,15.7671 C1.563,16.0181 1.159,16.0181 0.911,15.7671 L0.201,15.0541 C-0.048,14.8031 -0.048,14.3961 0.202,14.1451 L3.151,11.1731 L0.798,11.2281 C0.39,11.2371 0.055,10.9431 0.01,10.5391 C5.42101086e-20,10.4441 -0.004,10.3411 0.004,10.2281 C0.016,10.0541 0.042,9.9091 0.075,9.7901 C0.157,9.4891 0.408,9.2651 0.71,9.1951 C1.09,9.1091 2.755,8.9991 3.986,8.9631 C4.857,8.9361 5.514,8.9831 5.971,9.0411 C6.479,9.1051 6.865,9.4951 6.929,10.0061 C6.987,10.4651 7.033,11.1261 7.007,12.0031 C6.97,13.2421 6.863,14.9031 6.777,15.2861 C6.707,15.5891 6.485,15.8421 6.185,15.9241 C6.067,15.9581 5.922,15.9831 5.75,15.9951 C5.638,16.0031 5.535,16.0001 5.441,15.9891 C5.04,15.9441 4.747,15.6071 4.757,15.1971 L4.813,12.7421 L1.813,15.7671 Z M14.187,0.2329 C14.437,-0.0181 14.841,-0.0181 15.089,0.2329 L15.799,0.9459 C16.048,1.1969 16.048,1.6039 15.798,1.8549 L12.849,4.8269 L15.202,4.7719 C15.61,4.7629 15.945,5.0569 15.99,5.4609 C16,5.5559 16.004,5.6589 15.996,5.7719 C15.984,5.9459 15.958,6.0909 15.925,6.2099 C15.843,6.5109 15.592,6.7349 15.29,6.8049 C14.91,6.8909 13.245,7.0009 12.014,7.0369 C11.143,7.0639 10.486,7.0169 10.029,6.9589 C9.521,6.8949 9.135,6.5049 9.071,5.9939 C9.013,5.5349 8.967,4.8739 8.993,3.9969 C9.03,2.7579 9.137,1.0969 9.223,0.7139 C9.293,0.4109 9.515,0.1579 9.815,0.0759 C9.933,0.0419 10.078,0.0169 10.25,0.0049 C10.362,-0.0031 10.465,-0.0001 10.559,0.0109 C10.96,0.0559 11.253,0.3929 11.243,0.8029 L11.187,3.2579 L14.187,0.2329 Z"></path>
  </symbol>

  <symbol id="menu" viewBox="0 0 16 14">
    <g transform="translate(0, -1)">
      <path d="M8.7998,9.5 L1.1998,9.5 C0.5368,9.5 -0.0002,8.963 -0.0002,8.3 L-0.0002,7.7 C-0.0002,7.037 0.5368,6.5 1.1998,6.5 L8.7998,6.5 C9.4628,6.5 9.9998,7.037 9.9998,7.7 L9.9998,8.3 C9.9998,8.963 9.4628,9.5 8.7998,9.5 M14.7998,15 L1.1998,15 C0.5368,15 -0.0002,14.463 -0.0002,13.8 L-0.0002,13.2 C-0.0002,12.537 0.5368,12 1.1998,12 L14.7998,12 C15.4628,12 15.9998,12.537 15.9998,13.2 L15.9998,13.8 C15.9998,14.463 15.4628,15 14.7998,15 Z M14.7998,4 L1.1998,4 C0.5368,4 -0.0002,3.463 -0.0002,2.8 L-0.0002,2.2 C-0.0002,1.537 0.5368,1 1.1998,1 L14.7998,1 C15.4628,1 15.9998,1.537 15.9998,2.2 L15.9998,2.8 C15.9998,3.463 15.4628,4 14.7998,4 Z"></path>
    </g>
  </symbol>

  <symbol id="minus" viewBox="0 0 14 4">
    <g transform="translate(-1, -6)">
      <path d="M13.5,10.00224 L2.5,10.00224 C1.671,10.00224 1,9.33124 1,8.50224 L1,7.50024 C1,6.67124 1.671,6.00024 2.5,6.00024 L13.5,6.00024 C14.329,6.00024 15,6.67124 15,7.50024 L15,8.50224 C15,9.33124 14.329,10.00224 13.5,10.00224" ></path>
    </g>
  </symbol>

  <symbol id="orderAscending" viewBox="0 0 16 16">
    <path d="M1.5,13 L14.5,13 C15.3284271,13 16,13.6715729 16,14.5 C16,15.3284271 15.3284271,16 14.5,16 L1.5,16 C0.671572875,16 1.01453063e-16,15.3284271 0,14.5 C-1.01453063e-16,13.6715729 0.671572875,13 1.5,13 Z M1.5,6.5 L8.5,6.5 C9.32842712,6.5 10,7.17157288 10,8 C10,8.82842712 9.32842712,9.5 8.5,9.5 L1.5,9.5 C0.671572875,9.5 1.01453063e-16,8.82842712 0,8 C-1.01453063e-16,7.17157288 0.671572875,6.5 1.5,6.5 Z M1.5,0 L3.5,0 C4.32842712,-1.52179594e-16 5,0.671572875 5,1.5 C5,2.32842712 4.32842712,3 3.5,3 L1.5,3 C0.671572875,3 1.01453063e-16,2.32842712 0,1.5 C-1.01453063e-16,0.671572875 0.671572875,1.52179594e-16 1.5,0 Z" ></path>
  </symbol>


  <symbol id="orderDescending" viewBox="0 0 16 16">
    <path d="M1.5,13 L14.5,13 C15.3284271,13 16,13.6715729 16,14.5 C16,15.3284271 15.3284271,16 14.5,16 L1.5,16 C0.671572875,16 1.01453063e-16,15.3284271 0,14.5 C-1.01453063e-16,13.6715729 0.671572875,13 1.5,13 Z M1.5,6.5 L8.5,6.5 C9.32842712,6.5 10,7.17157288 10,8 C10,8.82842712 9.32842712,9.5 8.5,9.5 L1.5,9.5 C0.671572875,9.5 1.01453063e-16,8.82842712 0,8 C-1.01453063e-16,7.17157288 0.671572875,6.5 1.5,6.5 Z M1.5,0 L3.5,0 C4.32842712,-1.52179594e-16 5,0.671572875 5,1.5 C5,2.32842712 4.32842712,3 3.5,3 L1.5,3 C0.671572875,3 1.01453063e-16,2.32842712 0,1.5 C-1.01453063e-16,0.671572875 0.671572875,1.52179594e-16 1.5,0 Z"  transform="translate(8, 8) scale(1, -1) translate(-8, -8) "></path>
  </symbol>

  <symbol id="plus" viewBox="0 0 16 16">
    <path d="M14.5,5.999 L10.001,5.999 L10.001,1.5 C10.001,0.671 9.33,0 8.501,0 L7.499,0 C6.67,0 5.999,0.671 5.999,1.5 L5.999,5.999 L1.5,5.999 C0.671,5.999 0,6.67 0,7.499 L0,8.501 C0,9.33 0.671,10.001 1.5,10.001 L5.999,10.001 L5.999,14.5 C5.999,15.329 6.67,16 7.499,16 L8.501,16 C9.33,16 10.001,15.329 10.001,14.5 L10.001,10.001 L14.5,10.001 C15.329,10.001 16,9.33 16,8.501 L16,7.499 C16,6.67 15.329,5.999 14.5,5.999" ></path>
  </symbol>

  <symbol id="profile" viewBox="0 0 15 16">
    <path d="M7.44279448,7 C5.23379448,7 4.44279448,5.433 4.44279448,3.5 C4.44279448,1.567 5.23379448,0 7.44279448,0 C9.65179448,0 10.4427945,1.567 10.4427945,3.5 C10.4427945,5.433 9.65179448,7 7.44279448,7 Z M7.44279448,9.5 C11.2397945,9.5 14.3867945,11.958 14.8767945,15.135 C14.9467945,15.588 14.5897945,16 14.1307945,16 L12.6017945,16 C12.2527945,16 11.9537945,15.756 11.8797945,15.415 C11.5207945,13.763 9.66779448,12.5 7.44279448,12.5 C5.21779448,12.5 3.36479448,13.763 3.00579448,15.415 C2.93179448,15.756 2.63279448,16 2.28379448,16 L0.754794475,16 C0.295794475,16 -0.0612055245,15.588 0.00879447548,15.135 C0.498794475,11.958 3.64579448,9.5 7.44279448,9.5 Z" ></path>
  </symbol>

  <symbol id="profileFill" viewBox="0 0 16 16">
    <path d="M-9.23705556e-14,14 C-3.99495294e-13,11.2946165 4.1826943,10 8,10 C11.8277923,10 16,11.2778935 16,14 C16,15 16,16 14,16 C12,16 4,16 2,16 C-9.23705556e-14,16 -9.23705556e-14,15 -9.23705556e-14,14 Z M8,8 C5.790861,8 4,6.209139 4,4 C4,1.790861 5.790861,0 8,0 C10.209139,0 12,1.790861 12,4 C12,6.209139 10.209139,8 8,8 Z"></path>
  </symbol>

  <symbol id="sale" viewBox="0 0 16 16">
    <path d="M15.1963,1.22435 C15.7823,1.81035 15.7823,2.76035 15.1963,3.34635 L3.3183,15.22435 C2.7323,15.81035 1.7823,15.81035 1.1963,15.22435 L0.7723,14.80035 C0.1863,14.21435 0.1863,13.26535 0.7723,12.67935 L12.6513,0.80035 C13.2373,0.21435 14.1863,0.21435 14.7723,0.80035 L15.1963,1.22435 Z M13.1255,10.39135 C14.7045,10.39135 15.9845,11.63435 15.9845,13.16835 C15.9845,14.70335 14.7045,15.94635 13.1255,15.94635 C11.5475,15.94635 10.2665,14.70335 10.2665,13.16835 C10.2665,11.63435 11.5475,10.39135 13.1255,10.39135 Z M2.8745,5.60865 C1.2945,5.60865 0.0155,4.36565 0.0155,2.83165 C0.0155,1.29665 1.2945,0.05365 2.8745,0.05365 C4.4535,0.05365 5.7335,1.29665 5.7335,2.83165 C5.7335,4.36565 4.4535,5.60865 2.8745,5.60865 Z"></path>
  </symbol>

  <symbol id="search" viewBox="0 0 16 16">
    <path d="M6.6753,10.3306 L6.6613,10.3306 C5.7433,10.3266 4.8273,9.9076 4.0813,9.1506 C2.5643,7.6126 2.5843,5.6206 4.1333,4.0776 C4.8733,3.3406 5.7333,2.9506 6.6233,2.9506 L6.6373,2.9506 C7.5553,2.9546 8.4723,3.3726 9.2173,4.1266 C10.7333,5.6666 10.7133,7.6576 9.1653,9.2006 C8.4243,9.9396 7.5633,10.3306 6.6753,10.3306 M15.7003,13.5226 L12.9073,10.7296 C12.6673,10.4896 12.3633,10.3726 12.0513,10.3256 C13.9243,7.7276 13.6843,4.4746 11.3103,2.0656 C10.0053,0.7416 8.3473,0.0086 6.6453,-0.0004 L6.6183,-0.0004 C4.9453,-0.0004 3.3693,0.6886 2.0613,1.9946 C-0.6597,4.7056 -0.6897,8.4956 1.9873,11.2126 C3.2953,12.5386 4.9513,13.2736 6.6523,13.2806 L6.6793,13.2806 C7.9823,13.2806 9.2273,12.8546 10.3353,12.0496 C10.3833,12.3586 10.5003,12.6606 10.7383,12.8986 L13.5313,15.6916 C13.9313,16.0916 14.5783,16.0916 14.9773,15.6916 L15.7003,14.9686 C16.0993,14.5696 16.0993,13.9226 15.7003,13.5226" ></path>
  </symbol>

  <symbol id="pin" viewBox="0 0 14 16">
    <g transform="translate(-1, 0)">
      <path d="M4.57698344,6.83399126 C4.57698344,4.94464247 6.10962592,3.412 7.99897471,3.412 C9.89003023,3.412 11.420966,4.94464247 11.420966,6.83399126 C11.420966,8.72419342 9.89003023,10.2559825 7.99897471,10.2559825 C6.10962592,10.2559825 4.57698344,8.72419342 4.57698344,6.83399126 Z M3.56797471,1.62899126 C2.04397471,2.92599126 1.17097471,4.81499126 1.17097471,6.81199126 C1.17097471,11.2069913 4.08897471,14.0219913 5.82897471,15.3089913 C6.45297471,15.7709913 7.19197471,15.9999913 7.93297471,15.9999913 C8.71997471,15.9999913 9.50797471,15.7399913 10.1569747,15.2229913 C11.8089747,13.9089913 14.6089747,11.1299913 14.8189747,7.27199126 C15.0079747,3.78999126 12.5099747,0.635991263 9.13297471,0.0909912635 C7.12397471,-0.236008737 5.09597471,0.327991263 3.56797471,1.62899126 Z"></path>
    </g>
  </symbol>

  <symbol id="time" viewBox="0 0 16 16">
    <path d="M10.3124,11.9885 C9.9704,11.9885 9.6294,11.8585 9.3694,11.5975 L7.0834,9.3115 C6.8334,9.0615 6.6924,8.7225 6.6924,8.3685 L6.6924,4.3685 C6.6924,3.6325 7.2894,3.0355 8.0254,3.0355 C8.7624,3.0355 9.3594,3.6325 9.3594,4.3685 L9.3594,7.8175 L11.2544,9.7125 C11.7754,10.2335 11.7754,11.0765 11.2544,11.5975 C10.9944,11.8585 10.6524,11.9885 10.3124,11.9885 Z M0.0004,7.9995 C0.0004,12.4185 3.5814,15.9995 8.0004,15.9995 C12.4184,15.9995 16.0004,12.4185 16.0004,7.9995 C16.0004,3.5815 12.4184,-0.0005 8.0004,-0.0005 C3.5814,-0.0005 0.0004,3.5815 0.0004,7.9995 Z" ></path>
  </symbol>

  <symbol id="shop" viewBox="0 0 16 16">
    <g stroke-width="1" fill-rule="evenodd">
      <path d="M7.9996,11.0679 L7.9996,15.9999 L3.9996,15.9999 L3.9996,11.0679 C3.9996,10.6209 4.3626,10.2579 4.8096,10.2579 L7.1896,10.2579 C7.6366,10.2579 7.9996,10.6209 7.9996,11.0679 Z M14.9996,15.9999 L0.9996,15.9999 L0.9996,9.4659 C0.9996,8.6559 1.6356,7.9999 2.4196,7.9999 L13.5796,7.9999 C14.3636,7.9999 14.9996,8.6559 14.9996,9.4659 L14.9996,15.9999 Z M13.169,0 C13.684,0 14.155,0.282 14.398,0.735 C14.982,1.823 16,3.771 16,4.125 L16,5.075 C16,5.696 15.496,6.2 14.875,6.2 L13.924,6.2 C13.303,6.2 12.799,5.696 12.799,5.075 L12.799,4 L11.733,4 L11.733,5.075 C11.733,5.696 11.229,6.2 10.608,6.2 L9.658,6.2 C9.037,6.2 8.533,5.696 8.533,5.075 L8.533,4 L7.466,4 L7.466,5.075 C7.466,5.696 6.962,6.2 6.341,6.2 L5.391,6.2 C4.77,6.2 4.266,5.696 4.266,5.075 L4.266,4 L3.2,4 L3.2,5.075 C3.2,5.696 2.696,6.2 2.075,6.2 L1.125,6.2 C0.503,6.2 0,5.696 0,5.075 L0,4.125 C0,3.771 1.017,1.823 1.601,0.735 C1.844,0.282 2.315,0 2.83,0 L13.169,0 Z"></path>
    </g>
  </symbol>

  <symbol id="undo" viewBox="0 0 16 14">
    <g transform="translate(0, -1)">
      <path d="M15.5439,7.623 C15.2879,7.064 14.8789,6.527 14.3769,6.134 C13.8769,5.736 13.3179,5.482 12.7869,5.319 C11.7259,4.999 10.7089,4.996 9.8769,4.984 C8.6369,4.961 4.8579,4.926 4.8579,4.926 L6.6109,3.324 C7.0219,2.921 7.0629,2.287 6.7119,1.835 C6.6289,1.73 6.5309,1.623 6.4159,1.519 C6.2319,1.355 6.0659,1.236 5.9169,1.15 C5.5419,0.93 5.0759,0.958 4.7099,1.194 C4.2519,1.49 3.4529,2.093 2.2059,3.299 C1.3219,4.153 0.7209,4.864 0.3279,5.383 C-0.1091,5.961 -0.1091,6.742 0.3279,7.32 C0.7209,7.84 1.3219,8.549 2.2059,9.403 C3.4529,10.61 4.2519,11.213 4.7099,11.509 C5.0759,11.746 5.5419,11.773 5.9169,11.554 C6.0659,11.467 6.2319,11.348 6.4159,11.184 C6.5309,11.08 6.6289,10.973 6.7119,10.867 C7.0629,10.416 7.0219,9.782 6.6109,9.379 L4.8509,7.955 C4.9259,7.954 8.4919,7.925 9.8769,7.899 C10.3139,7.892 10.6779,7.884 11.0329,7.905 C11.3839,7.923 11.7059,7.969 11.9819,8.042 C12.5439,8.205 12.8299,8.413 13.0339,8.802 C13.1329,9.005 13.2119,9.263 13.2499,9.566 C13.2839,9.865 13.2939,10.22 13.2649,10.518 C13.2369,10.821 13.1729,11.089 13.0769,11.31 C12.9759,11.528 12.8469,11.702 12.6699,11.861 C12.3139,12.174 11.6989,12.395 10.9829,12.498 C10.7019,12.541 9.7749,12.606 9.8869,13.8 C9.9999,15 10.9029,14.983 11.2919,14.942 C12.2359,14.836 13.3149,14.605 14.2909,13.863 C14.7669,13.491 15.1739,12.996 15.4459,12.461 C15.7159,11.925 15.8619,11.369 15.9359,10.84 C16.0089,10.306 16.0169,9.816 15.9719,9.281 C15.9219,8.749 15.7969,8.183 15.5439,7.623"></path>
    </g>
  </symbol>

  <symbol id="video" viewBox="0 0 14 16">
    <g transform="translate(-2, 0)">
      <path d="M2,8.50783626 C2,5.57283626 2.182,3.51083626 2.389,2.11183626 C2.617,0.574836257 4.091,-0.369163743 5.478,0.137836257 C6.667,0.571836257 8.286,1.33183626 10.346,2.66183626 C12.761,4.22083626 14.335,5.65083626 15.313,6.70583626 C16.25,7.71583626 16.228,9.33183626 15.25,10.2978363 C14.268,11.2698363 12.709,12.5238363 10.346,13.7608363 C8.136,14.9168363 6.433,15.5568363 5.224,15.9108363 C3.878,16.3048363 2.504,15.3518363 2.297,13.8878363 C2.131,12.7128363 2,10.9968363 2,8.50783626"></path>
    </g>
  </symbol>

  <symbol id="socialsFb" viewBox="0 0 8 16">
    <g transform="translate(-4, 0)">
      <path d="M6.36146277,16 L6.36146277,8.74308309 L4,8.74308309 L4,5.87801459 L6.36146277,5.87801459 L6.36146277,3.18258831 C6.36146277,1.85689096 7.59037473,0.204425003 9.25302032,0.0473740111 C10.7947265,-0.0982921029 12,0.138453031 12,0.138453031 L12,2.78675648 L10.2503185,2.78675648 C9.6995491,2.78675648 9.25302032,3.2524809 9.25302032,3.82692713 L9.25302032,5.87801459 L11.9036388,5.87801459 L11.4939051,8.74308309 L9.23191195,8.74308309 L9.23191195,16 L6.36146277,16 Z" ></path>
    </g>
  </symbol>

  <symbol id="socialsTwitter" viewBox="0 0 14 12">
    <g stroke="none" stroke-width="1" fill-rule="evenodd">
      <g transform="translate(-1, -2)">
        <path d="M15,3.80227682 C14.48536,4.0233293 13.931464,4.17226767 13.35052,4.23945506 C13.943504,3.89572198 14.39884,3.35172607 14.613544,2.70334879 C14.058416,3.02141964 13.443928,3.2528128 12.78968,3.37733416 C12.265576,2.83761529 11.519096,2.5 10.693096,2.5 C9.106728,2.5 7.820352,3.7436435 7.820352,5.27671795 C7.820352,5.49468446 7.845608,5.70653319 7.894888,5.90988198 C5.50772,5.79386056 3.39092,4.68881473 1.9744,3.00858853 C1.727496,3.41885933 1.585424,3.89572198 1.585424,4.40431051 C1.585424,5.36772682 2.092504,6.21820768 2.863568,6.71575171 C2.392496,6.70172952 1.94976,6.57655849 1.562688,6.36833712 C1.562072,6.37992302 1.562072,6.39156306 1.562072,6.4037445 C1.562072,7.7487917 2.552264,8.87154121 3.866472,9.12616031 C3.625168,9.18961206 3.37132,9.22382837 3.10924,9.22382837 C2.924216,9.22382837 2.744232,9.20612468 2.569288,9.17374913 C2.934968,10.2770083 3.995272,11.0798462 5.252584,11.1024766 C4.269336,11.8473309 3.030952,12.2911683 1.68516,12.2911683 C1.453432,12.2911683 1.22484,12.2783372 1,12.252675 C2.271256,13.0402996 3.780568,13.5 5.402888,13.5 C10.686152,13.5 13.575304,9.26838536 13.575304,5.59906584 C13.575304,5.47882153 13.572784,5.35911861 13.567072,5.24006536 C14.127912,4.84814793 14.615392,4.35910384 15,3.80227682" id="Mask"></path>
      </g>
    </g>
  </symbol>

  <symbol id="socialsOk" viewBox="0 0 10 16">
    <g stroke="none" stroke-width="1" fill-rule="evenodd">
      <g transform="translate(-3.000000, 0.000000)">
        <path d="M7.99995976,2.41681054 C8.89363257,2.41681054 9.62069252,3.16960535 9.62069252,4.0948271 C9.62069252,5.02013218 8.89363257,5.772927 7.99995976,5.772927 C7.10628694,5.772927 6.37930748,5.02013218 6.37930748,4.0948271 C6.37930748,3.16960535 7.10628694,2.41681054 7.99995976,2.41681054 M7.99995976,8.18973754 C5.81926286,8.18973754 4.04511747,6.35279485 4.04511747,4.0948271 C4.04511747,1.83694269 5.81926286,0 7.99995976,0 C10.1807371,0 11.9548825,1.83694269 11.9548825,4.0948271 C11.9548825,6.35279485 10.1807371,8.18973754 7.99995976,8.18973754 Z M12.3131612,9.05983685 C12.6628873,9.62053689 12.5073819,10.3684981 11.9659303,10.7305196 C11.2515072,11.2081314 10.4668169,11.5470682 9.64574543,11.7382463 L11.7670412,13.9344604 C12.2228522,14.4063218 12.2228522,15.1714507 11.7670412,15.6433954 C11.3113107,16.1152569 10.5722579,16.1152569 10.1165274,15.6433954 L8.00126833,13.4533484 L5.88351407,15.6460623 C5.65564883,15.881993 5.356953,16 5.05825716,16 C4.75956133,16 4.4608655,15.881993 4.23300026,15.6460623 C3.77718929,15.1742008 3.77718929,14.409072 4.23300026,13.9371272 L6.37812088,11.7160783 C5.53724905,11.5083993 4.73702433,11.145211 4.01157417,10.635264 C3.47833248,10.260325 3.33956891,9.50886358 3.70169032,8.95674738 C4.06373124,8.40463118 4.78942287,8.26078928 5.32282553,8.63581161 C6.13077723,9.20392876 7.07668761,9.5041133 8.05825476,9.5041133 C8.99973823,9.5041133 9.91313093,9.22618008 10.699592,8.70031545 C11.2410436,8.3382939 11.9635156,8.49922014 12.3131612,9.05983685 Z" id="Icon-/-Ok"></path>
      </g>
    </g>
  </symbol>

  <symbol id="socialsVk" viewBox="0 0 16 10">
    <g stroke="none" stroke-width="1" fill-rule="evenodd">
      <g transform="translate(0, -3)">
        <path d="M15.6328994,3.6434002 C15.7441754,3.27256363 15.6328994,3 15.1035258,3 L13.3531172,3 C12.9080133,3 12.7028404,3.23542996 12.5915644,3.49499055 C12.5915644,3.49499055 11.7014816,5.66474707 10.4404373,7.07407607 C10.032467,7.48204631 9.84704873,7.61195163 9.62437175,7.61195163 C9.5132208,7.61195163 9.35218321,7.48204631 9.35218321,7.11120974 L9.35218321,3.6434002 C9.35218321,3.19829629 9.22290303,3 8.85206646,3 L6.10142434,3 C5.82335943,3 5.65607038,3.20654822 5.65607038,3.40234392 C5.65607038,3.82431743 6.28646754,3.92159014 6.35148272,5.10836719 L6.35148272,7.68596891 C6.35148272,8.25122587 6.2494589,8.35362477 6.02690694,8.35362477 C5.43351842,8.35362477 3.99005645,6.17436604 3.13398161,3.68053387 C2.96619244,3.19579571 2.79790315,3 2.35054872,3 L0.600140099,3 C0.10002335,3 0,3.23542996 0,3.49499055 C0,3.95859878 0.593388523,6.25813559 2.76302001,9.29947057 C4.20948268,11.3763304 6.24745843,12.5022182 8.10189134,12.5022182 C9.21452608,12.5022182 9.35218321,12.2521599 9.35218321,11.8214343 L9.35218321,10.2516929 C9.35218321,9.75157611 9.45758282,9.65180282 9.80991507,9.65180282 C10.0694757,9.65180282 10.5145796,9.78158312 11.553072,10.7829419 C12.739849,11.9697189 12.9356447,12.5022182 13.6031756,12.5022182 L15.3535842,12.5022182 C15.853701,12.5022182 16.1037593,12.2521599 15.9594756,11.7586697 C15.8016888,11.2668048 15.2349315,10.5532633 14.483131,9.70731578 C14.0751608,9.22520324 13.4631429,8.70608205 13.2777246,8.44639643 C13.018039,8.11269353 13.0923063,7.96415885 13.2777246,7.66746459 C13.2777246,7.66746459 15.4103475,4.66338831 15.6328994,3.6434002" id="Fill-1"></path>
      </g>
    </g>
  </symbol>

  <symbol id="socialsYoutube" viewBox="0 0 14 11">
    <g stroke="none" stroke-width="1" fill-rule="evenodd">
      <g transform="translate(-1, -2)">
        <path d="M6.48616379,9.75558496 L6.48554157,5.95265723 L10.2683416,7.86066309 L6.48616379,9.75558496 Z M14.7917416,5.2937959 C14.7917416,5.2937959 14.6548527,4.36107324 14.2350082,3.95020605 C13.7028527,3.41120605 13.105986,3.40864941 12.8323638,3.37706738 C10.8732971,3.24006152 7.93454157,3.24006152 7.93454157,3.24006152 L7.92831935,3.24006152 C7.92831935,3.24006152 4.98971935,3.24006152 3.03049713,3.37706738 C2.7568749,3.40864941 2.16031935,3.41120605 1.62785268,3.95020605 C1.20800824,4.36107324 1.07143046,5.2937959 1.07143046,5.2937959 C1.07143046,5.2937959 0.931430459,6.38909082 0.931430459,7.48438574 L0.931430459,8.51140332 C0.931430459,9.60654785 1.07143046,10.7018428 1.07143046,10.7018428 C1.07143046,10.7018428 1.20800824,11.6345654 1.62785268,12.0454326 C2.16031935,12.584583 2.85985268,12.5672881 3.17143046,12.623835 C4.29158601,12.7277549 7.93143046,12.7599385 7.93143046,12.7599385 C7.93143046,12.7599385 10.8732971,12.7555771 12.8323638,12.6187217 C13.105986,12.5871396 13.7028527,12.584583 14.2350082,12.0454326 C14.6548527,11.6345654 14.7917416,10.7018428 14.7917416,10.7018428 C14.7917416,10.7018428 14.9314305,9.60654785 14.9314305,8.51140332 L14.9314305,7.48438574 C14.9314305,6.38909082 14.7917416,5.2937959 14.7917416,5.2937959 L14.7917416,5.2937959 Z" id="Fill-1"></path>
      </g>
    </g>
  </symbol>

  <symbol id="socialsInstagram" viewBox="0 0 14 14">
    <g stroke="none" stroke-width="1" fill-rule="evenodd">
      <g transform="translate(-1.000000, -1.000000)">
        <path d="M14.9502228,11.4502509 C14.9121975,12.2828023 14.7731209,12.7349138 14.6562006,13.035785 C14.5013674,13.4343019 14.316331,13.7187429 14.0174808,14.0175931 C13.7187429,14.316331 13.4342644,14.5013674 13.0357476,14.6562755 C12.7348389,14.7731583 12.2827274,14.9123098 11.4502509,14.9502602 C10.5499951,14.9913545 10.2800381,15 7.99998129,15 C5.71992451,15 5.44996752,14.9913545 4.54971168,14.9502602 C3.71727257,14.9123098 3.26512363,14.7731583 2.96425239,14.6562755 C2.56569812,14.5013674 2.2812571,14.316331 1.98248175,14.0175931 C1.68370639,13.7187429 1.49867002,13.4343019 1.34379937,13.035785 C1.22687914,12.7349138 1.0877276,12.2828023 1.04973975,11.4502509 C1.00868294,10.5499202 1,10.2799258 1,7.99998129 C1,5.72011164 1.00868294,5.45011722 1.04973975,4.54974911 C1.0877276,3.71727257 1.22687914,3.26516105 1.34379937,2.96425239 C1.49867002,2.56569812 1.68370639,2.28133195 1.98248175,1.98248175 C2.2812571,1.68374382 2.56569812,1.49870745 2.96425239,1.34379937 C3.26512363,1.22687914 3.71727257,1.08776503 4.54971168,1.04973975 C5.45011722,1.00872036 5.72011164,1 7.99998129,1 C10.2798509,1 10.5498828,1.00872036 11.4502509,1.04973975 C12.2827274,1.08776503 12.7348389,1.22687914 13.0357476,1.34379937 C13.4342644,1.49870745 13.7187429,1.68374382 14.0174808,1.98248175 C14.316331,2.28133195 14.5013674,2.56569812 14.6562006,2.96425239 C14.7731209,3.26516105 14.9121975,3.71727257 14.9502228,4.54974911 C14.9912796,5.45011722 15,5.72011164 15,7.99998129 C15,10.2799258 14.9912796,10.5499202 14.9502228,11.4502509 Z M7.99997754,3.615409 C5.57844878,3.615409 3.61539403,5.57850118 3.61539403,8.00002994 C3.61539403,10.4215961 5.57844878,12.384576 7.99997754,12.384576 C10.4215063,12.384576 12.3845611,10.4215961 12.3845611,8.00002994 C12.3845611,5.57850118 10.4215063,3.615409 7.99997754,3.615409 Z M7.99997754,10.8461618 C6.42806663,10.8461618 5.15380827,9.57190343 5.15380827,8.00002994 C5.15380827,6.42811903 6.42806663,5.15386067 7.99997754,5.15386067 C9.57188846,5.15386067 10.8461468,6.42811903 10.8461468,8.00002994 C10.8461468,9.57190343 9.57188846,10.8461618 7.99997754,10.8461618 Z M12.557853,2.41755301 C11.9920025,2.41755301 11.5331916,2.87625158 11.5331916,3.44217694 C11.5331916,4.00802744 11.9920025,4.46680087 12.557853,4.46680087 C13.1237409,4.46680087 13.5824769,4.00802744 13.5824769,3.44217694 C13.5824769,2.87625158 13.1237409,2.41755301 12.557853,2.41755301 Z" id="Icon-/-Instagram"></path>
      </g>
    </g>
  </symbol>

  <symbol id="socialsTelegram" viewBox="0 0 19 15">
    <path d="M1.23947 6.43254C6.07935 4.32388 9.30669 2.93372 10.9215 2.26206C15.5321 0.344351 16.4902 0.011224 17.1146 0.000106643C17.2519 -0.00219541 17.559 0.0318412 17.7579 0.193247C17.9259 0.329534 17.9721 0.51364 17.9942 0.642855C18.0163 0.772071 18.0439 1.06643 18.022 1.29643C17.7721 3.92163 16.691 10.2923 16.141 13.2326C15.9083 14.4767 15.4501 14.8939 15.0064 14.9347C14.0423 15.0234 13.3102 14.2975 12.3764 13.6854C10.9152 12.7276 10.0897 12.1313 8.67134 11.1966C7.03218 10.1165 8.09478 9.52277 9.02893 8.55252C9.2734 8.2986 13.5213 4.43477 13.6036 4.08426C13.6138 4.04042 13.6234 3.87702 13.5263 3.79074C13.4292 3.70445 13.286 3.73396 13.1826 3.75743C13.036 3.79069 10.7017 5.33358 6.17966 8.38609C5.51708 8.84107 4.91693 9.06275 4.37922 9.05113C3.78643 9.03833 2.64615 8.71597 1.79847 8.44042C0.758756 8.10245 -0.0675881 7.92376 0.00436794 7.34978C0.0418471 7.05082 0.453547 6.74507 1.23947 6.43254Z"/>
  </symbol>

  <symbol id="cancel" viewBox="0 0 16 16">
    <g stroke="none" stroke-width="1" fill-rule="evenodd">
      <g>
        <path d="M8,13 C7.168,13 6.396,12.776 5.705,12.416 L12.416,5.705 C12.776,6.396 13,7.168 13,8 C13,10.757 10.757,13 8,13 M8,3 C8.832,3 9.604,3.224 10.295,3.584 L3.584,10.295 C3.224,9.604 3,8.832 3,8 C3,5.243 5.243,3 8,3 M8,0 C3.582,0 0,3.582 0,8 C0,12.418 3.582,16 8,16 C12.418,16 16,12.418 16,8 C16,3.582 12.418,0 8,0" id="Fill-1"></path>
      </g>
    </g>
  </symbol>

  <symbol id="phone" viewBox="0 0 16 16">
    <g stroke="none" stroke-width="1" fill-rule="evenodd">
      <g>
        <path d="M14.2705,15.0762 L15.4545,13.8882 C16.1825,13.1582 16.1825,11.9732 15.4545,11.2432 L13.6595,9.4412 C12.9315,8.7112 11.7515,8.7112 11.0235,9.4412 L9.6655,10.8052 C9.3525,11.1192 8.8785,11.2182 8.4715,11.0422 C7.9275,10.8072 7.1475,10.3762 6.4045,9.6312 C5.6615,8.8852 5.2325,8.1022 4.9985,7.5562 C4.8235,7.1482 4.9215,6.6722 5.2355,6.3582 L6.5935,4.9942 C7.3215,4.2642 7.3215,3.0802 6.5935,2.3492 L4.7985,0.5482 C4.0705,-0.1828 2.8905,-0.1828 2.1635,0.5482 L0.9135,1.8032 C0.2075,2.5112 -0.0695,3.5072 0.0145,4.5052 C0.2915,7.7632 1.6205,10.1642 3.7465,12.2992 C5.8735,14.4332 8.7975,15.7672 11.6685,15.9892 C12.6325,16.0632 13.5875,15.7622 14.2705,15.0762" id="Fill-1"></path>
      </g>
    </g>
  </symbol>

  <symbol id="tips" viewBox="0 0 8 16">
    <g stroke="none" stroke-width="1" fill-rule="evenodd">
      <g transform="translate(-4.000000, 0.000000)">
        <path d="M7.3159,12.0269 C8.4069,12.0269 9.2909,12.9159 9.2909,14.0139 C9.2909,15.1109 8.4069,15.9999 7.3159,15.9999 C6.2259,15.9999 5.3409,15.1109 5.3409,14.0139 C5.3409,12.9159 6.2259,12.0269 7.3159,12.0269 Z M7.5923,0 C10.6233,0 12.0003,1.686 12.0003,3.603 C12.0003,5.358 10.9253,6.517 10.0493,7.482 C8.9183,8.728 8.9183,9.553 8.9183,9.553 L8.9153,9.635 C8.8943,10.276 8.3713,10.785 7.7343,10.785 L7.2823,10.785 L6.8963,10.785 C6.3023,10.785 5.8193,10.305 5.8123,9.707 L5.8103,9.544 C5.8103,9.544 5.7883,8.203 7.1553,6.559 C7.8903,5.682 8.4883,4.942 8.4883,4.157 C8.4883,3.349 7.9593,2.818 6.8113,2.771 C6.4133,2.771 5.9703,2.848 5.5533,2.981 C4.9693,3.167 4.3453,2.84 4.1623,2.251 L4.0513,1.893 C3.8733,1.319 4.1713,0.701 4.7323,0.495 C5.5103,0.209 6.4933,0 7.5923,0 Z" id="Fill-1"></path>
      </g>
    </g>
  </symbol>

  <symbol id="list" viewBox="0 0 16 14">
    <g stroke="none" stroke-width="1" fill-rule="evenodd">
      <g transform="translate(0.000000, 0.000000)">
        <path d="M1.2,4 C0.537,4 0,3.463 0,2.8 L0,2.2 C0,1.537 0.537,1 1.2,1 L1.8014334,1 C2.4644334,1 3.0014334,1.537 3.0014334,2.2 L3.0014334,2.8 C3.0014334,3.463 2.4644334,4 1.8014334,4 L1.2,4 Z M6.2,15 C5.537,15 5,14.463 5,13.8 L5,13.2 C5,12.537 5.537,12 6.2,12 L14.8005994,12 C15.4635994,12 16.0005994,12.537 16.0005994,13.2 L16.0005994,13.8 C16.0005994,14.463 15.4635994,15 14.8005994,15 L6.2,15 Z M6.2,9.5 C5.537,9.5 5,8.963 5,8.3 L5,7.7 C5,7.037 5.537,6.5 6.2,6.5 L14.8005994,6.5 C15.4635994,6.5 16.0005994,7.037 16.0005994,7.7 L16.0005994,8.3 C16.0005994,8.963 15.4635994,9.5 14.8005994,9.5 L6.2,9.5 Z M6.2,4 C5.537,4 5,3.463 5,2.8 L5,2.2 C5,1.537 5.537,1 6.2,1 L14.8005994,1 C15.4635994,1 16.0005994,1.537 16.0005994,2.2 L16.0005994,2.8 C16.0005994,3.463 15.4635994,4 14.8005994,4 L6.2,4 Z M1.2,15 C0.537,15 0,14.463 0,13.8 L0,13.2 C0,12.537 0.537,12 1.2,12 L1.8014334,12 C2.4644334,12 3.0014334,12.537 3.0014334,13.2 L3.0014334,13.8 C3.0014334,14.463 2.4644334,15 1.8014334,15 L1.2,15 Z M1.2,9.5 C0.537,9.5 0,8.963 0,8.3 L0,7.7 C0,7.037 0.537,6.5 1.2,6.5 L1.8014334,6.5 C2.4644334,6.5 3.0014334,7.037 3.0014334,7.7 L3.0014334,8.3 C3.0014334,8.963 2.4644334,9.5 1.8014334,9.5 L1.2,9.5 Z" id="Fill-1"></path>
      </g>
    </g>
  </symbol>

  <symbol id="route" viewBox="0 0 15 16">
    <g stroke="none" stroke-width="1" fill-rule="evenodd">
      <g transform="translate(-1.000000, 0.000000)">
        <path d="M11.9041,5.3594 L15.0551,8.1604 C15.3851,8.4534 15.1771,9.0004 14.7361,9.0004 L4.4801,9.0004 C4.2151,9.0004 4.0001,8.7844 4.0001,8.5194 L4.0001,1.4804 C4.0001,1.2154 4.2151,1.0004 4.4801,1.0004 L14.7361,1.0004 C15.1771,1.0004 15.3851,1.5464 15.0551,1.8394 L11.9041,4.6404 C11.6891,4.8324 11.6891,5.1684 11.9041,5.3594 Z M2.326,0 C2.698,0 3,0.302 3,0.674 L3,15.326 C3,15.698 2.698,16 2.326,16 L1.674,16 C1.302,16 1,15.698 1,15.326 L1,0.674 C1,0.302 1.302,0 1.674,0 L2.326,0 Z" id="Fill-1"></path>
      </g>
    </g>
  </symbol>

  <symbol id="receipt" viewBox="0 0 20 20">
    <g stroke="none" stroke-width="1" fill-rule="evenodd">
      <g>
        <path d="M2.00000002,2.45137244e-13 C4.00000002,2.45137244e-13 4.00000002,2 6.00000002,2 C8.00000002,2 8.00000002,2.45137244e-13 10,2.45137244e-13 C12,2.45137244e-13 12,2 14,2 C16,2 16,2.45137244e-13 18,2.45137244e-13 C20,2.45137244e-13 20,20 18,20 C16,20 16,18 14,18 C12,18 12,20 10,20 C8.00000002,20 8.00000002,18 6.00000002,18 C4.00000002,18 4.00000002,20 2.00000002,20 C1.73471371e-08,20 1.73471371e-08,2.45137244e-13 2.00000002,2.45137244e-13 Z M6.5,6 C5.67157288,6 5,6.67157288 5,7.5 C5,8.32842712 5.67157288,9 6.5,9 L13.5,9 C14.3284271,9 15,8.32842712 15,7.5 C15,6.67157288 14.3284271,6 13.5,6 L6.5,6 Z M6.5,11 C5.67157288,11 5,11.6715729 5,12.5 C5,13.3284271 5.67157288,14 6.5,14 L10.5,14 C11.3284271,14 12,13.3284271 12,12.5 C12,11.6715729 11.3284271,11 10.5,11 L6.5,11 Z" id="Fill-1"></path>
      </g>
    </g>
  </symbol>

  <symbol id="bonusCard" viewBox="0 0 20 16">
    <g transform="translate(-854.000000, -291.000000)">
      <g transform="translate(730.000000, 117.000000)">
        <g transform="translate(124.000000, 172.000000)">
          <path d="M1.36252027,13.9783417 C-0.710295181,9.75559599 -1.56783378,8.11504087 7.45181924,4.30910547 C16.4714723,0.503170073 16.6187003,1.57061105 18.8129143,6.27243442 C21.0071282,10.9742578 20.8121157,11.8332936 12.5208539,15.7167456 C4.2295921,19.6014683 3.43662719,18.2023581 1.36252027,13.9783417 Z M4.29416579,13.0354355 C4.95798333,13.7572289 5.53785506,13.8538069 6.31532229,13.1472626 C7.09278952,12.4407184 7.18577563,12.0925293 6.46125883,11.2932193 C5.73545056,10.4964509 5.368672,10.4570572 4.46980623,11.2436595 C3.56964899,12.0315327 3.63034826,12.3136421 4.29416579,13.0354355 L4.29416579,13.0354355 Z M7.14186552,10.6235272 C7.28392764,11.7939 7.33816954,11.8993733 8.77299693,11.7875461 C10.2078243,11.6744482 10.0476816,10.9272395 9.99343967,10.2117999 C9.94048925,9.4938188 9.7558085,9.05032249 8.59606502,9.15706659 C7.43632155,9.26381069 6.99980341,9.45188362 7.14186552,10.6235272 L7.14186552,10.6235272 Z M10.9078031,7.9040942 C10.1639142,8.57124481 9.81779924,8.85589574 10.7024588,9.79498965 C11.5871183,10.7340836 11.973269,10.415122 12.7404044,9.77974049 C13.5075399,9.14562972 13.5462841,8.86479108 12.8721348,8.02608745 C12.2005684,7.18738383 11.6529835,7.23821435 10.9090946,7.90536496 L10.9078031,7.9040942 Z M13.649602,7.78210094 C13.8691525,9.02490723 14.0396271,9.15198353 15.3633877,8.96645213 C16.6858569,8.78219148 16.5941623,8.31836296 16.4998847,7.37799829 C16.4068986,6.44017514 15.9768378,6.15806574 15.0056495,6.29403739 C14.0344612,6.43000904 13.4300515,6.5380239 13.649602,7.78083018 L13.649602,7.78210094 Z" id="Shape"></path>
        </g>
      </g>
    </g>
  </symbol>

  <symbol id="bonusColored" viewBox="0 0 20 20">
    <g clip-path="url(#clip0)">
      <path fill-rule="evenodd" clip-rule="evenodd" d="M0.852578 11.8039C0.260365 9.6681 -0.146324 7.52886 0.837389 6.64282C1.8211 5.75678 4.29204 4.89073 8.71972 3.48359C13.1474 2.07646 15.6063 1.38609 16.8309 2.22081C18.0555 3.05553 18.2049 4.30048 18.973 6.56987C19.7411 8.83925 20.168 11.1519 19.4531 11.9532C18.7383 12.7545 16.3703 13.8314 11.6671 15.3024C6.96378 16.7735 4.16663 17.5 3.09838 16.5758C2.03013 15.6516 1.44479 13.9396 0.852578 11.8039Z" fill="#0073E6"/>
      <path fill-rule="evenodd" clip-rule="evenodd" d="M16.7491 7.26421C16.7465 7.6893 16.7064 8.01288 16.6655 8.23461C16.6234 8.46231 16.4474 8.63482 16.2264 8.6639C16.0149 8.69192 15.7058 8.71579 15.2945 8.70605C14.8838 8.69606 14.5751 8.6571 14.3643 8.61917C14.1437 8.57942 13.9699 8.39854 13.9307 8.16881C13.8924 7.94498 13.8566 7.61978 13.8593 7.19469C13.862 6.7692 13.902 6.44588 13.943 6.22415C13.9851 5.99646 14.161 5.82394 14.3821 5.79474C14.5934 5.76684 14.9023 5.74297 15.3132 5.75257C15.7245 5.7627 16.0331 5.80153 16.2443 5.8396C16.4647 5.87935 16.6386 6.06049 16.6777 6.28995C16.716 6.51366 16.7519 6.83899 16.7491 7.26421Z" fill="#00C2FC"/>
      <path fill-rule="evenodd" clip-rule="evenodd" d="M12.8792 7.5259C13.1442 7.85745 13.3171 8.1348 13.4256 8.33364C13.5368 8.53795 13.5124 8.78731 13.364 8.95489C13.2222 9.11541 13.0042 9.33677 12.688 9.59907C12.3721 9.86085 12.1149 10.0332 11.9321 10.1421C11.7408 10.256 11.4962 10.2297 11.3224 10.0772C11.153 9.92868 10.9218 9.69984 10.6569 9.3683C10.3918 9.03636 10.2189 8.75929 10.1105 8.56038C9.99933 8.35606 10.0236 8.10679 10.172 7.93902C10.3137 7.77877 10.5317 7.55749 10.8475 7.29532C11.1639 7.03332 11.421 6.86088 11.6041 6.75185C11.7952 6.63806 12.0401 6.6645 12.2136 6.81687C12.383 6.96532 12.6143 7.19417 12.8792 7.5259Z" fill="#06C92E"/>
      <path fill-rule="evenodd" clip-rule="evenodd" d="M9.67636 9.69951C9.67372 10.1246 9.63364 10.4482 9.5928 10.6699C9.55065 10.8976 9.37463 11.0701 9.15362 11.0992C8.94215 11.1272 8.63304 11.1511 8.2218 11.1414C7.81106 11.1314 7.50236 11.0924 7.29157 11.0545C7.07091 11.0147 6.89716 10.8338 6.85793 10.6041C6.81966 10.3803 6.78388 10.0551 6.78652 9.62999C6.78929 9.20451 6.82924 8.88119 6.87021 8.65946C6.91235 8.43176 7.08825 8.25925 7.30938 8.23004C7.52061 8.20214 7.82959 8.17827 8.24046 8.18787C8.6517 8.198 8.9604 8.23683 9.17156 8.2749C9.39197 8.31465 9.56584 8.4958 9.60495 8.72526C9.64322 8.94896 9.67913 9.27429 9.67636 9.69951Z" fill="#FABC22"/>
      <path fill-rule="evenodd" clip-rule="evenodd" d="M5.80649 9.9612C6.07143 10.2928 6.24439 10.5701 6.35284 10.7689C6.46404 10.9733 6.43966 11.2226 6.2913 11.3902C6.14946 11.5507 5.9314 11.7721 5.61524 12.0344C5.2993 12.2962 5.0421 12.4685 4.85937 12.5774C4.66805 12.6913 4.42347 12.665 4.24964 12.5125C4.08023 12.364 3.84905 12.1351 3.58411 11.8036C3.31902 11.4717 3.14613 11.1946 3.03778 10.9957C2.92657 10.7914 2.95086 10.5421 3.09924 10.3743C3.24096 10.2141 3.45892 9.99279 3.77471 9.73062C4.09112 9.46863 4.34824 9.29619 4.53134 9.18716C4.72247 9.07336 4.96731 9.09981 5.14088 9.25218C5.3102 9.40062 5.54156 9.62948 5.80649 9.9612Z" fill="#F72A16"/>
    </g>
    <defs>
      <clipPath id="clip0">
        <rect width="20" height="20" fill="white"/>
      </clipPath>
    </defs>
  </symbol>

  <symbol id="pinStoreColored" viewBox="0 0 27 32">
    <path opacity=".2" fill-rule="evenodd" clip-rule="evenodd" d="M13.333 32C15.911 32 18 31.105 18 30s-2.09-2-4.667-2-4.666.895-4.666 2 2.089 2 4.666 2Z" fill="#000"/>
    <path fill-rule="evenodd" clip-rule="evenodd" d="M13.333 30c2 0 2-3.333 5.334-4.667 3.333-1.333 8-4 8-12C26.667 4.667 21.287 0 13.31 0 5.333 0 0 5.333 0 13.333s4.667 10.667 8 12C11.333 26.667 11.333 30 13.333 30Z" fill="#fff"/>
    <path fill-rule="evenodd" clip-rule="evenodd" d="M9.795 5.462c-1.643.156-2.428 1.212-2.09 2.092.337.88 10.1.822 11.047.257.948-.565.032-2.152-1.906-2.35-1.938-.196-5.408-.156-7.051 0Zm-3.208 12.09c-.039-1.232-.156-4.915.003-6.321.162-1.442.914-1.57 1.924-1.704 1.01-.134 9.1-.303 10.133-.232 1.031.07 1.404.485 1.44 1.475.037.99.01 3.657-.036 5.91-.045 2.252-.547 3.178-1.923 3.205-2.044.04-7.37.028-9.615 0-1.646-.021-1.888-1.114-1.923-2.244l-.003-.09Zm3.834-3.758c1.87 0 2.245 0 2.245 1.764-.001 1.763-.374 1.763-2.245 1.762h-.009c-1.864-.001-2.237-.001-2.234-1.76.004-1.762.371-1.765 2.242-1.766Zm7.386 2.244c.004-2.2.004-2.566-1.92-2.565-1.926 0-1.926.366-1.926 2.565 0 2.198 0 2.56 1.925 2.563 1.917.002 1.918-.361 1.921-2.537v-.026Z" fill="#0073E6"/>
    <path fill-rule="evenodd" clip-rule="evenodd" d="M17.308 7.017c1.202-.05 1.826.44 2.017.649.712.775 1.642 2.444 1.737 3.352.11 1.05-.253 1.793-1.747 1.796-1.495.003-2.284-.677-2.398-1.355-.113-.678-.622-3.503-.622-3.503s-.189-.887 1.013-.939Z" fill="#00C2FC"/>
    <path fill-rule="evenodd" clip-rule="evenodd" d="M13.023 7.737c.015-.573.796-.709 1.442-.714.63-.006 1.214.104 1.558.36.602.45.884 3.295.919 3.66.034.365.17 1.78-1.953 1.754-2.121-.025-2.067-1.255-2.065-1.807.002-.55.085-2.745.099-3.253Z" fill="#06C92E"/>
    <path fill-rule="evenodd" clip-rule="evenodd" d="M8.35 7.032c-1.349.027-1.739.56-1.941.794-.673.773-1.49 2.343-1.594 3.21-.186 1.546.594 1.792 1.769 1.796 1.174.003 1.969-.676 2.169-1.358.2-.682.754-3.47.754-3.47s.193-1-1.157-.972Z" fill="#F72A16"/>
    <path fill-rule="evenodd" clip-rule="evenodd" d="M11.428 7.015c-1.47-.015-1.744.355-1.901.71-.468 1.051-.644 2.742-.696 3.202-.04.362-.346 1.881 1.944 1.866 2.29-.015 2.165-1.3 2.203-1.825.03-.426.067-1.88.053-3.018-.005-.438-.27-.921-1.603-.935Z" fill="#FABC22"/>
  </symbol>

  <symbol id="trash" viewBox="0 0 16 16">
    <path d="M2,6.01005191 L0.881088257,6.01005191 C0.542088257,6.01005191 0.240088257,5.79305191 0.143088257,5.46805191 C0.0680882568,5.21805191 0.00408825684,4.89205191 0.00408825684,4.51005191 C0.00408825684,4.12205191 0.0710882568,3.79105191 0.147088257,3.54005191 C0.243088257,3.22205191 0.543088257,3.01005191 0.881088257,3.01005191 L15.128,3.01005191 C15.466,3.01005191 15.766,3.22205191 15.862,3.54005191 C15.936,3.78905191 16,4.11705191 16,4.51005191 C16,4.89605191 15.937,5.22105191 15.865,5.46905191 C15.769,5.79405191 15.466,6.01005191 15.128,6.01005191 L14,6.01005191 C14,6.23064691 14,10.0580834 14,12 C14,14 13,16 11,16 L5,16 C3,16 2,14 2,12 C2,10.0581751 2,6.23100828 2,6.01000537 Z M10.384139,6.01005191 L9.61210825,6.01005191 C9.26396184,6.06809978 8.998,6.37061804 8.998,6.736 L8.998,12.263 C8.998,12.67 9.328,13 9.734,13 L10.262,13 C10.669,13 10.998,12.67 10.998,12.263 L10.998,6.736 C10.998,6.37061804 10.7328441,6.06809978 10.384139,6.01005191 Z M6.38413898,6.01005191 L5.61210825,6.01005191 C5.26396184,6.06809978 4.998,6.37061804 4.998,6.736 L4.998,12.263 C4.998,12.67 5.328,13 5.734,13 L6.262,13 C6.669,13 6.998,12.67 6.998,12.263 L6.998,6.736 C6.998,6.37061804 6.7328441,6.06809978 6.38413898,6.01005191 Z M6,0 L9.99715168,0 C10.5494364,-1.01453063e-16 10.9971517,0.44771525 10.9971517,1 C10.9971517,1.55228475 10.5494364,2 9.99715168,2 L6,2 C5.44771525,2 5,1.55228475 5,1 C5,0.44771525 5.44771525,1.01453063e-16 6,0 Z"></path>
  </symbol>

  <symbol id="email" viewBox="0 0 16 16">
    <path d="M2,2 L14,2 C15.1045695,2 16,2.8954305 16,4 L16,12 C16,13.1045695 15.1045695,14 14,14 L2,14 C0.8954305,14 1.3527075e-16,13.1045695 0,12 L0,4 C-1.3527075e-16,2.8954305 0.8954305,2 2,2 Z M12.2282564,4.71376061 L8,7.25071443 L3.77174363,4.71376061 C3.06137323,4.28753837 2.13998285,4.51788597 1.71376061,5.22825637 C1.28753837,5.93862677 1.51788597,6.86001715 2.22825637,7.28623939 L7.22825637,10.2862394 C7.70327995,10.5712535 8.29672005,10.5712535 8.77174363,10.2862394 L13.7717436,7.28623939 C14.482114,6.86001715 14.7124616,5.93862677 14.2862394,5.22825637 C13.8600171,4.51788597 12.9386268,4.28753837 12.2282564,4.71376061 Z"></path>
  </symbol>

  <symbol id="pen" viewBox="0 0 16 16">
    <path d="M10.6479947,1.91918911 C10.590808,1.97637083 10.993178,1.57403592 11.8551047,0.7121844 C12.7170314,-0.149667123 13.4993703,-0.229290004 14.2021214,0.473315755 L15.6479947,1.91918911 C16.2316803,2.66895318 16.0894772,3.47788102 15.2213856,4.34597263 C14.353294,5.21406424 13.995497,5.5718612 14.1479947,5.41936351 L10.6479947,1.91918911 Z M2,10.4997733 L8.11519319,4.38476495 L9.5,3 L10.6428057,4.14280575 L13,6.5 L5.5,14 L2,10.4997733 Z M1,11.5 L4.5,15 C2.5,16 1.16666667,16.1666667 0.5,15.5 C-0.166666667,14.8333333 2.66453526e-15,13.5 1,11.5 Z"></path>
  </symbol>

  <symbol id="arrowLongLeftlight" viewBox="0 0 16 16">
    <path d="M3.43780694,9 L8,13.5 C8.39052429,13.8905243 8.39052429,14.5236893 8,14.9142136 C7.60947571,15.3047379 6.97631073,15.3047379 6.58578644,14.9142136 L0.292893219,8.70710678 C-0.0976310729,8.31658249 -0.0976310729,7.68341751 0.292893219,7.29289322 L6.58578644,1.08578644 C6.97631073,0.695262146 7.60947571,0.695262146 8,1.08578644 C8.39052429,1.47631073 8.39052429,2.10947571 8,2.5 L3.43780694,7 L15,7 C15.5522847,7 16,7.44771525 16,8 C16,8.55228475 15.5522847,9 15,9 L3.43780694,9 Z"></path>
  </symbol>

  <symbol id="arrowLongRightlight" viewBox="0 0 16 16">
    <g id="Combined-Shape" transform="translate(8.000000, 8.000000) rotate(-180.000000) translate(-8.000000, -8.000000) " >
      <path d="M3.39094182,9 L7.91421356,13.5857864 C8.30473785,13.9763107 8.30473785,14.6094757 7.91421356,15 C7.52368927,15.3905243 6.89052429,15.3905243 6.5,15 L0.292893219,8.70710678 C-0.0976310729,8.31658249 -0.0976310729,7.68341751 0.292893219,7.29289322 L6.5,1 C6.89052429,0.609475708 7.52368927,0.609475708 7.91421356,1 C8.30473785,1.39052429 8.30473785,2.02368927 7.91421356,2.41421356 L3.39094182,7 L15,7 C15.5522847,7 16,7.44771525 16,8 C16,8.55228475 15.5522847,9 15,9 L3.39094182,9 Z"></path>
    </g>
  </symbol>

  <symbol id="arrowLongToplight" viewBox="0 0 16 16">
    <g id="Combined-Shape" transform="translate(8.000000, 8.000000) rotate(-270.000000) translate(-8.000000, -8.000000) " >
      <path d="M3.39094182,9 L7.91421356,13.5857864 C8.30473785,13.9763107 8.30473785,14.6094757 7.91421356,15 C7.52368927,15.3905243 6.89052429,15.3905243 6.5,15 L0.292893219,8.70710678 C-0.0976310729,8.31658249 -0.0976310729,7.68341751 0.292893219,7.29289322 L6.5,1 C6.89052429,0.609475708 7.52368927,0.609475708 7.91421356,1 C8.30473785,1.39052429 8.30473785,2.02368927 7.91421356,2.41421356 L3.39094182,7 L15,7 C15.5522847,7 16,7.44771525 16,8 C16,8.55228475 15.5522847,9 15,9 L3.39094182,9 Z"></path>
    </g>
  </symbol>

  <symbol id="arrowLongBottomlight" viewBox="0 0 16 16">
    <g id="Combined-Shape" transform="translate(8.000000, 8.000000) rotate(-90.000000) translate(-8.000000, -8.000000) " >
      <path d="M3.39094182,9 L7.91421356,13.5857864 C8.30473785,13.9763107 8.30473785,14.6094757 7.91421356,15 C7.52368927,15.3905243 6.89052429,15.3905243 6.5,15 L0.292893219,8.70710678 C-0.0976310729,8.31658249 -0.0976310729,7.68341751 0.292893219,7.29289322 L6.5,1 C6.89052429,0.609475708 7.52368927,0.609475708 7.91421356,1 C8.30473785,1.39052429 8.30473785,2.02368927 7.91421356,2.41421356 L3.39094182,7 L15,7 C15.5522847,7 16,7.44771525 16,8 C16,8.55228475 15.5522847,9 15,9 L3.39094182,9 Z"></path>
    </g>
  </symbol>

  <symbol id="arrowShortLeftlight" viewBox="0 0 16 16">
    <g fill-rule="nonzero" transform="translate(7.000014, 8.000014) rotate(-270.000000) translate(-7.000014, -8.000014)">
      <path d="M7.0000137,10.4814283 L0.752590396,3.34151594 C0.388908344,2.92587931 -0.242854275,2.88376181 -0.658490906,3.24744386 C-1.07412754,3.61112591 -1.11624505,4.24288853 -0.752562993,4.65852516 L6.24743701,12.6585252 C6.6458483,13.1138524 7.35417911,13.1138524 7.7525904,12.6585252 L14.7525904,4.65852516 C15.1162724,4.24288853 15.0741549,3.61112591 14.6585183,3.24744386 C14.2428817,2.88376181 13.6111191,2.92587931 13.247437,3.34151594 L7.0000137,10.4814283 Z"></path>
    </g>
  </symbol>


  <symbol id="arrowShortRightlight" viewBox="0 0 16 16">
    <g fill-rule="nonzero" transform="translate(7.000014, 8.000014) rotate(-90.000000) translate(-7.000014, -8.000014)">
      <path d="M7.0000137,10.4814283 L0.752590396,3.34151594 C0.388908344,2.92587931 -0.242854275,2.88376181 -0.658490906,3.24744386 C-1.07412754,3.61112591 -1.11624505,4.24288853 -0.752562993,4.65852516 L6.24743701,12.6585252 C6.6458483,13.1138524 7.35417911,13.1138524 7.7525904,12.6585252 L14.7525904,4.65852516 C15.1162724,4.24288853 15.0741549,3.61112591 14.6585183,3.24744386 C14.2428817,2.88376181 13.6111191,2.92587931 13.247437,3.34151594 L7.0000137,10.4814283 Z"></path>
    </g>
  </symbol>

  <symbol id="arrowShortBottomlight" viewBox="0 0 16 16">
    <path d="M8,10.4814077 L1.75257669,3.34149539 C1.38889464,2.92585876 0.757132024,2.88374125 0.341495392,3.24742331 C-0.0741412394,3.61110536 -0.116258747,4.24286798 0.247423305,4.65850461 L7.24742331,12.6585046 C7.6458346,13.1138318 8.3541654,13.1138318 8.75257669,12.6585046 L15.7525767,4.65850461 C16.1162587,4.24286798 16.0741412,3.61110536 15.6585046,3.24742331 C15.242868,2.88374125 14.6111054,2.92585876 14.2474233,3.34149539 L8,10.4814077 Z"></path>
  </symbol>

  <symbol id="arrowShortToplight" viewBox="0 0 16 16">
    <g transform="translate(8.000014, 8.000014) rotate(-180.000000) translate(-8.000014, -8.000014)">
      <path d="M8.0000137,10.4814077 L1.7525904,3.34149539 C1.38890834,2.92585876 0.757145725,2.88374125 0.341509094,3.24742331 C-0.0741275376,3.61110536 -0.116245046,4.24286798 0.247437007,4.65850461 L7.24743701,12.6585046 C7.6458483,13.1138318 8.35417911,13.1138318 8.7525904,12.6585046 L15.7525904,4.65850461 C16.1162724,4.24286798 16.0741549,3.61110536 15.6585183,3.24742331 C15.2428817,2.88374125 14.6111191,2.92585876 14.247437,3.34149539 L8.0000137,10.4814077 Z"></path>
    </g>
  </symbol>

  <symbol id="menulight" viewBox="0 0 16 16">
    <path d="M1,12 L15,12 C15.5522847,12 16,12.4477153 16,13 L16,13 C16,13.5522847 15.5522847,14 15,14 L1,14 C0.44771525,14 6.76353751e-17,13.5522847 0,13 L0,13 C-6.76353751e-17,12.4477153 0.44771525,12 1,12 Z M1,2 L15,2 C15.5522847,2 16,2.44771525 16,3 C16,3.55228475 15.5522847,4 15,4 L1,4 C0.44771525,4 6.76353751e-17,3.55228475 0,3 C-6.76353751e-17,2.44771525 0.44771525,2 1,2 Z M1,7 L11,7 C11.5522847,7 12,7.44771525 12,8 C12,8.55228475 11.5522847,9 11,9 L1,9 C0.44771525,9 6.76353751e-17,8.55228475 0,8 C-6.76353751e-17,7.44771525 0.44771525,7 1,7 Z"></path>
  </symbol>

  <symbol id="searchlight" viewBox="0 0 16 16">
    <path d="M10.3805734,11.7150115 C9.29756226,12.5222107 7.95457797,13 6.5,13 C2.91014913,13 0,10.0898509 0,6.5 C0,2.91014913 2.91014913,0 6.5,0 C10.0898509,0 13,2.91014913 13,6.5 C13,7.91354312 12.5487881,9.22170004 11.782537,10.2882981 L15.7071068,14.2928932 C16.0976311,14.6834175 16.0976311,15.3165825 15.7071068,15.7071068 C15.3165825,16.0976311 14.6834175,16.0976311 14.2928932,15.7071068 L10.3805734,11.7150115 Z M6.5,11 C8.98528137,11 11,8.98528137 11,6.5 C11,4.01471863 8.98528137,2 6.5,2 C4.01471863,2 2,4.01471863 2,6.5 C2,8.98528137 4.01471863,11 6.5,11 Z"></path>
  </symbol>

  <symbol id="filterlight" viewBox="0 0 16 16">
    <path d="M2.16590157,3.01369835 C2.57384536,1.84135601 3.68866807,1 5,1 C6.31133193,1 7.42615464,1.84135601 7.83409843,3.01369835 C7.88805868,3.0046887 7.94348179,3 8,3 L15,3 C15.5522847,3 16,3.44771525 16,4 C16,4.55228475 15.5522847,5 15,5 L8,5 C7.94348179,5 7.88805868,4.9953113 7.83409843,4.98630165 C7.42615464,6.15864399 6.31133193,7 5,7 C3.68866807,7 2.57384536,6.15864399 2.16590157,4.98630165 C2.11194132,4.9953113 2.05651821,5 2,5 L1,5 C0.44771525,5 6.76353751e-17,4.55228475 0,4 C-6.76353751e-17,3.44771525 0.44771525,3 1,3 L2,3 C2.05651821,3 2.11194132,3.0046887 2.16590157,3.01369835 Z M8.16590157,11.0136984 C8.57384536,9.84135601 9.68866807,9 11,9 C12.3113319,9 13.4261546,9.84135601 13.8340984,11.0136984 C13.8880587,11.0046887 13.9434818,11 14,11 L15,11 C15.5522847,11 16,11.4477153 16,12 C16,12.5522847 15.5522847,13 15,13 L14,13 C13.9434818,13 13.8880587,12.9953113 13.8340984,12.9863016 C13.4261546,14.158644 12.3113319,15 11,15 C9.68866807,15 8.57384536,14.158644 8.16590157,12.9863016 C8.11194132,12.9953113 8.05651821,13 8,13 L1,13 C0.44771525,13 6.76353751e-17,12.5522847 0,12 C-6.76353751e-17,11.4477153 0.44771525,11 1,11 L8,11 C8.05651821,11 8.11194132,11.0046887 8.16590157,11.0136984 Z M11,13 C11.5522847,13 12,12.5522847 12,12 C12,11.4477153 11.5522847,11 11,11 C10.4477153,11 10,11.4477153 10,12 C10,12.5522847 10.4477153,13 11,13 Z M5,5 C5.55228475,5 6,4.55228475 6,4 C6,3.44771525 5.55228475,3 5,3 C4.44771525,3 4,3.44771525 4,4 C4,4.55228475 4.44771525,5 5,5 Z"></path>
  </symbol>

  <symbol id="minuslight" viewBox="0 0 16 16">
    <rect y="7" width="16" height="2" rx="1"></rect>
  </symbol>

  <symbol id="pluslight" viewBox="0 0 16 16">
    <path d="M9,9 L9,15 C9,15.5522847 8.55228475,16 8,16 C7.44771525,16 7,15.5522847 7,15 L7,9 L1,9 C0.44771525,9 0,8.55228475 0,8 C0,7.44771525 0.44771525,7 1,7 L7,7 L7,1 C7,0.44771525 7.44771525,-7.86725357e-16 8,-8.8817842e-16 C8.55228475,-9.89631482e-16 9,0.44771525 9,1 L9,7 L15,7 C15.5522847,7 16,7.44771525 16,8 C16,8.55228475 15.5522847,9 15,9 L9,9 Z"></path>
  </symbol>

  <symbol id="listlight" viewBox="0 0 16 16">
    <path d="M1,2 C1.55228475,2 2,2.44771525 2,3 C2,3.55228475 1.55228475,4 1,4 C0.44771525,4 6.76353751e-17,3.55228475 0,3 C-6.76353751e-17,2.44771525 0.44771525,2 1,2 Z M5,2 L15,2 C15.5522847,2 16,2.44771525 16,3 C16,3.55228475 15.5522847,4 15,4 L5,4 C4.44771525,4 4,3.55228475 4,3 C4,2.44771525 4.44771525,2 5,2 Z M5,7 L15,7 C15.5522847,7 16,7.44771525 16,8 C16,8.55228475 15.5522847,9 15,9 L5,9 C4.44771525,9 4,8.55228475 4,8 C4,7.44771525 4.44771525,7 5,7 Z M1,7 C1.55228475,7 2,7.44771525 2,8 C2,8.55228475 1.55228475,9 1,9 C0.44771525,9 6.76353751e-17,8.55228475 0,8 C-6.76353751e-17,7.44771525 0.44771525,7 1,7 Z M5,12 L15,12 C15.5522847,12 16,12.4477153 16,13 C16,13.5522847 15.5522847,14 15,14 L5,14 C4.44771525,14 4,13.5522847 4,13 C4,12.4477153 4.44771525,12 5,12 Z M1,12 C1.55228475,12 2,12.4477153 2,13 C2,13.5522847 1.55228475,14 1,14 C0.44771525,14 6.76353751e-17,13.5522847 0,13 C-6.76353751e-17,12.4477153 0.44771525,12 1,12 Z"></path>
  </symbol>

  <symbol id="listNumlight" viewBox="0 0 17 15">
    <path d="M5,2 L15,2 C15.5522847,2 16,2.44771525 16,3 C16,3.55228475 15.5522847,4 15,4 L5,4 C4.44771525,4 4,3.55228475 4,3 C4,2.44771525 4.44771525,2 5,2 Z M5,7 L15,7 C15.5522847,7 16,7.44771525 16,8 C16,8.55228475 15.5522847,9 15,9 L5,9 C4.44771525,9 4,8.55228475 4,8 C4,7.44771525 4.44771525,7 5,7 Z M5,12 L15,12 C15.5522847,12 16,12.4477153 16,13 C16,13.5522847 15.5522847,14 15,14 L5,14 C4.44771525,14 4,13.5522847 4,13 C4,12.4477153 4.44771525,12 5,12 Z M2.0335,5 L0.9665,5 L0.9665,2.2665 C0.871166667,2.3325 0.7685,2.40308333 0.6585,2.47825 C0.5485,2.55341667 0.462333333,2.613 0.4,2.657 L0.4,1.667 L1.115,1.172 L2.0335,1.172 L2.0335,5 Z M2.6895,10 L0,10 L0,9.329 L1.4905,7.613 C1.51616667,7.58366667 1.54275,7.53966667 1.57025,7.481 C1.59775,7.42233333 1.6115,7.36366667 1.6115,7.305 C1.6115,7.11433333 1.52716667,7.019 1.3585,7.019 C1.28883333,7.019 1.22833333,7.05108333 1.177,7.11525 C1.12566667,7.17941667 1.08716667,7.294 1.0615,7.459 L0.0275,7.2775 C0.0568333333,7.10516667 0.111833333,6.94933333 0.1925,6.81 C0.273166667,6.67066667 0.372166667,6.5515 0.4895,6.4525 C0.606833333,6.3535 0.73975,6.27741667 0.88825,6.22425 C1.03675,6.17108333 1.19533333,6.1445 1.364,6.1445 C1.562,6.1445 1.74258333,6.16741667 1.90575,6.21325 C2.06891667,6.25908333 2.20916667,6.32783333 2.3265,6.4195 C2.44383333,6.51116667 2.53458333,6.62575 2.59875,6.76325 C2.66291667,6.90075 2.695,7.06116667 2.695,7.2445 C2.695,7.3765 2.66841667,7.51125 2.61525,7.64875 C2.56208333,7.78625 2.48783333,7.90816667 2.3925,8.0145 L1.3585,9.197 L2.6895,9.197 L2.6895,10 Z M1.3805,15.0275 C1.23016667,15.0275 1.08166667,15.0119167 0.935,14.98075 C0.788333333,14.9495833 0.65175,14.8945833 0.52525,14.81575 C0.39875,14.7369167 0.28875,14.6315 0.19525,14.4995 C0.10175,14.3675 0.0366666667,14.2006667 0,13.999 L1.034,13.856 C1.056,13.9843333 1.09541667,14.0686667 1.15225,14.109 C1.20908333,14.1493333 1.27416667,14.1695 1.3475,14.1695 C1.43183333,14.1695 1.50516667,14.1429167 1.5675,14.08975 C1.62983333,14.0365833 1.661,13.944 1.661,13.812 C1.661,13.6836667 1.62616667,13.58375 1.5565,13.51225 C1.48683333,13.44075 1.38783333,13.405 1.2595,13.405 L0.9185,13.405 L0.9185,12.668 L1.2705,12.668 C1.39883333,12.668 1.49325,12.63225 1.55375,12.56075 C1.61425,12.48925 1.6445,12.4058333 1.6445,12.3105 C1.6445,12.2078333 1.62066667,12.1335833 1.573,12.08775 C1.52533333,12.0419167 1.46116667,12.019 1.3805,12.019 C1.35483333,12.019 1.32825,12.0226667 1.30075,12.03 C1.27325,12.0373333 1.24575,12.0529167 1.21825,12.07675 C1.19075,12.1005833 1.16508333,12.1363333 1.14125,12.184 C1.11741667,12.2316667 1.09633333,12.294 1.078,12.371 L0.044,12.184 C0.077,12.019 0.1375,11.8714167 0.2255,11.74125 C0.3135,11.6110833 0.419833333,11.502 0.5445,11.414 C0.669166667,11.326 0.810333333,11.2590833 0.968,11.21325 C1.12566667,11.1674167 1.2925,11.1445 1.4685,11.1445 C1.6995,11.1445 1.89658333,11.17475 2.05975,11.23525 C2.22291667,11.29575 2.35675,11.3773333 2.46125,11.48 C2.56575,11.5826667 2.64275,11.7018333 2.69225,11.8375 C2.74175,11.9731667 2.7665,12.1143333 2.7665,12.261 C2.7665,12.316 2.75733333,12.3783333 2.739,12.448 C2.72066667,12.5176667 2.69225,12.5873333 2.65375,12.657 C2.61525,12.7266667 2.56575,12.7926667 2.50525,12.855 C2.44475,12.9173333 2.37233333,12.9668333 2.288,13.0035 L2.2825,13.031 C2.37783333,13.0713333 2.4585,13.1235833 2.5245,13.18775 C2.5905,13.2519167 2.64275,13.31975 2.68125,13.39125 C2.71975,13.46275 2.74725,13.5360833 2.76375,13.61125 C2.78025,13.6864167 2.7885,13.757 2.7885,13.823 C2.7885,13.999 2.75825,14.16125 2.69775,14.30975 C2.63725,14.45825 2.54833333,14.5856667 2.431,14.692 C2.31366667,14.7983333 2.167,14.8808333 1.991,14.9395 C1.815,14.9981667 1.6115,15.0275 1.3805,15.0275 Z"></path>
  </symbol>

  <symbol id="newWindowlight" viewBox="0 0 16 16">
    <g id="Combined-Shape" transform="translate(8.000000, 8.000000) rotate(-225.000000) translate(-8.000000, -8.000000) " >
      <path d="M3.39094182,9 L7.91421356,13.5857864 C8.30473785,13.9763107 8.30473785,14.6094757 7.91421356,15 C7.52368927,15.3905243 6.89052429,15.3905243 6.5,15 L0.292893219,8.70710678 C-0.0976310729,8.31658249 -0.0976310729,7.68341751 0.292893219,7.29289322 L6.5,1 C6.89052429,0.609475708 7.52368927,0.609475708 7.91421356,1 C8.30473785,1.39052429 8.30473785,2.02368927 7.91421356,2.41421356 L3.39094182,7 L15,7 C15.5522847,7 16,7.44771525 16,8 C16,8.55228475 15.5522847,9 15,9 L3.39094182,9 Z"></path>
    </g>
  </symbol>

  <symbol id="minusInCirclelight" viewBox="0 0 16 16">
    <path d="M12,8 C12,8.55228475 11.5522847,9 11,9 L5,9 C4.44771525,9 4,8.55228475 4,8 C4,7.44771525 4.44771525,7 5,7 L11,7 C11.5522847,7 12,7.44771525 12,8 Z M8,16 C3.581722,16 0,12.418278 0,8 C0,3.581722 3.581722,-8.8817842e-16 8,-8.8817842e-16 C12.418278,-8.8817842e-16 16,3.581722 16,8 C16,12.418278 12.418278,16 8,16 Z M8,14 C11.3137085,14 14,11.3137085 14,8 C14,4.6862915 11.3137085,2 8,2 C4.6862915,2 2,4.6862915 2,8 C2,11.3137085 4.6862915,14 8,14 Z"></path>
  </symbol>

  <symbol id="plusInCirclelight" viewBox="0 0 16 16">
    <path d="M9,9 L9,11 C9,11.5522847 8.55228475,12 8,12 C7.44771525,12 7,11.5522847 7,11 L7,9 L5,9 C4.44771525,9 4,8.55228475 4,8 C4,7.44771525 4.44771525,7 5,7 L7,7 L7,5 C7,4.44771525 7.44771525,4 8,4 C8.55228475,4 9,4.44771525 9,5 L9,7 L11,7 C11.5522847,7 12,7.44771525 12,8 C12,8.55228475 11.5522847,9 11,9 L9,9 Z M8,16 C3.581722,16 0,12.418278 0,8 C0,3.581722 3.581722,-8.8817842e-16 8,-8.8817842e-16 C12.418278,-8.8817842e-16 16,3.581722 16,8 C16,12.418278 12.418278,16 8,16 Z M8,14 C11.3137085,14 14,11.3137085 14,8 C14,4.6862915 11.3137085,2 8,2 C4.6862915,2 2,4.6862915 2,8 C2,11.3137085 4.6862915,14 8,14 Z"></path>
  </symbol>

  <symbol id="markAsReadlight" viewBox="0 0 16 16">
    <path d="M1,12 L15,12 C15.5522847,12 16,12.4477153 16,13 C16,13.5522847 15.5522847,14 15,14 L1,14 C0.44771525,14 -4.33869274e-17,13.5522847 -1.11022302e-16,13 C-1.78657678e-16,12.4477153 0.44771525,12 1,12 Z M11,2 L15,2 C15.5522847,2 16,2.44771525 16,3 C16,3.55228475 15.5522847,4 15,4 L11,4 C10.4477153,4 10,3.55228475 10,3 C10,2.44771525 10.4477153,2 11,2 Z M7,7 L15,7 C15.5522847,7 16,7.44771525 16,8 C16,8.55228475 15.5522847,9 15,9 L7,9 C6.44771525,9 6,8.55228475 6,8 C6,7.44771525 6.44771525,7 7,7 Z M2.91708111,4.50286755 L6.21913119,0.375304952 C6.56414074,-0.0559569826 7.19343311,-0.125878358 7.62469505,0.219131191 C8.05595698,0.564140739 8.12587836,1.19343311 7.78086881,1.62469505 L3.78086881,6.62469505 C3.4085435,7.09010168 2.71433685,7.12855041 2.29289322,6.70710678 L0.292893219,4.70710678 C-0.0976310729,4.31658249 -0.0976310729,3.68341751 0.292893219,3.29289322 C0.683417511,2.90236893 1.31658249,2.90236893 1.70710678,3.29289322 L2.91708111,4.50286755 Z" id="Combined-Shape"></path>
  </symbol>

  <symbol id="doubleArrowlight" viewBox="0 0 16 16">
    <g transform="translate(8.000000, 8.000000) rotate(-270.000000) translate(-8.000000, -8.000000)">
      <path d="M3.70710678,1.29289322 L8,5.58578644 L12.2928932,1.29289322 C12.6834175,0.902368927 13.3165825,0.902368927 13.7071068,1.29289322 C14.0976311,1.68341751 14.0976311,2.31658249 13.7071068,2.70710678 L8.70710678,7.70710678 C8.31658249,8.09763107 7.68341751,8.09763107 7.29289322,7.70710678 L2.29289322,2.70710678 C1.90236893,2.31658249 1.90236893,1.68341751 2.29289322,1.29289322 C2.68341751,0.902368927 3.31658249,0.902368927 3.70710678,1.29289322 Z M3.70710678,8.29289322 L8,12.5857864 L12.2928932,8.29289322 C12.6834175,7.90236893 13.3165825,7.90236893 13.7071068,8.29289322 C14.0976311,8.68341751 14.0976311,9.31658249 13.7071068,9.70710678 L8.70710678,14.7071068 C8.31658249,15.0976311 7.68341751,15.0976311 7.29289322,14.7071068 L2.29289322,9.70710678 C1.90236893,9.31658249 1.90236893,8.68341751 2.29289322,8.29289322 C2.68341751,7.90236893 3.31658249,7.90236893 3.70710678,8.29289322 Z"></path>
  </g>
  </symbol>

  <symbol id="closelight" viewBox="0 0 16 16">
    <path d="M0.209704612,0.387100557 L0.292893219,0.292893219 C0.65337718,-0.0675907428 1.22060824,-0.0953202783 1.61289944,0.209704612 L1.70710678,0.292893219 L8,6.585 L14.2928932,0.292893219 C14.6533772,-0.0675907428 15.2206082,-0.0953202783 15.6128994,0.209704612 L15.7071068,0.292893219 C16.0675907,0.65337718 16.0953203,1.22060824 15.7902954,1.61289944 L15.7071068,1.70710678 L9.415,8 L15.7071068,14.2928932 C16.0675907,14.6533772 16.0953203,15.2206082 15.7902954,15.6128994 L15.7071068,15.7071068 C15.3466228,16.0675907 14.7793918,16.0953203 14.3871006,15.7902954 L14.2928932,15.7071068 L8,9.415 L1.70710678,15.7071068 C1.34662282,16.0675907 0.779391764,16.0953203 0.387100557,15.7902954 L0.292893219,15.7071068 C-0.0675907428,15.3466228 -0.0953202783,14.7793918 0.209704612,14.3871006 L0.292893219,14.2928932 L6.585,8 L0.292893219,1.70710678 C-0.0675907428,1.34662282 -0.0953202783,0.779391764 0.209704612,0.387100557 L0.292893219,0.292893219 L0.209704612,0.387100557 Z"></path>
  </symbol>

  <symbol id="attentionStraight" viewBox="0 0 16 16">
    <path d="M8,0 C9.1045695,-2.02906125e-16 10,0.8954305 10,2 L10,8 C10,9.1045695 9.1045695,10 8,10 C6.8954305,10 6,9.1045695 6,8 L6,2 C6,0.8954305 6.8954305,2.02906125e-16 8,0 Z M8,12 C9.1045695,12 10,12.8954305 10,14 C10,15.1045695 9.1045695,16 8,16 C6.8954305,16 6,15.1045695 6,14 C6,12.8954305 6.8954305,12 8,12 Z"></path>
  </symbol>

  <symbol id="closeStraight" viewBox="0 0 16 16">
    <path d="M0.468953686,0.713001205 L0.585786438,0.585786438 C1.3257272,-0.154154326 2.50121136,-0.193098576 3.28699879,0.468953686 L3.41421356,0.585786438 L8,5.171 L12.5857864,0.585786438 C13.3257272,-0.154154326 14.5012114,-0.193098576 15.2869988,0.468953686 L15.4142136,0.585786438 C16.1541543,1.3257272 16.1930986,2.50121136 15.5310463,3.28699879 L15.4142136,3.41421356 L10.829,8 L15.4142136,12.5857864 C16.1541543,13.3257272 16.1930986,14.5012114 15.5310463,15.2869988 L15.4142136,15.4142136 C14.6742728,16.1541543 13.4987886,16.1930986 12.7130012,15.5310463 L12.5857864,15.4142136 L8,10.829 L3.41421356,15.4142136 C2.6742728,16.1541543 1.49878864,16.1930986 0.713001205,15.5310463 L0.585786438,15.4142136 C-0.154154326,14.6742728 -0.193098576,13.4987886 0.468953686,12.7130012 L0.585786438,12.5857864 L5.171,8 L0.585786438,3.41421356 C-0.154154326,2.6742728 -0.193098576,1.49878864 0.468953686,0.713001205 L0.585786438,0.585786438 L0.468953686,0.713001205 Z"></path>
  </symbol>

  <symbol id="checkStraight" viewBox="0 0 16 16">
    <path d="M5.83416222,10.0057351 L3.41421356,7.58578644 C2.63316498,6.80473785 1.36683502,6.80473785 0.585786438,7.58578644 C-0.195262146,8.36683502 -0.195262146,9.63316498 0.585786438,10.4142136 L4.58578644,14.4142136 C5.4286737,15.2571008 6.81708701,15.1802034 7.56173762,14.2493901 L15.5617376,4.2493901 C16.2517567,3.38686622 16.111914,2.12828148 15.2493901,1.43826238 C14.3868662,0.748243285 13.1282815,0.888086035 12.4382624,1.7506099 L5.83416222,10.0057351 Z"></path>
  </symbol>

  <symbol id="kebab" viewBox="0 0 16 16">
    <path d="M8,10 C6.8954305,10 6,9.1045695 6,8 C6,6.8954305 6.8954305,6 8,6 C9.1045695,6 10,6.8954305 10,8 C10,9.1045695 9.1045695,10 8,10 Z M8,4 C6.8954305,4 6,3.1045695 6,2 C6,0.8954305 6.8954305,0 8,0 C9.1045695,0 10,0.8954305 10,2 C10,3.1045695 9.1045695,4 8,4 Z M8,16 C6.8954305,16 6,15.1045695 6,14 C6,12.8954305 6.8954305,12 8,12 C9.1045695,12 10,12.8954305 10,14 C10,15.1045695 9.1045695,16 8,16 Z" id="Combined-Shape"></path>
  </symbol>

  <symbol id="sort" viewBox="0 0 16 16">
    <path d="M8.3904344,1.48804301 L11.350122,5.18765248 C11.5226268,5.40328344 11.4876661,5.71792963 11.2720351,5.8904344 C11.1833786,5.96135962 11.0732233,6 10.9596876,6 L5.04031242,6 C4.76417005,6 4.54031242,5.77614237 4.54031242,5.5 C4.54031242,5.38646425 4.5789528,5.276309 4.64987802,5.18765248 L7.6095656,1.48804301 C7.78207037,1.27241204 8.09671656,1.23745135 8.31234752,1.40995612 C8.34117988,1.43302201 8.36736852,1.45921065 8.3904344,1.48804301 Z M7.6095656,14.511957 L4.64987802,10.8123475 C4.47737324,10.5967166 4.51233393,10.2820704 4.7279649,10.1095656 C4.81662142,10.0386404 4.92677668,10 5.04031242,10 L10.9596876,10 C11.23583,10 11.4596876,10.2238576 11.4596876,10.5 C11.4596876,10.6135357 11.4210472,10.723691 11.350122,10.8123475 L8.3904344,14.511957 C8.21792963,14.727588 7.90328344,14.7625486 7.68765248,14.5900439 C7.65882012,14.566978 7.63263148,14.5407893 7.6095656,14.511957 Z"></path>
  </symbol>

  <symbol id="sortUp" viewBox="0 0 8 6">
    <g id="Icon-/-Sort" transform="translate(0.000000, -1.000000)">
      <path d="M4.38369042,1.97198516 L7.31434424,5.47940433 C7.4914044,5.6913107 7.46315597,6.00663038 7.2512496,6.18369054 C7.16131746,6.25883411 7.04784744,6.30000012 6.93065381,6.30000012 L1.06934619,6.30000012 C0.793203813,6.30000012 0.569346187,6.07614249 0.569346187,5.80000012 C0.569346187,5.6828065 0.6105122,5.56933647 0.685655763,5.47940433 L3.61630958,1.97198516 C3.79336974,1.76007879 4.10868942,1.73183036 4.32059579,1.90889052 C4.34346568,1.92799966 4.36458129,1.94911526 4.38369042,1.97198516 Z"></path>
    </g>
  </symbol>

  <symbol id="sortDown" viewBox="0 0 8 6">
    <g id="Icon-/-Sort" transform="translate(0.000000, -1.000000)">
      <path d="M4.3904344,2.08804301 L7.35012198,5.78765248 C7.52262676,6.00328344 7.48766607,6.31792963 7.2720351,6.4904344 C7.18337858,6.56135962 7.07322332,6.6 6.95968758,6.6 L1.04031242,6.6 C0.764170049,6.6 0.540312424,6.37614237 0.540312424,6.1 C0.540312424,5.98646425 0.5789528,5.876309 0.649878019,5.78765248 L3.6095656,2.08804301 C3.78207037,1.87241204 4.09671656,1.83745135 4.31234752,2.00995612 C4.34117988,2.03302201 4.36736852,2.05921065 4.3904344,2.08804301 Z" transform="translate(4.000000, 4.100000) rotate(-180.000000) translate(-4.000000, -4.100000) "></path>
    </g>
  </symbol>

  <symbol id="eye" viewBox="0 0 16 16">
    <path d="M8,14 C3,14 0,9 0,8 C0,7 3,2 8,2 C13,2 16,7 16,8 C16,9 13,14 8,14 Z M8,12 C10.209139,12 12,10.209139 12,8 C12,5.790861 10.209139,4 8,4 C5.790861,4 4,5.790861 4,8 C4,10.209139 5.790861,12 8,12 Z M8,10 C6.8954305,10 6,9.1045695 6,8 C6,6.8954305 6.8954305,6 8,6 C9.1045695,6 10,6.8954305 10,8 C10,9.1045695 9.1045695,10 8,10 Z"></path>
  </symbol>

  <symbol id="checkStraightlight" viewBox="0 0 16 16">
    <path d="M5.95870392,12.3883948 L1.76822128,7.3598156 C1.4146572,6.9355387 0.784092498,6.87821464 0.3598156,7.23177872 C-0.0644612969,7.5853428 -0.121785361,8.2159075 0.23177872,8.6401844 L5.23177872,14.6401844 C5.64498738,15.1360348 6.41272847,15.116362 6.8,14.6 L15.8,2.6 C16.1313708,2.1581722 16.0418278,1.53137085 15.6,1.2 C15.1581722,0.86862915 14.5313708,0.9581722 14.2,1.4 L5.95870392,12.3883948 Z"></path>
  </symbol>

  <symbol id="arrowTopOverlinelight" viewBox="0 0 12 16">
    <g transform="translate(6.000000, 8.000000) rotate(-270.000000) translate(-8.000000, -8.000000)">
      <path d="M7.37835713,7 L15,7 C15.5522848,7 16,7.44771525 16,8 C16,8.55228475 15.5522848,9 15,9 L7.37835713,9 L9.91421356,11.5857864 C10.3047379,11.9763107 10.3047379,12.6094757 9.91421356,13 C9.52368927,13.3905243 8.89052429,13.3905243 8.5,13 L4.29,8.70710678 C3.89947571,8.31658249 3.89947571,7.68341751 4.29,7.29289322 L8.5,3 C8.89052429,2.60947571 9.52368927,2.60947571 9.91421356,3 C10.3047379,3.39052429 10.3047379,4.02368927 9.91421356,4.41421356 L7.37835713,7 Z M2,3 L2,13 C2,13.5522847 1.55228475,14 0.999999999,14 C0.447715249,14 -1.3879764e-09,13.5522847 -1.3879764e-09,13 L-1.38797418e-09,3 C-1.38797418e-09,2.44771525 0.447715249,2 0.999999999,2 C1.55228475,2 2,2.44771525 2,3 Z"></path>
    </g>
  </symbol>

  <symbol id="arrowBottomOverlinelight" viewBox="0 0 12 16">
    <g transform="translate(6.000000, 8.000000) rotate(-90.000000) translate(-8.000000, -8.000000)">
      <path d="M7.37835713,7 L15,7 C15.5522848,7 16,7.44771525 16,8 C16,8.55228475 15.5522848,9 15,9 L7.37835713,9 L9.91421356,11.5857864 C10.3047379,11.9763107 10.3047379,12.6094757 9.91421356,13 C9.52368927,13.3905243 8.89052429,13.3905243 8.5,13 L4.29,8.70710678 C3.89947571,8.31658249 3.89947571,7.68341751 4.29,7.29289322 L8.5,3 C8.89052429,2.60947571 9.52368927,2.60947571 9.91421356,3 C10.3047379,3.39052429 10.3047379,4.02368927 9.91421356,4.41421356 L7.37835713,7 Z M2,3 L2,13 C2,13.5522847 1.55228475,14 0.999999999,14 C0.447715249,14 -1.3879764e-09,13.5522847 -1.3879764e-09,13 L-1.38797418e-09,3 C-1.38797418e-09,2.44771525 0.447715249,2 0.999999999,2 C1.55228475,2 2,2.44771525 2,3 Z"></path>
    </g>
  </symbol>

  <symbol id="arrowRightOverlinelight" viewBox="0 0 12 16">
    <g transform="translate(6.000000, 8.000000) rotate(-180.000000) translate(-8.000000, -8.000000)">
      <path d="M7.37835713,7 L15,7 C15.5522848,7 16,7.44771525 16,8 C16,8.55228475 15.5522848,9 15,9 L7.37835713,9 L9.91421356,11.5857864 C10.3047379,11.9763107 10.3047379,12.6094757 9.91421356,13 C9.52368927,13.3905243 8.89052429,13.3905243 8.5,13 L4.29,8.70710678 C3.89947571,8.31658249 3.89947571,7.68341751 4.29,7.29289322 L8.5,3 C8.89052429,2.60947571 9.52368927,2.60947571 9.91421356,3 C10.3047379,3.39052429 10.3047379,4.02368927 9.91421356,4.41421356 L7.37835713,7 Z M2,3 L2,13 C2,13.5522847 1.55228475,14 0.999999999,14 C0.447715249,14 -1.3879764e-09,13.5522847 -1.3879764e-09,13 L-1.38797418e-09,3 C-1.38797418e-09,2.44771525 0.447715249,2 0.999999999,2 C1.55228475,2 2,2.44771525 2,3 Z"></path>
    </g>
  </symbol>

  <symbol id="arrowLeftOverlinelight" viewBox="0 0 12 16">
    <g transform="translate(6.000000, 8.000000) translate(-8.000000, -8.000000)">
      <path d="M7.37835713,7 L15,7 C15.5522848,7 16,7.44771525 16,8 C16,8.55228475 15.5522848,9 15,9 L7.37835713,9 L9.91421356,11.5857864 C10.3047379,11.9763107 10.3047379,12.6094757 9.91421356,13 C9.52368927,13.3905243 8.89052429,13.3905243 8.5,13 L4.29,8.70710678 C3.89947571,8.31658249 3.89947571,7.68341751 4.29,7.29289322 L8.5,3 C8.89052429,2.60947571 9.52368927,2.60947571 9.91421356,3 C10.3047379,3.39052429 10.3047379,4.02368927 9.91421356,4.41421356 L7.37835713,7 Z M2,3 L2,13 C2,13.5522847 1.55228475,14 0.999999999,14 C0.447715249,14 -1.3879764e-09,13.5522847 -1.3879764e-09,13 L-1.38797418e-09,3 C-1.38797418e-09,2.44771525 0.447715249,2 0.999999999,2 C1.55228475,2 2,2.44771525 2,3 Z"></path>
    </g>
  </symbol>

  <symbol id="img" viewBox="0 0 15 15">
    <path d="M3,1 L13,1 C14.1045695,1 15,1.8954305 15,3 L15,13 C15,14.1045695 14.1045695,15 13,15 L3,15 C1.8954305,15 1,14.1045695 1,13 L1,3 C1,1.8954305 1.8954305,1 3,1 Z M2.41578401,13.5010592 C2.13859467,13.8336864 2.16666667,14 2.5,14 L13.5,14 C13.8333333,14 13.8585879,13.827163 13.5757636,13.4814889 C13.3046212,13.1500926 10.0922806,9.22389854 9.79614031,8.86194927 C9.59871344,8.62064976 9.38595299,8.63033944 9.15785897,8.89101832 L6,12.5 C5.40005337,11.9000534 5.00006671,11.5000667 4.80004002,11.30004 C4.5,11 4.30976669,11.22828 4.21938337,11.33674 C4.12900005,11.4451999 2.66887648,13.1973482 2.41578401,13.5010592 Z M5,7 C6.1045695,7 7,6.1045695 7,5 C7,3.8954305 6.1045695,3 5,3 C3.8954305,3 3,3.8954305 3,5 C3,6.1045695 3.8954305,7 5,7 Z"></path>
  </symbol>

  <symbol id="link" viewBox="0 0 16 16">
    <path d="M6.53553391,15.1213203 C5.40580292,16.2510513 3.59921583,16.2913989 2.42113798,15.2423629 L2.29289322,15.1213203 L0.878679656,13.7071068 C-0.25105133,12.5773758 -0.291398866,10.7707887 0.757637051,9.59271086 L0.878679656,9.46446609 L4.76776695,5.5753788 C5.89749794,4.44564781 7.70408503,4.40530028 8.88216288,5.45433619 L9.01040764,5.5753788 L9.71751442,6.28248558 C10.1080387,6.67300987 10.1080387,7.30617485 9.71751442,7.69669914 C9.35488472,8.05932884 8.78303933,8.08523096 8.39052167,7.77440551 L8.30330086,7.69669914 L7.59619408,6.98959236 C7.23356438,6.62696266 6.66171898,6.60106054 6.26920133,6.911886 L6.18198052,6.98959236 L2.29289322,10.8786797 C1.93026352,11.2413094 1.9043614,11.8131547 2.21518685,12.2056724 L2.29289322,12.2928932 L3.70710678,13.7071068 C4.06973648,14.0697365 4.64158187,14.0956386 5.03409953,13.7848131 L5.12132034,13.7071068 L6.89189527,11.9365319 C7.28241956,11.5460076 7.91558454,11.5460076 8.30610883,11.9365319 C8.66873853,12.2991616 8.69464065,12.8710069 8.3838152,13.2635246 L8.30610883,13.3507454 L6.53553391,15.1213203 Z M9.46446609,0.878679656 C10.5941971,-0.25105133 12.4007842,-0.291398866 13.578862,0.757637051 L13.7071068,0.878679656 L15.1213203,2.29289322 C16.2510513,3.42262421 16.2913989,5.22921129 15.2423629,6.40728914 L15.1213203,6.53553391 L11.232233,10.4246212 C10.1025021,11.5543522 8.29591497,11.5946997 7.11783712,10.5456638 L6.98959236,10.4246212 L6.28248558,9.71751442 C5.89196129,9.32699013 5.89196129,8.69382515 6.28248558,8.30330086 C6.64511528,7.94067116 7.21696067,7.91476904 7.60947833,8.22559449 L7.69669914,8.30330086 L8.40380592,9.01040764 C8.76643562,9.37303734 9.33828102,9.39893946 9.73079867,9.088114 L9.81801948,9.01040764 L13.7071068,5.12132034 C14.0697365,4.75869064 14.0956386,4.18684525 13.7848131,3.79432759 L13.7071068,3.70710678 L12.2928932,2.29289322 C11.9302635,1.93026352 11.3584181,1.9043614 10.9659005,2.21518685 L10.8786797,2.29289322 L9.10810473,4.06346815 C8.71758044,4.45399244 8.08441546,4.45399244 7.69389117,4.06346815 C7.33126147,3.70083845 7.30535935,3.12899305 7.6161848,2.7364754 L7.69389117,2.64925458 L9.46446609,0.878679656 Z" ></path>
  </symbol>

  <symbol id="box" viewBox="0 0 20 20">
    <path d="M13.1386964,7.4841388 C12.6510281,7.73342564 11.8887811,8.08902266 11.2638235,8.39050707 C10.3590364,8.82698337 10.0698012,8.86418305 9.34053296,8.51202604 C8.61126469,8.15986902 2.81520066,5.37140308 1.74659724,4.84702329 C0.67799383,4.3226435 0.929177465,4.0108642 1.57538877,3.66439902 C2.22160007,3.31793384 2.9299438,3.02278812 3.47884614,2.75847482 C4.02774847,2.49416152 4.57433219,2.34183835 5.43956573,2.75847482 C6.30479927,3.17511129 11.9930068,5.90167578 12.869968,6.34486255 C13.7469293,6.78804931 13.6263647,7.23485195 13.1386964,7.4841388 Z M8.21645135,19.8749411 C7.51519991,19.5045899 1.56291075,16.6210054 0.973008597,16.3116143 C0.383106442,16.0022233 -0.00294474164,15.8613664 3.4037855e-05,14.2433738 C0.00301281735,12.6253812 0.0111105266,7.02603975 0.0058082031,6.445786 C-0.00294474164,5.48791743 0.306209488,5.21538477 0.845717749,5.48791743 C1.38522601,5.76045009 7.68650545,8.81678008 8.48032851,9.26472397 C9.12804642,9.63022265 9.42564654,9.63022265 9.42564654,11.3787576 C9.42564654,12.4565575 9.42564654,17.6486178 9.42564654,18.7617795 C9.42564654,19.8749411 8.91770279,20.2452924 8.21645135,19.8749411 Z M12.2526899,8.94104097 C13.1151126,8.47263443 13.7992068,8.19535433 14.3049727,8.10920065 C14.3049727,8.10920065 14.3630351,8.96353053 14.3630351,9.87285999 C14.3630351,10.7821894 14.2183634,11.7947135 15.0809776,11.4736172 C15.9435919,11.1525209 15.680221,10.5599927 15.680221,9.67332558 C15.680221,8.59860852 15.680221,7.42428966 15.680221,7.42428966 C16.7527281,6.86793616 17.6981311,6.41335807 18.51643,6.06055539 C19.7438785,5.53135138 20.0013985,6.45410009 19.999917,7.70240356 C19.9984356,8.95070702 19.9959431,13.5554558 19.9959431,14.3793774 C19.9959431,15.8274156 20.0013985,16.1273694 18.758176,16.7900489 C17.5149535,17.4527283 12.8618953,19.5362286 12.2914317,19.7472186 C11.3348855,20.1010039 10.6449208,20.4175689 10.6413605,18.6373826 C10.6393999,17.6570378 10.630997,14.4396268 10.6276302,11.9430019 C10.6242635,9.446377 10.9590559,9.64365077 12.2526899,8.94104097 Z M18.1386964,4.9841388 C17.6510281,5.23342564 16.8887811,5.58902266 16.2638235,5.89050707 C15.3590364,6.32698337 15.0698012,6.36418305 14.340533,6.01202604 C13.6112647,5.65986902 7.81520066,2.87140308 6.74659724,2.34702329 C5.67799383,1.8226435 5.92917747,1.5108642 6.57538877,1.16439902 C7.22160007,0.817933843 7.9299438,0.522788115 8.47884614,0.25847482 C9.02774847,-0.00583847508 9.57433219,-0.158161647 10.4395657,0.25847482 C11.3047993,0.675111287 16.9930068,3.40167578 17.869968,3.84486255 C18.7469293,4.28804931 18.6263647,4.73485195 18.1386964,4.9841388 Z" id="Combined-Shape-Copy" ></path>
  </symbol>

  <symbol id="coupon" viewBox="0 0 20 20">
    <path d="M12.9645 2.6985L11.5241 1.10285C11.5241 1.10285 10.948 0.464605 10.4681 0.895621C9.98818 1.32664 1.52566 8.63798 1.02983 9.37225C0.534003 10.1065 2.7105 12.1967 2.7105 12.1967C3.1424 11.7125 4.89642 10.4791 6.24146 11.9691C7.5865 13.4591 6.3077 14.7446 5.59126 15.388C5.59422 16.043 7.32874 17.7107 7.76776 17.4782C8.55168 17.0631 17.526 8.71425 17.8459 8.4269C18.1658 8.13956 17.8778 7.82043 17.8778 7.82043L16.1493 5.90567C15.472 6.22501 14.3063 7.81182 12.4053 6.1248C10.8509 4.74533 12.474 3.33167 12.9645 2.6985Z"/>
  </symbol>

  <symbol id="good" viewBox="0 0 80 80">
    <path d="M29.785 75.6183C29.6491 76.6158 28.8321 77.379 27.8315 77.4432L18.768 78.0246C17.6066 78.0991 16.6049 77.2141 16.5307 76.0479C16.4565 74.8817 17.3379 73.876 18.4993 73.8015L25.8429 73.3304L28.6039 53.0573C28.7499 51.9854 29.6776 51.1967 30.7546 51.229L49.2633 51.7843C50.3676 51.8174 51.2589 55.8917 51.3057 57L51.9215 71.5575L57.2348 76.3137C58.0986 77.0968 58.1666 78.4347 57.3867 79.302C56.6068 80.1694 55.2743 80.2377 54.4105 79.4546L48.4415 74.1039C48.0221 73.7237 47.7723 73.1902 47.7483 72.6233L47.1782 59.1459L32.5228 55.5156L29.785 75.6183Z" fill="#172029"/>
    <path fill-rule="evenodd" clip-rule="evenodd" d="M39.929 65.9784C17.7036 65.4213 6.869 53.6993 7.0012 29.7123C7.13339 5.728 23.7846 0 42.0359 0C60.2899 0 73.6169 8.43523 72.978 32.3831C72.339 56.331 62.1544 66.5355 39.929 65.9784Z" fill="#06C92E"/>
    <path fill-rule="evenodd" clip-rule="evenodd" d="M30.7325 33.6832C32.8732 35.3814 34.7445 38.0322 36.7265 35.3814C38.7086 32.7305 44.1949 25.3073 47.002 21.7959C49.8091 18.2845 52.5678 15.4277 55.5648 17.975C58.5619 20.5223 58.7269 22.3426 56.4211 26.0414C54.1154 29.7401 44.4403 41.675 40.29 46.2984C36.1397 50.9219 32.3186 48.5763 30.3044 46.8441C28.2902 45.112 25.5043 42.5173 24.7385 41.7496C23.3551 40.3625 20.4571 37.0796 23.0259 33.6832C25.5948 30.2868 29.0199 32.4096 30.7325 33.6832Z" fill="white"/>
  </symbol>


  <symbol id="warning" viewBox="0 0 80 80">
    <path d="M28.785 75.6183C28.6491 76.6158 27.8321 77.379 26.8315 77.4432L17.768 78.0245C16.6066 78.099 15.6049 77.214 15.5307 76.0479C15.4565 74.8817 16.3379 73.8759 17.4993 73.8014L24.8429 73.3304L27.6039 53.0572C27.7499 51.9853 28.6776 51.1967 29.7546 51.229L48.2633 51.7842C49.3676 51.8173 50.2589 55.8917 50.3057 56.9999L50.9215 71.5575L56.2348 76.3136C57.0986 77.0967 57.1666 78.4347 56.3867 79.302C55.6068 80.1694 54.2743 80.2376 53.4105 79.4545L47.4415 74.1039C47.0221 73.7237 46.7723 73.1902 46.7483 72.6233L46.1782 59.1458L31.5228 55.5156L28.785 75.6183Z" fill="#172029"/>
    <path fill-rule="evenodd" clip-rule="evenodd" d="M48.1438 7.57422C56.6142 18.4001 67.4031 36.8329 71.6726 44.3166C75.9421 51.8003 78.8881 61.7036 62.2611 62.6878C45.6341 63.6719 33.0854 64 19.2819 64C5.47835 64 2.34119 58.095 7.04694 47.2691C11.7527 36.4432 18.9682 20.6965 26.8111 9.21451C34.654 -2.26749 39.6735 -3.25166 48.1438 7.57422Z" fill="#FF8716"/>
    <path d="M44.3159 30.1328C45.3988 24.3509 46.0381 18.1379 39.4505 18.0025C33.736 17.885 33.6056 22.0064 33.4497 26.9299C33.4259 27.6822 33.4015 28.4532 33.3565 29.2306C33.3249 29.7773 33.2876 30.3263 33.2504 30.8725C32.8892 36.1876 32.5456 41.2445 37.6075 41.393C42.4334 41.5346 43.1196 37.3369 43.9166 32.4611C44.0415 31.6969 44.1692 30.9161 44.3159 30.1328Z" fill="white"/>
    <path d="M41.1154 50.0443C41.2904 48.4696 41.1552 46.8058 37.436 46.1805C33.7168 45.5551 33.0674 47.6217 33.0095 49.3447C32.9516 51.0677 33.0437 52.6615 36.6925 52.9638C40.3414 53.2662 40.9403 51.619 41.1154 50.0443Z" fill="white"/>
  </symbol>

</svg>
