<svg width="36" height="36" fill="none" xmlns="http://www.w3.org/2000/svg">
  <g clip-path="url(#clip0)" fill-rule="evenodd" clip-rule="evenodd">
    <path d="M2.281 16.132c.41.307 1.097.302 1.633.085l.047-.019c.115-.046.32-.129.597-.243 1.177 1.315 3.29 1.668 5.011.365 1.225-.927 1.556-2.083 1.328-3.216.464-.23.928-.466 1.387-.706.651-.343 1.28-.682 1.876-1.011 1.178.962 2.9 1.237 4.363.242 1.388-.944 1.702-2.394 1.244-3.621l.136-.095c.749-.517 1.534-1.06.404-3.516-1.23-2.652-1.961-2.462-2.903-2.113-.942.348-1.295.42-1.911.438-.572.015-1.2-.405-2.034-.963l-.163-.108c-.916-.612-1.553-.892-3.523-.143-1.97.748-5.404 2.815-5.875 3.114-.472.292-.737.562-.638 1.627.068.736.151 1.342.214 1.797.027.203.051.375.067.516.054.456-.187.917-.736 1.417-.08.073-.183.163-.302.267-.692.606-1.908 1.67-2.112 2.43-.24.893 1.481 3.15 1.89 3.456z" fill="#0073E6"/>
    <path d="M8.272 12.513c.6.493.88 1.225.294 1.97-.586.743-1.56.782-2.147.277-.588-.504-.744-1.433-.104-2.085.64-.651 1.357-.656 1.957-.162zm9.424-4.658c.73 1.074.264 2.547-.862 2.886-.815.246-1.725-.122-2.043-.762l-.018-.04c-.3-.63-.455-1.34.208-2.17.682-.844 1.978-.986 2.715.086zm-9.39-1.427c.272.545-1.91 1.718-2.318 1.66-.407-.057-1.095-1.966-.86-2.297.228-.33 1.08-.83 1.682-1.055.602-.226 1.224 1.147 1.496 1.692zm.527-2.439c-.253-.557 1.366-1.256 1.927-1.373.56-.124 2.308.605 2.32 1.17.01.557-2.142 1.88-2.644 1.839-.495-.043-1.342-1.073-1.603-1.636z" fill="#fff"/>
    <path d="M16.723 16.85c-.284-.676.066-1.28.696-1.694.63-.415 4.619-2.208 5.022-2.472.411-.264 1.32-.562.884-.922-.435-.36-.846-.208-1.03-.613-.185-.405.326-2.91.634-3.182.316-.279.653-.62 1.71-.364 1.058.256 4.138.659 4.887 1.187.75.528.968.807 1.422 1.432.464.618-1.636 1.694.116 4.133s2.265.524 2.959 1.255c.694.73.914 1.394.972 2.108.057.714-.779 3.929-1.061 4.705-.275.777-.894 1.049-1.793.916-.9-.132-1.94-.188-2.536-.433-.595-.245-.31-.63-.438-1.158-.127-.528-.475-.459-1.541.13-1.066.588-3.647 2.322-4.48 2.777-.833.462-1.39.867-2.427-.497-1.036-1.363-3.713-6.633-3.996-7.308z" fill="#FABC22"/>
    <path d="M3.966 20.404c.44-.4 1.259.377 1.783.482.504.084 1.133-.378 1.93-.378.819-.02 3.357 1.008 4.868 1.763 1.51.755 3.672 1.993 4.196 2.476.504.461.609.944.903 1.49.293.545 1.238 1.489 1.657 1.657.399.189.797.671.315 1.028-.65.482-.042.503-.21.965-.168.462-.713.378-.734.65-.063.567.356.441.168.924-.19.482-.735.356-.945.776-.188.399.252.504.084 1.007-.189.483-.63.21-.839.63-.21.42.483.566.084 1.09-.399.525-1.112.064-1.616.022-.524-.021-1.468.755-3.105.461-1.615-.273-4.469-1.91-5.266-2.37-.798-.462-2.33-1.28-3.21-1.826-.86-.567-1.217-1.595-1.47-2.308-.25-.713-.482-1.28-.964-1.51-.483-.232-1.133-.504-1.05-.966.064-.44.504-.336.735-.734.23-.399-.315-.525.021-.986.315-.483.609-.147.881-.546.273-.399-.293-.378.126-.923.168-.21.504 0 .735-.315.23-.315-.252-.671.083-1.007.315-.357.504-.084.714-.42.21-.335-.21-.797.126-1.133z" fill="#FBB6D3"/>
    <path d="M14.31 32.761c-.147-.608-.273-1.196-1.3-1.888-1.029-.693-3.568-1.973-4.89-2.581-1.321-.609-1.993-.567-2.643-.21-.65.357-1.406-.02-1.343.462.063.482.483 1.91 1.448 2.538.986.609 4.05 2.245 5.161 2.812 1.112.567 1.658.65 2.413.65.776.021 1.406-.188 1.658-.44.251-.252-.336-.755-.504-1.343zM12.17 25.334c.713.168 2.454.609 1.846 1.973-.608 1.364-1.217 1.51-2.476.461s-1.867-.734-2.455-1.112c-.608-.356-.881-.797-.461-1.678.44-.902 1.217-.965 1.867-.693.65.273.944.86 1.679 1.05z" fill="#F56690"/>
  </g>
  <defs>
    <clipPath id="clip0">
      <path fill="#fff" d="M0 0h36v36H0z"/>
    </clipPath>
  </defs>
</svg>
