<svg width="36" height="36" fill="none" xmlns="http://www.w3.org/2000/svg">
  <path fill-rule="evenodd" clip-rule="evenodd" d="M20.779 2.612c-.683-.403-1.517-.614-2.522-.612-1.01.003-1.83.207-2.484.588-.65.379-1.165.949-1.542 1.736-.765 1.597-.95 4.072-.459 7.505l-.99.141c-.498-3.49-.348-6.209.547-8.078.453-.946 1.098-1.677 1.94-2.168.84-.489 1.842-.721 2.986-.724 1.149-.003 2.166.24 3.032.75.867.513 1.55 1.275 2.058 2.263 1.006 1.957 1.335 4.822 1.064 8.524l-.997-.074c.267-3.642-.077-6.283-.956-7.992-.434-.846-.996-1.457-1.677-1.859z" fill="#0073E6"/>
  <path fill-rule="evenodd" clip-rule="evenodd" d="M6.321 16.04c-.027 1.306-.319 14.671-.32 15.583 0 .912-.144 2.845 2.432 2.867 2.577.023 17.564.001 19.197-.007 1.633-.008 2.423-.424 2.367-3.207-.056-2.783-.115-12.609-.197-15.049-.086-2.594-.184-6.659-1.265-6.7-1.611-.061-19.78.006-21.057-.027-1.084-.027-1.146 5.985-1.157 6.54z" fill="#0073E6"/>
  <path fill-rule="evenodd" clip-rule="evenodd" d="M8.299 9.545c1.13.018 19.437.055 20.087.066.65.01 1.08.75.387 1.144-.694.395-1.139.82-1.119 1.662.02.842.883 1.234 1.393 1.502.51.269.933 1.493-.458 1.586-1.39.093-19.116-.006-20.163-.012-1.047-.006-1.176-.997-.386-1.603.79-.605 1.403-.552 1.383-1.64-.01-.517-1.018-1.027-1.527-1.453-.603-.505-.062-1.26.403-1.252z" fill="#00C2FC"/>
  <path fill-rule="evenodd" clip-rule="evenodd" d="M21.268 8.55c-.662-.384-1.499-.577-2.54-.547-2.061.06-3.457.902-4.29 2.512-.858 1.66-1.148 4.194-.784 7.677l-.994.104c-.372-3.548-.103-6.32.89-8.24 1.02-1.971 2.77-2.983 5.149-3.052 1.179-.035 2.212.182 3.071.682.864.502 1.515 1.267 1.962 2.265.883 1.97.986 4.871.405 8.625l-.988-.152c.573-3.706.431-6.367-.33-8.064-.374-.835-.894-1.428-1.551-1.81z" fill="#0073E6"/>
</svg>
