<svg width="36" height="36" viewBox="0 0 36 36" fill="none" xmlns="http://www.w3.org/2000/svg">
    <path d="M25.1363 6.6573L22.5436 3.78513C22.5436 3.78513 21.5065 2.63629 20.6427 3.41212C19.7788 4.18795 4.54629 17.3484 3.6538 18.6701C2.7613 19.9917 6.679 23.7541 6.679 23.7541C7.45642 22.8826 10.6137 20.6623 13.0347 23.3443C15.4558 26.0264 13.154 28.3402 11.8644 29.4984C11.8697 30.6775 14.9918 33.6793 15.7821 33.2608C17.1931 32.5136 33.3468 17.4856 33.9227 16.9684C34.4986 16.4512 33.9801 15.8768 33.9801 15.8768L30.8688 12.4302C29.6498 13.005 27.5515 15.8613 24.1297 12.8246C21.3318 10.3416 24.2533 7.79701 25.1363 6.6573Z"
          fill="#FABC22"/>
</svg>
